<?xml version="1.0" encoding="UTF-8" standalone="no"?>
<!DOCTYPE svg PUBLIC "-//W3C//DTD SVG 1.1//EN"
 "http://www.w3.org/Graphics/SVG/1.1/DTD/svg11.dtd">
<!-- Generated by graphviz version 2.43.0 (0)
 -->
<!-- Title: inheritance438bb7c2eb Pages: 1 -->
<svg width="859pt" height="464pt"
 viewBox="0.00 0.00 859.49 464.00" xmlns="http://www.w3.org/2000/svg" xmlns:xlink="http://www.w3.org/1999/xlink">
<g id="graph0" class="graph" transform="scale(1 1) rotate(0) translate(4 460)">
<title>inheritance438bb7c2eb</title>
<polygon fill="white" stroke="transparent" points="-4,4 -4,-460 855.49,-460 855.49,4 -4,4"/>
<!-- BasisKet -->
<g id="node1" class="node">
<title>BasisKet</title>
<g id="a_node1"><a xlink:href="../API/qalgebra.core.state_algebra.html#qalgebra.core.state_algebra.BasisKet" xlink:title="Local basis state, identified by index or label" target="_top">
<polygon fill="none" stroke="black" stroke-width="0.5" points="831.71,-18 775.78,-18 775.78,0 831.71,0 831.71,-18"/>
<text text-anchor="middle" x="803.74" y="-6" font-family="Vera Sans, DejaVu Sans, Liberation Sans, Arial, Helvetica, sans" font-size="10.00">BasisKet</text>
</a>
</g>
</g>
<!-- LocalKet -->
<g id="node2" class="node">
<title>LocalKet</title>
<g id="a_node2"><a xlink:href="../API/qalgebra.core.state_algebra.html#qalgebra.core.state_algebra.LocalKet" xlink:title="A state on a :class:`LocalSpace`" target="_top">
<polygon fill="none" stroke="black" stroke-width="0.5" points="690.77,-54 635.94,-54 635.94,-36 690.77,-36 690.77,-54"/>
<text text-anchor="middle" x="663.36" y="-42" font-family="Vera Sans, DejaVu Sans, Liberation Sans, Arial, Helvetica, sans" font-size="10.00">LocalKet</text>
</a>
</g>
</g>
<!-- LocalKet&#45;&gt;BasisKet -->
<g id="edge1" class="edge">
<title>LocalKet&#45;&gt;BasisKet</title>
<path fill="none" stroke="black" stroke-width="0.5" d="M691.04,-38.06C713.77,-32.15 746.5,-23.63 770.65,-17.35"/>
<polygon fill="black" stroke="black" stroke-width="0.5" points="771.27,-19 775.67,-16.04 770.39,-15.61 771.27,-19"/>
</g>
<!-- CoherentStateKet -->
<g id="node10" class="node">
<title>CoherentStateKet</title>
<g id="a_node10"><a xlink:href="../API/qalgebra.core.state_algebra.html#qalgebra.core.state_algebra.CoherentStateKet" xlink:title="Local coherent state, labeled by a complex amplitude" target="_top">
<polygon fill="none" stroke="black" stroke-width="0.5" points="851.74,-54 755.75,-54 755.75,-36 851.74,-36 851.74,-54"/>
<text text-anchor="middle" x="803.74" y="-42" font-family="Vera Sans, DejaVu Sans, Liberation Sans, Arial, Helvetica, sans" font-size="10.00">CoherentStateKet</text>
</a>
</g>
</g>
<!-- LocalKet&#45;&gt;CoherentStateKet -->
<g id="edge7" class="edge">
<title>LocalKet&#45;&gt;CoherentStateKet</title>
<path fill="none" stroke="black" stroke-width="0.5" d="M691.04,-45C707.98,-45 730.48,-45 750.84,-45"/>
<polygon fill="black" stroke="black" stroke-width="0.5" points="750.96,-46.75 755.96,-45 750.96,-43.25 750.96,-46.75"/>
</g>
<!-- KetSymbol -->
<g id="node3" class="node">
<title>KetSymbol</title>
<g id="a_node3"><a xlink:href="../API/qalgebra.core.state_algebra.html#qalgebra.core.state_algebra.KetSymbol" xlink:title="Symbolic state" target="_top">
<polygon fill="none" stroke="black" stroke-width="0.5" points="695.71,-18 631,-18 631,0 695.71,0 695.71,-18"/>
<text text-anchor="middle" x="663.36" y="-6" font-family="Vera Sans, DejaVu Sans, Liberation Sans, Arial, Helvetica, sans" font-size="10.00">KetSymbol</text>
</a>
</g>
</g>
<!-- KetSymbol&#45;&gt;BasisKet -->
<g id="edge2" class="edge">
<title>KetSymbol&#45;&gt;BasisKet</title>
<path fill="none" stroke="black" stroke-width="0.5" d="M695.76,-9C718.05,-9 747.9,-9 770.41,-9"/>
<polygon fill="black" stroke="black" stroke-width="0.5" points="770.67,-10.75 775.67,-9 770.67,-7.25 770.67,-10.75"/>
</g>
<!-- Bra -->
<g id="node4" class="node">
<title>Bra</title>
<g id="a_node4"><a xlink:href="../API/qalgebra.core.state_algebra.html#qalgebra.core.state_algebra.Bra" xlink:title="The associated dual/adjoint state for any ket" target="_top">
<polygon fill="none" stroke="black" stroke-width="0.5" points="830.74,-236 776.74,-236 776.74,-218 830.74,-218 830.74,-236"/>
<text text-anchor="middle" x="803.74" y="-224" font-family="Vera Sans, DejaVu Sans, Liberation Sans, Arial, Helvetica, sans" font-size="10.00">Bra</text>
</a>
</g>
</g>
<!-- State -->
<g id="node5" class="node">
<title>State</title>
<g id="a_node5"><a xlink:href="../API/qalgebra.core.state_algebra.html#qalgebra.core.state_algebra.State" xlink:title="Base class for states in a Hilbert space" target="_top">
<polygon fill="none" stroke="black" stroke-width="0.5" points="533.29,-125 479.29,-125 479.29,-107 533.29,-107 533.29,-125"/>
<text text-anchor="middle" x="506.29" y="-113" font-family="Vera Sans, DejaVu Sans, Liberation Sans, Arial, Helvetica, sans" font-size="10.00">State</text>
</a>
</g>
</g>
<!-- State&#45;&gt;LocalKet -->
<g id="edge17" class="edge">
<title>State&#45;&gt;LocalKet</title>
<path fill="none" stroke="black" stroke-width="0.5" d="M525.47,-106.83C545.29,-96.93 578.02,-80.84 606.72,-68 615.73,-63.96 625.67,-59.77 634.63,-56.09"/>
<polygon fill="black" stroke="black" stroke-width="0.5" points="635.52,-57.62 639.49,-54.1 634.2,-54.38 635.52,-57.62"/>
</g>
<!-- State&#45;&gt;KetSymbol -->
<g id="edge16" class="edge">
<title>State&#45;&gt;KetSymbol</title>
<path fill="none" stroke="black" stroke-width="0.5" d="M515.11,-106.81C530.74,-88.96 567.75,-49.39 606.72,-27 612.68,-23.57 619.38,-20.7 626.01,-18.33"/>
<polygon fill="black" stroke="black" stroke-width="0.5" points="626.89,-19.88 631.06,-16.61 625.76,-16.56 626.89,-19.88"/>
</g>
<!-- State&#45;&gt;Bra -->
<g id="edge3" class="edge">
<title>State&#45;&gt;Bra</title>
<path fill="none" stroke="black" stroke-width="0.5" d="M532.66,-106.97C574.45,-93.73 659.18,-73.91 720,-106 763.47,-128.94 788.44,-186.13 798.09,-212.84"/>
<polygon fill="black" stroke="black" stroke-width="0.5" points="796.51,-213.62 799.81,-217.76 799.81,-212.46 796.51,-213.62"/>
</g>
<!-- KetIndexedSum -->
<g id="node15" class="node">
<title>KetIndexedSum</title>
<g id="a_node15"><a xlink:href="../API/qalgebra.core.state_algebra.html#qalgebra.core.state_algebra.KetIndexedSum" xlink:title="Indexed sum over Kets" target="_top">
<polygon fill="none" stroke="black" stroke-width="0.5" points="847.4,-311 760.09,-311 760.09,-293 847.4,-293 847.4,-311"/>
<text text-anchor="middle" x="803.74" y="-299" font-family="Vera Sans, DejaVu Sans, Liberation Sans, Arial, Helvetica, sans" font-size="10.00">KetIndexedSum</text>
</a>
</g>
</g>
<!-- State&#45;&gt;KetIndexedSum -->
<g id="edge11" class="edge">
<title>State&#45;&gt;KetIndexedSum</title>
<path fill="none" stroke="black" stroke-width="0.5" d="M533.39,-122.05C587.12,-134.71 706.26,-163.91 720,-177 756.01,-211.32 721.86,-246.8 756,-283 758.64,-285.8 761.76,-288.21 765.11,-290.26"/>
<polygon fill="black" stroke="black" stroke-width="0.5" points="764.57,-291.96 769.79,-292.85 766.26,-288.9 764.57,-291.96"/>
</g>
<!-- KetPlus -->
<g id="node17" class="node">
<title>KetPlus</title>
<g id="a_node17"><a xlink:href="../API/qalgebra.core.state_algebra.html#qalgebra.core.state_algebra.KetPlus" xlink:title="Sum of states" target="_top">
<polygon fill="none" stroke="black" stroke-width="0.5" points="690.36,-276 636.36,-276 636.36,-258 690.36,-258 690.36,-276"/>
<text text-anchor="middle" x="663.36" y="-264" font-family="Vera Sans, DejaVu Sans, Liberation Sans, Arial, Helvetica, sans" font-size="10.00">KetPlus</text>
</a>
</g>
</g>
<!-- State&#45;&gt;KetPlus -->
<g id="edge13" class="edge">
<title>State&#45;&gt;KetPlus</title>
<path fill="none" stroke="black" stroke-width="0.5" d="M520.39,-125.03C534.31,-135.15 556.28,-152.71 570.72,-172 593.35,-202.25 578.39,-224 606.72,-249 613.65,-255.12 622.7,-259.17 631.48,-261.84"/>
<polygon fill="black" stroke="black" stroke-width="0.5" points="631.02,-263.53 636.31,-263.18 631.96,-260.16 631.02,-263.53"/>
</g>
<!-- OperatorTimesKet -->
<g id="node21" class="node">
<title>OperatorTimesKet</title>
<g id="a_node21"><a xlink:href="../API/qalgebra.core.state_algebra.html#qalgebra.core.state_algebra.OperatorTimesKet" xlink:title="Product of an operator and a state." target="_top">
<polygon fill="none" stroke="black" stroke-width="0.5" points="712.18,-312 614.53,-312 614.53,-294 712.18,-294 712.18,-312"/>
<text text-anchor="middle" x="663.36" y="-300" font-family="Vera Sans, DejaVu Sans, Liberation Sans, Arial, Helvetica, sans" font-size="10.00">OperatorTimesKet</text>
</a>
</g>
</g>
<!-- State&#45;&gt;OperatorTimesKet -->
<g id="edge20" class="edge">
<title>State&#45;&gt;OperatorTimesKet</title>
<path fill="none" stroke="black" stroke-width="0.5" d="M521.41,-125.04C535.77,-134.94 557.72,-152.07 570.72,-172 599.51,-216.15 569.53,-247.65 606.72,-285 609.11,-287.41 611.83,-289.49 614.75,-291.3"/>
<polygon fill="black" stroke="black" stroke-width="0.5" points="614.27,-293.03 619.49,-293.92 615.96,-289.97 614.27,-293.03"/>
</g>
<!-- ScalarTimesKet -->
<g id="node27" class="node">
<title>ScalarTimesKet</title>
<g id="a_node27"><a xlink:href="../API/qalgebra.core.state_algebra.html#qalgebra.core.state_algebra.ScalarTimesKet" xlink:title="Product of a :class:`.Scalar` coefficient and a ket" target="_top">
<polygon fill="none" stroke="black" stroke-width="0.5" points="706.57,-204 620.15,-204 620.15,-186 706.57,-186 706.57,-204"/>
<text text-anchor="middle" x="663.36" y="-192" font-family="Vera Sans, DejaVu Sans, Liberation Sans, Arial, Helvetica, sans" font-size="10.00">ScalarTimesKet</text>
</a>
</g>
</g>
<!-- State&#45;&gt;ScalarTimesKet -->
<g id="edge34" class="edge">
<title>State&#45;&gt;ScalarTimesKet</title>
<path fill="none" stroke="black" stroke-width="0.5" d="M533.34,-122.89C545.23,-126.67 559.2,-132.02 570.72,-139 589.28,-150.25 588.41,-160.34 606.72,-172 613.94,-176.6 622.25,-180.62 630.2,-183.95"/>
<polygon fill="black" stroke="black" stroke-width="0.5" points="629.8,-185.67 635.09,-185.93 631.12,-182.43 629.8,-185.67"/>
</g>
<!-- StateDerivative -->
<g id="node29" class="node">
<title>StateDerivative</title>
<g id="a_node29"><a xlink:href="../API/qalgebra.core.state_algebra.html#qalgebra.core.state_algebra.StateDerivative" xlink:title="Symbolic partial derivative of a state" target="_top">
<polygon fill="none" stroke="black" stroke-width="0.5" points="845.55,-274 761.94,-274 761.94,-256 845.55,-256 845.55,-274"/>
<text text-anchor="middle" x="803.74" y="-262" font-family="Vera Sans, DejaVu Sans, Liberation Sans, Arial, Helvetica, sans" font-size="10.00">StateDerivative</text>
</a>
</g>
</g>
<!-- State&#45;&gt;StateDerivative -->
<g id="edge41" class="edge">
<title>State&#45;&gt;StateDerivative</title>
<path fill="none" stroke="black" stroke-width="0.5" d="M533.51,-111.47C577.3,-105.46 665.82,-100.22 720,-144 757.06,-173.95 723.36,-210.28 756,-245 759.1,-248.31 762.85,-251.09 766.85,-253.43"/>
<polygon fill="black" stroke="black" stroke-width="0.5" points="766.04,-254.98 771.27,-255.8 767.69,-251.9 766.04,-254.98"/>
</g>
<!-- TensorKet -->
<g id="node30" class="node">
<title>TensorKet</title>
<g id="a_node30"><a xlink:href="../API/qalgebra.core.state_algebra.html#qalgebra.core.state_algebra.TensorKet" xlink:title="A tensor product of kets" target="_top">
<polygon fill="none" stroke="black" stroke-width="0.5" points="693.88,-240 632.83,-240 632.83,-222 693.88,-222 693.88,-240"/>
<text text-anchor="middle" x="663.36" y="-228" font-family="Vera Sans, DejaVu Sans, Liberation Sans, Arial, Helvetica, sans" font-size="10.00">TensorKet</text>
</a>
</g>
</g>
<!-- State&#45;&gt;TensorKet -->
<g id="edge42" class="edge">
<title>State&#45;&gt;TensorKet</title>
<path fill="none" stroke="black" stroke-width="0.5" d="M518.45,-125.11C531.42,-135.87 553.29,-154.53 570.72,-172 587.84,-189.17 586.45,-199.68 606.72,-213 613.06,-217.17 620.44,-220.44 627.71,-222.98"/>
<polygon fill="black" stroke="black" stroke-width="0.5" points="627.42,-224.72 632.72,-224.62 628.51,-221.4 627.42,-224.72"/>
</g>
<!-- QuantumAdjoint -->
<g id="node6" class="node">
<title>QuantumAdjoint</title>
<g id="a_node6"><a xlink:href="../API/qalgebra.core.abstract_quantum_algebra.html#qalgebra.core.abstract_quantum_algebra.QuantumAdjoint" xlink:title="Base class for adjoints of quantum expressions" target="_top">
<polygon fill="none" stroke="black" stroke-width="0.5" points="707.07,-384 619.65,-384 619.65,-366 707.07,-366 707.07,-384"/>
<text text-anchor="middle" x="663.36" y="-372" font-family="Vera Sans, DejaVu Sans, Liberation Sans, Arial, Helvetica, sans" font-size="10.00">QuantumAdjoint</text>
</a>
</g>
</g>
<!-- QuantumAdjoint&#45;&gt;Bra -->
<g id="edge4" class="edge">
<title>QuantumAdjoint&#45;&gt;Bra</title>
<path fill="none" stroke="black" stroke-width="0.5" d="M707.2,-365.89C711.91,-363.57 716.33,-360.66 720,-357 756.43,-320.69 721.26,-284.94 756,-247 760.28,-242.32 765.84,-238.69 771.63,-235.89"/>
<polygon fill="black" stroke="black" stroke-width="0.5" points="772.66,-237.35 776.52,-233.73 771.24,-234.15 772.66,-237.35"/>
</g>
<!-- BraKet -->
<g id="node7" class="node">
<title>BraKet</title>
<g id="a_node7"><a xlink:href="../API/qalgebra.core.state_algebra.html#qalgebra.core.state_algebra.BraKet" xlink:title="The symbolic inner product between two states" target="_top">
<polygon fill="none" stroke="black" stroke-width="0.5" points="690.36,-348 636.36,-348 636.36,-330 690.36,-330 690.36,-348"/>
<text text-anchor="middle" x="663.36" y="-336" font-family="Vera Sans, DejaVu Sans, Liberation Sans, Arial, Helvetica, sans" font-size="10.00">BraKet</text>
</a>
</g>
</g>
<!-- ScalarExpression -->
<g id="node8" class="node">
<title>ScalarExpression</title>
<g id="a_node8"><a xlink:href="../API/qalgebra.core.scalar_algebra.html#qalgebra.core.scalar_algebra.ScalarExpression" xlink:title="Base class for scalars with non&#45;scalar arguments" target="_top">
<polygon fill="none" stroke="black" stroke-width="0.5" points="553.11,-199 459.48,-199 459.48,-181 553.11,-181 553.11,-199"/>
<text text-anchor="middle" x="506.29" y="-187" font-family="Vera Sans, DejaVu Sans, Liberation Sans, Arial, Helvetica, sans" font-size="10.00">ScalarExpression</text>
</a>
</g>
</g>
<!-- ScalarExpression&#45;&gt;BraKet -->
<g id="edge5" class="edge">
<title>ScalarExpression&#45;&gt;BraKet</title>
<path fill="none" stroke="black" stroke-width="0.5" d="M553.22,-197.09C559.68,-199.69 565.78,-203.22 570.72,-208 608.58,-244.67 569.53,-283.65 606.72,-321 613.3,-327.62 622.34,-331.8 631.21,-334.45"/>
<polygon fill="black" stroke="black" stroke-width="0.5" points="630.83,-336.16 636.11,-335.77 631.74,-332.78 630.83,-336.16"/>
</g>
<!-- Operation -->
<g id="node9" class="node">
<title>Operation</title>
<g id="a_node9"><a xlink:href="../API/qalgebra.core.abstract_algebra.html#qalgebra.core.abstract_algebra.Operation" xlink:title="Base class for &quot;operations&quot;" target="_top">
<polygon fill="none" stroke="black" stroke-width="0.5" points="184.68,-307 124.85,-307 124.85,-289 184.68,-289 184.68,-307"/>
<text text-anchor="middle" x="154.77" y="-295" font-family="Vera Sans, DejaVu Sans, Liberation Sans, Arial, Helvetica, sans" font-size="10.00">Operation</text>
</a>
</g>
</g>
<!-- Operation&#45;&gt;BraKet -->
<g id="edge6" class="edge">
<title>Operation&#45;&gt;BraKet</title>
<path fill="none" stroke="black" stroke-width="0.5" d="M172.43,-307.01C189.75,-315.84 217.94,-328.72 244.07,-334 385.94,-362.69 560.44,-349.74 630.77,-342.59"/>
<polygon fill="black" stroke="black" stroke-width="0.5" points="631.26,-344.3 636.06,-342.05 630.9,-340.82 631.26,-344.3"/>
</g>
<!-- IndexedSum -->
<g id="node12" class="node">
<title>IndexedSum</title>
<g id="a_node12"><a xlink:href="../API/qalgebra.core.indexed_operations.html#qalgebra.core.indexed_operations.IndexedSum" xlink:title="Base class for indexed sums" target="_top">
<polygon fill="none" stroke="black" stroke-width="0.5" points="361.12,-437 288.82,-437 288.82,-419 361.12,-419 361.12,-437"/>
<text text-anchor="middle" x="324.97" y="-425" font-family="Vera Sans, DejaVu Sans, Liberation Sans, Arial, Helvetica, sans" font-size="10.00">IndexedSum</text>
</a>
</g>
</g>
<!-- Operation&#45;&gt;IndexedSum -->
<g id="edge8" class="edge">
<title>Operation&#45;&gt;IndexedSum</title>
<path fill="none" stroke="black" stroke-width="0.5" d="M163.02,-307.01C177.2,-324.2 210.17,-362.19 244.07,-387 260.49,-399.02 280.93,-409.44 297.03,-416.76"/>
<polygon fill="black" stroke="black" stroke-width="0.5" points="296.6,-418.49 301.87,-418.94 298.03,-415.29 296.6,-418.49"/>
</g>
<!-- KetBra -->
<g id="node13" class="node">
<title>KetBra</title>
<g id="a_node13"><a xlink:href="../API/qalgebra.core.state_algebra.html#qalgebra.core.state_algebra.KetBra" xlink:title="Outer product of two states" target="_top">
<polygon fill="none" stroke="black" stroke-width="0.5" points="533.29,-235 479.29,-235 479.29,-217 533.29,-217 533.29,-235"/>
<text text-anchor="middle" x="506.29" y="-223" font-family="Vera Sans, DejaVu Sans, Liberation Sans, Arial, Helvetica, sans" font-size="10.00">KetBra</text>
</a>
</g>
</g>
<!-- Operation&#45;&gt;KetBra -->
<g id="edge10" class="edge">
<title>Operation&#45;&gt;KetBra</title>
<path fill="none" stroke="black" stroke-width="0.5" d="M184.97,-291.99C250.05,-278.58 406.55,-246.34 473.76,-232.5"/>
<polygon fill="black" stroke="black" stroke-width="0.5" points="474.28,-234.17 478.83,-231.45 473.58,-230.75 474.28,-234.17"/>
</g>
<!-- Operation&#45;&gt;OperatorTimesKet -->
<g id="edge21" class="edge">
<title>Operation&#45;&gt;OperatorTimesKet</title>
<path fill="none" stroke="black" stroke-width="0.5" d="M184.97,-305.49C202.07,-309.49 224.14,-313.99 244.07,-316 388.51,-330.57 425.9,-326.22 570.72,-316 583.31,-315.11 596.81,-313.54 609.46,-311.8"/>
<polygon fill="black" stroke="black" stroke-width="0.5" points="609.75,-313.52 614.46,-311.09 609.26,-310.06 609.75,-313.52"/>
</g>
<!-- QuantumOperation -->
<g id="node24" class="node">
<title>QuantumOperation</title>
<g id="a_node24"><a xlink:href="../API/qalgebra.core.abstract_quantum_algebra.html#qalgebra.core.abstract_quantum_algebra.QuantumOperation" xlink:title="Base class for operations on quantum expression" target="_top">
<polygon fill="none" stroke="black" stroke-width="0.5" points="375.52,-307 274.42,-307 274.42,-289 375.52,-289 375.52,-307"/>
<text text-anchor="middle" x="324.97" y="-295" font-family="Vera Sans, DejaVu Sans, Liberation Sans, Arial, Helvetica, sans" font-size="10.00">QuantumOperation</text>
</a>
</g>
</g>
<!-- Operation&#45;&gt;QuantumOperation -->
<g id="edge28" class="edge">
<title>Operation&#45;&gt;QuantumOperation</title>
<path fill="none" stroke="black" stroke-width="0.5" d="M185.07,-298C208.19,-298 241.11,-298 269.1,-298"/>
<polygon fill="black" stroke="black" stroke-width="0.5" points="269.26,-299.75 274.26,-298 269.26,-296.25 269.26,-299.75"/>
</g>
<!-- ScalarTimesQuantumExpression -->
<g id="node28" class="node">
<title>ScalarTimesQuantumExpression</title>
<g id="a_node28"><a xlink:href="../API/qalgebra.core.abstract_quantum_algebra.html#qalgebra.core.abstract_quantum_algebra.ScalarTimesQuantumExpression" xlink:title="Product of a :class:`.Scalar` and a :class:`QuantumExpression`" target="_top">
<polygon fill="none" stroke="black" stroke-width="0.5" points="405.77,-161 244.17,-161 244.17,-143 405.77,-143 405.77,-161"/>
<text text-anchor="middle" x="324.97" y="-149" font-family="Vera Sans, DejaVu Sans, Liberation Sans, Arial, Helvetica, sans" font-size="10.00">ScalarTimesQuantumExpression</text>
</a>
</g>
</g>
<!-- Operation&#45;&gt;ScalarTimesQuantumExpression -->
<g id="edge37" class="edge">
<title>Operation&#45;&gt;ScalarTimesQuantumExpression</title>
<path fill="none" stroke="black" stroke-width="0.5" d="M161.02,-288.62C176.21,-261.84 220.58,-185.87 244.07,-170 248.13,-167.25 252.55,-164.92 257.16,-162.94"/>
<polygon fill="black" stroke="black" stroke-width="0.5" points="257.83,-164.56 261.82,-161.07 256.53,-161.31 257.83,-164.56"/>
</g>
<!-- Expression -->
<g id="node11" class="node">
<title>Expression</title>
<g id="a_node11"><a xlink:href="../API/qalgebra.core.abstract_algebra.html#qalgebra.core.abstract_algebra.Expression" xlink:title="Base class for all QAlgebra Expressions" target="_top">
<polygon fill="none" stroke="black" stroke-width="0.5" points="65.7,-252 -0.24,-252 -0.24,-234 65.7,-234 65.7,-252"/>
<text text-anchor="middle" x="32.73" y="-240" font-family="Vera Sans, DejaVu Sans, Liberation Sans, Arial, Helvetica, sans" font-size="10.00">Expression</text>
</a>
</g>
</g>
<!-- Expression&#45;&gt;Operation -->
<g id="edge18" class="edge">
<title>Expression&#45;&gt;Operation</title>
<path fill="none" stroke="black" stroke-width="0.5" d="M53.56,-252.08C74.32,-261.6 106.96,-276.55 129.31,-286.79"/>
<polygon fill="black" stroke="black" stroke-width="0.5" points="128.64,-288.41 133.92,-288.9 130.1,-285.23 128.64,-288.41"/>
</g>
<!-- QuantumExpression -->
<g id="node20" class="node">
<title>QuantumExpression</title>
<g id="a_node20"><a xlink:href="../API/qalgebra.core.abstract_quantum_algebra.html#qalgebra.core.abstract_quantum_algebra.QuantumExpression" xlink:title="Base class for expressions associated with a Hilbert space" target="_top">
<polygon fill="none" stroke="black" stroke-width="0.5" points="207.87,-197 101.67,-197 101.67,-179 207.87,-179 207.87,-197"/>
<text text-anchor="middle" x="154.77" y="-185" font-family="Vera Sans, DejaVu Sans, Liberation Sans, Arial, Helvetica, sans" font-size="10.00">QuantumExpression</text>
</a>
</g>
</g>
<!-- Expression&#45;&gt;QuantumExpression -->
<g id="edge24" class="edge">
<title>Expression&#45;&gt;QuantumExpression</title>
<path fill="none" stroke="black" stroke-width="0.5" d="M53.56,-233.92C74.32,-224.4 106.96,-209.45 129.31,-199.21"/>
<polygon fill="black" stroke="black" stroke-width="0.5" points="130.1,-200.77 133.92,-197.1 128.64,-197.59 130.1,-200.77"/>
</g>
<!-- QuantumIndexedSum -->
<g id="node16" class="node">
<title>QuantumIndexedSum</title>
<g id="a_node16"><a xlink:href="../API/qalgebra.core.abstract_quantum_algebra.html#qalgebra.core.abstract_quantum_algebra.QuantumIndexedSum" xlink:title="Base class for indexed sums" target="_top">
<polygon fill="none" stroke="black" stroke-width="0.5" points="720.14,-456 606.58,-456 606.58,-438 720.14,-438 720.14,-456"/>
<text text-anchor="middle" x="663.36" y="-444" font-family="Vera Sans, DejaVu Sans, Liberation Sans, Arial, Helvetica, sans" font-size="10.00">QuantumIndexedSum</text>
</a>
</g>
</g>
<!-- IndexedSum&#45;&gt;QuantumIndexedSum -->
<g id="edge25" class="edge">
<title>IndexedSum&#45;&gt;QuantumIndexedSum</title>
<path fill="none" stroke="black" stroke-width="0.5" d="M361.33,-430C418.3,-433.21 531.07,-439.58 601.26,-443.55"/>
<polygon fill="black" stroke="black" stroke-width="0.5" points="601.56,-445.32 606.65,-443.85 601.76,-441.82 601.56,-445.32"/>
</g>
<!-- Operator -->
<g id="node14" class="node">
<title>Operator</title>
<g id="a_node14"><a xlink:href="../API/qalgebra.core.operator_algebra.html#qalgebra.core.operator_algebra.Operator" xlink:title="Base class for all quantum operators." target="_top">
<polygon fill="none" stroke="black" stroke-width="0.5" points="352.93,-233 297,-233 297,-215 352.93,-215 352.93,-233"/>
<text text-anchor="middle" x="324.97" y="-221" font-family="Vera Sans, DejaVu Sans, Liberation Sans, Arial, Helvetica, sans" font-size="10.00">Operator</text>
</a>
</g>
</g>
<!-- Operator&#45;&gt;KetBra -->
<g id="edge9" class="edge">
<title>Operator&#45;&gt;KetBra</title>
<path fill="none" stroke="black" stroke-width="0.5" d="M352.82,-224.3C385.18,-224.66 439.5,-225.27 473.81,-225.65"/>
<polygon fill="black" stroke="black" stroke-width="0.5" points="474.12,-227.4 479.14,-225.71 474.16,-223.9 474.12,-227.4"/>
</g>
<!-- QuantumIndexedSum&#45;&gt;KetIndexedSum -->
<g id="edge12" class="edge">
<title>QuantumIndexedSum&#45;&gt;KetIndexedSum</title>
<path fill="none" stroke="black" stroke-width="0.5" d="M704.04,-437.89C709.72,-435.56 715.24,-432.64 720,-429 760.16,-398.27 786.66,-342.1 797.37,-316.01"/>
<polygon fill="black" stroke="black" stroke-width="0.5" points="799.06,-316.5 799.3,-311.21 795.81,-315.2 799.06,-316.5"/>
</g>
<!-- QuantumPlus -->
<g id="node18" class="node">
<title>QuantumPlus</title>
<g id="a_node18"><a xlink:href="../API/qalgebra.core.abstract_quantum_algebra.html#qalgebra.core.abstract_quantum_algebra.QuantumPlus" xlink:title="General implementation of addition of quantum expressions" target="_top">
<polygon fill="none" stroke="black" stroke-width="0.5" points="544.38,-307 468.21,-307 468.21,-289 544.38,-289 544.38,-307"/>
<text text-anchor="middle" x="506.29" y="-295" font-family="Vera Sans, DejaVu Sans, Liberation Sans, Arial, Helvetica, sans" font-size="10.00">QuantumPlus</text>
</a>
</g>
</g>
<!-- QuantumPlus&#45;&gt;KetPlus -->
<g id="edge14" class="edge">
<title>QuantumPlus&#45;&gt;KetPlus</title>
<path fill="none" stroke="black" stroke-width="0.5" d="M544.43,-290.57C570.87,-285.29 605.99,-278.27 631.01,-273.27"/>
<polygon fill="black" stroke="black" stroke-width="0.5" points="631.63,-274.93 636.19,-272.23 630.95,-271.5 631.63,-274.93"/>
</g>
<!-- QuantumSymbol -->
<g id="node19" class="node">
<title>QuantumSymbol</title>
<g id="a_node19"><a xlink:href="../API/qalgebra.core.abstract_quantum_algebra.html#qalgebra.core.abstract_quantum_algebra.QuantumSymbol" xlink:title="Symbolic element of an algebra" target="_top">
<polygon fill="none" stroke="black" stroke-width="0.5" points="370.45,-70 279.49,-70 279.49,-52 370.45,-52 370.45,-70"/>
<text text-anchor="middle" x="324.97" y="-58" font-family="Vera Sans, DejaVu Sans, Liberation Sans, Arial, Helvetica, sans" font-size="10.00">QuantumSymbol</text>
</a>
</g>
</g>
<!-- QuantumSymbol&#45;&gt;KetSymbol -->
<g id="edge15" class="edge">
<title>QuantumSymbol&#45;&gt;KetSymbol</title>
<path fill="none" stroke="black" stroke-width="0.5" d="M370.29,-54.15C437.45,-43.77 563.72,-24.25 625.89,-14.64"/>
<polygon fill="black" stroke="black" stroke-width="0.5" points="626.3,-16.34 630.98,-13.85 625.77,-12.89 626.3,-16.34"/>
</g>
<!-- QuantumExpression&#45;&gt;State -->
<g id="edge39" class="edge">
<title>QuantumExpression&#45;&gt;State</title>
<path fill="none" stroke="black" stroke-width="0.5" d="M166.61,-178.94C182.46,-166.28 213.43,-143.78 244.07,-134 323.67,-108.6 423.63,-110.4 473.68,-113.43"/>
<polygon fill="black" stroke="black" stroke-width="0.5" points="473.84,-115.19 478.94,-113.76 474.06,-111.7 473.84,-115.19"/>
</g>
<!-- QuantumExpression&#45;&gt;Operator -->
<g id="edge19" class="edge">
<title>QuantumExpression&#45;&gt;Operator</title>
<path fill="none" stroke="black" stroke-width="0.5" d="M198.21,-197.08C227.32,-203.31 265.33,-211.45 291.91,-217.14"/>
<polygon fill="black" stroke="black" stroke-width="0.5" points="291.81,-218.91 297.07,-218.24 292.54,-215.48 291.81,-218.91"/>
</g>
<!-- QuantumExpression&#45;&gt;QuantumSymbol -->
<g id="edge30" class="edge">
<title>QuantumExpression&#45;&gt;QuantumSymbol</title>
<path fill="none" stroke="black" stroke-width="0.5" d="M163.26,-178.91C177.6,-161.96 210.46,-125.04 244.07,-101 260.3,-89.38 280.41,-79.34 296.39,-72.22"/>
<polygon fill="black" stroke="black" stroke-width="0.5" points="297.33,-73.72 301.2,-70.11 295.92,-70.51 297.33,-73.72"/>
</g>
<!-- QuantumExpression&#45;&gt;QuantumOperation -->
<g id="edge27" class="edge">
<title>QuantumExpression&#45;&gt;QuantumOperation</title>
<path fill="none" stroke="black" stroke-width="0.5" d="M169.53,-197C199.72,-216.74 271.74,-263.84 305.68,-286.04"/>
<polygon fill="black" stroke="black" stroke-width="0.5" points="304.87,-287.6 310.01,-288.87 306.79,-284.67 304.87,-287.6"/>
</g>
<!-- Scalar -->
<g id="node26" class="node">
<title>Scalar</title>
<g id="a_node26"><a xlink:href="../API/qalgebra.core.scalar_algebra.html#qalgebra.core.scalar_algebra.Scalar" xlink:title="Base class for Scalars" target="_top">
<polygon fill="none" stroke="black" stroke-width="0.5" points="351.97,-197 297.97,-197 297.97,-179 351.97,-179 351.97,-197"/>
<text text-anchor="middle" x="324.97" y="-185" font-family="Vera Sans, DejaVu Sans, Liberation Sans, Arial, Helvetica, sans" font-size="10.00">Scalar</text>
</a>
</g>
</g>
<!-- QuantumExpression&#45;&gt;Scalar -->
<g id="edge32" class="edge">
<title>QuantumExpression&#45;&gt;Scalar</title>
<path fill="none" stroke="black" stroke-width="0.5" d="M208.07,-188C235.68,-188 268.66,-188 292.36,-188"/>
<polygon fill="black" stroke="black" stroke-width="0.5" points="292.58,-189.75 297.58,-188 292.58,-186.25 292.58,-189.75"/>
</g>
<!-- QuantumExpression&#45;&gt;ScalarTimesQuantumExpression -->
<g id="edge36" class="edge">
<title>QuantumExpression&#45;&gt;ScalarTimesQuantumExpression</title>
<path fill="none" stroke="black" stroke-width="0.5" d="M198.21,-178.92C222.11,-173.8 252.01,-167.4 276.65,-162.13"/>
<polygon fill="black" stroke="black" stroke-width="0.5" points="277.31,-163.78 281.83,-161.02 276.57,-160.35 277.31,-163.78"/>
</g>
<!-- SingleQuantumOperation -->
<g id="node22" class="node">
<title>SingleQuantumOperation</title>
<g id="a_node22"><a xlink:href="../API/qalgebra.core.abstract_quantum_algebra.html#qalgebra.core.abstract_quantum_algebra.SingleQuantumOperation" xlink:title="Base class for operations on a single quantum expression" target="_top">
<polygon fill="none" stroke="black" stroke-width="0.5" points="570.64,-419 441.95,-419 441.95,-401 570.64,-401 570.64,-419"/>
<text text-anchor="middle" x="506.29" y="-407" font-family="Vera Sans, DejaVu Sans, Liberation Sans, Arial, Helvetica, sans" font-size="10.00">SingleQuantumOperation</text>
</a>
</g>
</g>
<!-- SingleQuantumOperation&#45;&gt;QuantumAdjoint -->
<g id="edge22" class="edge">
<title>SingleQuantumOperation&#45;&gt;QuantumAdjoint</title>
<path fill="none" stroke="black" stroke-width="0.5" d="M547.23,-400.99C568.67,-396.15 595.17,-390.17 617.34,-385.16"/>
<polygon fill="black" stroke="black" stroke-width="0.5" points="617.8,-386.85 622.29,-384.04 617.03,-383.44 617.8,-386.85"/>
</g>
<!-- SingleQuantumOperation&#45;&gt;QuantumIndexedSum -->
<g id="edge26" class="edge">
<title>SingleQuantumOperation&#45;&gt;QuantumIndexedSum</title>
<path fill="none" stroke="black" stroke-width="0.5" d="M545.23,-419.05C567.74,-424.42 596.35,-431.25 619.66,-436.81"/>
<polygon fill="black" stroke="black" stroke-width="0.5" points="619.28,-438.52 624.55,-437.98 620.09,-435.12 619.28,-438.52"/>
</g>
<!-- QuantumDerivative -->
<g id="node23" class="node">
<title>QuantumDerivative</title>
<g id="a_node23"><a xlink:href="../API/qalgebra.core.abstract_quantum_algebra.html#qalgebra.core.abstract_quantum_algebra.QuantumDerivative" xlink:title="Symbolic partial derivative" target="_top">
<polygon fill="none" stroke="black" stroke-width="0.5" points="713.95,-420 612.76,-420 612.76,-402 713.95,-402 713.95,-420"/>
<text text-anchor="middle" x="663.36" y="-408" font-family="Vera Sans, DejaVu Sans, Liberation Sans, Arial, Helvetica, sans" font-size="10.00">QuantumDerivative</text>
</a>
</g>
</g>
<!-- SingleQuantumOperation&#45;&gt;QuantumDerivative -->
<g id="edge23" class="edge">
<title>SingleQuantumOperation&#45;&gt;QuantumDerivative</title>
<path fill="none" stroke="black" stroke-width="0.5" d="M570.81,-410.41C582.96,-410.49 595.58,-410.57 607.43,-410.65"/>
<polygon fill="black" stroke="black" stroke-width="0.5" points="607.45,-412.4 612.46,-410.68 607.47,-408.9 607.45,-412.4"/>
</g>
<!-- QuantumDerivative&#45;&gt;StateDerivative -->
<g id="edge40" class="edge">
<title>QuantumDerivative&#45;&gt;StateDerivative</title>
<path fill="none" stroke="black" stroke-width="0.5" d="M707.19,-401.88C711.91,-399.56 716.32,-396.65 720,-393 756.18,-357.04 721.15,-321.26 756,-284 758.63,-281.18 761.74,-278.78 765.08,-276.72"/>
<polygon fill="black" stroke="black" stroke-width="0.5" points="766.24,-278.08 769.76,-274.12 764.54,-275.01 766.24,-278.08"/>
</g>
<!-- QuantumOperation&#45;&gt;QuantumPlus -->
<g id="edge29" class="edge">
<title>QuantumOperation&#45;&gt;QuantumPlus</title>
<path fill="none" stroke="black" stroke-width="0.5" d="M375.92,-298C403.32,-298 436.92,-298 463.01,-298"/>
<polygon fill="black" stroke="black" stroke-width="0.5" points="463.12,-299.75 468.12,-298 463.12,-296.25 463.12,-299.75"/>
</g>
<!-- QuantumOperation&#45;&gt;SingleQuantumOperation -->
<g id="edge38" class="edge">
<title>QuantumOperation&#45;&gt;SingleQuantumOperation</title>
<path fill="none" stroke="black" stroke-width="0.5" d="M340.64,-307.17C372.91,-327.32 449.99,-375.46 486.06,-397.99"/>
<polygon fill="black" stroke="black" stroke-width="0.5" points="485.5,-399.7 490.67,-400.87 487.35,-396.73 485.5,-399.7"/>
</g>
<!-- QuantumTimes -->
<g id="node25" class="node">
<title>QuantumTimes</title>
<g id="a_node25"><a xlink:href="../API/qalgebra.core.abstract_quantum_algebra.html#qalgebra.core.abstract_quantum_algebra.QuantumTimes" xlink:title="General implementation of product of quantum expressions" target="_top">
<polygon fill="none" stroke="black" stroke-width="0.5" points="548.28,-271 464.3,-271 464.3,-253 548.28,-253 548.28,-271"/>
<text text-anchor="middle" x="506.29" y="-259" font-family="Vera Sans, DejaVu Sans, Liberation Sans, Arial, Helvetica, sans" font-size="10.00">QuantumTimes</text>
</a>
</g>
</g>
<!-- QuantumOperation&#45;&gt;QuantumTimes -->
<g id="edge31" class="edge">
<title>QuantumOperation&#45;&gt;QuantumTimes</title>
<path fill="none" stroke="black" stroke-width="0.5" d="M371.22,-288.92C398.08,-283.52 432.06,-276.7 459.08,-271.28"/>
<polygon fill="black" stroke="black" stroke-width="0.5" points="459.49,-272.98 464.05,-270.28 458.8,-269.55 459.49,-272.98"/>
</g>
<!-- QuantumTimes&#45;&gt;TensorKet -->
<g id="edge43" class="edge">
<title>QuantumTimes&#45;&gt;TensorKet</title>
<path fill="none" stroke="black" stroke-width="0.5" d="M548.44,-253.77C573.13,-248.84 604.19,-242.63 627.64,-237.94"/>
<polygon fill="black" stroke="black" stroke-width="0.5" points="628.26,-239.6 632.82,-236.9 627.57,-236.17 628.26,-239.6"/>
</g>
<!-- Scalar&#45;&gt;ScalarExpression -->
<g id="edge33" class="edge">
<title>Scalar&#45;&gt;ScalarExpression</title>
<path fill="none" stroke="black" stroke-width="0.5" d="M352.04,-188.29C378.69,-188.59 420.78,-189.06 454.11,-189.43"/>
<polygon fill="black" stroke="black" stroke-width="0.5" points="454.36,-191.18 459.38,-189.49 454.4,-187.68 454.36,-191.18"/>
</g>
<!-- ScalarTimesQuantumExpression&#45;&gt;ScalarTimesKet -->
<g id="edge35" class="edge">
<title>ScalarTimesQuantumExpression&#45;&gt;ScalarTimesKet</title>
<path fill="none" stroke="black" stroke-width="0.5" d="M406.01,-155.22C454.01,-157.97 516.14,-162.98 570.72,-172 589.34,-175.08 609.74,-180.04 626.56,-184.56"/>
<polygon fill="black" stroke="black" stroke-width="0.5" points="626.37,-186.33 631.66,-185.95 627.29,-182.95 626.37,-186.33"/>
</g>
</g>
</svg>
