<?xml version="1.0" encoding="UTF-8" standalone="no"?>
<!DOCTYPE svg PUBLIC "-//W3C//DTD SVG 1.1//EN"
 "http://www.w3.org/Graphics/SVG/1.1/DTD/svg11.dtd">
<!-- Generated by graphviz version 2.38.0 (20140413.2041)
 -->
<!-- Title: inheritance09a952d884 Pages: 1 -->
<svg width="312pt" height="83pt"
 viewBox="0.00 0.00 312.00 83.00" xmlns="http://www.w3.org/2000/svg" xmlns:xlink="http://www.w3.org/1999/xlink">
<g id="graph0" class="graph" transform="scale(1 1) rotate(0) translate(4 79)">
<title>inheritance09a952d884</title>
<polygon fill="white" stroke="none" points="-4,4 -4,-79 308,-79 308,4 -4,4"/>
<!-- Expression -->
<g id="node1" class="node"><title>Expression</title>
<g id="a_node1"><a xlink:href="../API/qalgebra.core.abstract_algebra.html#qalgebra.core.abstract_algebra.Expression" xlink:title="Base class for all QAlgebra Expressions." target="_top">
<polygon fill="none" stroke="black" stroke-width="0.5" points="73,-56 5,-56 5,-37 73,-37 73,-56"/>
<text text-anchor="middle" x="39" y="-44" font-family="Vera Sans, DejaVu Sans, Liberation Sans, Arial, Helvetica, sans" font-size="10.00">Expression</text>
</a>
</g>
</g>
<!-- LocalSpace -->
<g id="node3" class="node"><title>LocalSpace</title>
<g id="a_node3"><a xlink:href="../API/qalgebra.core.hilbert_space_algebra.html#qalgebra.core.hilbert_space_algebra.LocalSpace" xlink:title="Hilbert space for a single degree of freedom." target="_top">
<polygon fill="none" stroke="black" stroke-width="0.5" points="185,-38 114,-38 114,-19 185,-19 185,-38"/>
<text text-anchor="middle" x="149.5" y="-26" font-family="Vera Sans, DejaVu Sans, Liberation Sans, Arial, Helvetica, sans" font-size="10.00">LocalSpace</text>
</a>
</g>
</g>
<!-- Expression&#45;&gt;LocalSpace -->
<g id="edge2" class="edge"><title>Expression&#45;&gt;LocalSpace</title>
<path fill="none" stroke="black" stroke-width="0.5" d="M73.1431,-41.0016C84.3763,-39.138 97.0399,-37.0372 108.735,-35.097"/>
<polygon fill="black" stroke="black" stroke-width="0.5" points="109.034,-36.8214 113.68,-34.2766 108.461,-33.3685 109.034,-36.8214"/>
</g>
<!-- Operation -->
<g id="node4" class="node"><title>Operation</title>
<g id="a_node4"><a xlink:href="../API/qalgebra.core.abstract_algebra.html#qalgebra.core.abstract_algebra.Operation" xlink:title="Base class for &quot;operations&quot;" target="_top">
<polygon fill="none" stroke="black" stroke-width="0.5" points="181.5,-75 117.5,-75 117.5,-56 181.5,-56 181.5,-75"/>
<text text-anchor="middle" x="149.5" y="-63" font-family="Vera Sans, DejaVu Sans, Liberation Sans, Arial, Helvetica, sans" font-size="10.00">Operation</text>
</a>
</g>
</g>
<!-- Expression&#45;&gt;Operation -->
<g id="edge3" class="edge"><title>Expression&#45;&gt;Operation</title>
<path fill="none" stroke="black" stroke-width="0.5" d="M73.1431,-52.3039C85.577,-54.4812 99.7633,-56.9655 112.448,-59.1868"/>
<polygon fill="black" stroke="black" stroke-width="0.5" points="112.186,-60.9174 117.413,-60.0562 112.79,-57.4699 112.186,-60.9174"/>
</g>
<!-- HilbertSpace -->
<g id="node2" class="node"><title>HilbertSpace</title>
<g id="a_node2"><a xlink:href="../API/qalgebra.core.hilbert_space_algebra.html#qalgebra.core.hilbert_space_algebra.HilbertSpace" xlink:title="Base class for Hilbert spaces" target="_top">
<polygon fill="none" stroke="black" stroke-width="0.5" points="78,-19 0,-19 0,-0 78,-0 78,-19"/>
<text text-anchor="middle" x="39" y="-7" font-family="Vera Sans, DejaVu Sans, Liberation Sans, Arial, Helvetica, sans" font-size="10.00">HilbertSpace</text>
</a>
</g>
</g>
<!-- HilbertSpace&#45;&gt;LocalSpace -->
<g id="edge1" class="edge"><title>HilbertSpace&#45;&gt;LocalSpace</title>
<path fill="none" stroke="black" stroke-width="0.5" d="M78.253,-16.1987C88.1245,-17.9273 98.772,-19.7919 108.719,-21.5338"/>
<polygon fill="black" stroke="black" stroke-width="0.5" points="108.623,-23.2934 113.849,-22.4322 109.226,-19.8459 108.623,-23.2934"/>
</g>
<!-- ProductSpace -->
<g id="node5" class="node"><title>ProductSpace</title>
<g id="a_node5"><a xlink:href="../API/qalgebra.core.hilbert_space_algebra.html#qalgebra.core.hilbert_space_algebra.ProductSpace" xlink:title="Tensor product of local Hilbert spaces" target="_top">
<polygon fill="none" stroke="black" stroke-width="0.5" points="304,-37 221,-37 221,-18 304,-18 304,-37"/>
<text text-anchor="middle" x="262.5" y="-25" font-family="Vera Sans, DejaVu Sans, Liberation Sans, Arial, Helvetica, sans" font-size="10.00">ProductSpace</text>
</a>
</g>
</g>
<!-- HilbertSpace&#45;&gt;ProductSpace -->
<g id="edge4" class="edge"><title>HilbertSpace&#45;&gt;ProductSpace</title>
<path fill="none" stroke="black" stroke-width="0.5" d="M78.3004,-7.10022C107.614,-5.8432 148.992,-5.3208 185,-9.5 197.57,-10.9589 211.074,-13.7235 223.184,-16.6561"/>
<polygon fill="black" stroke="black" stroke-width="0.5" points="223.008,-18.4153 228.282,-17.9199 223.85,-15.0182 223.008,-18.4153"/>
</g>
<!-- Operation&#45;&gt;ProductSpace -->
<g id="edge5" class="edge"><title>Operation&#45;&gt;ProductSpace</title>
<path fill="none" stroke="black" stroke-width="0.5" d="M178.51,-55.911C193.759,-50.6905 212.713,-44.2019 228.655,-38.7441"/>
<polygon fill="black" stroke="black" stroke-width="0.5" points="229.335,-40.3611 233.499,-37.0859 228.202,-37.0498 229.335,-40.3611"/>
</g>
</g>
</svg>
