<?xml version="1.0" encoding="UTF-8" standalone="no"?>
<!DOCTYPE svg PUBLIC "-//W3C//DTD SVG 1.1//EN"
 "http://www.w3.org/Graphics/SVG/1.1/DTD/svg11.dtd">
<!-- Generated by graphviz version 2.43.0 (0)
 -->
<!-- Title: inheritance09a952d884 Pages: 1 -->
<svg width="300pt" height="80pt"
 viewBox="0.00 0.00 300.33 80.00" xmlns="http://www.w3.org/2000/svg" xmlns:xlink="http://www.w3.org/1999/xlink">
<g id="graph0" class="graph" transform="scale(1 1) rotate(0) translate(4 76)">
<title>inheritance09a952d884</title>
<polygon fill="white" stroke="transparent" points="-4,4 -4,-76 296.33,-76 296.33,4 -4,4"/>
<!-- Expression -->
<g id="node1" class="node">
<title>Expression</title>
<g id="a_node1"><a xlink:href="../API/qalgebra.core.abstract_algebra.html#qalgebra.core.abstract_algebra.Expression" xlink:title="Base class for all QAlgebra Expressions" target="_top">
<polygon fill="none" stroke="black" stroke-width="0.5" points="69.59,-54 3.66,-54 3.66,-36 69.59,-36 69.59,-54"/>
<text text-anchor="middle" x="36.63" y="-42" font-family="Vera Sans, DejaVu Sans, Liberation Sans, Arial, Helvetica, sans" font-size="10.00">Expression</text>
</a>
</g>
</g>
<!-- LocalSpace -->
<g id="node3" class="node">
<title>LocalSpace</title>
<g id="a_node3"><a xlink:href="../API/qalgebra.core.hilbert_space_algebra.html#qalgebra.core.hilbert_space_algebra.LocalSpace" xlink:title="Hilbert space for a single degree of freedom." target="_top">
<polygon fill="none" stroke="black" stroke-width="0.5" points="177.64,-36 109.12,-36 109.12,-18 177.64,-18 177.64,-36"/>
<text text-anchor="middle" x="143.38" y="-24" font-family="Vera Sans, DejaVu Sans, Liberation Sans, Arial, Helvetica, sans" font-size="10.00">LocalSpace</text>
</a>
</g>
</g>
<!-- Expression&#45;&gt;LocalSpace -->
<g id="edge2" class="edge">
<title>Expression&#45;&gt;LocalSpace</title>
<path fill="none" stroke="black" stroke-width="0.5" d="M69.62,-39.5C80.48,-37.64 92.71,-35.53 104.01,-33.59"/>
<polygon fill="black" stroke="black" stroke-width="0.5" points="104.5,-35.29 109.13,-32.71 103.9,-31.84 104.5,-35.29"/>
</g>
<!-- Operation -->
<g id="node4" class="node">
<title>Operation</title>
<g id="a_node4"><a xlink:href="../API/qalgebra.core.abstract_algebra.html#qalgebra.core.abstract_algebra.Operation" xlink:title="Base class for &quot;operations&quot;" target="_top">
<polygon fill="none" stroke="black" stroke-width="0.5" points="173.3,-72 113.47,-72 113.47,-54 173.3,-54 173.3,-72"/>
<text text-anchor="middle" x="143.38" y="-60" font-family="Vera Sans, DejaVu Sans, Liberation Sans, Arial, Helvetica, sans" font-size="10.00">Operation</text>
</a>
</g>
</g>
<!-- Expression&#45;&gt;Operation -->
<g id="edge3" class="edge">
<title>Expression&#45;&gt;Operation</title>
<path fill="none" stroke="black" stroke-width="0.5" d="M69.62,-50.5C81.84,-52.6 95.81,-55 108.21,-57.13"/>
<polygon fill="black" stroke="black" stroke-width="0.5" points="108.2,-58.9 113.43,-58.02 108.8,-55.45 108.2,-58.9"/>
</g>
<!-- HilbertSpace -->
<g id="node2" class="node">
<title>HilbertSpace</title>
<g id="a_node2"><a xlink:href="../API/qalgebra.core.hilbert_space_algebra.html#qalgebra.core.hilbert_space_algebra.HilbertSpace" xlink:title="Base class for Hilbert spaces" target="_top">
<polygon fill="none" stroke="black" stroke-width="0.5" points="73.38,-18 -0.13,-18 -0.13,0 73.38,0 73.38,-18"/>
<text text-anchor="middle" x="36.63" y="-6" font-family="Vera Sans, DejaVu Sans, Liberation Sans, Arial, Helvetica, sans" font-size="10.00">HilbertSpace</text>
</a>
</g>
</g>
<!-- HilbertSpace&#45;&gt;LocalSpace -->
<g id="edge1" class="edge">
<title>HilbertSpace&#45;&gt;LocalSpace</title>
<path fill="none" stroke="black" stroke-width="0.5" d="M73.38,-15.14C83.18,-16.83 93.83,-18.66 103.78,-20.37"/>
<polygon fill="black" stroke="black" stroke-width="0.5" points="103.68,-22.13 108.9,-21.25 104.27,-18.68 103.68,-22.13"/>
</g>
<!-- ProductSpace -->
<g id="node5" class="node">
<title>ProductSpace</title>
<g id="a_node5"><a xlink:href="../API/qalgebra.core.hilbert_space_algebra.html#qalgebra.core.hilbert_space_algebra.ProductSpace" xlink:title="Tensor product of local Hilbert spaces" target="_top">
<polygon fill="none" stroke="black" stroke-width="0.5" points="292.24,-35 213.6,-35 213.6,-17 292.24,-17 292.24,-35"/>
<text text-anchor="middle" x="252.92" y="-23" font-family="Vera Sans, DejaVu Sans, Liberation Sans, Arial, Helvetica, sans" font-size="10.00">ProductSpace</text>
</a>
</g>
</g>
<!-- HilbertSpace&#45;&gt;ProductSpace -->
<g id="edge4" class="edge">
<title>HilbertSpace&#45;&gt;ProductSpace</title>
<path fill="none" stroke="black" stroke-width="0.5" d="M73.4,-6.8C101.73,-5.59 142.28,-5.03 177.51,-9 189.72,-10.38 202.86,-12.99 214.64,-15.76"/>
<polygon fill="black" stroke="black" stroke-width="0.5" points="214.32,-17.48 219.59,-16.95 215.14,-14.08 214.32,-17.48"/>
</g>
<!-- Operation&#45;&gt;ProductSpace -->
<g id="edge5" class="edge">
<title>Operation&#45;&gt;ProductSpace</title>
<path fill="none" stroke="black" stroke-width="0.5" d="M170.69,-53.95C185.79,-48.75 204.84,-42.2 220.7,-36.74"/>
<polygon fill="black" stroke="black" stroke-width="0.5" points="221.35,-38.37 225.51,-35.09 220.21,-35.06 221.35,-38.37"/>
</g>
</g>
</svg>
