<?xml version="1.0" encoding="UTF-8" standalone="no"?>
<!DOCTYPE svg PUBLIC "-//W3C//DTD SVG 1.1//EN"
 "http://www.w3.org/Graphics/SVG/1.1/DTD/svg11.dtd">
<!-- Generated by graphviz version 2.43.0 (0)
 -->
<!-- Title: inheritance2f32859345 Pages: 1 -->
<svg width="878pt" height="572pt"
 viewBox="0.00 0.00 878.36 572.00" xmlns="http://www.w3.org/2000/svg" xmlns:xlink="http://www.w3.org/1999/xlink">
<g id="graph0" class="graph" transform="scale(1 1) rotate(0) translate(4 568)">
<title>inheritance2f32859345</title>
<polygon fill="white" stroke="transparent" points="-4,4 -4,-568 874.36,-568 874.36,4 -4,4"/>
<!-- Adjoint -->
<g id="node1" class="node">
<title>Adjoint</title>
<g id="a_node1"><a xlink:href="../API/qalgebra.core.operator_algebra.html#qalgebra.core.operator_algebra.Adjoint" xlink:title="Symbolic Adjoint of an operator" target="_top">
<polygon fill="none" stroke="black" stroke-width="0.5" points="841.56,-165 787.56,-165 787.56,-147 841.56,-147 841.56,-165"/>
<text text-anchor="middle" x="814.56" y="-153" font-family="Vera Sans, DejaVu Sans, Liberation Sans, Arial, Helvetica, sans" font-size="10.00">Adjoint</text>
</a>
</g>
</g>
<!-- QuantumAdjoint -->
<g id="node2" class="node">
<title>QuantumAdjoint</title>
<g id="a_node2"><a xlink:href="../API/qalgebra.core.abstract_quantum_algebra.html#qalgebra.core.abstract_quantum_algebra.QuantumAdjoint" xlink:title="Base class for adjoints of quantum expressions" target="_top">
<polygon fill="none" stroke="black" stroke-width="0.5" points="708.44,-492 621.02,-492 621.02,-474 708.44,-474 708.44,-492"/>
<text text-anchor="middle" x="664.73" y="-480" font-family="Vera Sans, DejaVu Sans, Liberation Sans, Arial, Helvetica, sans" font-size="10.00">QuantumAdjoint</text>
</a>
</g>
</g>
<!-- QuantumAdjoint&#45;&gt;Adjoint -->
<g id="edge1" class="edge">
<title>QuantumAdjoint&#45;&gt;Adjoint</title>
<path fill="none" stroke="black" stroke-width="0.5" d="M708.64,-474.72C713.88,-472.27 718.78,-469.1 722.75,-465 763.87,-422.56 742.19,-393.73 758.75,-337 777.02,-274.43 799.91,-200.06 809.27,-169.82"/>
<polygon fill="black" stroke="black" stroke-width="0.5" points="810.95,-170.32 810.75,-165.02 807.6,-169.28 810.95,-170.32"/>
</g>
<!-- Operator -->
<g id="node3" class="node">
<title>Operator</title>
<g id="a_node3"><a xlink:href="../API/qalgebra.core.operator_algebra.html#qalgebra.core.operator_algebra.Operator" xlink:title="Base class for all quantum operators." target="_top">
<polygon fill="none" stroke="black" stroke-width="0.5" points="534.26,-232 478.33,-232 478.33,-214 534.26,-214 534.26,-232"/>
<text text-anchor="middle" x="506.29" y="-220" font-family="Vera Sans, DejaVu Sans, Liberation Sans, Arial, Helvetica, sans" font-size="10.00">Operator</text>
</a>
</g>
</g>
<!-- Operator&#45;&gt;Adjoint -->
<g id="edge2" class="edge">
<title>Operator&#45;&gt;Adjoint</title>
<path fill="none" stroke="black" stroke-width="0.5" d="M523.23,-213.85C542.39,-203.32 575.82,-186.4 606.72,-178 667.37,-161.51 741.16,-157.27 782.19,-156.25"/>
<polygon fill="black" stroke="black" stroke-width="0.5" points="782.31,-158 787.27,-156.14 782.23,-154.5 782.31,-158"/>
</g>
<!-- Commutator -->
<g id="node4" class="node">
<title>Commutator</title>
<g id="a_node4"><a xlink:href="../API/qalgebra.core.operator_algebra.html#qalgebra.core.operator_algebra.Commutator" xlink:title="Commutator of two operators" target="_top">
<polygon fill="none" stroke="black" stroke-width="0.5" points="700.25,-90 629.22,-90 629.22,-72 700.25,-72 700.25,-90"/>
<text text-anchor="middle" x="664.73" y="-78" font-family="Vera Sans, DejaVu Sans, Liberation Sans, Arial, Helvetica, sans" font-size="10.00">Commutator</text>
</a>
</g>
</g>
<!-- Operator&#45;&gt;Commutator -->
<g id="edge4" class="edge">
<title>Operator&#45;&gt;Commutator</title>
<path fill="none" stroke="black" stroke-width="0.5" d="M531.29,-213.99C544.4,-208.03 560.1,-199.07 570.72,-187 598.62,-155.27 575.63,-127.62 606.72,-99 611.71,-94.41 617.86,-90.98 624.27,-88.44"/>
<polygon fill="black" stroke="black" stroke-width="0.5" points="625.09,-90 629.2,-86.65 623.9,-86.71 625.09,-90"/>
</g>
<!-- LocalOperator -->
<g id="node9" class="node">
<title>LocalOperator</title>
<g id="a_node9"><a xlink:href="../API/qalgebra.core.operator_algebra.html#qalgebra.core.operator_algebra.LocalOperator" xlink:title="Base class for &quot;known&quot; operators on a :class:`LocalSpace`" target="_top">
<polygon fill="none" stroke="black" stroke-width="0.5" points="704.6,-126 624.86,-126 624.86,-108 704.6,-108 704.6,-126"/>
<text text-anchor="middle" x="664.73" y="-114" font-family="Vera Sans, DejaVu Sans, Liberation Sans, Arial, Helvetica, sans" font-size="10.00">LocalOperator</text>
</a>
</g>
</g>
<!-- Operator&#45;&gt;LocalOperator -->
<g id="edge6" class="edge">
<title>Operator&#45;&gt;LocalOperator</title>
<path fill="none" stroke="black" stroke-width="0.5" d="M528.06,-213.86C541.15,-207.49 557.92,-198.15 570.72,-187 590.55,-169.72 585.77,-155.93 606.72,-140 613.12,-135.13 620.69,-131.13 628.19,-127.92"/>
<polygon fill="black" stroke="black" stroke-width="0.5" points="628.88,-129.53 632.84,-126.02 627.55,-126.29 628.88,-129.53"/>
</g>
<!-- NullSpaceProjector -->
<g id="node11" class="node">
<title>NullSpaceProjector</title>
<g id="a_node11"><a xlink:href="../API/qalgebra.core.operator_algebra.html#qalgebra.core.operator_algebra.NullSpaceProjector" xlink:title="Projection operator onto the nullspace of its operand" target="_top">
<polygon fill="none" stroke="black" stroke-width="0.5" points="715.33,-420 614.14,-420 614.14,-402 715.33,-402 715.33,-420"/>
<text text-anchor="middle" x="664.73" y="-408" font-family="Vera Sans, DejaVu Sans, Liberation Sans, Arial, Helvetica, sans" font-size="10.00">NullSpaceProjector</text>
</a>
</g>
</g>
<!-- Operator&#45;&gt;NullSpaceProjector -->
<g id="edge9" class="edge">
<title>Operator&#45;&gt;NullSpaceProjector</title>
<path fill="none" stroke="black" stroke-width="0.5" d="M534.06,-228.07C546.85,-231.81 561.37,-238.2 570.72,-249 613.89,-298.88 561.51,-344.96 606.72,-393 609,-395.43 611.62,-397.54 614.44,-399.36"/>
<polygon fill="black" stroke="black" stroke-width="0.5" points="613.81,-401.02 619.02,-401.99 615.56,-397.98 613.81,-401.02"/>
</g>
<!-- OperatorDerivative -->
<g id="node14" class="node">
<title>OperatorDerivative</title>
<g id="a_node14"><a xlink:href="../API/qalgebra.core.operator_algebra.html#qalgebra.core.operator_algebra.OperatorDerivative" xlink:title="Symbolic partial derivative of an operator" target="_top">
<polygon fill="none" stroke="black" stroke-width="0.5" points="864.48,-364 764.63,-364 764.63,-346 864.48,-346 864.48,-364"/>
<text text-anchor="middle" x="814.56" y="-352" font-family="Vera Sans, DejaVu Sans, Liberation Sans, Arial, Helvetica, sans" font-size="10.00">OperatorDerivative</text>
</a>
</g>
</g>
<!-- Operator&#45;&gt;OperatorDerivative -->
<g id="edge13" class="edge">
<title>Operator&#45;&gt;OperatorDerivative</title>
<path fill="none" stroke="black" stroke-width="0.5" d="M534.11,-213.98C576.92,-201.28 662.02,-183.13 722.75,-216 772.87,-243.12 799.73,-311.25 809.37,-340.87"/>
<polygon fill="black" stroke="black" stroke-width="0.5" points="807.79,-341.7 810.97,-345.94 811.13,-340.64 807.79,-341.7"/>
</g>
<!-- OperatorIndexedSum -->
<g id="node16" class="node">
<title>OperatorIndexedSum</title>
<g id="a_node16"><a xlink:href="../API/qalgebra.core.operator_algebra.html#qalgebra.core.operator_algebra.OperatorIndexedSum" xlink:title="Indexed sum over operators" target="_top">
<polygon fill="none" stroke="black" stroke-width="0.5" points="870.17,-401 758.94,-401 758.94,-383 870.17,-383 870.17,-401"/>
<text text-anchor="middle" x="814.56" y="-389" font-family="Vera Sans, DejaVu Sans, Liberation Sans, Arial, Helvetica, sans" font-size="10.00">OperatorIndexedSum</text>
</a>
</g>
</g>
<!-- Operator&#45;&gt;OperatorIndexedSum -->
<g id="edge15" class="edge">
<title>Operator&#45;&gt;OperatorIndexedSum</title>
<path fill="none" stroke="black" stroke-width="0.5" d="M534.18,-222.67C585.53,-222.61 694.9,-225.34 722.75,-249 766.49,-286.15 719.22,-331.4 758.75,-373 761.47,-375.86 764.64,-378.29 768.06,-380.36"/>
<polygon fill="black" stroke="black" stroke-width="0.5" points="767.63,-382.11 772.86,-382.95 769.29,-379.03 767.63,-382.11"/>
</g>
<!-- OperatorPlus -->
<g id="node18" class="node">
<title>OperatorPlus</title>
<g id="a_node18"><a xlink:href="../API/qalgebra.core.operator_algebra.html#qalgebra.core.operator_algebra.OperatorPlus" xlink:title="Sum of Operators" target="_top">
<polygon fill="none" stroke="black" stroke-width="0.5" points="702.15,-312 627.32,-312 627.32,-294 702.15,-294 702.15,-312"/>
<text text-anchor="middle" x="664.73" y="-300" font-family="Vera Sans, DejaVu Sans, Liberation Sans, Arial, Helvetica, sans" font-size="10.00">OperatorPlus</text>
</a>
</g>
</g>
<!-- Operator&#45;&gt;OperatorPlus -->
<g id="edge17" class="edge">
<title>Operator&#45;&gt;OperatorPlus</title>
<path fill="none" stroke="black" stroke-width="0.5" d="M534.07,-231.3C545.85,-235.61 559.52,-241.55 570.72,-249 589.55,-261.54 587.37,-273.26 606.72,-285 611.54,-287.93 616.89,-290.42 622.31,-292.54"/>
<polygon fill="black" stroke="black" stroke-width="0.5" points="622.01,-294.29 627.31,-294.38 623.22,-291.01 622.01,-294.29"/>
</g>
<!-- OperatorPlusMinusCC -->
<g id="node20" class="node">
<title>OperatorPlusMinusCC</title>
<g id="a_node20"><a xlink:href="../API/qalgebra.core.operator_algebra.html#qalgebra.core.operator_algebra.OperatorPlusMinusCC" xlink:title="An operator plus or minus its complex conjugate" target="_top">
<polygon fill="none" stroke="black" stroke-width="0.5" points="722.77,-384 606.7,-384 606.7,-366 722.77,-366 722.77,-384"/>
<text text-anchor="middle" x="664.73" y="-372" font-family="Vera Sans, DejaVu Sans, Liberation Sans, Arial, Helvetica, sans" font-size="10.00">OperatorPlusMinusCC</text>
</a>
</g>
</g>
<!-- Operator&#45;&gt;OperatorPlusMinusCC -->
<g id="edge19" class="edge">
<title>Operator&#45;&gt;OperatorPlusMinusCC</title>
<path fill="none" stroke="black" stroke-width="0.5" d="M534.03,-228.48C546.66,-232.31 561.04,-238.66 570.72,-249 605.27,-285.96 570.65,-321.51 606.72,-357 609.14,-359.39 611.89,-361.46 614.82,-363.26"/>
<polygon fill="black" stroke="black" stroke-width="0.5" points="614.35,-365 619.58,-365.86 616.03,-361.93 614.35,-365"/>
</g>
<!-- OperatorSymbol -->
<g id="node21" class="node">
<title>OperatorSymbol</title>
<g id="a_node21"><a xlink:href="../API/qalgebra.core.operator_algebra.html#qalgebra.core.operator_algebra.OperatorSymbol" xlink:title="Symbolic operator" target="_top">
<polygon fill="none" stroke="black" stroke-width="0.5" points="709.04,-18 620.43,-18 620.43,0 709.04,0 709.04,-18"/>
<text text-anchor="middle" x="664.73" y="-6" font-family="Vera Sans, DejaVu Sans, Liberation Sans, Arial, Helvetica, sans" font-size="10.00">OperatorSymbol</text>
</a>
</g>
</g>
<!-- Operator&#45;&gt;OperatorSymbol -->
<g id="edge21" class="edge">
<title>Operator&#45;&gt;OperatorSymbol</title>
<path fill="none" stroke="black" stroke-width="0.5" d="M509.31,-213.61C516.55,-182.25 544.16,-80.07 606.72,-27 609.71,-24.46 613.06,-22.28 616.6,-20.4"/>
<polygon fill="black" stroke="black" stroke-width="0.5" points="617.78,-21.78 621.53,-18.03 616.27,-18.62 617.78,-21.78"/>
</g>
<!-- OperatorTimes -->
<g id="node23" class="node">
<title>OperatorTimes</title>
<g id="a_node23"><a xlink:href="../API/qalgebra.core.operator_algebra.html#qalgebra.core.operator_algebra.OperatorTimes" xlink:title="Product of operators" target="_top">
<polygon fill="none" stroke="black" stroke-width="0.5" points="706.05,-276 623.41,-276 623.41,-258 706.05,-258 706.05,-276"/>
<text text-anchor="middle" x="664.73" y="-264" font-family="Vera Sans, DejaVu Sans, Liberation Sans, Arial, Helvetica, sans" font-size="10.00">OperatorTimes</text>
</a>
</g>
</g>
<!-- Operator&#45;&gt;OperatorTimes -->
<g id="edge23" class="edge">
<title>Operator&#45;&gt;OperatorTimes</title>
<path fill="none" stroke="black" stroke-width="0.5" d="M534.19,-230.56C559.7,-237.74 598.27,-248.59 626.69,-256.58"/>
<polygon fill="black" stroke="black" stroke-width="0.5" points="626.23,-258.27 631.52,-257.94 627.18,-254.9 626.23,-258.27"/>
</g>
<!-- OperatorTrace -->
<g id="node25" class="node">
<title>OperatorTrace</title>
<g id="a_node25"><a xlink:href="../API/qalgebra.core.operator_algebra.html#qalgebra.core.operator_algebra.OperatorTrace" xlink:title="(Partial) trace of an operator" target="_top">
<polygon fill="none" stroke="black" stroke-width="0.5" points="704.89,-348 624.57,-348 624.57,-330 704.89,-330 704.89,-348"/>
<text text-anchor="middle" x="664.73" y="-336" font-family="Vera Sans, DejaVu Sans, Liberation Sans, Arial, Helvetica, sans" font-size="10.00">OperatorTrace</text>
</a>
</g>
</g>
<!-- Operator&#45;&gt;OperatorTrace -->
<g id="edge25" class="edge">
<title>Operator&#45;&gt;OperatorTrace</title>
<path fill="none" stroke="black" stroke-width="0.5" d="M534.06,-229.29C546.39,-233.28 560.51,-239.53 570.72,-249 596.94,-273.34 579.5,-297.78 606.72,-321 610.57,-324.28 615.02,-326.97 619.7,-329.17"/>
<polygon fill="black" stroke="black" stroke-width="0.5" points="619.16,-330.84 624.45,-331.21 620.54,-327.63 619.16,-330.84"/>
</g>
<!-- PseudoInverse -->
<g id="node26" class="node">
<title>PseudoInverse</title>
<g id="a_node26"><a xlink:href="../API/qalgebra.core.operator_algebra.html#qalgebra.core.operator_algebra.PseudoInverse" xlink:title="Unevaluated pseudo&#45;inverse $Op{X}^+$ of an operator $Op{X}$" target="_top">
<polygon fill="none" stroke="black" stroke-width="0.5" points="705.94,-456 623.52,-456 623.52,-438 705.94,-438 705.94,-456"/>
<text text-anchor="middle" x="664.73" y="-444" font-family="Vera Sans, DejaVu Sans, Liberation Sans, Arial, Helvetica, sans" font-size="10.00">PseudoInverse</text>
</a>
</g>
</g>
<!-- Operator&#45;&gt;PseudoInverse -->
<g id="edge27" class="edge">
<title>Operator&#45;&gt;PseudoInverse</title>
<path fill="none" stroke="black" stroke-width="0.5" d="M534.28,-227.89C547.13,-231.58 561.63,-237.98 570.72,-249 622.62,-311.94 552.24,-368.27 606.72,-429 610.09,-432.77 614.25,-435.75 618.78,-438.12"/>
<polygon fill="black" stroke="black" stroke-width="0.5" points="618.13,-439.75 623.4,-440.28 619.61,-436.58 618.13,-439.75"/>
</g>
<!-- ScalarTimesOperator -->
<g id="node27" class="node">
<title>ScalarTimesOperator</title>
<g id="a_node27"><a xlink:href="../API/qalgebra.core.operator_algebra.html#qalgebra.core.operator_algebra.ScalarTimesOperator" xlink:title="Product of a :class:`.Scalar` coefficient and an :class:`Operator`" target="_top">
<polygon fill="none" stroke="black" stroke-width="0.5" points="719.9,-54 609.57,-54 609.57,-36 719.9,-36 719.9,-54"/>
<text text-anchor="middle" x="664.73" y="-42" font-family="Vera Sans, DejaVu Sans, Liberation Sans, Arial, Helvetica, sans" font-size="10.00">ScalarTimesOperator</text>
</a>
</g>
</g>
<!-- Operator&#45;&gt;ScalarTimesOperator -->
<g id="edge38" class="edge">
<title>Operator&#45;&gt;ScalarTimesOperator</title>
<path fill="none" stroke="black" stroke-width="0.5" d="M513.1,-213.83C524.32,-196.13 549.68,-155.98 570.72,-122 586.88,-95.88 582.53,-81.94 606.72,-63 610.06,-60.38 613.8,-58.13 617.72,-56.21"/>
<polygon fill="black" stroke="black" stroke-width="0.5" points="618.55,-57.76 622.38,-54.11 617.1,-54.57 618.55,-57.76"/>
</g>
<!-- QuantumOperation -->
<g id="node5" class="node">
<title>QuantumOperation</title>
<g id="a_node5"><a xlink:href="../API/qalgebra.core.abstract_quantum_algebra.html#qalgebra.core.abstract_quantum_algebra.QuantumOperation" xlink:title="Base class for operations on quantum expression" target="_top">
<polygon fill="none" stroke="black" stroke-width="0.5" points="375.52,-290 274.42,-290 274.42,-272 375.52,-272 375.52,-290"/>
<text text-anchor="middle" x="324.97" y="-278" font-family="Vera Sans, DejaVu Sans, Liberation Sans, Arial, Helvetica, sans" font-size="10.00">QuantumOperation</text>
</a>
</g>
</g>
<!-- QuantumOperation&#45;&gt;Commutator -->
<g id="edge3" class="edge">
<title>QuantumOperation&#45;&gt;Commutator</title>
<path fill="none" stroke="black" stroke-width="0.5" d="M375.87,-276.11C386.45,-273.4 397.06,-269.27 405.87,-263 430.59,-245.41 420.59,-226.62 441.87,-205 442.82,-204.03 605.48,-99.58 606.72,-99 612.56,-96.26 618.92,-93.79 625.21,-91.62"/>
<polygon fill="black" stroke="black" stroke-width="0.5" points="625.81,-93.26 630,-90.02 624.7,-89.94 625.81,-93.26"/>
</g>
<!-- SingleQuantumOperation -->
<g id="node12" class="node">
<title>SingleQuantumOperation</title>
<g id="a_node12"><a xlink:href="../API/qalgebra.core.abstract_quantum_algebra.html#qalgebra.core.abstract_quantum_algebra.SingleQuantumOperation" xlink:title="Base class for operations on a single quantum expression" target="_top">
<polygon fill="none" stroke="black" stroke-width="0.5" points="570.64,-438 441.95,-438 441.95,-420 570.64,-420 570.64,-438"/>
<text text-anchor="middle" x="506.29" y="-426" font-family="Vera Sans, DejaVu Sans, Liberation Sans, Arial, Helvetica, sans" font-size="10.00">SingleQuantumOperation</text>
</a>
</g>
</g>
<!-- QuantumOperation&#45;&gt;SingleQuantumOperation -->
<g id="edge42" class="edge">
<title>QuantumOperation&#45;&gt;SingleQuantumOperation</title>
<path fill="none" stroke="black" stroke-width="0.5" d="M336.92,-290.04C367.61,-315.36 454.54,-387.11 489.97,-416.36"/>
<polygon fill="black" stroke="black" stroke-width="0.5" points="489.06,-417.87 494.03,-419.71 491.29,-415.17 489.06,-417.87"/>
</g>
<!-- QuantumPlus -->
<g id="node19" class="node">
<title>QuantumPlus</title>
<g id="a_node19"><a xlink:href="../API/qalgebra.core.abstract_quantum_algebra.html#qalgebra.core.abstract_quantum_algebra.QuantumPlus" xlink:title="General implementation of addition of quantum expressions" target="_top">
<polygon fill="none" stroke="black" stroke-width="0.5" points="544.38,-312 468.21,-312 468.21,-294 544.38,-294 544.38,-312"/>
<text text-anchor="middle" x="506.29" y="-300" font-family="Vera Sans, DejaVu Sans, Liberation Sans, Arial, Helvetica, sans" font-size="10.00">QuantumPlus</text>
</a>
</g>
</g>
<!-- QuantumOperation&#45;&gt;QuantumPlus -->
<g id="edge35" class="edge">
<title>QuantumOperation&#45;&gt;QuantumPlus</title>
<path fill="none" stroke="black" stroke-width="0.5" d="M375.92,-287.13C403.32,-290.49 436.92,-294.61 463.01,-297.81"/>
<polygon fill="black" stroke="black" stroke-width="0.5" points="462.94,-299.57 468.12,-298.44 463.37,-296.09 462.94,-299.57"/>
</g>
<!-- QuantumTimes -->
<g id="node24" class="node">
<title>QuantumTimes</title>
<g id="a_node24"><a xlink:href="../API/qalgebra.core.abstract_quantum_algebra.html#qalgebra.core.abstract_quantum_algebra.QuantumTimes" xlink:title="General implementation of product of quantum expressions" target="_top">
<polygon fill="none" stroke="black" stroke-width="0.5" points="548.28,-276 464.3,-276 464.3,-258 548.28,-258 548.28,-276"/>
<text text-anchor="middle" x="506.29" y="-264" font-family="Vera Sans, DejaVu Sans, Liberation Sans, Arial, Helvetica, sans" font-size="10.00">QuantumTimes</text>
</a>
</g>
</g>
<!-- QuantumOperation&#45;&gt;QuantumTimes -->
<g id="edge37" class="edge">
<title>QuantumOperation&#45;&gt;QuantumTimes</title>
<path fill="none" stroke="black" stroke-width="0.5" d="M375.92,-277.1C401.96,-275.07 433.6,-272.6 459.07,-270.61"/>
<polygon fill="black" stroke="black" stroke-width="0.5" points="459.23,-272.35 464.07,-270.22 458.95,-268.86 459.23,-272.35"/>
</g>
<!-- Expression -->
<g id="node6" class="node">
<title>Expression</title>
<g id="a_node6"><a xlink:href="../API/qalgebra.core.abstract_algebra.html#qalgebra.core.abstract_algebra.Expression" xlink:title="Base class for all QAlgebra Expressions" target="_top">
<polygon fill="none" stroke="black" stroke-width="0.5" points="65.7,-272 -0.24,-272 -0.24,-254 65.7,-254 65.7,-272"/>
<text text-anchor="middle" x="32.73" y="-260" font-family="Vera Sans, DejaVu Sans, Liberation Sans, Arial, Helvetica, sans" font-size="10.00">Expression</text>
</a>
</g>
</g>
<!-- Operation -->
<g id="node8" class="node">
<title>Operation</title>
<g id="a_node8"><a xlink:href="../API/qalgebra.core.abstract_algebra.html#qalgebra.core.abstract_algebra.Operation" xlink:title="Base class for &quot;operations&quot;" target="_top">
<polygon fill="none" stroke="black" stroke-width="0.5" points="184.68,-290 124.85,-290 124.85,-272 184.68,-272 184.68,-290"/>
<text text-anchor="middle" x="154.77" y="-278" font-family="Vera Sans, DejaVu Sans, Liberation Sans, Arial, Helvetica, sans" font-size="10.00">Operation</text>
</a>
</g>
</g>
<!-- Expression&#45;&gt;Operation -->
<g id="edge10" class="edge">
<title>Expression&#45;&gt;Operation</title>
<path fill="none" stroke="black" stroke-width="0.5" d="M65.59,-267.78C82.2,-270.27 102.55,-273.32 119.5,-275.86"/>
<polygon fill="black" stroke="black" stroke-width="0.5" points="119.44,-277.62 124.65,-276.63 119.96,-274.16 119.44,-277.62"/>
</g>
<!-- QuantumExpression -->
<g id="node13" class="node">
<title>QuantumExpression</title>
<g id="a_node13"><a xlink:href="../API/qalgebra.core.abstract_quantum_algebra.html#qalgebra.core.abstract_quantum_algebra.QuantumExpression" xlink:title="Base class for expressions associated with a Hilbert space" target="_top">
<polygon fill="none" stroke="black" stroke-width="0.5" points="207.87,-254 101.67,-254 101.67,-236 207.87,-236 207.87,-254"/>
<text text-anchor="middle" x="154.77" y="-242" font-family="Vera Sans, DejaVu Sans, Liberation Sans, Arial, Helvetica, sans" font-size="10.00">QuantumExpression</text>
</a>
</g>
</g>
<!-- Expression&#45;&gt;QuantumExpression -->
<g id="edge30" class="edge">
<title>Expression&#45;&gt;QuantumExpression</title>
<path fill="none" stroke="black" stroke-width="0.5" d="M65.59,-258.22C75.02,-256.81 85.65,-255.22 96.18,-253.64"/>
<polygon fill="black" stroke="black" stroke-width="0.5" points="96.65,-255.34 101.33,-252.86 96.13,-251.87 96.65,-255.34"/>
</g>
<!-- IndexedSum -->
<g id="node7" class="node">
<title>IndexedSum</title>
<g id="a_node7"><a xlink:href="../API/qalgebra.core.indexed_operations.html#qalgebra.core.indexed_operations.IndexedSum" xlink:title="Base class for indexed sums" target="_top">
<polygon fill="none" stroke="black" stroke-width="0.5" points="361.12,-422 288.82,-422 288.82,-404 361.12,-404 361.12,-422"/>
<text text-anchor="middle" x="324.97" y="-410" font-family="Vera Sans, DejaVu Sans, Liberation Sans, Arial, Helvetica, sans" font-size="10.00">IndexedSum</text>
</a>
</g>
</g>
<!-- QuantumIndexedSum -->
<g id="node17" class="node">
<title>QuantumIndexedSum</title>
<g id="a_node17"><a xlink:href="../API/qalgebra.core.abstract_quantum_algebra.html#qalgebra.core.abstract_quantum_algebra.QuantumIndexedSum" xlink:title="Base class for indexed sums" target="_top">
<polygon fill="none" stroke="black" stroke-width="0.5" points="721.51,-564 607.95,-564 607.95,-546 721.51,-546 721.51,-564"/>
<text text-anchor="middle" x="664.73" y="-552" font-family="Vera Sans, DejaVu Sans, Liberation Sans, Arial, Helvetica, sans" font-size="10.00">QuantumIndexedSum</text>
</a>
</g>
</g>
<!-- IndexedSum&#45;&gt;QuantumIndexedSum -->
<g id="edge31" class="edge">
<title>IndexedSum&#45;&gt;QuantumIndexedSum</title>
<path fill="none" stroke="black" stroke-width="0.5" d="M344.73,-422.15C389.43,-443.76 506.02,-499 606.72,-537 613.58,-539.59 621,-542.12 628.15,-544.43"/>
<polygon fill="black" stroke="black" stroke-width="0.5" points="627.75,-546.14 633.04,-545.99 628.81,-542.81 627.75,-546.14"/>
</g>
<!-- Operation&#45;&gt;QuantumOperation -->
<g id="edge34" class="edge">
<title>Operation&#45;&gt;QuantumOperation</title>
<path fill="none" stroke="black" stroke-width="0.5" d="M185.07,-281C208.19,-281 241.11,-281 269.1,-281"/>
<polygon fill="black" stroke="black" stroke-width="0.5" points="269.26,-282.75 274.26,-281 269.26,-279.25 269.26,-282.75"/>
</g>
<!-- Operation&#45;&gt;IndexedSum -->
<g id="edge5" class="edge">
<title>Operation&#45;&gt;IndexedSum</title>
<path fill="none" stroke="black" stroke-width="0.5" d="M167.33,-290.07C196.74,-313.15 274.43,-374.13 308.07,-400.52"/>
<polygon fill="black" stroke="black" stroke-width="0.5" points="307.31,-402.15 312.33,-403.86 309.47,-399.4 307.31,-402.15"/>
</g>
<!-- ScalarTimesQuantumExpression -->
<g id="node28" class="node">
<title>ScalarTimesQuantumExpression</title>
<g id="a_node28"><a xlink:href="../API/qalgebra.core.abstract_quantum_algebra.html#qalgebra.core.abstract_quantum_algebra.ScalarTimesQuantumExpression" xlink:title="Product of a :class:`.Scalar` and a :class:`QuantumExpression`" target="_top">
<polygon fill="none" stroke="black" stroke-width="0.5" points="405.77,-254 244.17,-254 244.17,-236 405.77,-236 405.77,-254"/>
<text text-anchor="middle" x="324.97" y="-242" font-family="Vera Sans, DejaVu Sans, Liberation Sans, Arial, Helvetica, sans" font-size="10.00">ScalarTimesQuantumExpression</text>
</a>
</g>
</g>
<!-- Operation&#45;&gt;ScalarTimesQuantumExpression -->
<g id="edge41" class="edge">
<title>Operation&#45;&gt;ScalarTimesQuantumExpression</title>
<path fill="none" stroke="black" stroke-width="0.5" d="M185.07,-274.73C210.34,-269.32 247.3,-261.41 276.74,-255.11"/>
<polygon fill="black" stroke="black" stroke-width="0.5" points="277.25,-256.79 281.77,-254.03 276.51,-253.37 277.25,-256.79"/>
</g>
<!-- LocalSigma -->
<g id="node10" class="node">
<title>LocalSigma</title>
<g id="a_node10"><a xlink:href="../API/qalgebra.core.operator_algebra.html#qalgebra.core.operator_algebra.LocalSigma" xlink:title="Level flip operator between two levels of a :class:`.LocalSpace`" target="_top">
<polygon fill="none" stroke="black" stroke-width="0.5" points="848.81,-126 780.3,-126 780.3,-108 848.81,-108 848.81,-126"/>
<text text-anchor="middle" x="814.56" y="-114" font-family="Vera Sans, DejaVu Sans, Liberation Sans, Arial, Helvetica, sans" font-size="10.00">LocalSigma</text>
</a>
</g>
</g>
<!-- LocalOperator&#45;&gt;LocalSigma -->
<g id="edge7" class="edge">
<title>LocalOperator&#45;&gt;LocalSigma</title>
<path fill="none" stroke="black" stroke-width="0.5" d="M704.57,-117C726.27,-117 753.22,-117 774.89,-117"/>
<polygon fill="black" stroke="black" stroke-width="0.5" points="774.99,-118.75 779.99,-117 774.99,-115.25 774.99,-118.75"/>
</g>
<!-- SingleQuantumOperation&#45;&gt;QuantumAdjoint -->
<g id="edge28" class="edge">
<title>SingleQuantumOperation&#45;&gt;QuantumAdjoint</title>
<path fill="none" stroke="black" stroke-width="0.5" d="M531.3,-438.01C551.38,-445.47 580.81,-456.22 606.72,-465 613.99,-467.46 621.81,-470 629.27,-472.37"/>
<polygon fill="black" stroke="black" stroke-width="0.5" points="629.06,-474.14 634.36,-473.98 630.12,-470.81 629.06,-474.14"/>
</g>
<!-- SingleQuantumOperation&#45;&gt;NullSpaceProjector -->
<g id="edge8" class="edge">
<title>SingleQuantumOperation&#45;&gt;NullSpaceProjector</title>
<path fill="none" stroke="black" stroke-width="0.5" d="M570.92,-421.68C583.51,-420.23 596.61,-418.72 608.87,-417.31"/>
<polygon fill="black" stroke="black" stroke-width="0.5" points="609.31,-419.02 614.07,-416.71 608.91,-415.55 609.31,-419.02"/>
</g>
<!-- QuantumDerivative -->
<g id="node15" class="node">
<title>QuantumDerivative</title>
<g id="a_node15"><a xlink:href="../API/qalgebra.core.abstract_quantum_algebra.html#qalgebra.core.abstract_quantum_algebra.QuantumDerivative" xlink:title="Symbolic partial derivative" target="_top">
<polygon fill="none" stroke="black" stroke-width="0.5" points="715.32,-528 614.14,-528 614.14,-510 715.32,-510 715.32,-528"/>
<text text-anchor="middle" x="664.73" y="-516" font-family="Vera Sans, DejaVu Sans, Liberation Sans, Arial, Helvetica, sans" font-size="10.00">QuantumDerivative</text>
</a>
</g>
</g>
<!-- SingleQuantumOperation&#45;&gt;QuantumDerivative -->
<g id="edge29" class="edge">
<title>SingleQuantumOperation&#45;&gt;QuantumDerivative</title>
<path fill="none" stroke="black" stroke-width="0.5" d="M517.59,-438.21C534.87,-453.25 571.31,-483.18 606.72,-501 612.15,-503.73 618.08,-506.16 624,-508.28"/>
<polygon fill="black" stroke="black" stroke-width="0.5" points="623.66,-510.01 628.96,-509.98 624.8,-506.7 623.66,-510.01"/>
</g>
<!-- SingleQuantumOperation&#45;&gt;QuantumIndexedSum -->
<g id="edge32" class="edge">
<title>SingleQuantumOperation&#45;&gt;QuantumIndexedSum</title>
<path fill="none" stroke="black" stroke-width="0.5" d="M516.02,-438C528.35,-450.77 551.51,-474.93 570.72,-496 587.05,-513.92 586.41,-523.75 606.72,-537 610.89,-539.72 615.5,-542.06 620.24,-544.05"/>
<polygon fill="black" stroke="black" stroke-width="0.5" points="619.72,-545.73 625.01,-545.94 621.01,-542.47 619.72,-545.73"/>
</g>
<!-- SingleQuantumOperation&#45;&gt;OperatorPlusMinusCC -->
<g id="edge18" class="edge">
<title>SingleQuantumOperation&#45;&gt;OperatorPlusMinusCC</title>
<path fill="none" stroke="black" stroke-width="0.5" d="M531.3,-419.99C551.38,-412.53 580.81,-401.78 606.72,-393 613.99,-390.54 621.81,-388 629.27,-385.63"/>
<polygon fill="black" stroke="black" stroke-width="0.5" points="630.12,-387.19 634.36,-384.02 629.06,-383.86 630.12,-387.19"/>
</g>
<!-- SingleQuantumOperation&#45;&gt;OperatorTrace -->
<g id="edge24" class="edge">
<title>SingleQuantumOperation&#45;&gt;OperatorTrace</title>
<path fill="none" stroke="black" stroke-width="0.5" d="M517.59,-419.79C534.87,-404.75 571.31,-374.82 606.72,-357 612.15,-354.27 618.08,-351.84 624,-349.72"/>
<polygon fill="black" stroke="black" stroke-width="0.5" points="624.8,-351.3 628.96,-348.02 623.66,-347.99 624.8,-351.3"/>
</g>
<!-- SingleQuantumOperation&#45;&gt;PseudoInverse -->
<g id="edge26" class="edge">
<title>SingleQuantumOperation&#45;&gt;PseudoInverse</title>
<path fill="none" stroke="black" stroke-width="0.5" d="M570.92,-436.32C586.74,-438.14 603.39,-440.06 618.15,-441.76"/>
<polygon fill="black" stroke="black" stroke-width="0.5" points="618.33,-443.54 623.5,-442.37 618.73,-440.06 618.33,-443.54"/>
</g>
<!-- QuantumExpression&#45;&gt;Operator -->
<g id="edge11" class="edge">
<title>QuantumExpression&#45;&gt;Operator</title>
<path fill="none" stroke="black" stroke-width="0.5" d="M192.48,-235.93C208.25,-232.44 226.96,-228.86 244.07,-227 326.3,-218.07 423.92,-219.83 473.29,-221.59"/>
<polygon fill="black" stroke="black" stroke-width="0.5" points="473.43,-223.34 478.49,-221.78 473.56,-219.84 473.43,-223.34"/>
</g>
<!-- QuantumExpression&#45;&gt;QuantumOperation -->
<g id="edge33" class="edge">
<title>QuantumExpression&#45;&gt;QuantumOperation</title>
<path fill="none" stroke="black" stroke-width="0.5" d="M198.21,-254.08C222.11,-259.2 252.01,-265.6 276.65,-270.87"/>
<polygon fill="black" stroke="black" stroke-width="0.5" points="276.57,-272.65 281.83,-271.98 277.31,-269.22 276.57,-272.65"/>
</g>
<!-- QuantumSymbol -->
<g id="node22" class="node">
<title>QuantumSymbol</title>
<g id="a_node22"><a xlink:href="../API/qalgebra.core.abstract_quantum_algebra.html#qalgebra.core.abstract_quantum_algebra.QuantumSymbol" xlink:title="Symbolic element of an algebra" target="_top">
<polygon fill="none" stroke="black" stroke-width="0.5" points="370.45,-110 279.49,-110 279.49,-92 370.45,-92 370.45,-110"/>
<text text-anchor="middle" x="324.97" y="-98" font-family="Vera Sans, DejaVu Sans, Liberation Sans, Arial, Helvetica, sans" font-size="10.00">QuantumSymbol</text>
</a>
</g>
</g>
<!-- QuantumExpression&#45;&gt;QuantumSymbol -->
<g id="edge36" class="edge">
<title>QuantumExpression&#45;&gt;QuantumSymbol</title>
<path fill="none" stroke="black" stroke-width="0.5" d="M166.29,-235.99C195.2,-211.24 275.9,-142.15 309.25,-113.6"/>
<polygon fill="black" stroke="black" stroke-width="0.5" points="310.79,-114.59 313.45,-110 308.51,-111.93 310.79,-114.59"/>
</g>
<!-- QuantumExpression&#45;&gt;ScalarTimesQuantumExpression -->
<g id="edge40" class="edge">
<title>QuantumExpression&#45;&gt;ScalarTimesQuantumExpression</title>
<path fill="none" stroke="black" stroke-width="0.5" d="M208.07,-245C217.85,-245 228.3,-245 238.77,-245"/>
<polygon fill="black" stroke="black" stroke-width="0.5" points="238.91,-246.75 243.91,-245 238.91,-243.25 238.91,-246.75"/>
</g>
<!-- QuantumDerivative&#45;&gt;OperatorDerivative -->
<g id="edge12" class="edge">
<title>QuantumDerivative&#45;&gt;OperatorDerivative</title>
<path fill="none" stroke="black" stroke-width="0.5" d="M710.33,-509.88C714.93,-507.56 719.21,-504.65 722.75,-501 763.62,-458.91 718.47,-416.66 758.75,-374 761.46,-371.13 764.62,-368.69 768.04,-366.63"/>
<polygon fill="black" stroke="black" stroke-width="0.5" points="769.27,-367.95 772.83,-364.03 767.6,-364.87 769.27,-367.95"/>
</g>
<!-- QuantumIndexedSum&#45;&gt;OperatorIndexedSum -->
<g id="edge14" class="edge">
<title>QuantumIndexedSum&#45;&gt;OperatorIndexedSum</title>
<path fill="none" stroke="black" stroke-width="0.5" d="M706.75,-545.97C712.46,-543.62 717.99,-540.68 722.75,-537 768.97,-501.24 797.78,-434.79 808.64,-405.96"/>
<polygon fill="black" stroke="black" stroke-width="0.5" points="810.37,-406.32 810.46,-401.03 807.09,-405.11 810.37,-406.32"/>
</g>
<!-- QuantumPlus&#45;&gt;OperatorPlus -->
<g id="edge16" class="edge">
<title>QuantumPlus&#45;&gt;OperatorPlus</title>
<path fill="none" stroke="black" stroke-width="0.5" d="M544.76,-303C568.06,-303 598.04,-303 622.07,-303"/>
<polygon fill="black" stroke="black" stroke-width="0.5" points="622.11,-304.75 627.11,-303 622.11,-301.25 622.11,-304.75"/>
</g>
<!-- QuantumSymbol&#45;&gt;OperatorSymbol -->
<g id="edge20" class="edge">
<title>QuantumSymbol&#45;&gt;OperatorSymbol</title>
<path fill="none" stroke="black" stroke-width="0.5" d="M359.28,-91.93C422.38,-74.74 558.96,-37.54 625.61,-19.38"/>
<polygon fill="black" stroke="black" stroke-width="0.5" points="626.31,-21.01 630.67,-18.01 625.39,-17.63 626.31,-21.01"/>
</g>
<!-- QuantumTimes&#45;&gt;OperatorTimes -->
<g id="edge22" class="edge">
<title>QuantumTimes&#45;&gt;OperatorTimes</title>
<path fill="none" stroke="black" stroke-width="0.5" d="M548.4,-267C569.85,-267 596.16,-267 618.22,-267"/>
<polygon fill="black" stroke="black" stroke-width="0.5" points="618.45,-268.75 623.45,-267 618.45,-265.25 618.45,-268.75"/>
</g>
<!-- ScalarTimesQuantumExpression&#45;&gt;ScalarTimesOperator -->
<g id="edge39" class="edge">
<title>ScalarTimesQuantumExpression&#45;&gt;ScalarTimesOperator</title>
<path fill="none" stroke="black" stroke-width="0.5" d="M332.17,-235.89C347.92,-213.42 391.78,-154.77 441.87,-122 472.92,-101.68 571.96,-71.34 626.62,-55.49"/>
<polygon fill="black" stroke="black" stroke-width="0.5" points="627.13,-57.16 631.45,-54.09 626.16,-53.8 627.13,-57.16"/>
</g>
</g>
</svg>
