<?xml version="1.0" encoding="UTF-8" standalone="no"?>
<!DOCTYPE svg PUBLIC "-//W3C//DTD SVG 1.1//EN"
 "http://www.w3.org/Graphics/SVG/1.1/DTD/svg11.dtd">
<!-- Generated by graphviz version 2.43.0 (0)
 -->
<!-- Title: inheritancef8ddef74b2 Pages: 1 -->
<svg width="1025pt" height="362pt"
 viewBox="0.00 0.00 1024.84 361.55" xmlns="http://www.w3.org/2000/svg" xmlns:xlink="http://www.w3.org/1999/xlink">
<g id="graph0" class="graph" transform="scale(1 1) rotate(0) translate(4 357.55)">
<title>inheritancef8ddef74b2</title>
<polygon fill="white" stroke="transparent" points="-4,4 -4,-357.55 1020.84,-357.55 1020.84,4 -4,4"/>
<!-- DisjunctCommutativeHSOrder -->
<g id="node1" class="node">
<title>DisjunctCommutativeHSOrder</title>
<g id="a_node1"><a xlink:href="../API/qalgebra.utils.ordering.html#qalgebra.utils.ordering.DisjunctCommutativeHSOrder" xlink:title="Auxiliary class that generates the correct pseudo&#45;order relation for" target="_top">
<polygon fill="none" stroke="black" stroke-width="0.5" points="149.89,-132.55 0.04,-132.55 0.04,-114.55 149.89,-114.55 149.89,-132.55"/>
<text text-anchor="middle" x="74.96" y="-120.55" font-family="Vera Sans, DejaVu Sans, Liberation Sans, Arial, Helvetica, sans" font-size="10.00">DisjunctCommutativeHSOrder</text>
</a>
</g>
</g>
<!-- SuperCommutativeHSOrder -->
<g id="node19" class="node">
<title>SuperCommutativeHSOrder</title>
<g id="a_node19"><a xlink:href="../API/qalgebra.core.super_operator_algebra.html#qalgebra.core.super_operator_algebra.SuperCommutativeHSOrder" xlink:title="Ordering class that acts like DisjunctCommutativeHSOrder, but also" target="_top">
<polygon fill="none" stroke="black" stroke-width="0.5" points="326.99,-132.55 185.9,-132.55 185.9,-114.55 326.99,-114.55 326.99,-132.55"/>
<text text-anchor="middle" x="256.45" y="-120.55" font-family="Vera Sans, DejaVu Sans, Liberation Sans, Arial, Helvetica, sans" font-size="10.00">SuperCommutativeHSOrder</text>
</a>
</g>
</g>
<!-- DisjunctCommutativeHSOrder&#45;&gt;SuperCommutativeHSOrder -->
<g id="edge22" class="edge">
<title>DisjunctCommutativeHSOrder&#45;&gt;SuperCommutativeHSOrder</title>
<path fill="none" stroke="black" stroke-width="0.5" d="M150,-123.55C160.12,-123.55 170.51,-123.55 180.63,-123.55"/>
<polygon fill="black" stroke="black" stroke-width="0.5" points="180.9,-125.3 185.9,-123.55 180.9,-121.8 180.9,-125.3"/>
</g>
<!-- Expression -->
<g id="node2" class="node">
<title>Expression</title>
<g id="a_node2"><a xlink:href="../API/qalgebra.core.abstract_algebra.html#qalgebra.core.abstract_algebra.Expression" xlink:title="Base class for all QAlgebra Expressions" target="_top">
<polygon fill="none" stroke="black" stroke-width="0.5" points="107.93,-186.55 41.99,-186.55 41.99,-168.55 107.93,-168.55 107.93,-186.55"/>
<text text-anchor="middle" x="74.96" y="-174.55" font-family="Vera Sans, DejaVu Sans, Liberation Sans, Arial, Helvetica, sans" font-size="10.00">Expression</text>
</a>
</g>
</g>
<!-- Operation -->
<g id="node3" class="node">
<title>Operation</title>
<g id="a_node3"><a xlink:href="../API/qalgebra.core.abstract_algebra.html#qalgebra.core.abstract_algebra.Operation" xlink:title="Base class for &quot;operations&quot;" target="_top">
<polygon fill="none" stroke="black" stroke-width="0.5" points="286.36,-223.55 226.53,-223.55 226.53,-205.55 286.36,-205.55 286.36,-223.55"/>
<text text-anchor="middle" x="256.45" y="-211.55" font-family="Vera Sans, DejaVu Sans, Liberation Sans, Arial, Helvetica, sans" font-size="10.00">Operation</text>
</a>
</g>
</g>
<!-- Expression&#45;&gt;Operation -->
<g id="edge1" class="edge">
<title>Expression&#45;&gt;Operation</title>
<path fill="none" stroke="black" stroke-width="0.5" d="M108.05,-184.17C139.92,-190.74 188.62,-200.78 221.22,-207.5"/>
<polygon fill="black" stroke="black" stroke-width="0.5" points="221.06,-209.25 226.31,-208.55 221.77,-205.82 221.06,-209.25"/>
</g>
<!-- QuantumExpression -->
<g id="node5" class="node">
<title>QuantumExpression</title>
<g id="a_node5"><a xlink:href="../API/qalgebra.core.abstract_quantum_algebra.html#qalgebra.core.abstract_quantum_algebra.QuantumExpression" xlink:title="Base class for expressions associated with a Hilbert space" target="_top">
<polygon fill="none" stroke="black" stroke-width="0.5" points="309.55,-168.55 203.35,-168.55 203.35,-150.55 309.55,-150.55 309.55,-168.55"/>
<text text-anchor="middle" x="256.45" y="-156.55" font-family="Vera Sans, DejaVu Sans, Liberation Sans, Arial, Helvetica, sans" font-size="10.00">QuantumExpression</text>
</a>
</g>
</g>
<!-- Expression&#45;&gt;QuantumExpression -->
<g id="edge5" class="edge">
<title>Expression&#45;&gt;QuantumExpression</title>
<path fill="none" stroke="black" stroke-width="0.5" d="M108.05,-174.33C133.02,-171.83 168.33,-168.29 198.12,-165.3"/>
<polygon fill="black" stroke="black" stroke-width="0.5" points="198.44,-167.03 203.24,-164.79 198.09,-163.55 198.44,-167.03"/>
</g>
<!-- QuantumOperation -->
<g id="node9" class="node">
<title>QuantumOperation</title>
<g id="a_node9"><a xlink:href="../API/qalgebra.core.abstract_quantum_algebra.html#qalgebra.core.abstract_quantum_algebra.QuantumOperation" xlink:title="Base class for operations on quantum expression" target="_top">
<polygon fill="none" stroke="black" stroke-width="0.5" points="494.42,-317.55 393.32,-317.55 393.32,-299.55 494.42,-299.55 494.42,-317.55"/>
<text text-anchor="middle" x="443.87" y="-305.55" font-family="Vera Sans, DejaVu Sans, Liberation Sans, Arial, Helvetica, sans" font-size="10.00">QuantumOperation</text>
</a>
</g>
</g>
<!-- Operation&#45;&gt;QuantumOperation -->
<g id="edge7" class="edge">
<title>Operation&#45;&gt;QuantumOperation</title>
<path fill="none" stroke="black" stroke-width="0.5" d="M268.45,-223.68C286.91,-238.58 325.75,-268.2 362.97,-285.55 373.73,-290.57 385.82,-294.74 397.28,-298.08"/>
<polygon fill="black" stroke="black" stroke-width="0.5" points="396.86,-299.78 402.15,-299.47 397.82,-296.42 396.86,-299.78"/>
</g>
<!-- SPost -->
<g id="node13" class="node">
<title>SPost</title>
<g id="a_node13"><a xlink:href="../API/qalgebra.core.super_operator_algebra.html#qalgebra.core.super_operator_algebra.SPost" xlink:title="Linear post&#45;multiplication operator" target="_top">
<polygon fill="none" stroke="black" stroke-width="0.5" points="662,-245.55 608,-245.55 608,-227.55 662,-227.55 662,-245.55"/>
<text text-anchor="middle" x="635" y="-233.55" font-family="Vera Sans, DejaVu Sans, Liberation Sans, Arial, Helvetica, sans" font-size="10.00">SPost</text>
</a>
</g>
</g>
<!-- Operation&#45;&gt;SPost -->
<g id="edge12" class="edge">
<title>Operation&#45;&gt;SPost</title>
<path fill="none" stroke="black" stroke-width="0.5" d="M286.46,-219.6C307.6,-223.05 336.97,-227.38 362.97,-229.55 449.59,-236.8 552.27,-237.24 602.77,-236.91"/>
<polygon fill="black" stroke="black" stroke-width="0.5" points="602.8,-238.66 607.78,-236.88 602.77,-235.16 602.8,-238.66"/>
</g>
<!-- SPre -->
<g id="node15" class="node">
<title>SPre</title>
<g id="a_node15"><a xlink:href="../API/qalgebra.core.super_operator_algebra.html#qalgebra.core.super_operator_algebra.SPre" xlink:title="Linear pre&#45;multiplication operator" target="_top">
<polygon fill="none" stroke="black" stroke-width="0.5" points="662,-209.55 608,-209.55 608,-191.55 662,-191.55 662,-209.55"/>
<text text-anchor="middle" x="635" y="-197.55" font-family="Vera Sans, DejaVu Sans, Liberation Sans, Arial, Helvetica, sans" font-size="10.00">SPre</text>
</a>
</g>
</g>
<!-- Operation&#45;&gt;SPre -->
<g id="edge14" class="edge">
<title>Operation&#45;&gt;SPre</title>
<path fill="none" stroke="black" stroke-width="0.5" d="M286.76,-215.77C335.99,-217.55 438.39,-220.07 524.77,-214.55 551.09,-212.87 580.76,-208.94 602.53,-205.67"/>
<polygon fill="black" stroke="black" stroke-width="0.5" points="602.93,-207.38 607.61,-204.89 602.4,-203.92 602.93,-207.38"/>
</g>
<!-- ScalarTimesQuantumExpression -->
<g id="node16" class="node">
<title>ScalarTimesQuantumExpression</title>
<g id="a_node16"><a xlink:href="../API/qalgebra.core.abstract_quantum_algebra.html#qalgebra.core.abstract_quantum_algebra.ScalarTimesQuantumExpression" xlink:title="Product of a :class:`.Scalar` and a :class:`QuantumExpression`" target="_top">
<polygon fill="none" stroke="black" stroke-width="0.5" points="524.67,-205.55 363.07,-205.55 363.07,-187.55 524.67,-187.55 524.67,-205.55"/>
<text text-anchor="middle" x="443.87" y="-193.55" font-family="Vera Sans, DejaVu Sans, Liberation Sans, Arial, Helvetica, sans" font-size="10.00">ScalarTimesQuantumExpression</text>
</a>
</g>
</g>
<!-- Operation&#45;&gt;ScalarTimesQuantumExpression -->
<g id="edge16" class="edge">
<title>Operation&#45;&gt;ScalarTimesQuantumExpression</title>
<path fill="none" stroke="black" stroke-width="0.5" d="M286.42,-211.74C305.71,-209.87 332.13,-207.3 357.77,-204.81"/>
<polygon fill="black" stroke="black" stroke-width="0.5" points="358.08,-206.54 362.89,-204.32 357.74,-203.06 358.08,-206.54"/>
</g>
<!-- SuperOperatorTimesOperator -->
<g id="node24" class="node">
<title>SuperOperatorTimesOperator</title>
<g id="a_node24"><a xlink:href="../API/qalgebra.core.super_operator_algebra.html#qalgebra.core.super_operator_algebra.SuperOperatorTimesOperator" xlink:title="Application of a super&#45;operator to an operator" target="_top">
<polygon fill="none" stroke="black" stroke-width="0.5" points="709.47,-137.55 560.54,-137.55 560.54,-119.55 709.47,-119.55 709.47,-137.55"/>
<text text-anchor="middle" x="635" y="-125.55" font-family="Vera Sans, DejaVu Sans, Liberation Sans, Arial, Helvetica, sans" font-size="10.00">SuperOperatorTimesOperator</text>
</a>
</g>
</g>
<!-- Operation&#45;&gt;SuperOperatorTimesOperator -->
<g id="edge33" class="edge">
<title>Operation&#45;&gt;SuperOperatorTimesOperator</title>
<path fill="none" stroke="black" stroke-width="0.5" d="M280.62,-205.55C301.8,-197.59 334.13,-186.09 362.97,-178.55 430.91,-160.8 510.03,-146.97 565.19,-138.4"/>
<polygon fill="black" stroke="black" stroke-width="0.5" points="565.77,-140.08 570.45,-137.58 565.24,-136.62 565.77,-140.08"/>
</g>
<!-- Operator -->
<g id="node4" class="node">
<title>Operator</title>
<g id="a_node4"><a xlink:href="../API/qalgebra.core.operator_algebra.html#qalgebra.core.operator_algebra.Operator" xlink:title="Base class for all quantum operators." target="_top">
<polygon fill="none" stroke="black" stroke-width="0.5" points="471.83,-131.55 415.91,-131.55 415.91,-113.55 471.83,-113.55 471.83,-131.55"/>
<text text-anchor="middle" x="443.87" y="-119.55" font-family="Vera Sans, DejaVu Sans, Liberation Sans, Arial, Helvetica, sans" font-size="10.00">Operator</text>
</a>
</g>
</g>
<!-- Operator&#45;&gt;SuperOperatorTimesOperator -->
<g id="edge32" class="edge">
<title>Operator&#45;&gt;SuperOperatorTimesOperator</title>
<path fill="none" stroke="black" stroke-width="0.5" d="M471.97,-123.41C493.79,-124.1 525.61,-125.11 555.29,-126.06"/>
<polygon fill="black" stroke="black" stroke-width="0.5" points="555.37,-127.81 560.42,-126.22 555.48,-124.31 555.37,-127.81"/>
</g>
<!-- QuantumExpression&#45;&gt;Operator -->
<g id="edge2" class="edge">
<title>QuantumExpression&#45;&gt;Operator</title>
<path fill="none" stroke="black" stroke-width="0.5" d="M302.81,-150.5C336.35,-143.81 381.21,-134.86 411.02,-128.91"/>
<polygon fill="black" stroke="black" stroke-width="0.5" points="411.48,-130.6 416.04,-127.91 410.79,-127.17 411.48,-130.6"/>
</g>
<!-- QuantumExpression&#45;&gt;QuantumOperation -->
<g id="edge6" class="edge">
<title>QuantumExpression&#45;&gt;QuantumOperation</title>
<path fill="none" stroke="black" stroke-width="0.5" d="M278.11,-168.67C292.42,-175.43 311.6,-185.38 326.97,-196.55 369.58,-227.54 412.21,-273.53 431.78,-295.69"/>
<polygon fill="black" stroke="black" stroke-width="0.5" points="430.54,-296.94 435.16,-299.54 433.17,-294.63 430.54,-296.94"/>
</g>
<!-- QuantumSymbol -->
<g id="node11" class="node">
<title>QuantumSymbol</title>
<g id="a_node11"><a xlink:href="../API/qalgebra.core.abstract_quantum_algebra.html#qalgebra.core.abstract_quantum_algebra.QuantumSymbol" xlink:title="Symbolic element of an algebra" target="_top">
<polygon fill="none" stroke="black" stroke-width="0.5" points="489.35,-95.55 398.39,-95.55 398.39,-77.55 489.35,-77.55 489.35,-95.55"/>
<text text-anchor="middle" x="443.87" y="-83.55" font-family="Vera Sans, DejaVu Sans, Liberation Sans, Arial, Helvetica, sans" font-size="10.00">QuantumSymbol</text>
</a>
</g>
</g>
<!-- QuantumExpression&#45;&gt;QuantumSymbol -->
<g id="edge9" class="edge">
<title>QuantumExpression&#45;&gt;QuantumSymbol</title>
<path fill="none" stroke="black" stroke-width="0.5" d="M306.29,-150.54C313.49,-148.2 320.61,-145.25 326.97,-141.55 346.81,-130.03 342.95,-115.76 362.97,-104.55 372.25,-99.36 382.92,-95.66 393.38,-93.04"/>
<polygon fill="black" stroke="black" stroke-width="0.5" points="394.03,-94.68 398.49,-91.83 393.23,-91.27 394.03,-94.68"/>
</g>
<!-- SuperOperator -->
<g id="node14" class="node">
<title>SuperOperator</title>
<g id="a_node14"><a xlink:href="../API/qalgebra.core.super_operator_algebra.html#qalgebra.core.super_operator_algebra.SuperOperator" xlink:title="Base class for super&#45;operators" target="_top">
<polygon fill="none" stroke="black" stroke-width="0.5" points="485.02,-59.55 402.72,-59.55 402.72,-41.55 485.02,-41.55 485.02,-59.55"/>
<text text-anchor="middle" x="443.87" y="-47.55" font-family="Vera Sans, DejaVu Sans, Liberation Sans, Arial, Helvetica, sans" font-size="10.00">SuperOperator</text>
</a>
</g>
</g>
<!-- QuantumExpression&#45;&gt;SuperOperator -->
<g id="edge23" class="edge">
<title>QuantumExpression&#45;&gt;SuperOperator</title>
<path fill="none" stroke="black" stroke-width="0.5" d="M309.59,-151.42C315.86,-148.94 321.84,-145.72 326.97,-141.55 355.03,-118.72 334.55,-90.94 362.97,-68.55 372.74,-60.85 385.17,-56.32 397.3,-53.68"/>
<polygon fill="black" stroke="black" stroke-width="0.5" points="397.9,-55.34 402.46,-52.66 397.22,-51.91 397.9,-55.34"/>
</g>
<!-- QuantumExpression&#45;&gt;ScalarTimesQuantumExpression -->
<g id="edge15" class="edge">
<title>QuantumExpression&#45;&gt;ScalarTimesQuantumExpression</title>
<path fill="none" stroke="black" stroke-width="0.5" d="M302.81,-168.6C329.96,-174.02 364.52,-180.92 392.51,-186.5"/>
<polygon fill="black" stroke="black" stroke-width="0.5" points="392.41,-188.27 397.66,-187.53 393.1,-184.84 392.41,-188.27"/>
</g>
<!-- QuantumAdjoint -->
<g id="node6" class="node">
<title>QuantumAdjoint</title>
<g id="a_node6"><a xlink:href="../API/qalgebra.core.abstract_quantum_algebra.html#qalgebra.core.abstract_quantum_algebra.QuantumAdjoint" xlink:title="Base class for adjoints of quantum expressions" target="_top">
<polygon fill="none" stroke="black" stroke-width="0.5" points="843.45,-325.55 756.03,-325.55 756.03,-307.55 843.45,-307.55 843.45,-325.55"/>
<text text-anchor="middle" x="799.74" y="-313.55" font-family="Vera Sans, DejaVu Sans, Liberation Sans, Arial, Helvetica, sans" font-size="10.00">QuantumAdjoint</text>
</a>
</g>
</g>
<!-- SuperAdjoint -->
<g id="node18" class="node">
<title>SuperAdjoint</title>
<g id="a_node18"><a xlink:href="../API/qalgebra.core.super_operator_algebra.html#qalgebra.core.super_operator_algebra.SuperAdjoint" xlink:title="Adjoint of a super&#45;operator" target="_top">
<polygon fill="none" stroke="black" stroke-width="0.5" points="990.3,-62.55 916.78,-62.55 916.78,-44.55 990.3,-44.55 990.3,-62.55"/>
<text text-anchor="middle" x="953.54" y="-50.55" font-family="Vera Sans, DejaVu Sans, Liberation Sans, Arial, Helvetica, sans" font-size="10.00">SuperAdjoint</text>
</a>
</g>
</g>
<!-- QuantumAdjoint&#45;&gt;SuperAdjoint -->
<g id="edge20" class="edge">
<title>QuantumAdjoint&#45;&gt;SuperAdjoint</title>
<path fill="none" stroke="black" stroke-width="0.5" d="M815.01,-307.26C826.78,-299.03 843.26,-286.07 854.24,-271.55 905.8,-203.38 938.01,-103.87 948.64,-67.51"/>
<polygon fill="black" stroke="black" stroke-width="0.5" points="950.35,-67.91 950.05,-62.62 946.99,-66.94 950.35,-67.91"/>
</g>
<!-- SingleQuantumOperation -->
<g id="node7" class="node">
<title>SingleQuantumOperation</title>
<g id="a_node7"><a xlink:href="../API/qalgebra.core.abstract_quantum_algebra.html#qalgebra.core.abstract_quantum_algebra.SingleQuantumOperation" xlink:title="Base class for operations on a single quantum expression" target="_top">
<polygon fill="none" stroke="black" stroke-width="0.5" points="699.35,-353.55 570.66,-353.55 570.66,-335.55 699.35,-335.55 699.35,-353.55"/>
<text text-anchor="middle" x="635" y="-341.55" font-family="Vera Sans, DejaVu Sans, Liberation Sans, Arial, Helvetica, sans" font-size="10.00">SingleQuantumOperation</text>
</a>
</g>
</g>
<!-- SingleQuantumOperation&#45;&gt;QuantumAdjoint -->
<g id="edge3" class="edge">
<title>SingleQuantumOperation&#45;&gt;QuantumAdjoint</title>
<path fill="none" stroke="black" stroke-width="0.5" d="M688.39,-335.54C708.43,-332.09 731.18,-328.18 750.79,-324.8"/>
<polygon fill="black" stroke="black" stroke-width="0.5" points="751.33,-326.49 755.96,-323.91 750.74,-323.04 751.33,-326.49"/>
</g>
<!-- QuantumDerivative -->
<g id="node8" class="node">
<title>QuantumDerivative</title>
<g id="a_node8"><a xlink:href="../API/qalgebra.core.abstract_quantum_algebra.html#qalgebra.core.abstract_quantum_algebra.QuantumDerivative" xlink:title="Symbolic partial derivative" target="_top">
<polygon fill="none" stroke="black" stroke-width="0.5" points="850.33,-262.55 749.15,-262.55 749.15,-244.55 850.33,-244.55 850.33,-262.55"/>
<text text-anchor="middle" x="799.74" y="-250.55" font-family="Vera Sans, DejaVu Sans, Liberation Sans, Arial, Helvetica, sans" font-size="10.00">QuantumDerivative</text>
</a>
</g>
</g>
<!-- SingleQuantumOperation&#45;&gt;QuantumDerivative -->
<g id="edge4" class="edge">
<title>SingleQuantumOperation&#45;&gt;QuantumDerivative</title>
<path fill="none" stroke="black" stroke-width="0.5" d="M685.92,-335.45C693.93,-333.1 701.97,-330.18 709.24,-326.55 713.43,-324.46 759.34,-286.4 783.72,-266.09"/>
<polygon fill="black" stroke="black" stroke-width="0.5" points="785,-267.3 787.72,-262.76 782.76,-264.61 785,-267.3"/>
</g>
<!-- SuperOperatorDerivative -->
<g id="node20" class="node">
<title>SuperOperatorDerivative</title>
<g id="a_node20"><a xlink:href="../API/qalgebra.core.super_operator_algebra.html#qalgebra.core.super_operator_algebra.SuperOperatorDerivative" xlink:title="Symbolic partial derivative of a super&#45;operator" target="_top">
<polygon fill="none" stroke="black" stroke-width="0.5" points="1016.65,-25.55 890.44,-25.55 890.44,-7.55 1016.65,-7.55 1016.65,-25.55"/>
<text text-anchor="middle" x="953.54" y="-13.55" font-family="Vera Sans, DejaVu Sans, Liberation Sans, Arial, Helvetica, sans" font-size="10.00">SuperOperatorDerivative</text>
</a>
</g>
</g>
<!-- QuantumDerivative&#45;&gt;SuperOperatorDerivative -->
<g id="edge24" class="edge">
<title>QuantumDerivative&#45;&gt;SuperOperatorDerivative</title>
<path fill="none" stroke="black" stroke-width="0.5" d="M809.72,-244.12C821.65,-231.08 842.55,-206.35 854.24,-181.55 882.73,-121.1 844.28,-84.07 890.24,-35.55 892.91,-32.73 895.99,-30.32 899.32,-28.27"/>
<polygon fill="black" stroke="black" stroke-width="0.5" points="900.46,-29.64 903.99,-25.69 898.77,-26.57 900.46,-29.64"/>
</g>
<!-- QuantumOperation&#45;&gt;SingleQuantumOperation -->
<g id="edge19" class="edge">
<title>QuantumOperation&#45;&gt;SingleQuantumOperation</title>
<path fill="none" stroke="black" stroke-width="0.5" d="M492.6,-317.64C519.69,-322.79 553.65,-329.26 581.49,-334.56"/>
<polygon fill="black" stroke="black" stroke-width="0.5" points="581.38,-336.32 586.62,-335.53 582.04,-332.88 581.38,-336.32"/>
</g>
<!-- QuantumPlus -->
<g id="node10" class="node">
<title>QuantumPlus</title>
<g id="a_node10"><a xlink:href="../API/qalgebra.core.abstract_quantum_algebra.html#qalgebra.core.abstract_quantum_algebra.QuantumPlus" xlink:title="General implementation of addition of quantum expressions" target="_top">
<polygon fill="none" stroke="black" stroke-width="0.5" points="673.09,-317.55 596.92,-317.55 596.92,-299.55 673.09,-299.55 673.09,-317.55"/>
<text text-anchor="middle" x="635" y="-305.55" font-family="Vera Sans, DejaVu Sans, Liberation Sans, Arial, Helvetica, sans" font-size="10.00">QuantumPlus</text>
</a>
</g>
</g>
<!-- QuantumOperation&#45;&gt;QuantumPlus -->
<g id="edge8" class="edge">
<title>QuantumOperation&#45;&gt;QuantumPlus</title>
<path fill="none" stroke="black" stroke-width="0.5" d="M494.56,-308.55C524.75,-308.55 562.88,-308.55 591.64,-308.55"/>
<polygon fill="black" stroke="black" stroke-width="0.5" points="591.89,-310.3 596.89,-308.55 591.89,-306.8 591.89,-310.3"/>
</g>
<!-- QuantumTimes -->
<g id="node12" class="node">
<title>QuantumTimes</title>
<g id="a_node12"><a xlink:href="../API/qalgebra.core.abstract_quantum_algebra.html#qalgebra.core.abstract_quantum_algebra.QuantumTimes" xlink:title="General implementation of product of quantum expressions" target="_top">
<polygon fill="none" stroke="black" stroke-width="0.5" points="676.99,-281.55 593.02,-281.55 593.02,-263.55 676.99,-263.55 676.99,-281.55"/>
<text text-anchor="middle" x="635" y="-269.55" font-family="Vera Sans, DejaVu Sans, Liberation Sans, Arial, Helvetica, sans" font-size="10.00">QuantumTimes</text>
</a>
</g>
</g>
<!-- QuantumOperation&#45;&gt;QuantumTimes -->
<g id="edge10" class="edge">
<title>QuantumOperation&#45;&gt;QuantumTimes</title>
<path fill="none" stroke="black" stroke-width="0.5" d="M492.6,-299.47C521.77,-293.92 558.9,-286.85 587.79,-281.35"/>
<polygon fill="black" stroke="black" stroke-width="0.5" points="588.13,-283.07 592.72,-280.41 587.48,-279.63 588.13,-283.07"/>
</g>
<!-- SuperOperatorPlus -->
<g id="node21" class="node">
<title>SuperOperatorPlus</title>
<g id="a_node21"><a xlink:href="../API/qalgebra.core.super_operator_algebra.html#qalgebra.core.super_operator_algebra.SuperOperatorPlus" xlink:title="A sum of super&#45;operators" target="_top">
<polygon fill="none" stroke="black" stroke-width="0.5" points="850.34,-172.55 749.14,-172.55 749.14,-154.55 850.34,-154.55 850.34,-172.55"/>
<text text-anchor="middle" x="799.74" y="-160.55" font-family="Vera Sans, DejaVu Sans, Liberation Sans, Arial, Helvetica, sans" font-size="10.00">SuperOperatorPlus</text>
</a>
</g>
</g>
<!-- QuantumPlus&#45;&gt;SuperOperatorPlus -->
<g id="edge26" class="edge">
<title>QuantumPlus&#45;&gt;SuperOperatorPlus</title>
<path fill="none" stroke="black" stroke-width="0.5" d="M673.29,-304.92C685.58,-302.34 698.76,-297.97 709.24,-290.55 733.08,-273.67 728.52,-259.51 745.24,-235.55 759.77,-214.72 777.51,-191.2 788.46,-176.88"/>
<polygon fill="black" stroke="black" stroke-width="0.5" points="789.98,-177.78 791.63,-172.74 787.2,-175.65 789.98,-177.78"/>
</g>
<!-- SuperOperatorSymbol -->
<g id="node22" class="node">
<title>SuperOperatorSymbol</title>
<g id="a_node22"><a xlink:href="../API/qalgebra.core.super_operator_algebra.html#qalgebra.core.super_operator_algebra.SuperOperatorSymbol" xlink:title="Symbolic super&#45;operator" target="_top">
<polygon fill="none" stroke="black" stroke-width="0.5" points="693,-101.55 577.01,-101.55 577.01,-83.55 693,-83.55 693,-101.55"/>
<text text-anchor="middle" x="635" y="-89.55" font-family="Vera Sans, DejaVu Sans, Liberation Sans, Arial, Helvetica, sans" font-size="10.00">SuperOperatorSymbol</text>
</a>
</g>
</g>
<!-- QuantumSymbol&#45;&gt;SuperOperatorSymbol -->
<g id="edge28" class="edge">
<title>QuantumSymbol&#45;&gt;SuperOperatorSymbol</title>
<path fill="none" stroke="black" stroke-width="0.5" d="M489.21,-87.96C513.88,-88.74 544.97,-89.73 572.02,-90.59"/>
<polygon fill="black" stroke="black" stroke-width="0.5" points="571.96,-92.34 577.02,-90.75 572.07,-88.84 571.96,-92.34"/>
</g>
<!-- SuperOperatorTimes -->
<g id="node23" class="node">
<title>SuperOperatorTimes</title>
<g id="a_node23"><a xlink:href="../API/qalgebra.core.super_operator_algebra.html#qalgebra.core.super_operator_algebra.SuperOperatorTimes" xlink:title="Product of super&#45;operators" target="_top">
<polygon fill="none" stroke="black" stroke-width="0.5" points="854.24,-135.55 745.23,-135.55 745.23,-117.55 854.24,-117.55 854.24,-135.55"/>
<text text-anchor="middle" x="799.74" y="-123.55" font-family="Vera Sans, DejaVu Sans, Liberation Sans, Arial, Helvetica, sans" font-size="10.00">SuperOperatorTimes</text>
</a>
</g>
</g>
<!-- QuantumTimes&#45;&gt;SuperOperatorTimes -->
<g id="edge30" class="edge">
<title>QuantumTimes&#45;&gt;SuperOperatorTimes</title>
<path fill="none" stroke="black" stroke-width="0.5" d="M677.15,-269.84C688.71,-267.26 700.49,-262.64 709.24,-254.55 746.69,-219.91 709.56,-182.03 745.24,-145.55 748.03,-142.69 751.28,-140.26 754.78,-138.2"/>
<polygon fill="black" stroke="black" stroke-width="0.5" points="756.08,-139.49 759.68,-135.6 754.44,-136.4 756.08,-139.49"/>
</g>
<!-- SuperOperator&#45;&gt;SPost -->
<g id="edge11" class="edge">
<title>SuperOperator&#45;&gt;SPost</title>
<path fill="none" stroke="black" stroke-width="0.5" d="M485.2,-51.14C499.37,-53.35 514.34,-58.27 524.77,-68.55 573.59,-116.69 512.42,-169.94 560.77,-218.55 571.62,-229.47 587.95,-234.15 602.44,-236.03"/>
<polygon fill="black" stroke="black" stroke-width="0.5" points="602.52,-237.8 607.68,-236.6 602.9,-234.32 602.52,-237.8"/>
</g>
<!-- SuperOperator&#45;&gt;SPre -->
<g id="edge13" class="edge">
<title>SuperOperator&#45;&gt;SPre</title>
<path fill="none" stroke="black" stroke-width="0.5" d="M485.23,-51.6C499.24,-53.89 514.09,-58.74 524.77,-68.55 563.89,-104.51 522,-146.22 560.77,-182.55 572,-193.08 588.36,-197.73 602.77,-199.69"/>
<polygon fill="black" stroke="black" stroke-width="0.5" points="602.81,-201.45 607.98,-200.29 603.21,-197.98 602.81,-201.45"/>
</g>
<!-- ScalarTimesSuperOperator -->
<g id="node17" class="node">
<title>ScalarTimesSuperOperator</title>
<g id="a_node17"><a xlink:href="../API/qalgebra.core.super_operator_algebra.html#qalgebra.core.super_operator_algebra.ScalarTimesSuperOperator" xlink:title="Product of a :class:`.Scalar` coefficient and a" target="_top">
<polygon fill="none" stroke="black" stroke-width="0.5" points="703.85,-173.55 566.16,-173.55 566.16,-155.55 703.85,-155.55 703.85,-173.55"/>
<text text-anchor="middle" x="635" y="-161.55" font-family="Vera Sans, DejaVu Sans, Liberation Sans, Arial, Helvetica, sans" font-size="10.00">ScalarTimesSuperOperator</text>
</a>
</g>
</g>
<!-- SuperOperator&#45;&gt;ScalarTimesSuperOperator -->
<g id="edge17" class="edge">
<title>SuperOperator&#45;&gt;ScalarTimesSuperOperator</title>
<path fill="none" stroke="black" stroke-width="0.5" d="M484.99,-52.43C498.81,-54.82 513.6,-59.52 524.77,-68.55 554.46,-92.56 531.32,-122.26 560.77,-146.55 563.83,-149.07 567.18,-151.25 570.72,-153.13"/>
<polygon fill="black" stroke="black" stroke-width="0.5" points="570.4,-154.91 575.66,-155.51 571.92,-151.76 570.4,-154.91"/>
</g>
<!-- SuperOperator&#45;&gt;SuperAdjoint -->
<g id="edge21" class="edge">
<title>SuperOperator&#45;&gt;SuperAdjoint</title>
<path fill="none" stroke="black" stroke-width="0.5" d="M472.12,-41.41C495.37,-34.11 529.84,-24.49 560.77,-20.55 688.39,-4.3 840.45,-29.87 911.79,-44.49"/>
<polygon fill="black" stroke="black" stroke-width="0.5" points="911.53,-46.22 916.78,-45.52 912.24,-42.79 911.53,-46.22"/>
</g>
<!-- SuperOperator&#45;&gt;SuperOperatorDerivative -->
<g id="edge25" class="edge">
<title>SuperOperator&#45;&gt;SuperOperatorDerivative</title>
<path fill="none" stroke="black" stroke-width="0.5" d="M465.29,-41.42C488.05,-31.78 526.2,-17.21 560.77,-11.55 673.42,6.89 806.73,-0.99 885.21,-8.62"/>
<polygon fill="black" stroke="black" stroke-width="0.5" points="885.15,-10.37 890.3,-9.12 885.49,-6.89 885.15,-10.37"/>
</g>
<!-- SuperOperator&#45;&gt;SuperOperatorPlus -->
<g id="edge27" class="edge">
<title>SuperOperator&#45;&gt;SuperOperatorPlus</title>
<path fill="none" stroke="black" stroke-width="0.5" d="M485.13,-49.58C549.91,-48.78 673.65,-50.56 709.24,-74.55 738.24,-94.11 718.9,-121.52 745.24,-144.55 748.72,-147.6 752.73,-150.17 756.96,-152.34"/>
<polygon fill="black" stroke="black" stroke-width="0.5" points="756.34,-153.98 761.61,-154.53 757.83,-150.81 756.34,-153.98"/>
</g>
<!-- SuperOperator&#45;&gt;SuperOperatorSymbol -->
<g id="edge29" class="edge">
<title>SuperOperator&#45;&gt;SuperOperatorSymbol</title>
<path fill="none" stroke="black" stroke-width="0.5" d="M484.98,-59.46C515.24,-66.18 556.79,-75.41 588.33,-82.41"/>
<polygon fill="black" stroke="black" stroke-width="0.5" points="588.04,-84.14 593.3,-83.51 588.8,-80.72 588.04,-84.14"/>
</g>
<!-- SuperOperator&#45;&gt;SuperOperatorTimes -->
<g id="edge31" class="edge">
<title>SuperOperator&#45;&gt;SuperOperatorTimes</title>
<path fill="none" stroke="black" stroke-width="0.5" d="M476.8,-41.49C527.96,-28.68 630.55,-10.14 709.24,-41.55 745.5,-56.03 775.49,-92.96 789.76,-113.05"/>
<polygon fill="black" stroke="black" stroke-width="0.5" points="788.43,-114.2 792.72,-117.3 791.3,-112.2 788.43,-114.2"/>
</g>
<!-- ScalarTimesQuantumExpression&#45;&gt;ScalarTimesSuperOperator -->
<g id="edge18" class="edge">
<title>ScalarTimesQuantumExpression&#45;&gt;ScalarTimesSuperOperator</title>
<path fill="none" stroke="black" stroke-width="0.5" d="M498.31,-187.51C522.38,-183.44 550.86,-178.62 575.5,-174.45"/>
<polygon fill="black" stroke="black" stroke-width="0.5" points="576.06,-176.13 580.7,-173.57 575.47,-172.68 576.06,-176.13"/>
</g>
</g>
</svg>
