<?xml version="1.0" encoding="UTF-8" standalone="no"?>
<!DOCTYPE svg PUBLIC "-//W3C//DTD SVG 1.1//EN"
 "http://www.w3.org/Graphics/SVG/1.1/DTD/svg11.dtd">
<!-- Generated by graphviz version 2.38.0 (20140413.2041)
 -->
<!-- Title: inheritancef8ddef74b2 Pages: 1 -->
<svg width="1084pt" height="442pt"
 viewBox="0.00 0.00 1084.00 442.50" xmlns="http://www.w3.org/2000/svg" xmlns:xlink="http://www.w3.org/1999/xlink">
<g id="graph0" class="graph" transform="scale(1 1) rotate(0) translate(4 438.498)">
<title>inheritancef8ddef74b2</title>
<polygon fill="white" stroke="none" points="-4,4 -4,-438.498 1080,-438.498 1080,4 -4,4"/>
<!-- DisjunctCommutativeHSOrder -->
<g id="node1" class="node"><title>DisjunctCommutativeHSOrder</title>
<g id="a_node1"><a xlink:href="../API/qalgebra.utils.ordering.html#qalgebra.utils.ordering.DisjunctCommutativeHSOrder" xlink:title="Auxiliary class that generates the correct pseudo&#45;order relation for" target="_top">
<polygon fill="none" stroke="black" stroke-width="0.5" points="161,-228.498 0,-228.498 0,-209.498 161,-209.498 161,-228.498"/>
<text text-anchor="middle" x="80.5" y="-216.498" font-family="Vera Sans, DejaVu Sans, Liberation Sans, Arial, Helvetica, sans" font-size="10.00">DisjunctCommutativeHSOrder</text>
</a>
</g>
</g>
<!-- SuperCommutativeHSOrder -->
<g id="node19" class="node"><title>SuperCommutativeHSOrder</title>
<g id="a_node19"><a xlink:href="../API/qalgebra.core.super_operator_algebra.html#qalgebra.core.super_operator_algebra.SuperCommutativeHSOrder" xlink:title="Ordering class that acts like DisjunctCommutativeHSOrder, but also" target="_top">
<polygon fill="none" stroke="black" stroke-width="0.5" points="349,-228.498 197,-228.498 197,-209.498 349,-209.498 349,-228.498"/>
<text text-anchor="middle" x="273" y="-216.498" font-family="Vera Sans, DejaVu Sans, Liberation Sans, Arial, Helvetica, sans" font-size="10.00">SuperCommutativeHSOrder</text>
</a>
</g>
</g>
<!-- DisjunctCommutativeHSOrder&#45;&gt;SuperCommutativeHSOrder -->
<g id="edge22" class="edge"><title>DisjunctCommutativeHSOrder&#45;&gt;SuperCommutativeHSOrder</title>
<path fill="none" stroke="black" stroke-width="0.5" d="M161.185,-218.998C171.257,-218.998 181.567,-218.998 191.649,-218.998"/>
<polygon fill="black" stroke="black" stroke-width="0.5" points="191.897,-220.748 196.897,-218.998 191.897,-217.248 191.897,-220.748"/>
</g>
<!-- Expression -->
<g id="node2" class="node"><title>Expression</title>
<g id="a_node2"><a xlink:href="../API/qalgebra.core.abstract_algebra.html#qalgebra.core.abstract_algebra.Expression" xlink:title="Base class for all QAlgebra Expressions." target="_top">
<polygon fill="none" stroke="black" stroke-width="0.5" points="114.5,-288.498 46.5,-288.498 46.5,-269.498 114.5,-269.498 114.5,-288.498"/>
<text text-anchor="middle" x="80.5" y="-276.498" font-family="Vera Sans, DejaVu Sans, Liberation Sans, Arial, Helvetica, sans" font-size="10.00">Expression</text>
</a>
</g>
</g>
<!-- Operation -->
<g id="node3" class="node"><title>Operation</title>
<g id="a_node3"><a xlink:href="../API/qalgebra.core.abstract_algebra.html#qalgebra.core.abstract_algebra.Operation" xlink:title="Base class for &quot;operations&quot;" target="_top">
<polygon fill="none" stroke="black" stroke-width="0.5" points="305,-311.498 241,-311.498 241,-292.498 305,-292.498 305,-311.498"/>
<text text-anchor="middle" x="273" y="-299.498" font-family="Vera Sans, DejaVu Sans, Liberation Sans, Arial, Helvetica, sans" font-size="10.00">Operation</text>
</a>
</g>
</g>
<!-- Expression&#45;&gt;Operation -->
<g id="edge1" class="edge"><title>Expression&#45;&gt;Operation</title>
<path fill="none" stroke="black" stroke-width="0.5" d="M114.683,-283.004C148.517,-287.089 200.857,-293.408 235.758,-297.622"/>
<polygon fill="black" stroke="black" stroke-width="0.5" points="235.602,-299.366 240.776,-298.228 236.022,-295.891 235.602,-299.366"/>
</g>
<!-- QuantumExpression -->
<g id="node5" class="node"><title>QuantumExpression</title>
<g id="a_node5"><a xlink:href="../API/qalgebra.core.abstract_quantum_algebra.html#qalgebra.core.abstract_quantum_algebra.QuantumExpression" xlink:title="Base class for expressions associated with a Hilbert space" target="_top">
<polygon fill="none" stroke="black" stroke-width="0.5" points="329.5,-265.498 216.5,-265.498 216.5,-246.498 329.5,-246.498 329.5,-265.498"/>
<text text-anchor="middle" x="273" y="-253.498" font-family="Vera Sans, DejaVu Sans, Liberation Sans, Arial, Helvetica, sans" font-size="10.00">QuantumExpression</text>
</a>
</g>
</g>
<!-- Expression&#45;&gt;QuantumExpression -->
<g id="edge5" class="edge"><title>Expression&#45;&gt;QuantumExpression</title>
<path fill="none" stroke="black" stroke-width="0.5" d="M114.683,-274.992C141.295,-271.779 179.356,-267.183 211.375,-263.317"/>
<polygon fill="black" stroke="black" stroke-width="0.5" points="211.705,-265.04 216.459,-262.704 211.286,-261.566 211.705,-265.04"/>
</g>
<!-- QuantumOperation -->
<g id="node9" class="node"><title>QuantumOperation</title>
<g id="a_node9"><a xlink:href="../API/qalgebra.core.abstract_quantum_algebra.html#qalgebra.core.abstract_quantum_algebra.QuantumOperation" xlink:title="Base class for operations on quantum expression" target="_top">
<polygon fill="none" stroke="black" stroke-width="0.5" points="525.5,-397.498 416.5,-397.498 416.5,-378.498 525.5,-378.498 525.5,-397.498"/>
<text text-anchor="middle" x="471" y="-385.498" font-family="Vera Sans, DejaVu Sans, Liberation Sans, Arial, Helvetica, sans" font-size="10.00">QuantumOperation</text>
</a>
</g>
</g>
<!-- Operation&#45;&gt;QuantumOperation -->
<g id="edge7" class="edge"><title>Operation&#45;&gt;QuantumOperation</title>
<path fill="none" stroke="black" stroke-width="0.5" d="M288.523,-311.574C309.212,-324.87 348.694,-348.977 385,-363.998 397.258,-369.07 410.939,-373.454 423.681,-377.037"/>
<polygon fill="black" stroke="black" stroke-width="0.5" points="423.415,-378.779 428.7,-378.421 424.345,-375.405 423.415,-378.779"/>
</g>
<!-- SPost -->
<g id="node13" class="node"><title>SPost</title>
<g id="a_node13"><a xlink:href="../API/qalgebra.core.super_operator_algebra.html#qalgebra.core.super_operator_algebra.SPost" xlink:title="Linear post&#45;multiplication operator" target="_top">
<polygon fill="none" stroke="black" stroke-width="0.5" points="699.5,-323.498 645.5,-323.498 645.5,-304.498 699.5,-304.498 699.5,-323.498"/>
<text text-anchor="middle" x="672.5" y="-311.498" font-family="Vera Sans, DejaVu Sans, Liberation Sans, Arial, Helvetica, sans" font-size="10.00">SPost</text>
</a>
</g>
</g>
<!-- Operation&#45;&gt;SPost -->
<g id="edge12" class="edge"><title>Operation&#45;&gt;SPost</title>
<path fill="none" stroke="black" stroke-width="0.5" d="M305.287,-310.63C327.367,-316.26 357.75,-323.086 385,-325.998 477.365,-335.869 587.291,-324.976 640.108,-318.343"/>
<polygon fill="black" stroke="black" stroke-width="0.5" points="640.606,-320.044 645.345,-317.675 640.164,-316.572 640.606,-320.044"/>
</g>
<!-- SPre -->
<g id="node15" class="node"><title>SPre</title>
<g id="a_node15"><a xlink:href="../API/qalgebra.core.super_operator_algebra.html#qalgebra.core.super_operator_algebra.SPre" xlink:title="Linear pre&#45;multiplication operator" target="_top">
<polygon fill="none" stroke="black" stroke-width="0.5" points="699.5,-286.498 645.5,-286.498 645.5,-267.498 699.5,-267.498 699.5,-286.498"/>
<text text-anchor="middle" x="672.5" y="-274.498" font-family="Vera Sans, DejaVu Sans, Liberation Sans, Arial, Helvetica, sans" font-size="10.00">SPre</text>
</a>
</g>
</g>
<!-- Operation&#45;&gt;SPre -->
<g id="edge14" class="edge"><title>Operation&#45;&gt;SPre</title>
<path fill="none" stroke="black" stroke-width="0.5" d="M305.052,-302.095C357.205,-302.016 465.656,-300.81 557,-292.998 585.261,-290.581 617.21,-285.957 640.165,-282.299"/>
<polygon fill="black" stroke="black" stroke-width="0.5" points="640.555,-284.009 645.213,-281.487 639.999,-280.553 640.555,-284.009"/>
</g>
<!-- ScalarTimesQuantumExpression -->
<g id="node16" class="node"><title>ScalarTimesQuantumExpression</title>
<g id="a_node16"><a xlink:href="../API/qalgebra.core.abstract_quantum_algebra.html#qalgebra.core.abstract_quantum_algebra.ScalarTimesQuantumExpression" xlink:title="Product of a :class:`.Scalar` and a :class:`.QuantumExpression`" target="_top">
<polygon fill="none" stroke="black" stroke-width="0.5" points="557,-283.498 385,-283.498 385,-264.498 557,-264.498 557,-283.498"/>
<text text-anchor="middle" x="471" y="-271.498" font-family="Vera Sans, DejaVu Sans, Liberation Sans, Arial, Helvetica, sans" font-size="10.00">ScalarTimesQuantumExpression</text>
</a>
</g>
</g>
<!-- Operation&#45;&gt;ScalarTimesQuantumExpression -->
<g id="edge16" class="edge"><title>Operation&#45;&gt;ScalarTimesQuantumExpression</title>
<path fill="none" stroke="black" stroke-width="0.5" d="M305.057,-297.561C330.057,-293.99 366.192,-288.828 398.271,-284.245"/>
<polygon fill="black" stroke="black" stroke-width="0.5" points="398.68,-285.954 403.383,-283.515 398.185,-282.489 398.68,-285.954"/>
</g>
<!-- SuperOperatorTimesOperator -->
<g id="node24" class="node"><title>SuperOperatorTimesOperator</title>
<g id="a_node24"><a xlink:href="../API/qalgebra.core.super_operator_algebra.html#qalgebra.core.super_operator_algebra.SuperOperatorTimesOperator" xlink:title="Application of a super&#45;operator to an operator." target="_top">
<polygon fill="none" stroke="black" stroke-width="0.5" points="752,-212.498 593,-212.498 593,-193.498 752,-193.498 752,-212.498"/>
<text text-anchor="middle" x="672.5" y="-200.498" font-family="Vera Sans, DejaVu Sans, Liberation Sans, Arial, Helvetica, sans" font-size="10.00">SuperOperatorTimesOperator</text>
</a>
</g>
</g>
<!-- Operation&#45;&gt;SuperOperatorTimesOperator -->
<g id="edge33" class="edge"><title>Operation&#45;&gt;SuperOperatorTimesOperator</title>
<path fill="none" stroke="black" stroke-width="0.5" d="M302.126,-292.464C316.35,-287.4 333.781,-280.821 349,-273.998 365.508,-266.597 367.9,-260.905 385,-254.998 423.905,-241.56 529.24,-224.177 600.75,-213.306"/>
<polygon fill="black" stroke="black" stroke-width="0.5" points="601.158,-215.014 605.839,-212.534 600.633,-211.553 601.158,-215.014"/>
</g>
<!-- Operator -->
<g id="node4" class="node"><title>Operator</title>
<g id="a_node4"><a xlink:href="../API/qalgebra.core.operator_algebra.html#qalgebra.core.operator_algebra.Operator" xlink:title="Base class for all quantum operators." target="_top">
<polygon fill="none" stroke="black" stroke-width="0.5" points="500.5,-207.498 441.5,-207.498 441.5,-188.498 500.5,-188.498 500.5,-207.498"/>
<text text-anchor="middle" x="471" y="-195.498" font-family="Vera Sans, DejaVu Sans, Liberation Sans, Arial, Helvetica, sans" font-size="10.00">Operator</text>
</a>
</g>
</g>
<!-- Operator&#45;&gt;SuperOperatorTimesOperator -->
<g id="edge32" class="edge"><title>Operator&#45;&gt;SuperOperatorTimesOperator</title>
<path fill="none" stroke="black" stroke-width="0.5" d="M500.583,-198.714C523.296,-199.283 556.279,-200.11 587.226,-200.886"/>
<polygon fill="black" stroke="black" stroke-width="0.5" points="587.532,-202.644 592.574,-201.02 587.619,-199.145 587.532,-202.644"/>
</g>
<!-- QuantumExpression&#45;&gt;Operator -->
<g id="edge2" class="edge"><title>QuantumExpression&#45;&gt;Operator</title>
<path fill="none" stroke="black" stroke-width="0.5" d="M316.361,-246.42C327.099,-243.678 338.55,-240.478 349,-236.998 365.445,-231.521 368.63,-227.696 385,-221.998 401.654,-216.201 420.498,-210.769 436.204,-206.544"/>
<polygon fill="black" stroke="black" stroke-width="0.5" points="437.022,-208.137 441.402,-205.158 436.12,-204.755 437.022,-208.137"/>
</g>
<!-- QuantumExpression&#45;&gt;QuantumOperation -->
<g id="edge6" class="edge"><title>QuantumExpression&#45;&gt;QuantumOperation</title>
<path fill="none" stroke="black" stroke-width="0.5" d="M308.791,-265.553C321.877,-269.9 336.583,-275.72 349,-282.998 393.502,-309.081 437.028,-352.478 457.637,-374.415"/>
<polygon fill="black" stroke="black" stroke-width="0.5" points="456.525,-375.788 461.214,-378.252 459.085,-373.401 456.525,-375.788"/>
</g>
<!-- QuantumSymbol -->
<g id="node11" class="node"><title>QuantumSymbol</title>
<g id="a_node11"><a xlink:href="../API/qalgebra.core.abstract_quantum_algebra.html#qalgebra.core.abstract_quantum_algebra.QuantumSymbol" xlink:title="Symbolic element of an algebra" target="_top">
<polygon fill="none" stroke="black" stroke-width="0.5" points="520,-170.498 422,-170.498 422,-151.498 520,-151.498 520,-170.498"/>
<text text-anchor="middle" x="471" y="-158.498" font-family="Vera Sans, DejaVu Sans, Liberation Sans, Arial, Helvetica, sans" font-size="10.00">QuantumSymbol</text>
</a>
</g>
</g>
<!-- QuantumExpression&#45;&gt;QuantumSymbol -->
<g id="edge9" class="edge"><title>QuantumExpression&#45;&gt;QuantumSymbol</title>
<path fill="none" stroke="black" stroke-width="0.5" d="M329.849,-247.034C336.674,-244.479 343.255,-241.202 349,-236.998 373.485,-219.082 360.167,-196.428 385,-178.998 394.315,-172.46 405.522,-168.212 416.697,-165.473"/>
<polygon fill="black" stroke="black" stroke-width="0.5" points="417.329,-167.124 421.822,-164.317 416.56,-163.71 417.329,-167.124"/>
</g>
<!-- SuperOperator -->
<g id="node14" class="node"><title>SuperOperator</title>
<g id="a_node14"><a xlink:href="../API/qalgebra.core.super_operator_algebra.html#qalgebra.core.super_operator_algebra.SuperOperator" xlink:title="Base class for super&#45;operators" target="_top">
<polygon fill="none" stroke="black" stroke-width="0.5" points="515,-133.498 427,-133.498 427,-114.498 515,-114.498 515,-133.498"/>
<text text-anchor="middle" x="471" y="-121.498" font-family="Vera Sans, DejaVu Sans, Liberation Sans, Arial, Helvetica, sans" font-size="10.00">SuperOperator</text>
</a>
</g>
</g>
<!-- QuantumExpression&#45;&gt;SuperOperator -->
<g id="edge23" class="edge"><title>QuantumExpression&#45;&gt;SuperOperator</title>
<path fill="none" stroke="black" stroke-width="0.5" d="M329.525,-248.496C336.64,-245.73 343.386,-242.005 349,-236.998 382.696,-206.943 350.718,-171.382 385,-141.998 395.212,-133.245 408.622,-128.406 421.763,-125.816"/>
<polygon fill="black" stroke="black" stroke-width="0.5" points="422.352,-127.489 426.974,-124.899 421.746,-124.042 422.352,-127.489"/>
</g>
<!-- QuantumExpression&#45;&gt;ScalarTimesQuantumExpression -->
<g id="edge15" class="edge"><title>QuantumExpression&#45;&gt;ScalarTimesQuantumExpression</title>
<path fill="none" stroke="black" stroke-width="0.5" d="M329.641,-261.108C345.231,-262.54 362.592,-264.134 379.643,-265.7"/>
<polygon fill="black" stroke="black" stroke-width="0.5" points="379.783,-267.47 384.922,-266.185 380.103,-263.985 379.783,-267.47"/>
</g>
<!-- QuantumAdjoint -->
<g id="node6" class="node"><title>QuantumAdjoint</title>
<g id="a_node6"><a xlink:href="../API/qalgebra.core.abstract_quantum_algebra.html#qalgebra.core.abstract_quantum_algebra.QuantumAdjoint" xlink:title="Base class for adjoints of quantum expressions" target="_top">
<polygon fill="none" stroke="black" stroke-width="0.5" points="893.5,-406.498 798.5,-406.498 798.5,-387.498 893.5,-387.498 893.5,-406.498"/>
<text text-anchor="middle" x="846" y="-394.498" font-family="Vera Sans, DejaVu Sans, Liberation Sans, Arial, Helvetica, sans" font-size="10.00">QuantumAdjoint</text>
</a>
</g>
</g>
<!-- SuperAdjoint -->
<g id="node18" class="node"><title>SuperAdjoint</title>
<g id="a_node18"><a xlink:href="../API/qalgebra.core.super_operator_algebra.html#qalgebra.core.super_operator_algebra.SuperAdjoint" xlink:title="Adjoint of a super&#45;operator." target="_top">
<polygon fill="none" stroke="black" stroke-width="0.5" points="1047,-205.498 969,-205.498 969,-186.498 1047,-186.498 1047,-205.498"/>
<text text-anchor="middle" x="1008" y="-193.498" font-family="Vera Sans, DejaVu Sans, Liberation Sans, Arial, Helvetica, sans" font-size="10.00">SuperAdjoint</text>
</a>
</g>
</g>
<!-- QuantumAdjoint&#45;&gt;SuperAdjoint -->
<g id="edge20" class="edge"><title>QuantumAdjoint&#45;&gt;SuperAdjoint</title>
<path fill="none" stroke="black" stroke-width="0.5" d="M854.717,-387.303C880.75,-354.599 965.41,-248.245 995.916,-209.922"/>
<polygon fill="black" stroke="black" stroke-width="0.5" points="997.615,-210.597 999.36,-205.595 994.877,-208.417 997.615,-210.597"/>
</g>
<!-- SingleQuantumOperation -->
<g id="node7" class="node"><title>SingleQuantumOperation</title>
<g id="a_node7"><a xlink:href="../API/qalgebra.core.abstract_quantum_algebra.html#qalgebra.core.abstract_quantum_algebra.SingleQuantumOperation" xlink:title="Base class for operations on a single quantum expression" target="_top">
<polygon fill="none" stroke="black" stroke-width="0.5" points="741.5,-434.498 603.5,-434.498 603.5,-415.498 741.5,-415.498 741.5,-434.498"/>
<text text-anchor="middle" x="672.5" y="-422.498" font-family="Vera Sans, DejaVu Sans, Liberation Sans, Arial, Helvetica, sans" font-size="10.00">SingleQuantumOperation</text>
</a>
</g>
</g>
<!-- SingleQuantumOperation&#45;&gt;QuantumAdjoint -->
<g id="edge3" class="edge"><title>SingleQuantumOperation&#45;&gt;QuantumAdjoint</title>
<path fill="none" stroke="black" stroke-width="0.5" d="M732.041,-415.44C751.82,-412.211 773.754,-408.63 792.992,-405.489"/>
<polygon fill="black" stroke="black" stroke-width="0.5" points="793.69,-407.148 798.343,-404.615 793.126,-403.694 793.69,-407.148"/>
</g>
<!-- QuantumDerivative -->
<g id="node8" class="node"><title>QuantumDerivative</title>
<g id="a_node8"><a xlink:href="../API/qalgebra.core.abstract_quantum_algebra.html#qalgebra.core.abstract_quantum_algebra.QuantumDerivative" xlink:title="Symbolic partial derivative." target="_top">
<polygon fill="none" stroke="black" stroke-width="0.5" points="901,-313.498 791,-313.498 791,-294.498 901,-294.498 901,-313.498"/>
<text text-anchor="middle" x="846" y="-301.498" font-family="Vera Sans, DejaVu Sans, Liberation Sans, Arial, Helvetica, sans" font-size="10.00">QuantumDerivative</text>
</a>
</g>
</g>
<!-- SingleQuantumOperation&#45;&gt;QuantumDerivative -->
<g id="edge4" class="edge"><title>SingleQuantumOperation&#45;&gt;QuantumDerivative</title>
<path fill="none" stroke="black" stroke-width="0.5" d="M733.293,-415.389C739.835,-413.152 746.212,-410.396 752,-406.998 790.406,-384.45 821.837,-340.761 836.342,-318.218"/>
<polygon fill="black" stroke="black" stroke-width="0.5" points="837.979,-318.904 839.177,-313.744 835.022,-317.031 837.979,-318.904"/>
</g>
<!-- SuperOperatorDerivative -->
<g id="node20" class="node"><title>SuperOperatorDerivative</title>
<g id="a_node20"><a xlink:href="../API/qalgebra.core.super_operator_algebra.html#qalgebra.core.super_operator_algebra.SuperOperatorDerivative" xlink:title="Symbolic partial derivative of a super&#45;operator" target="_top">
<polygon fill="none" stroke="black" stroke-width="0.5" points="1076,-168.498 940,-168.498 940,-149.498 1076,-149.498 1076,-168.498"/>
<text text-anchor="middle" x="1008" y="-156.498" font-family="Vera Sans, DejaVu Sans, Liberation Sans, Arial, Helvetica, sans" font-size="10.00">SuperOperatorDerivative</text>
</a>
</g>
</g>
<!-- QuantumDerivative&#45;&gt;SuperOperatorDerivative -->
<g id="edge24" class="edge"><title>QuantumDerivative&#45;&gt;SuperOperatorDerivative</title>
<path fill="none" stroke="black" stroke-width="0.5" d="M851.26,-294.306C862.259,-270.443 894.007,-208.504 940,-176.998 943.571,-174.552 947.46,-172.438 951.507,-170.611"/>
<polygon fill="black" stroke="black" stroke-width="0.5" points="952.384,-172.14 956.32,-168.595 951.033,-168.912 952.384,-172.14"/>
</g>
<!-- QuantumOperation&#45;&gt;SingleQuantumOperation -->
<g id="edge19" class="edge"><title>QuantumOperation&#45;&gt;SingleQuantumOperation</title>
<path fill="none" stroke="black" stroke-width="0.5" d="M523.376,-397.526C551.424,-402.728 586.205,-409.179 615.014,-414.522"/>
<polygon fill="black" stroke="black" stroke-width="0.5" points="614.716,-416.246 619.952,-415.437 615.355,-412.805 614.716,-416.246"/>
</g>
<!-- QuantumPlus -->
<g id="node10" class="node"><title>QuantumPlus</title>
<g id="a_node10"><a xlink:href="../API/qalgebra.core.abstract_quantum_algebra.html#qalgebra.core.abstract_quantum_algebra.QuantumPlus" xlink:title="General implementation of addition of quantum expressions" target="_top">
<polygon fill="none" stroke="black" stroke-width="0.5" points="713,-397.498 632,-397.498 632,-378.498 713,-378.498 713,-397.498"/>
<text text-anchor="middle" x="672.5" y="-385.498" font-family="Vera Sans, DejaVu Sans, Liberation Sans, Arial, Helvetica, sans" font-size="10.00">QuantumPlus</text>
</a>
</g>
</g>
<!-- QuantumOperation&#45;&gt;QuantumPlus -->
<g id="edge8" class="edge"><title>QuantumOperation&#45;&gt;QuantumPlus</title>
<path fill="none" stroke="black" stroke-width="0.5" d="M525.725,-387.998C557.363,-387.998 596.913,-387.998 626.832,-387.998"/>
<polygon fill="black" stroke="black" stroke-width="0.5" points="626.924,-389.748 631.924,-387.998 626.924,-386.248 626.924,-389.748"/>
</g>
<!-- QuantumTimes -->
<g id="node12" class="node"><title>QuantumTimes</title>
<g id="a_node12"><a xlink:href="../API/qalgebra.core.abstract_quantum_algebra.html#qalgebra.core.abstract_quantum_algebra.QuantumTimes" xlink:title="General implementation of product of quantum expressions" target="_top">
<polygon fill="none" stroke="black" stroke-width="0.5" points="717.5,-360.498 627.5,-360.498 627.5,-341.498 717.5,-341.498 717.5,-360.498"/>
<text text-anchor="middle" x="672.5" y="-348.498" font-family="Vera Sans, DejaVu Sans, Liberation Sans, Arial, Helvetica, sans" font-size="10.00">QuantumTimes</text>
</a>
</g>
</g>
<!-- QuantumOperation&#45;&gt;QuantumTimes -->
<g id="edge10" class="edge"><title>QuantumOperation&#45;&gt;QuantumTimes</title>
<path fill="none" stroke="black" stroke-width="0.5" d="M523.376,-378.469C553.825,-372.822 592.209,-365.703 622.273,-360.128"/>
<polygon fill="black" stroke="black" stroke-width="0.5" points="622.807,-361.809 627.404,-359.176 622.169,-358.367 622.807,-361.809"/>
</g>
<!-- SuperOperatorPlus -->
<g id="node21" class="node"><title>SuperOperatorPlus</title>
<g id="a_node21"><a xlink:href="../API/qalgebra.core.super_operator_algebra.html#qalgebra.core.super_operator_algebra.SuperOperatorPlus" xlink:title="A sum of super&#45;operators" target="_top">
<polygon fill="none" stroke="black" stroke-width="0.5" points="899.5,-165.498 792.5,-165.498 792.5,-146.498 899.5,-146.498 899.5,-165.498"/>
<text text-anchor="middle" x="846" y="-153.498" font-family="Vera Sans, DejaVu Sans, Liberation Sans, Arial, Helvetica, sans" font-size="10.00">SuperOperatorPlus</text>
</a>
</g>
</g>
<!-- QuantumPlus&#45;&gt;SuperOperatorPlus -->
<g id="edge26" class="edge"><title>QuantumPlus&#45;&gt;SuperOperatorPlus</title>
<path fill="none" stroke="black" stroke-width="0.5" d="M713.084,-386.171C726.677,-383.787 741.179,-379.072 752,-369.998 783.437,-343.637 771.709,-322.651 788,-284.998 806.063,-243.249 827.929,-194.155 838.565,-170.366"/>
<polygon fill="black" stroke="black" stroke-width="0.5" points="840.214,-170.964 840.658,-165.685 837.019,-169.535 840.214,-170.964"/>
</g>
<!-- SuperOperatorSymbol -->
<g id="node22" class="node"><title>SuperOperatorSymbol</title>
<g id="a_node22"><a xlink:href="../API/qalgebra.core.super_operator_algebra.html#qalgebra.core.super_operator_algebra.SuperOperatorSymbol" xlink:title="Symbolic super&#45;operator" target="_top">
<polygon fill="none" stroke="black" stroke-width="0.5" points="734.5,-175.498 610.5,-175.498 610.5,-156.498 734.5,-156.498 734.5,-175.498"/>
<text text-anchor="middle" x="672.5" y="-163.498" font-family="Vera Sans, DejaVu Sans, Liberation Sans, Arial, Helvetica, sans" font-size="10.00">SuperOperatorSymbol</text>
</a>
</g>
</g>
<!-- QuantumSymbol&#45;&gt;SuperOperatorSymbol -->
<g id="edge28" class="edge"><title>QuantumSymbol&#45;&gt;SuperOperatorSymbol</title>
<path fill="none" stroke="black" stroke-width="0.5" d="M520.039,-162.202C545.546,-162.841 577.289,-163.637 605.116,-164.334"/>
<polygon fill="black" stroke="black" stroke-width="0.5" points="605.221,-166.087 610.264,-164.463 605.309,-162.588 605.221,-166.087"/>
</g>
<!-- SuperOperatorTimes -->
<g id="node23" class="node"><title>SuperOperatorTimes</title>
<g id="a_node23"><a xlink:href="../API/qalgebra.core.super_operator_algebra.html#qalgebra.core.super_operator_algebra.SuperOperatorTimes" xlink:title="Product of super&#45;operators" target="_top">
<polygon fill="none" stroke="black" stroke-width="0.5" points="904,-113.498 788,-113.498 788,-94.4979 904,-94.4979 904,-113.498"/>
<text text-anchor="middle" x="846" y="-101.498" font-family="Vera Sans, DejaVu Sans, Liberation Sans, Arial, Helvetica, sans" font-size="10.00">SuperOperatorTimes</text>
</a>
</g>
</g>
<!-- QuantumTimes&#45;&gt;SuperOperatorTimes -->
<g id="edge30" class="edge"><title>QuantumTimes&#45;&gt;SuperOperatorTimes</title>
<path fill="none" stroke="black" stroke-width="0.5" d="M717.512,-349.823C730.19,-347.336 743.009,-342.392 752,-332.998 813.242,-269.016 736.985,-209.398 788,-136.998 794.339,-128.001 803.969,-121.105 813.519,-116.001"/>
<polygon fill="black" stroke="black" stroke-width="0.5" points="814.516,-117.458 818.186,-113.638 812.935,-114.335 814.516,-117.458"/>
</g>
<!-- SuperOperator&#45;&gt;SPost -->
<g id="edge11" class="edge"><title>SuperOperator&#45;&gt;SPost</title>
<path fill="none" stroke="black" stroke-width="0.5" d="M515.337,-124.016C530.28,-126.189 546.007,-131.233 557,-141.998 607.22,-191.177 543.192,-246.401 593,-295.998 605.195,-308.141 623.81,-312.769 639.853,-314.3"/>
<polygon fill="black" stroke="black" stroke-width="0.5" points="640.063,-316.071 645.182,-314.707 640.33,-312.581 640.063,-316.071"/>
</g>
<!-- SuperOperator&#45;&gt;SPre -->
<g id="edge13" class="edge"><title>SuperOperator&#45;&gt;SPre</title>
<path fill="none" stroke="black" stroke-width="0.5" d="M515.367,-124.514C530.137,-126.766 545.742,-131.733 557,-141.998 596.89,-178.368 553.638,-221.057 593,-257.998 605.585,-269.809 624.215,-274.654 640.168,-276.502"/>
<polygon fill="black" stroke="black" stroke-width="0.5" points="640.317,-278.275 645.463,-277.02 640.657,-274.792 640.317,-278.275"/>
</g>
<!-- ScalarTimesSuperOperator -->
<g id="node17" class="node"><title>ScalarTimesSuperOperator</title>
<g id="a_node17"><a xlink:href="../API/qalgebra.core.super_operator_algebra.html#qalgebra.core.super_operator_algebra.ScalarTimesSuperOperator" xlink:title="Product of a :class:`.Scalar` coefficient and a :class:`.SuperOperator`." target="_top">
<polygon fill="none" stroke="black" stroke-width="0.5" points="745.5,-249.498 599.5,-249.498 599.5,-230.498 745.5,-230.498 745.5,-249.498"/>
<text text-anchor="middle" x="672.5" y="-237.498" font-family="Vera Sans, DejaVu Sans, Liberation Sans, Arial, Helvetica, sans" font-size="10.00">ScalarTimesSuperOperator</text>
</a>
</g>
</g>
<!-- SuperOperator&#45;&gt;ScalarTimesSuperOperator -->
<g id="edge17" class="edge"><title>SuperOperator&#45;&gt;ScalarTimesSuperOperator</title>
<path fill="none" stroke="black" stroke-width="0.5" d="M515.114,-125.391C529.689,-127.75 545.233,-132.561 557,-141.998 587.101,-166.138 563.25,-196.427 593,-220.998 596.341,-223.758 600.02,-226.128 603.906,-228.162"/>
<polygon fill="black" stroke="black" stroke-width="0.5" points="603.291,-229.809 608.555,-230.4 604.809,-226.655 603.291,-229.809"/>
</g>
<!-- SuperOperator&#45;&gt;SuperAdjoint -->
<g id="edge21" class="edge"><title>SuperOperator&#45;&gt;SuperAdjoint</title>
<path fill="none" stroke="black" stroke-width="0.5" d="M491.403,-114.294C556.46,-83.2703 770.273,6.27455 904,-84.9979 940.266,-109.75 907.489,-147.487 940,-176.998 946.723,-183.1 955.266,-187.257 963.984,-190.085"/>
<polygon fill="black" stroke="black" stroke-width="0.5" points="963.544,-191.78 968.835,-191.524 964.539,-188.424 963.544,-191.78"/>
</g>
<!-- SuperOperator&#45;&gt;SuperOperatorDerivative -->
<g id="edge25" class="edge"><title>SuperOperator&#45;&gt;SuperOperatorDerivative</title>
<path fill="none" stroke="black" stroke-width="0.5" d="M481.181,-114.279C499.978,-95.1786 545.123,-53.2786 593,-37.9979 724.678,4.02981 778.522,19.9735 904,-37.9979 952.331,-60.3271 986.328,-117.755 1000.14,-144.673"/>
<polygon fill="black" stroke="black" stroke-width="0.5" points="998.667,-145.648 1002.48,-149.329 1001.79,-144.075 998.667,-145.648"/>
</g>
<!-- SuperOperator&#45;&gt;SuperOperatorPlus -->
<g id="edge27" class="edge"><title>SuperOperator&#45;&gt;SuperOperatorPlus</title>
<path fill="none" stroke="black" stroke-width="0.5" d="M515.187,-127.35C570.2,-131.665 668.198,-139.501 752,-146.998 763.451,-148.022 775.69,-149.169 787.403,-150.292"/>
<polygon fill="black" stroke="black" stroke-width="0.5" points="787.242,-152.035 792.386,-150.772 787.577,-148.551 787.242,-152.035"/>
</g>
<!-- SuperOperator&#45;&gt;SuperOperatorSymbol -->
<g id="edge29" class="edge"><title>SuperOperator&#45;&gt;SuperOperatorSymbol</title>
<path fill="none" stroke="black" stroke-width="0.5" d="M515.289,-133.111C546.399,-139.661 588.436,-148.511 621.066,-155.38"/>
<polygon fill="black" stroke="black" stroke-width="0.5" points="620.965,-157.147 626.219,-156.465 621.686,-153.722 620.965,-157.147"/>
</g>
<!-- SuperOperator&#45;&gt;SuperOperatorTimes -->
<g id="edge31" class="edge"><title>SuperOperator&#45;&gt;SuperOperatorTimes</title>
<path fill="none" stroke="black" stroke-width="0.5" d="M515.088,-119.986C538.178,-117.95 567.122,-115.58 593,-113.998 657.645,-110.046 731.719,-107.322 782.743,-105.727"/>
<polygon fill="black" stroke="black" stroke-width="0.5" points="782.974,-107.471 787.917,-105.566 782.865,-103.972 782.974,-107.471"/>
</g>
<!-- ScalarTimesQuantumExpression&#45;&gt;ScalarTimesSuperOperator -->
<g id="edge18" class="edge"><title>ScalarTimesQuantumExpression&#45;&gt;ScalarTimesSuperOperator</title>
<path fill="none" stroke="black" stroke-width="0.5" d="M527.837,-264.482C553.557,-260.098 584.144,-254.886 610.47,-250.399"/>
<polygon fill="black" stroke="black" stroke-width="0.5" points="611.041,-252.077 615.676,-249.512 610.453,-248.627 611.041,-252.077"/>
</g>
</g>
</svg>
