<?xml version="1.0" encoding="UTF-8" standalone="no"?>
<!DOCTYPE svg PUBLIC "-//W3C//DTD SVG 1.1//EN"
 "http://www.w3.org/Graphics/SVG/1.1/DTD/svg11.dtd">
<!-- Generated by graphviz version 2.38.0 (20140413.2041)
 -->
<!-- Title: inheritance438bb7c2eb Pages: 1 -->
<svg width="903pt" height="475pt"
 viewBox="0.00 0.00 903.00 475.00" xmlns="http://www.w3.org/2000/svg" xmlns:xlink="http://www.w3.org/1999/xlink">
<g id="graph0" class="graph" transform="scale(1 1) rotate(0) translate(4 471)">
<title>inheritance438bb7c2eb</title>
<polygon fill="white" stroke="none" points="-4,4 -4,-471 899,-471 899,4 -4,4"/>
<!-- BasisKet -->
<g id="node1" class="node"><title>BasisKet</title>
<g id="a_node1"><a xlink:href="../API/qalgebra.core.state_algebra.html#qalgebra.core.state_algebra.BasisKet" xlink:title="Local basis state, identified by index or label" target="_top">
<polygon fill="none" stroke="black" stroke-width="0.5" points="872.5,-19 815.5,-19 815.5,-0 872.5,-0 872.5,-19"/>
<text text-anchor="middle" x="844" y="-7" font-family="Vera Sans, DejaVu Sans, Liberation Sans, Arial, Helvetica, sans" font-size="10.00">BasisKet</text>
</a>
</g>
</g>
<!-- LocalKet -->
<g id="node2" class="node"><title>LocalKet</title>
<g id="a_node2"><a xlink:href="../API/qalgebra.core.state_algebra.html#qalgebra.core.state_algebra.LocalKet" xlink:title="A state on a :class:`.LocalSpace`." target="_top">
<polygon fill="none" stroke="black" stroke-width="0.5" points="724,-56 668,-56 668,-37 724,-37 724,-56"/>
<text text-anchor="middle" x="696" y="-44" font-family="Vera Sans, DejaVu Sans, Liberation Sans, Arial, Helvetica, sans" font-size="10.00">LocalKet</text>
</a>
</g>
</g>
<!-- LocalKet&#45;&gt;BasisKet -->
<g id="edge1" class="edge"><title>LocalKet&#45;&gt;BasisKet</title>
<path fill="none" stroke="black" stroke-width="0.5" d="M724.119,-39.6273C748.395,-33.4752 784.054,-24.4383 809.982,-17.8675"/>
<polygon fill="black" stroke="black" stroke-width="0.5" points="810.615,-19.5125 815.032,-16.5878 809.755,-16.1198 810.615,-19.5125"/>
</g>
<!-- CoherentStateKet -->
<g id="node10" class="node"><title>CoherentStateKet</title>
<g id="a_node10"><a xlink:href="../API/qalgebra.core.state_algebra.html#qalgebra.core.state_algebra.CoherentStateKet" xlink:title="Local coherent state, labeled by a complex amplitude." target="_top">
<polygon fill="none" stroke="black" stroke-width="0.5" points="895,-56 793,-56 793,-37 895,-37 895,-56"/>
<text text-anchor="middle" x="844" y="-44" font-family="Vera Sans, DejaVu Sans, Liberation Sans, Arial, Helvetica, sans" font-size="10.00">CoherentStateKet</text>
</a>
</g>
</g>
<!-- LocalKet&#45;&gt;CoherentStateKet -->
<g id="edge7" class="edge"><title>LocalKet&#45;&gt;CoherentStateKet</title>
<path fill="none" stroke="black" stroke-width="0.5" d="M724.119,-46.5C741.984,-46.5 766.014,-46.5 787.793,-46.5"/>
<polygon fill="black" stroke="black" stroke-width="0.5" points="787.983,-48.2501 792.983,-46.5 787.983,-44.7501 787.983,-48.2501"/>
</g>
<!-- KetSymbol -->
<g id="node3" class="node"><title>KetSymbol</title>
<g id="a_node3"><a xlink:href="../API/qalgebra.core.state_algebra.html#qalgebra.core.state_algebra.KetSymbol" xlink:title="Symbolic state." target="_top">
<polygon fill="none" stroke="black" stroke-width="0.5" points="730,-19 662,-19 662,-0 730,-0 730,-19"/>
<text text-anchor="middle" x="696" y="-7" font-family="Vera Sans, DejaVu Sans, Liberation Sans, Arial, Helvetica, sans" font-size="10.00">KetSymbol</text>
</a>
</g>
</g>
<!-- KetSymbol&#45;&gt;BasisKet -->
<g id="edge2" class="edge"><title>KetSymbol&#45;&gt;BasisKet</title>
<path fill="none" stroke="black" stroke-width="0.5" d="M730.13,-9.5C754.064,-9.5 786.247,-9.5 810.123,-9.5"/>
<polygon fill="black" stroke="black" stroke-width="0.5" points="810.391,-11.2501 815.391,-9.5 810.391,-7.75009 810.391,-11.2501"/>
</g>
<!-- Bra -->
<g id="node4" class="node"><title>Bra</title>
<g id="a_node4"><a xlink:href="../API/qalgebra.core.state_algebra.html#qalgebra.core.state_algebra.Bra" xlink:title="The associated dual/adjoint state for any ket" target="_top">
<polygon fill="none" stroke="black" stroke-width="0.5" points="871,-131 817,-131 817,-112 871,-112 871,-131"/>
<text text-anchor="middle" x="844" y="-119" font-family="Vera Sans, DejaVu Sans, Liberation Sans, Arial, Helvetica, sans" font-size="10.00">Bra</text>
</a>
</g>
</g>
<!-- State -->
<g id="node5" class="node"><title>State</title>
<g id="a_node5"><a xlink:href="../API/qalgebra.core.state_algebra.html#qalgebra.core.state_algebra.State" xlink:title="Base class for states in a Hilbert space" target="_top">
<polygon fill="none" stroke="black" stroke-width="0.5" points="557,-128 503,-128 503,-109 557,-109 557,-128"/>
<text text-anchor="middle" x="530" y="-116" font-family="Vera Sans, DejaVu Sans, Liberation Sans, Arial, Helvetica, sans" font-size="10.00">State</text>
</a>
</g>
</g>
<!-- State&#45;&gt;LocalKet -->
<g id="edge17" class="edge"><title>State&#45;&gt;LocalKet</title>
<path fill="none" stroke="black" stroke-width="0.5" d="M550.8,-108.989C571.623,-99.075 605.41,-83.2365 635,-70.5 644.919,-66.2308 655.86,-61.7792 665.654,-57.8859"/>
<polygon fill="black" stroke="black" stroke-width="0.5" points="666.355,-59.4905 670.36,-56.0227 665.067,-56.2363 666.355,-59.4905"/>
</g>
<!-- State&#45;&gt;KetSymbol -->
<g id="edge16" class="edge"><title>State&#45;&gt;KetSymbol</title>
<path fill="none" stroke="black" stroke-width="0.5" d="M539.433,-108.75C555.945,-90.251 594.479,-49.908 635,-27.5 641.727,-23.7798 649.314,-20.7416 656.773,-18.2925"/>
<polygon fill="black" stroke="black" stroke-width="0.5" points="657.653,-19.8511 661.904,-16.69 656.61,-16.5102 657.653,-19.8511"/>
</g>
<!-- State&#45;&gt;Bra -->
<g id="edge3" class="edge"><title>State&#45;&gt;Bra</title>
<path fill="none" stroke="black" stroke-width="0.5" d="M557.022,-115.3C578.028,-112.885 608.367,-109.778 635,-108.5 689.16,-105.902 702.93,-104.436 757,-108.5 775.128,-109.862 795.225,-112.818 811.431,-115.568"/>
<polygon fill="black" stroke="black" stroke-width="0.5" points="811.544,-117.363 816.769,-116.49 812.14,-113.914 811.544,-117.363"/>
</g>
<!-- KetIndexedSum -->
<g id="node15" class="node"><title>KetIndexedSum</title>
<g id="a_node15"><a xlink:href="../API/qalgebra.core.state_algebra.html#qalgebra.core.state_algebra.KetIndexedSum" xlink:title="Indexed sum over Kets" target="_top">
<polygon fill="none" stroke="black" stroke-width="0.5" points="890,-318 798,-318 798,-299 890,-299 890,-318"/>
<text text-anchor="middle" x="844" y="-306" font-family="Vera Sans, DejaVu Sans, Liberation Sans, Arial, Helvetica, sans" font-size="10.00">KetIndexedSum</text>
</a>
</g>
</g>
<!-- State&#45;&gt;KetIndexedSum -->
<g id="edge11" class="edge"><title>State&#45;&gt;KetIndexedSum</title>
<path fill="none" stroke="black" stroke-width="0.5" d="M557.332,-125.591C616.873,-141.628 756.74,-179.313 757,-179.5 798.974,-209.67 826.37,-267.172 837.439,-294.019"/>
<polygon fill="black" stroke="black" stroke-width="0.5" points="835.819,-294.682 839.315,-298.662 839.064,-293.37 835.819,-294.682"/>
</g>
<!-- KetPlus -->
<g id="node17" class="node"><title>KetPlus</title>
<g id="a_node17"><a xlink:href="../API/qalgebra.core.state_algebra.html#qalgebra.core.state_algebra.KetPlus" xlink:title="Sum of states." target="_top">
<polygon fill="none" stroke="black" stroke-width="0.5" points="723,-282 669,-282 669,-263 723,-263 723,-282"/>
<text text-anchor="middle" x="696" y="-270" font-family="Vera Sans, DejaVu Sans, Liberation Sans, Arial, Helvetica, sans" font-size="10.00">KetPlus</text>
</a>
</g>
</g>
<!-- State&#45;&gt;KetPlus -->
<g id="edge13" class="edge"><title>State&#45;&gt;KetPlus</title>
<path fill="none" stroke="black" stroke-width="0.5" d="M545.919,-128.083C560.924,-138.333 583.936,-155.798 599,-175.5 622.191,-205.831 606.359,-228.252 635,-253.5 643.03,-260.579 653.701,-265.022 663.816,-267.811"/>
<polygon fill="black" stroke="black" stroke-width="0.5" points="663.446,-269.522 668.722,-269.051 664.304,-266.129 663.446,-269.522"/>
</g>
<!-- OperatorTimesKet -->
<g id="node21" class="node"><title>OperatorTimesKet</title>
<g id="a_node21"><a xlink:href="../API/qalgebra.core.state_algebra.html#qalgebra.core.state_algebra.OperatorTimesKet" xlink:title="Product of an operator and a state." target="_top">
<polygon fill="none" stroke="black" stroke-width="0.5" points="747.5,-319 644.5,-319 644.5,-300 747.5,-300 747.5,-319"/>
<text text-anchor="middle" x="696" y="-307" font-family="Vera Sans, DejaVu Sans, Liberation Sans, Arial, Helvetica, sans" font-size="10.00">OperatorTimesKet</text>
</a>
</g>
</g>
<!-- State&#45;&gt;OperatorTimesKet -->
<g id="edge20" class="edge"><title>State&#45;&gt;OperatorTimesKet</title>
<path fill="none" stroke="black" stroke-width="0.5" d="M547.036,-128.073C562.468,-138.071 585.408,-155.124 599,-175.5 628.72,-220.054 597.192,-252.567 635,-290.5 637.651,-293.16 640.673,-295.449 643.917,-297.417"/>
<polygon fill="black" stroke="black" stroke-width="0.5" points="643.238,-299.041 648.464,-299.908 644.92,-295.971 643.238,-299.041"/>
</g>
<!-- ScalarTimesKet -->
<g id="node27" class="node"><title>ScalarTimesKet</title>
<g id="a_node27"><a xlink:href="../API/qalgebra.core.state_algebra.html#qalgebra.core.state_algebra.ScalarTimesKet" xlink:title="Product of a :class:`.Scalar` coefficient and a ket" target="_top">
<polygon fill="none" stroke="black" stroke-width="0.5" points="741,-208 651,-208 651,-189 741,-189 741,-208"/>
<text text-anchor="middle" x="696" y="-196" font-family="Vera Sans, DejaVu Sans, Liberation Sans, Arial, Helvetica, sans" font-size="10.00">ScalarTimesKet</text>
</a>
</g>
</g>
<!-- State&#45;&gt;ScalarTimesKet -->
<g id="edge34" class="edge"><title>State&#45;&gt;ScalarTimesKet</title>
<path fill="none" stroke="black" stroke-width="0.5" d="M557.228,-125.161C570.31,-129.116 586.061,-134.867 599,-142.5 617.438,-153.377 616.79,-163.246 635,-174.5 642.891,-179.377 651.945,-183.607 660.586,-187.1"/>
<polygon fill="black" stroke="black" stroke-width="0.5" points="660.04,-188.766 665.334,-188.964 661.319,-185.508 660.04,-188.766"/>
</g>
<!-- StateDerivative -->
<g id="node29" class="node"><title>StateDerivative</title>
<g id="a_node29"><a xlink:href="../API/qalgebra.core.state_algebra.html#qalgebra.core.state_algebra.StateDerivative" xlink:title="Symbolic partial derivative of a state" target="_top">
<polygon fill="none" stroke="black" stroke-width="0.5" points="889.5,-206 798.5,-206 798.5,-187 889.5,-187 889.5,-206"/>
<text text-anchor="middle" x="844" y="-194" font-family="Vera Sans, DejaVu Sans, Liberation Sans, Arial, Helvetica, sans" font-size="10.00">StateDerivative</text>
</a>
</g>
</g>
<!-- State&#45;&gt;StateDerivative -->
<g id="edge41" class="edge"><title>State&#45;&gt;StateDerivative</title>
<path fill="none" stroke="black" stroke-width="0.5" d="M557.166,-118.374C600.057,-118.902 687.499,-123.086 757,-146.5 782.732,-155.169 809.294,-172.048 825.961,-183.784"/>
<polygon fill="black" stroke="black" stroke-width="0.5" points="825.305,-185.465 830.391,-186.946 827.339,-182.617 825.305,-185.465"/>
</g>
<!-- TensorKet -->
<g id="node30" class="node"><title>TensorKet</title>
<g id="a_node30"><a xlink:href="../API/qalgebra.core.state_algebra.html#qalgebra.core.state_algebra.TensorKet" xlink:title="A tensor product of kets." target="_top">
<polygon fill="none" stroke="black" stroke-width="0.5" points="727,-245 665,-245 665,-226 727,-226 727,-245"/>
<text text-anchor="middle" x="696" y="-233" font-family="Vera Sans, DejaVu Sans, Liberation Sans, Arial, Helvetica, sans" font-size="10.00">TensorKet</text>
</a>
</g>
</g>
<!-- State&#45;&gt;TensorKet -->
<g id="edge42" class="edge"><title>State&#45;&gt;TensorKet</title>
<path fill="none" stroke="black" stroke-width="0.5" d="M543.523,-128.054C557.549,-138.966 580.712,-157.627 599,-175.5 616.343,-192.449 614.696,-203.242 635,-216.5 642.425,-221.348 651.172,-225.032 659.657,-227.802"/>
<polygon fill="black" stroke="black" stroke-width="0.5" points="659.599,-229.615 664.892,-229.411 660.627,-226.27 659.599,-229.615"/>
</g>
<!-- QuantumAdjoint -->
<g id="node6" class="node"><title>QuantumAdjoint</title>
<g id="a_node6"><a xlink:href="../API/qalgebra.core.abstract_quantum_algebra.html#qalgebra.core.abstract_quantum_algebra.QuantumAdjoint" xlink:title="Base class for adjoints of quantum expressions" target="_top">
<polygon fill="none" stroke="black" stroke-width="0.5" points="743.5,-393 648.5,-393 648.5,-374 743.5,-374 743.5,-393"/>
<text text-anchor="middle" x="696" y="-381" font-family="Vera Sans, DejaVu Sans, Liberation Sans, Arial, Helvetica, sans" font-size="10.00">QuantumAdjoint</text>
</a>
</g>
</g>
<!-- QuantumAdjoint&#45;&gt;Bra -->
<g id="edge4" class="edge"><title>QuantumAdjoint&#45;&gt;Bra</title>
<path fill="none" stroke="black" stroke-width="0.5" d="M743.679,-374.47C748.686,-371.921 753.296,-368.663 757,-364.5 813.262,-301.27 755.462,-253.357 793,-177.5 801.237,-160.854 815.797,-145.388 827.087,-134.946"/>
<polygon fill="black" stroke="black" stroke-width="0.5" points="828.547,-135.986 831.082,-131.334 826.199,-133.39 828.547,-135.986"/>
</g>
<!-- BraKet -->
<g id="node7" class="node"><title>BraKet</title>
<g id="a_node7"><a xlink:href="../API/qalgebra.core.state_algebra.html#qalgebra.core.state_algebra.BraKet" xlink:title="The symbolic inner product between two states" target="_top">
<polygon fill="none" stroke="black" stroke-width="0.5" points="723,-356 669,-356 669,-337 723,-337 723,-356"/>
<text text-anchor="middle" x="696" y="-344" font-family="Vera Sans, DejaVu Sans, Liberation Sans, Arial, Helvetica, sans" font-size="10.00">BraKet</text>
</a>
</g>
</g>
<!-- ScalarExpression -->
<g id="node8" class="node"><title>ScalarExpression</title>
<g id="a_node8"><a xlink:href="../API/qalgebra.core.scalar_algebra.html#qalgebra.core.scalar_algebra.ScalarExpression" xlink:title="Base class for scalars with non&#45;scalar arguments" target="_top">
<polygon fill="none" stroke="black" stroke-width="0.5" points="579,-204 481,-204 481,-185 579,-185 579,-204"/>
<text text-anchor="middle" x="530" y="-192" font-family="Vera Sans, DejaVu Sans, Liberation Sans, Arial, Helvetica, sans" font-size="10.00">ScalarExpression</text>
</a>
</g>
</g>
<!-- ScalarExpression&#45;&gt;BraKet -->
<g id="edge5" class="edge"><title>ScalarExpression&#45;&gt;BraKet</title>
<path fill="none" stroke="black" stroke-width="0.5" d="M579.191,-200.699C586.498,-203.392 593.44,-207.182 599,-212.5 637.706,-249.516 597.192,-289.567 635,-327.5 642.689,-335.215 653.488,-339.802 663.809,-342.528"/>
<polygon fill="black" stroke="black" stroke-width="0.5" points="663.552,-344.266 668.822,-343.722 664.363,-340.861 663.552,-344.266"/>
</g>
<!-- Operation -->
<g id="node9" class="node"><title>Operation</title>
<g id="a_node9"><a xlink:href="../API/qalgebra.core.abstract_algebra.html#qalgebra.core.abstract_algebra.Operation" xlink:title="Base class for &quot;operations&quot;" target="_top">
<polygon fill="none" stroke="black" stroke-width="0.5" points="192.5,-315 128.5,-315 128.5,-296 192.5,-296 192.5,-315"/>
<text text-anchor="middle" x="160.5" y="-303" font-family="Vera Sans, DejaVu Sans, Liberation Sans, Arial, Helvetica, sans" font-size="10.00">Operation</text>
</a>
</g>
</g>
<!-- Operation&#45;&gt;BraKet -->
<g id="edge6" class="edge"><title>Operation&#45;&gt;BraKet</title>
<path fill="none" stroke="black" stroke-width="0.5" d="M179.446,-315.118C197.455,-324.193 226.28,-337.177 253,-342.5 404.402,-372.665 590.798,-357.891 663.695,-350.179"/>
<polygon fill="black" stroke="black" stroke-width="0.5" points="663.961,-351.911 668.746,-349.637 663.588,-348.431 663.961,-351.911"/>
</g>
<!-- IndexedSum -->
<g id="node12" class="node"><title>IndexedSum</title>
<g id="a_node12"><a xlink:href="../API/qalgebra.core.indexed_operations.html#qalgebra.core.indexed_operations.IndexedSum" xlink:title="Base class for indexed sums" target="_top">
<polygon fill="none" stroke="black" stroke-width="0.5" points="377.5,-448 300.5,-448 300.5,-429 377.5,-429 377.5,-448"/>
<text text-anchor="middle" x="339" y="-436" font-family="Vera Sans, DejaVu Sans, Liberation Sans, Arial, Helvetica, sans" font-size="10.00">IndexedSum</text>
</a>
</g>
</g>
<!-- Operation&#45;&gt;IndexedSum -->
<g id="edge8" class="edge"><title>Operation&#45;&gt;IndexedSum</title>
<path fill="none" stroke="black" stroke-width="0.5" d="M169.515,-315.159C184.511,-332.796 218.43,-370.677 253,-395.5 270.682,-408.196 292.652,-419.204 309.826,-426.904"/>
<polygon fill="black" stroke="black" stroke-width="0.5" points="309.254,-428.564 314.535,-428.986 310.67,-425.363 309.254,-428.564"/>
</g>
<!-- KetBra -->
<g id="node13" class="node"><title>KetBra</title>
<g id="a_node13"><a xlink:href="../API/qalgebra.core.state_algebra.html#qalgebra.core.state_algebra.KetBra" xlink:title="Outer product of two states" target="_top">
<polygon fill="none" stroke="black" stroke-width="0.5" points="557,-241 503,-241 503,-222 557,-222 557,-241"/>
<text text-anchor="middle" x="530" y="-229" font-family="Vera Sans, DejaVu Sans, Liberation Sans, Arial, Helvetica, sans" font-size="10.00">KetBra</text>
</a>
</g>
</g>
<!-- Operation&#45;&gt;KetBra -->
<g id="edge10" class="edge"><title>Operation&#45;&gt;KetBra</title>
<path fill="none" stroke="black" stroke-width="0.5" d="M192.825,-298.93C210.489,-295.242 232.968,-290.576 253,-286.5 341.642,-268.465 446.427,-247.749 497.643,-237.663"/>
<polygon fill="black" stroke="black" stroke-width="0.5" points="498.16,-239.345 502.728,-236.662 497.484,-235.911 498.16,-239.345"/>
</g>
<!-- Operation&#45;&gt;OperatorTimesKet -->
<g id="edge21" class="edge"><title>Operation&#45;&gt;OperatorTimesKet</title>
<path fill="none" stroke="black" stroke-width="0.5" d="M192.615,-313.181C210.214,-317.131 232.697,-321.522 253,-323.5 406.053,-338.412 445.625,-334.625 599,-323.5 612.051,-322.553 626.021,-320.892 639.152,-319.037"/>
<polygon fill="black" stroke="black" stroke-width="0.5" points="639.633,-320.736 644.332,-318.289 639.133,-317.271 639.633,-320.736"/>
</g>
<!-- QuantumOperation -->
<g id="node24" class="node"><title>QuantumOperation</title>
<g id="a_node24"><a xlink:href="../API/qalgebra.core.abstract_quantum_algebra.html#qalgebra.core.abstract_quantum_algebra.QuantumOperation" xlink:title="Base class for operations on quantum expression" target="_top">
<polygon fill="none" stroke="black" stroke-width="0.5" points="393.5,-315 284.5,-315 284.5,-296 393.5,-296 393.5,-315"/>
<text text-anchor="middle" x="339" y="-303" font-family="Vera Sans, DejaVu Sans, Liberation Sans, Arial, Helvetica, sans" font-size="10.00">QuantumOperation</text>
</a>
</g>
</g>
<!-- Operation&#45;&gt;QuantumOperation -->
<g id="edge28" class="edge"><title>Operation&#45;&gt;QuantumOperation</title>
<path fill="none" stroke="black" stroke-width="0.5" d="M192.648,-305.5C216.499,-305.5 250.101,-305.5 278.989,-305.5"/>
<polygon fill="black" stroke="black" stroke-width="0.5" points="279.325,-307.25 284.325,-305.5 279.325,-303.75 279.325,-307.25"/>
</g>
<!-- ScalarTimesQuantumExpression -->
<g id="node28" class="node"><title>ScalarTimesQuantumExpression</title>
<g id="a_node28"><a xlink:href="../API/qalgebra.core.abstract_quantum_algebra.html#qalgebra.core.abstract_quantum_algebra.ScalarTimesQuantumExpression" xlink:title="Product of a :class:`.Scalar` and a :class:`.QuantumExpression`" target="_top">
<polygon fill="none" stroke="black" stroke-width="0.5" points="425,-165 253,-165 253,-146 425,-146 425,-165"/>
<text text-anchor="middle" x="339" y="-153" font-family="Vera Sans, DejaVu Sans, Liberation Sans, Arial, Helvetica, sans" font-size="10.00">ScalarTimesQuantumExpression</text>
</a>
</g>
</g>
<!-- Operation&#45;&gt;ScalarTimesQuantumExpression -->
<g id="edge37" class="edge"><title>Operation&#45;&gt;ScalarTimesQuantumExpression</title>
<path fill="none" stroke="black" stroke-width="0.5" d="M166.939,-295.816C182.666,-268.149 228.617,-189.708 253,-173.5 256.782,-170.986 260.851,-168.814 265.086,-166.939"/>
<polygon fill="black" stroke="black" stroke-width="0.5" points="265.786,-168.543 269.741,-165.018 264.451,-165.307 265.786,-168.543"/>
</g>
<!-- Expression -->
<g id="node11" class="node"><title>Expression</title>
<g id="a_node11"><a xlink:href="../API/qalgebra.core.abstract_algebra.html#qalgebra.core.abstract_algebra.Expression" xlink:title="Base class for all QAlgebra Expressions." target="_top">
<polygon fill="none" stroke="black" stroke-width="0.5" points="68,-258 0,-258 0,-239 68,-239 68,-258"/>
<text text-anchor="middle" x="34" y="-246" font-family="Vera Sans, DejaVu Sans, Liberation Sans, Arial, Helvetica, sans" font-size="10.00">Expression</text>
</a>
</g>
</g>
<!-- Expression&#45;&gt;Operation -->
<g id="edge18" class="edge"><title>Expression&#45;&gt;Operation</title>
<path fill="none" stroke="black" stroke-width="0.5" d="M55.8385,-258.041C77.2943,-267.864 110.762,-283.186 133.836,-293.75"/>
<polygon fill="black" stroke="black" stroke-width="0.5" points="133.319,-295.438 138.594,-295.928 134.776,-292.256 133.319,-295.438"/>
</g>
<!-- QuantumExpression -->
<g id="node20" class="node"><title>QuantumExpression</title>
<g id="a_node20"><a xlink:href="../API/qalgebra.core.abstract_quantum_algebra.html#qalgebra.core.abstract_quantum_algebra.QuantumExpression" xlink:title="Base class for expressions associated with a Hilbert space" target="_top">
<polygon fill="none" stroke="black" stroke-width="0.5" points="217,-202 104,-202 104,-183 217,-183 217,-202"/>
<text text-anchor="middle" x="160.5" y="-190" font-family="Vera Sans, DejaVu Sans, Liberation Sans, Arial, Helvetica, sans" font-size="10.00">QuantumExpression</text>
</a>
</g>
</g>
<!-- Expression&#45;&gt;QuantumExpression -->
<g id="edge24" class="edge"><title>Expression&#45;&gt;QuantumExpression</title>
<path fill="none" stroke="black" stroke-width="0.5" d="M56.4023,-238.873C77.8217,-229.239 110.793,-214.408 133.659,-204.123"/>
<polygon fill="black" stroke="black" stroke-width="0.5" points="134.535,-205.648 138.377,-202.001 133.099,-202.456 134.535,-205.648"/>
</g>
<!-- QuantumIndexedSum -->
<g id="node16" class="node"><title>QuantumIndexedSum</title>
<g id="a_node16"><a xlink:href="../API/qalgebra.core.abstract_quantum_algebra.html#qalgebra.core.abstract_quantum_algebra.QuantumIndexedSum" xlink:title="Base class for indexed sums." target="_top">
<polygon fill="none" stroke="black" stroke-width="0.5" points="757,-467 635,-467 635,-448 757,-448 757,-467"/>
<text text-anchor="middle" x="696" y="-455" font-family="Vera Sans, DejaVu Sans, Liberation Sans, Arial, Helvetica, sans" font-size="10.00">QuantumIndexedSum</text>
</a>
</g>
</g>
<!-- IndexedSum&#45;&gt;QuantumIndexedSum -->
<g id="edge25" class="edge"><title>IndexedSum&#45;&gt;QuantumIndexedSum</title>
<path fill="none" stroke="black" stroke-width="0.5" d="M377.655,-440.515C437.601,-443.724 555.501,-450.034 629.497,-453.994"/>
<polygon fill="black" stroke="black" stroke-width="0.5" points="629.661,-455.755 634.748,-454.275 629.848,-452.26 629.661,-455.755"/>
</g>
<!-- Operator -->
<g id="node14" class="node"><title>Operator</title>
<g id="a_node14"><a xlink:href="../API/qalgebra.core.operator_algebra.html#qalgebra.core.operator_algebra.Operator" xlink:title="Base class for all quantum operators." target="_top">
<polygon fill="none" stroke="black" stroke-width="0.5" points="368.5,-239 309.5,-239 309.5,-220 368.5,-220 368.5,-239"/>
<text text-anchor="middle" x="339" y="-227" font-family="Vera Sans, DejaVu Sans, Liberation Sans, Arial, Helvetica, sans" font-size="10.00">Operator</text>
</a>
</g>
</g>
<!-- Operator&#45;&gt;KetBra -->
<g id="edge9" class="edge"><title>Operator&#45;&gt;KetBra</title>
<path fill="none" stroke="black" stroke-width="0.5" d="M368.705,-229.804C403.449,-230.171 461.75,-230.788 497.644,-231.168"/>
<polygon fill="black" stroke="black" stroke-width="0.5" points="497.753,-232.919 502.772,-231.222 497.79,-229.42 497.753,-232.919"/>
</g>
<!-- QuantumIndexedSum&#45;&gt;KetIndexedSum -->
<g id="edge12" class="edge"><title>QuantumIndexedSum&#45;&gt;KetIndexedSum</title>
<path fill="none" stroke="black" stroke-width="0.5" d="M739.767,-447.962C745.894,-445.486 751.854,-442.383 757,-438.5 798.482,-407.193 826.124,-349.697 837.347,-322.924"/>
<polygon fill="black" stroke="black" stroke-width="0.5" points="838.967,-323.586 839.251,-318.296 835.73,-322.254 838.967,-323.586"/>
</g>
<!-- QuantumPlus -->
<g id="node18" class="node"><title>QuantumPlus</title>
<g id="a_node18"><a xlink:href="../API/qalgebra.core.abstract_quantum_algebra.html#qalgebra.core.abstract_quantum_algebra.QuantumPlus" xlink:title="General implementation of addition of quantum expressions" target="_top">
<polygon fill="none" stroke="black" stroke-width="0.5" points="570.5,-315 489.5,-315 489.5,-296 570.5,-296 570.5,-315"/>
<text text-anchor="middle" x="530" y="-303" font-family="Vera Sans, DejaVu Sans, Liberation Sans, Arial, Helvetica, sans" font-size="10.00">QuantumPlus</text>
</a>
</g>
</g>
<!-- QuantumPlus&#45;&gt;KetPlus -->
<g id="edge14" class="edge"><title>QuantumPlus&#45;&gt;KetPlus</title>
<path fill="none" stroke="black" stroke-width="0.5" d="M570.7,-297.512C599.317,-291.753 637.399,-284.09 663.837,-278.771"/>
<polygon fill="black" stroke="black" stroke-width="0.5" points="664.406,-280.441 668.963,-277.739 663.716,-277.01 664.406,-280.441"/>
</g>
<!-- QuantumSymbol -->
<g id="node19" class="node"><title>QuantumSymbol</title>
<g id="a_node19"><a xlink:href="../API/qalgebra.core.abstract_quantum_algebra.html#qalgebra.core.abstract_quantum_algebra.QuantumSymbol" xlink:title="Symbolic element of an algebra" target="_top">
<polygon fill="none" stroke="black" stroke-width="0.5" points="388,-54 290,-54 290,-35 388,-35 388,-54"/>
<text text-anchor="middle" x="339" y="-42" font-family="Vera Sans, DejaVu Sans, Liberation Sans, Arial, Helvetica, sans" font-size="10.00">QuantumSymbol</text>
</a>
</g>
</g>
<!-- QuantumSymbol&#45;&gt;KetSymbol -->
<g id="edge15" class="edge"><title>QuantumSymbol&#45;&gt;KetSymbol</title>
<path fill="none" stroke="black" stroke-width="0.5" d="M388.246,-39.7433C459.422,-32.726 591.159,-19.7378 656.367,-13.3089"/>
<polygon fill="black" stroke="black" stroke-width="0.5" points="656.902,-15.0147 661.706,-12.7825 656.558,-11.5316 656.902,-15.0147"/>
</g>
<!-- QuantumExpression&#45;&gt;State -->
<g id="edge39" class="edge"><title>QuantumExpression&#45;&gt;State</title>
<path fill="none" stroke="black" stroke-width="0.5" d="M173.006,-182.863C189.507,-169.682 221.4,-146.524 253,-136.5 338.183,-109.479 445.381,-112.233 497.564,-115.75"/>
<polygon fill="black" stroke="black" stroke-width="0.5" points="497.633,-117.509 502.743,-116.114 497.878,-114.018 497.633,-117.509"/>
</g>
<!-- QuantumExpression&#45;&gt;Operator -->
<g id="edge19" class="edge"><title>QuantumExpression&#45;&gt;Operator</title>
<path fill="none" stroke="black" stroke-width="0.5" d="M206.953,-202.028C237.338,-208.398 276.654,-216.64 304.266,-222.428"/>
<polygon fill="black" stroke="black" stroke-width="0.5" points="304.027,-224.166 309.28,-223.479 304.746,-220.741 304.027,-224.166"/>
</g>
<!-- QuantumExpression&#45;&gt;QuantumSymbol -->
<g id="edge30" class="edge"><title>QuantumExpression&#45;&gt;QuantumSymbol</title>
<path fill="none" stroke="black" stroke-width="0.5" d="M170.379,-182.875C186.207,-165.951 220.675,-130.133 253,-103.5 274.344,-85.9143 300.757,-68.1422 318.423,-56.7679"/>
<polygon fill="black" stroke="black" stroke-width="0.5" points="319.451,-58.188 322.718,-54.0179 317.563,-55.2405 319.451,-58.188"/>
</g>
<!-- QuantumExpression&#45;&gt;QuantumOperation -->
<g id="edge27" class="edge"><title>QuantumExpression&#45;&gt;QuantumOperation</title>
<path fill="none" stroke="black" stroke-width="0.5" d="M176.548,-202.134C208.461,-222.566 282.909,-270.229 318.446,-292.981"/>
<polygon fill="black" stroke="black" stroke-width="0.5" points="317.835,-294.668 322.99,-295.89 319.722,-291.72 317.835,-294.668"/>
</g>
<!-- Scalar -->
<g id="node26" class="node"><title>Scalar</title>
<g id="a_node26"><a xlink:href="../API/qalgebra.core.scalar_algebra.html#qalgebra.core.scalar_algebra.Scalar" xlink:title="Base class for Scalars" target="_top">
<polygon fill="none" stroke="black" stroke-width="0.5" points="366,-202 312,-202 312,-183 366,-183 366,-202"/>
<text text-anchor="middle" x="339" y="-190" font-family="Vera Sans, DejaVu Sans, Liberation Sans, Arial, Helvetica, sans" font-size="10.00">Scalar</text>
</a>
</g>
</g>
<!-- QuantumExpression&#45;&gt;Scalar -->
<g id="edge32" class="edge"><title>QuantumExpression&#45;&gt;Scalar</title>
<path fill="none" stroke="black" stroke-width="0.5" d="M217.346,-192.5C246.763,-192.5 281.76,-192.5 306.466,-192.5"/>
<polygon fill="black" stroke="black" stroke-width="0.5" points="306.576,-194.25 311.576,-192.5 306.576,-190.75 306.576,-194.25"/>
</g>
<!-- QuantumExpression&#45;&gt;ScalarTimesQuantumExpression -->
<g id="edge36" class="edge"><title>QuantumExpression&#45;&gt;ScalarTimesQuantumExpression</title>
<path fill="none" stroke="black" stroke-width="0.5" d="M206.953,-182.972C231.562,-177.813 262.03,-171.426 287.393,-166.109"/>
<polygon fill="black" stroke="black" stroke-width="0.5" points="287.86,-167.799 292.394,-165.06 287.142,-164.374 287.86,-167.799"/>
</g>
<!-- SingleQuantumOperation -->
<g id="node22" class="node"><title>SingleQuantumOperation</title>
<g id="a_node22"><a xlink:href="../API/qalgebra.core.abstract_quantum_algebra.html#qalgebra.core.abstract_quantum_algebra.SingleQuantumOperation" xlink:title="Base class for operations on a single quantum expression" target="_top">
<polygon fill="none" stroke="black" stroke-width="0.5" points="599,-429 461,-429 461,-410 599,-410 599,-429"/>
<text text-anchor="middle" x="530" y="-417" font-family="Vera Sans, DejaVu Sans, Liberation Sans, Arial, Helvetica, sans" font-size="10.00">SingleQuantumOperation</text>
</a>
</g>
</g>
<!-- SingleQuantumOperation&#45;&gt;QuantumAdjoint -->
<g id="edge22" class="edge"><title>SingleQuantumOperation&#45;&gt;QuantumAdjoint</title>
<path fill="none" stroke="black" stroke-width="0.5" d="M574.518,-409.947C596.662,-405.086 623.648,-399.163 646.462,-394.155"/>
<polygon fill="black" stroke="black" stroke-width="0.5" points="647.055,-395.816 651.563,-393.035 646.304,-392.398 647.055,-395.816"/>
</g>
<!-- SingleQuantumOperation&#45;&gt;QuantumIndexedSum -->
<g id="edge26" class="edge"><title>SingleQuantumOperation&#45;&gt;QuantumIndexedSum</title>
<path fill="none" stroke="black" stroke-width="0.5" d="M572.384,-429.089C595.683,-434.488 624.834,-441.242 648.867,-446.811"/>
<polygon fill="black" stroke="black" stroke-width="0.5" points="648.647,-448.556 653.913,-447.98 649.438,-445.146 648.647,-448.556"/>
</g>
<!-- QuantumDerivative -->
<g id="node23" class="node"><title>QuantumDerivative</title>
<g id="a_node23"><a xlink:href="../API/qalgebra.core.abstract_quantum_algebra.html#qalgebra.core.abstract_quantum_algebra.QuantumDerivative" xlink:title="Symbolic partial derivative." target="_top">
<polygon fill="none" stroke="black" stroke-width="0.5" points="751,-430 641,-430 641,-411 751,-411 751,-430"/>
<text text-anchor="middle" x="696" y="-418" font-family="Vera Sans, DejaVu Sans, Liberation Sans, Arial, Helvetica, sans" font-size="10.00">QuantumDerivative</text>
</a>
</g>
</g>
<!-- SingleQuantumOperation&#45;&gt;QuantumDerivative -->
<g id="edge23" class="edge"><title>SingleQuantumOperation&#45;&gt;QuantumDerivative</title>
<path fill="none" stroke="black" stroke-width="0.5" d="M599.126,-419.915C611.293,-419.99 623.879,-420.066 635.772,-420.139"/>
<polygon fill="black" stroke="black" stroke-width="0.5" points="635.812,-421.889 640.823,-420.17 635.833,-418.389 635.812,-421.889"/>
</g>
<!-- QuantumDerivative&#45;&gt;StateDerivative -->
<g id="edge40" class="edge"><title>QuantumDerivative&#45;&gt;StateDerivative</title>
<path fill="none" stroke="black" stroke-width="0.5" d="M743.507,-410.879C748.481,-408.429 753.129,-405.355 757,-401.5 794.052,-364.608 772.535,-337.615 793,-289.5 805.264,-260.666 823.442,-228.876 834.168,-210.932"/>
<polygon fill="black" stroke="black" stroke-width="0.5" points="835.906,-211.438 836.985,-206.252 832.907,-209.633 835.906,-211.438"/>
</g>
<!-- QuantumOperation&#45;&gt;QuantumPlus -->
<g id="edge29" class="edge"><title>QuantumOperation&#45;&gt;QuantumPlus</title>
<path fill="none" stroke="black" stroke-width="0.5" d="M393.654,-305.5C422.2,-305.5 456.902,-305.5 484.021,-305.5"/>
<polygon fill="black" stroke="black" stroke-width="0.5" points="484.34,-307.25 489.34,-305.5 484.34,-303.75 484.34,-307.25"/>
</g>
<!-- QuantumOperation&#45;&gt;SingleQuantumOperation -->
<g id="edge38" class="edge"><title>QuantumOperation&#45;&gt;SingleQuantumOperation</title>
<path fill="none" stroke="black" stroke-width="0.5" d="M355.789,-315.023C389.976,-335.644 470.814,-384.404 508.719,-407.267"/>
<polygon fill="black" stroke="black" stroke-width="0.5" points="507.938,-408.839 513.123,-409.923 509.745,-405.842 507.938,-408.839"/>
</g>
<!-- QuantumTimes -->
<g id="node25" class="node"><title>QuantumTimes</title>
<g id="a_node25"><a xlink:href="../API/qalgebra.core.abstract_quantum_algebra.html#qalgebra.core.abstract_quantum_algebra.QuantumTimes" xlink:title="General implementation of product of quantum expressions" target="_top">
<polygon fill="none" stroke="black" stroke-width="0.5" points="575,-278 485,-278 485,-259 575,-259 575,-278"/>
<text text-anchor="middle" x="530" y="-266" font-family="Vera Sans, DejaVu Sans, Liberation Sans, Arial, Helvetica, sans" font-size="10.00">QuantumTimes</text>
</a>
</g>
</g>
<!-- QuantumOperation&#45;&gt;QuantumTimes -->
<g id="edge31" class="edge"><title>QuantumOperation&#45;&gt;QuantumTimes</title>
<path fill="none" stroke="black" stroke-width="0.5" d="M388.672,-295.972C416.576,-290.509 451.513,-283.669 479.546,-278.181"/>
<polygon fill="black" stroke="black" stroke-width="0.5" points="480.127,-279.851 484.697,-277.173 479.454,-276.416 480.127,-279.851"/>
</g>
<!-- QuantumTimes&#45;&gt;TensorKet -->
<g id="edge43" class="edge"><title>QuantumTimes&#45;&gt;TensorKet</title>
<path fill="none" stroke="black" stroke-width="0.5" d="M575.381,-259.57C601.861,-254.241 635.023,-247.568 659.711,-242.601"/>
<polygon fill="black" stroke="black" stroke-width="0.5" points="660.288,-244.27 664.845,-241.568 659.598,-240.839 660.288,-244.27"/>
</g>
<!-- Scalar&#45;&gt;ScalarExpression -->
<g id="edge33" class="edge"><title>Scalar&#45;&gt;ScalarExpression</title>
<path fill="none" stroke="black" stroke-width="0.5" d="M366.28,-192.778C394.412,-193.076 439.816,-193.556 475.524,-193.934"/>
<polygon fill="black" stroke="black" stroke-width="0.5" points="475.701,-195.686 480.719,-193.989 475.738,-192.186 475.701,-195.686"/>
</g>
<!-- ScalarTimesQuantumExpression&#45;&gt;ScalarTimesKet -->
<g id="edge35" class="edge"><title>ScalarTimesQuantumExpression&#45;&gt;ScalarTimesKet</title>
<path fill="none" stroke="black" stroke-width="0.5" d="M425.256,-158.689C475.96,-161.428 541.418,-166.437 599,-175.5 617.872,-178.47 638.51,-183.214 655.799,-187.625"/>
<polygon fill="black" stroke="black" stroke-width="0.5" points="655.772,-189.425 661.051,-188.98 656.647,-186.036 655.772,-189.425"/>
</g>
</g>
</svg>
