<?xml version="1.0" encoding="UTF-8" standalone="no"?>
<!DOCTYPE svg PUBLIC "-//W3C//DTD SVG 1.1//EN"
 "http://www.w3.org/Graphics/SVG/1.1/DTD/svg11.dtd">
<!-- Generated by graphviz version 2.38.0 (20140413.2041)
 -->
<!-- Title: inheritance2f32859345 Pages: 1 -->
<svg width="920pt" height="586pt"
 viewBox="0.00 0.00 920.00 586.00" xmlns="http://www.w3.org/2000/svg" xmlns:xlink="http://www.w3.org/1999/xlink">
<g id="graph0" class="graph" transform="scale(1 1) rotate(0) translate(4 582)">
<title>inheritance2f32859345</title>
<polygon fill="white" stroke="none" points="-4,4 -4,-582 916,-582 916,4 -4,4"/>
<!-- Adjoint -->
<g id="node1" class="node"><title>Adjoint</title>
<g id="a_node1"><a xlink:href="../API/qalgebra.core.operator_algebra.html#qalgebra.core.operator_algebra.Adjoint" xlink:title="Symbolic Adjoint of an operator" target="_top">
<polygon fill="none" stroke="black" stroke-width="0.5" points="879.5,-168 825.5,-168 825.5,-149 879.5,-149 879.5,-168"/>
<text text-anchor="middle" x="852.5" y="-156" font-family="Vera Sans, DejaVu Sans, Liberation Sans, Arial, Helvetica, sans" font-size="10.00">Adjoint</text>
</a>
</g>
</g>
<!-- QuantumAdjoint -->
<g id="node2" class="node"><title>QuantumAdjoint</title>
<g id="a_node2"><a xlink:href="../API/qalgebra.core.abstract_quantum_algebra.html#qalgebra.core.abstract_quantum_algebra.QuantumAdjoint" xlink:title="Base class for adjoints of quantum expressions" target="_top">
<polygon fill="none" stroke="black" stroke-width="0.5" points="743.5,-504 648.5,-504 648.5,-485 743.5,-485 743.5,-504"/>
<text text-anchor="middle" x="696" y="-492" font-family="Vera Sans, DejaVu Sans, Liberation Sans, Arial, Helvetica, sans" font-size="10.00">QuantumAdjoint</text>
</a>
</g>
</g>
<!-- QuantumAdjoint&#45;&gt;Adjoint -->
<g id="edge1" class="edge"><title>QuantumAdjoint&#45;&gt;Adjoint</title>
<path fill="none" stroke="black" stroke-width="0.5" d="M743.748,-486.362C748.744,-483.877 753.332,-480.66 757,-476.5 821.076,-403.828 760.579,-352.8 793,-261.5 805.054,-227.556 827.999,-191.843 841.289,-172.673"/>
<polygon fill="black" stroke="black" stroke-width="0.5" points="843.011,-173.265 844.447,-168.166 840.144,-171.256 843.011,-173.265"/>
</g>
<!-- Operator -->
<g id="node3" class="node"><title>Operator</title>
<g id="a_node3"><a xlink:href="../API/qalgebra.core.operator_algebra.html#qalgebra.core.operator_algebra.Operator" xlink:title="Base class for all quantum operators." target="_top">
<polygon fill="none" stroke="black" stroke-width="0.5" points="559.5,-237 500.5,-237 500.5,-218 559.5,-218 559.5,-237"/>
<text text-anchor="middle" x="530" y="-225" font-family="Vera Sans, DejaVu Sans, Liberation Sans, Arial, Helvetica, sans" font-size="10.00">Operator</text>
</a>
</g>
</g>
<!-- Operator&#45;&gt;Adjoint -->
<g id="edge2" class="edge"><title>Operator&#45;&gt;Adjoint</title>
<path fill="none" stroke="black" stroke-width="0.5" d="M559.724,-221.316C619.801,-208.382 758.287,-178.568 820.384,-165.199"/>
<polygon fill="black" stroke="black" stroke-width="0.5" points="820.917,-166.874 825.437,-164.111 820.18,-163.453 820.917,-166.874"/>
</g>
<!-- Commutator -->
<g id="node4" class="node"><title>Commutator</title>
<g id="a_node4"><a xlink:href="../API/qalgebra.core.operator_algebra.html#qalgebra.core.operator_algebra.Commutator" xlink:title="Commutator of two operators" target="_top">
<polygon fill="none" stroke="black" stroke-width="0.5" points="735,-93 657,-93 657,-74 735,-74 735,-93"/>
<text text-anchor="middle" x="696" y="-81" font-family="Vera Sans, DejaVu Sans, Liberation Sans, Arial, Helvetica, sans" font-size="10.00">Commutator</text>
</a>
</g>
</g>
<!-- Operator&#45;&gt;Commutator -->
<g id="edge4" class="edge"><title>Operator&#45;&gt;Commutator</title>
<path fill="none" stroke="black" stroke-width="0.5" d="M557.057,-217.924C571.054,-211.662 587.703,-202.257 599,-189.5 627.015,-157.864 603.708,-129.899 635,-101.5 639.877,-97.0737 645.805,-93.7342 652.013,-91.2152"/>
<polygon fill="black" stroke="black" stroke-width="0.5" points="652.719,-92.8198 656.802,-89.4443 651.505,-89.537 652.719,-92.8198"/>
</g>
<!-- LocalOperator -->
<g id="node9" class="node"><title>LocalOperator</title>
<g id="a_node9"><a xlink:href="../API/qalgebra.core.operator_algebra.html#qalgebra.core.operator_algebra.LocalOperator" xlink:title="Base class for &quot;known&quot; operators on a :class:`.LocalSpace`." target="_top">
<polygon fill="none" stroke="black" stroke-width="0.5" points="738,-130 654,-130 654,-111 738,-111 738,-130"/>
<text text-anchor="middle" x="696" y="-118" font-family="Vera Sans, DejaVu Sans, Liberation Sans, Arial, Helvetica, sans" font-size="10.00">LocalOperator</text>
</a>
</g>
</g>
<!-- Operator&#45;&gt;LocalOperator -->
<g id="edge6" class="edge"><title>Operator&#45;&gt;LocalOperator</title>
<path fill="none" stroke="black" stroke-width="0.5" d="M552.877,-217.966C566.921,-211.223 585.069,-201.301 599,-189.5 618.543,-172.945 614.43,-159.76 635,-144.5 641.715,-139.518 649.606,-135.403 657.419,-132.071"/>
<polygon fill="black" stroke="black" stroke-width="0.5" points="658.292,-133.605 662.262,-130.098 656.971,-130.364 658.292,-133.605"/>
</g>
<!-- NullSpaceProjector -->
<g id="node11" class="node"><title>NullSpaceProjector</title>
<g id="a_node11"><a xlink:href="../API/qalgebra.core.operator_algebra.html#qalgebra.core.operator_algebra.NullSpaceProjector" xlink:title="Projection operator onto the nullspace of its operand." target="_top">
<polygon fill="none" stroke="black" stroke-width="0.5" points="749.5,-430 642.5,-430 642.5,-411 749.5,-411 749.5,-430"/>
<text text-anchor="middle" x="696" y="-418" font-family="Vera Sans, DejaVu Sans, Liberation Sans, Arial, Helvetica, sans" font-size="10.00">NullSpaceProjector</text>
</a>
</g>
</g>
<!-- Operator&#45;&gt;NullSpaceProjector -->
<g id="edge9" class="edge"><title>Operator&#45;&gt;NullSpaceProjector</title>
<path fill="none" stroke="black" stroke-width="0.5" d="M559.703,-232.074C573.417,-235.686 588.984,-242.111 599,-253.5 643.99,-304.659 588.154,-353.034 635,-402.5 637.01,-404.622 639.259,-406.497 641.675,-408.153"/>
<polygon fill="black" stroke="black" stroke-width="0.5" points="641.008,-409.796 646.188,-410.905 642.83,-406.808 641.008,-409.796"/>
</g>
<!-- OperatorDerivative -->
<g id="node14" class="node"><title>OperatorDerivative</title>
<g id="a_node14"><a xlink:href="../API/qalgebra.core.operator_algebra.html#qalgebra.core.operator_algebra.OperatorDerivative" xlink:title="Symbolic partial derivative of an operator" target="_top">
<polygon fill="none" stroke="black" stroke-width="0.5" points="906,-290 799,-290 799,-271 906,-271 906,-290"/>
<text text-anchor="middle" x="852.5" y="-278" font-family="Vera Sans, DejaVu Sans, Liberation Sans, Arial, Helvetica, sans" font-size="10.00">OperatorDerivative</text>
</a>
</g>
</g>
<!-- Operator&#45;&gt;OperatorDerivative -->
<g id="edge13" class="edge"><title>Operator&#45;&gt;OperatorDerivative</title>
<path fill="none" stroke="black" stroke-width="0.5" d="M559.537,-221.085C603.11,-212.51 688.395,-200.56 757,-220.5 788.311,-229.6 819.171,-252.545 836.723,-267.277"/>
<polygon fill="black" stroke="black" stroke-width="0.5" points="835.951,-268.919 840.89,-270.833 838.222,-266.256 835.951,-268.919"/>
</g>
<!-- OperatorIndexedSum -->
<g id="node16" class="node"><title>OperatorIndexedSum</title>
<g id="a_node16"><a xlink:href="../API/qalgebra.core.operator_algebra.html#qalgebra.core.operator_algebra.OperatorIndexedSum" xlink:title="Indexed sum over operators" target="_top">
<polygon fill="none" stroke="black" stroke-width="0.5" points="912,-411 793,-411 793,-392 912,-392 912,-411"/>
<text text-anchor="middle" x="852.5" y="-399" font-family="Vera Sans, DejaVu Sans, Liberation Sans, Arial, Helvetica, sans" font-size="10.00">OperatorIndexedSum</text>
</a>
</g>
</g>
<!-- Operator&#45;&gt;OperatorIndexedSum -->
<g id="edge15" class="edge"><title>Operator&#45;&gt;OperatorIndexedSum</title>
<path fill="none" stroke="black" stroke-width="0.5" d="M559.58,-223.415C605.095,-218.424 695.206,-214.884 757,-253.5 770.299,-261.811 823.269,-352.373 843.547,-387.598"/>
<polygon fill="black" stroke="black" stroke-width="0.5" points="842.065,-388.532 846.074,-391.996 845.1,-386.788 842.065,-388.532"/>
</g>
<!-- OperatorPlus -->
<g id="node18" class="node"><title>OperatorPlus</title>
<g id="a_node18"><a xlink:href="../API/qalgebra.core.operator_algebra.html#qalgebra.core.operator_algebra.OperatorPlus" xlink:title="Sum of Operators" target="_top">
<polygon fill="none" stroke="black" stroke-width="0.5" points="735.5,-319 656.5,-319 656.5,-300 735.5,-300 735.5,-319"/>
<text text-anchor="middle" x="696" y="-307" font-family="Vera Sans, DejaVu Sans, Liberation Sans, Arial, Helvetica, sans" font-size="10.00">OperatorPlus</text>
</a>
</g>
</g>
<!-- Operator&#45;&gt;OperatorPlus -->
<g id="edge17" class="edge"><title>Operator&#45;&gt;OperatorPlus</title>
<path fill="none" stroke="black" stroke-width="0.5" d="M559.782,-235.424C572.423,-239.661 587.07,-245.647 599,-253.5 618.165,-266.115 615.475,-278.451 635,-290.5 640.085,-293.638 645.736,-296.302 651.478,-298.552"/>
<polygon fill="black" stroke="black" stroke-width="0.5" points="651.017,-300.247 656.313,-300.346 652.234,-296.966 651.017,-300.247"/>
</g>
<!-- OperatorPlusMinusCC -->
<g id="node20" class="node"><title>OperatorPlusMinusCC</title>
<g id="a_node20"><a xlink:href="../API/qalgebra.core.operator_algebra.html#qalgebra.core.operator_algebra.OperatorPlusMinusCC" xlink:title="An operator plus or minus its complex conjugate." target="_top">
<polygon fill="none" stroke="black" stroke-width="0.5" points="756,-393 636,-393 636,-374 756,-374 756,-393"/>
<text text-anchor="middle" x="696" y="-381" font-family="Vera Sans, DejaVu Sans, Liberation Sans, Arial, Helvetica, sans" font-size="10.00">OperatorPlusMinusCC</text>
</a>
</g>
</g>
<!-- Operator&#45;&gt;OperatorPlusMinusCC -->
<g id="edge19" class="edge"><title>Operator&#45;&gt;OperatorPlusMinusCC</title>
<path fill="none" stroke="black" stroke-width="0.5" d="M559.693,-232.487C573.236,-236.195 588.657,-242.58 599,-253.5 634.956,-291.46 597.669,-328.891 635,-365.5 637.293,-367.749 639.855,-369.718 642.595,-371.443"/>
<polygon fill="black" stroke="black" stroke-width="0.5" points="641.818,-373.014 647.031,-373.956 643.544,-369.969 641.818,-373.014"/>
</g>
<!-- OperatorSymbol -->
<g id="node21" class="node"><title>OperatorSymbol</title>
<g id="a_node21"><a xlink:href="../API/qalgebra.core.operator_algebra.html#qalgebra.core.operator_algebra.OperatorSymbol" xlink:title="Symbolic operator" target="_top">
<polygon fill="none" stroke="black" stroke-width="0.5" points="743.5,-19 648.5,-19 648.5,-0 743.5,-0 743.5,-19"/>
<text text-anchor="middle" x="696" y="-7" font-family="Vera Sans, DejaVu Sans, Liberation Sans, Arial, Helvetica, sans" font-size="10.00">OperatorSymbol</text>
</a>
</g>
</g>
<!-- Operator&#45;&gt;OperatorSymbol -->
<g id="edge21" class="edge"><title>Operator&#45;&gt;OperatorSymbol</title>
<path fill="none" stroke="black" stroke-width="0.5" d="M533.16,-217.881C540.882,-185.752 570.179,-81.1486 635,-27.5 637.822,-25.1641 640.941,-23.1313 644.229,-21.3622"/>
<polygon fill="black" stroke="black" stroke-width="0.5" points="645.092,-22.8879 648.805,-19.1097 643.547,-19.7476 645.092,-22.8879"/>
</g>
<!-- OperatorTimes -->
<g id="node23" class="node"><title>OperatorTimes</title>
<g id="a_node23"><a xlink:href="../API/qalgebra.core.operator_algebra.html#qalgebra.core.operator_algebra.OperatorTimes" xlink:title="Product of operators" target="_top">
<polygon fill="none" stroke="black" stroke-width="0.5" points="740,-282 652,-282 652,-263 740,-263 740,-282"/>
<text text-anchor="middle" x="696" y="-270" font-family="Vera Sans, DejaVu Sans, Liberation Sans, Arial, Helvetica, sans" font-size="10.00">OperatorTimes</text>
</a>
</g>
</g>
<!-- Operator&#45;&gt;OperatorTimes -->
<g id="edge23" class="edge"><title>Operator&#45;&gt;OperatorTimes</title>
<path fill="none" stroke="black" stroke-width="0.5" d="M559.567,-235.338C586.026,-242.599 625.633,-253.466 655.189,-261.576"/>
<polygon fill="black" stroke="black" stroke-width="0.5" points="654.929,-263.319 660.214,-262.955 655.855,-259.944 654.929,-263.319"/>
</g>
<!-- OperatorTrace -->
<g id="node25" class="node"><title>OperatorTrace</title>
<g id="a_node25"><a xlink:href="../API/qalgebra.core.operator_algebra.html#qalgebra.core.operator_algebra.OperatorTrace" xlink:title="(Partial) trace of an operator" target="_top">
<polygon fill="none" stroke="black" stroke-width="0.5" points="738,-356 654,-356 654,-337 738,-337 738,-356"/>
<text text-anchor="middle" x="696" y="-344" font-family="Vera Sans, DejaVu Sans, Liberation Sans, Arial, Helvetica, sans" font-size="10.00">OperatorTrace</text>
</a>
</g>
</g>
<!-- Operator&#45;&gt;OperatorTrace -->
<g id="edge25" class="edge"><title>Operator&#45;&gt;OperatorTrace</title>
<path fill="none" stroke="black" stroke-width="0.5" d="M559.728,-233.337C572.955,-237.222 588.096,-243.511 599,-253.5 625.969,-278.205 607.319,-303.595 635,-327.5 639.179,-331.109 644.045,-334.033 649.166,-336.403"/>
<polygon fill="black" stroke="black" stroke-width="0.5" points="648.641,-338.081 653.927,-338.427 650.01,-334.86 648.641,-338.081"/>
</g>
<!-- PseudoInverse -->
<g id="node26" class="node"><title>PseudoInverse</title>
<g id="a_node26"><a xlink:href="../API/qalgebra.core.operator_algebra.html#qalgebra.core.operator_algebra.PseudoInverse" xlink:title="Unevaluated pseudo&#45;inverse $\Op{X}^+$ of an operator $\Op{X}$." target="_top">
<polygon fill="none" stroke="black" stroke-width="0.5" points="739,-467 653,-467 653,-448 739,-448 739,-467"/>
<text text-anchor="middle" x="696" y="-455" font-family="Vera Sans, DejaVu Sans, Liberation Sans, Arial, Helvetica, sans" font-size="10.00">PseudoInverse</text>
</a>
</g>
</g>
<!-- Operator&#45;&gt;PseudoInverse -->
<g id="edge27" class="edge"><title>Operator&#45;&gt;PseudoInverse</title>
<path fill="none" stroke="black" stroke-width="0.5" d="M559.583,-231.794C573.437,-235.338 589.167,-241.787 599,-253.5 653.14,-317.988 578.52,-377.052 635,-439.5 638.686,-443.576 643.255,-446.744 648.214,-449.204"/>
<polygon fill="black" stroke="black" stroke-width="0.5" points="647.584,-450.839 652.864,-451.269 649.005,-447.64 647.584,-450.839"/>
</g>
<!-- ScalarTimesOperator -->
<g id="node27" class="node"><title>ScalarTimesOperator</title>
<g id="a_node27"><a xlink:href="../API/qalgebra.core.operator_algebra.html#qalgebra.core.operator_algebra.ScalarTimesOperator" xlink:title="Product of a :class:`.Scalar` coefficient and an :class:`.Operator`." target="_top">
<polygon fill="none" stroke="black" stroke-width="0.5" points="755,-56 637,-56 637,-37 755,-37 755,-56"/>
<text text-anchor="middle" x="696" y="-44" font-family="Vera Sans, DejaVu Sans, Liberation Sans, Arial, Helvetica, sans" font-size="10.00">ScalarTimesOperator</text>
</a>
</g>
</g>
<!-- Operator&#45;&gt;ScalarTimesOperator -->
<g id="edge38" class="edge"><title>Operator&#45;&gt;ScalarTimesOperator</title>
<path fill="none" stroke="black" stroke-width="0.5" d="M537.477,-217.816C549.689,-199.508 576.877,-158.516 599,-123.5 615.407,-97.5306 610.68,-83.2657 635,-64.5 638.019,-62.1705 641.336,-60.1415 644.814,-58.3744"/>
<polygon fill="black" stroke="black" stroke-width="0.5" points="645.85,-59.8221 649.643,-56.1232 644.371,-56.6499 645.85,-59.8221"/>
</g>
<!-- QuantumOperation -->
<g id="node5" class="node"><title>QuantumOperation</title>
<g id="a_node5"><a xlink:href="../API/qalgebra.core.abstract_quantum_algebra.html#qalgebra.core.abstract_quantum_algebra.QuantumOperation" xlink:title="Base class for operations on quantum expression" target="_top">
<polygon fill="none" stroke="black" stroke-width="0.5" points="393.5,-297 284.5,-297 284.5,-278 393.5,-278 393.5,-297"/>
<text text-anchor="middle" x="339" y="-285" font-family="Vera Sans, DejaVu Sans, Liberation Sans, Arial, Helvetica, sans" font-size="10.00">QuantumOperation</text>
</a>
</g>
</g>
<!-- QuantumOperation&#45;&gt;Commutator -->
<g id="edge3" class="edge"><title>QuantumOperation&#45;&gt;Commutator</title>
<path fill="none" stroke="black" stroke-width="0.5" d="M393.597,-282.39C404.701,-279.516 415.804,-275.137 425,-268.5 450.217,-250.301 439.13,-230.61 461,-208.5 461.499,-207.996 634.353,-101.79 635,-101.5 640.582,-98.9978 646.608,-96.7261 652.613,-94.7046"/>
<polygon fill="black" stroke="black" stroke-width="0.5" points="653.431,-96.2788 657.642,-93.0657 652.346,-92.951 653.431,-96.2788"/>
</g>
<!-- SingleQuantumOperation -->
<g id="node12" class="node"><title>SingleQuantumOperation</title>
<g id="a_node12"><a xlink:href="../API/qalgebra.core.abstract_quantum_algebra.html#qalgebra.core.abstract_quantum_algebra.SingleQuantumOperation" xlink:title="Base class for operations on a single quantum expression" target="_top">
<polygon fill="none" stroke="black" stroke-width="0.5" points="599,-448 461,-448 461,-429 599,-429 599,-448"/>
<text text-anchor="middle" x="530" y="-436" font-family="Vera Sans, DejaVu Sans, Liberation Sans, Arial, Helvetica, sans" font-size="10.00">SingleQuantumOperation</text>
</a>
</g>
</g>
<!-- QuantumOperation&#45;&gt;SingleQuantumOperation -->
<g id="edge42" class="edge"><title>QuantumOperation&#45;&gt;SingleQuantumOperation</title>
<path fill="none" stroke="black" stroke-width="0.5" d="M352.11,-297.175C384.836,-323.321 475.083,-395.424 512.458,-425.284"/>
<polygon fill="black" stroke="black" stroke-width="0.5" points="511.747,-426.956 516.746,-428.71 513.932,-424.222 511.747,-426.956"/>
</g>
<!-- QuantumPlus -->
<g id="node19" class="node"><title>QuantumPlus</title>
<g id="a_node19"><a xlink:href="../API/qalgebra.core.abstract_quantum_algebra.html#qalgebra.core.abstract_quantum_algebra.QuantumPlus" xlink:title="General implementation of addition of quantum expressions" target="_top">
<polygon fill="none" stroke="black" stroke-width="0.5" points="570.5,-319 489.5,-319 489.5,-300 570.5,-300 570.5,-319"/>
<text text-anchor="middle" x="530" y="-307" font-family="Vera Sans, DejaVu Sans, Liberation Sans, Arial, Helvetica, sans" font-size="10.00">QuantumPlus</text>
</a>
</g>
</g>
<!-- QuantumOperation&#45;&gt;QuantumPlus -->
<g id="edge35" class="edge"><title>QuantumOperation&#45;&gt;QuantumPlus</title>
<path fill="none" stroke="black" stroke-width="0.5" d="M393.654,-293.745C422.319,-297.082 457.192,-301.141 484.36,-304.304"/>
<polygon fill="black" stroke="black" stroke-width="0.5" points="484.171,-306.044 489.34,-304.883 484.576,-302.567 484.171,-306.044"/>
</g>
<!-- QuantumTimes -->
<g id="node24" class="node"><title>QuantumTimes</title>
<g id="a_node24"><a xlink:href="../API/qalgebra.core.abstract_quantum_algebra.html#qalgebra.core.abstract_quantum_algebra.QuantumTimes" xlink:title="General implementation of product of quantum expressions" target="_top">
<polygon fill="none" stroke="black" stroke-width="0.5" points="575,-282 485,-282 485,-263 575,-263 575,-282"/>
<text text-anchor="middle" x="530" y="-270" font-family="Vera Sans, DejaVu Sans, Liberation Sans, Arial, Helvetica, sans" font-size="10.00">QuantumTimes</text>
</a>
</g>
</g>
<!-- QuantumOperation&#45;&gt;QuantumTimes -->
<g id="edge37" class="edge"><title>QuantumOperation&#45;&gt;QuantumTimes</title>
<path fill="none" stroke="black" stroke-width="0.5" d="M393.654,-283.242C420.665,-281.098 453.189,-278.517 479.584,-276.422"/>
<polygon fill="black" stroke="black" stroke-width="0.5" points="479.932,-278.15 484.777,-276.01 479.655,-274.661 479.932,-278.15"/>
</g>
<!-- Expression -->
<g id="node6" class="node"><title>Expression</title>
<g id="a_node6"><a xlink:href="../API/qalgebra.core.abstract_algebra.html#qalgebra.core.abstract_algebra.Expression" xlink:title="Base class for all QAlgebra Expressions." target="_top">
<polygon fill="none" stroke="black" stroke-width="0.5" points="68,-278 0,-278 0,-259 68,-259 68,-278"/>
<text text-anchor="middle" x="34" y="-266" font-family="Vera Sans, DejaVu Sans, Liberation Sans, Arial, Helvetica, sans" font-size="10.00">Expression</text>
</a>
</g>
</g>
<!-- Operation -->
<g id="node8" class="node"><title>Operation</title>
<g id="a_node8"><a xlink:href="../API/qalgebra.core.abstract_algebra.html#qalgebra.core.abstract_algebra.Operation" xlink:title="Base class for &quot;operations&quot;" target="_top">
<polygon fill="none" stroke="black" stroke-width="0.5" points="192.5,-297 128.5,-297 128.5,-278 192.5,-278 192.5,-297"/>
<text text-anchor="middle" x="160.5" y="-285" font-family="Vera Sans, DejaVu Sans, Liberation Sans, Arial, Helvetica, sans" font-size="10.00">Operation</text>
</a>
</g>
</g>
<!-- Expression&#45;&gt;Operation -->
<g id="edge10" class="edge"><title>Expression&#45;&gt;Operation</title>
<path fill="none" stroke="black" stroke-width="0.5" d="M68.0369,-273.542C85.0109,-276.132 105.733,-279.295 123.158,-281.954"/>
<polygon fill="black" stroke="black" stroke-width="0.5" points="123.245,-283.737 128.452,-282.762 123.773,-280.277 123.245,-283.737"/>
</g>
<!-- QuantumExpression -->
<g id="node13" class="node"><title>QuantumExpression</title>
<g id="a_node13"><a xlink:href="../API/qalgebra.core.abstract_quantum_algebra.html#qalgebra.core.abstract_quantum_algebra.QuantumExpression" xlink:title="Base class for expressions associated with a Hilbert space" target="_top">
<polygon fill="none" stroke="black" stroke-width="0.5" points="217,-260 104,-260 104,-241 217,-241 217,-260"/>
<text text-anchor="middle" x="160.5" y="-248" font-family="Vera Sans, DejaVu Sans, Liberation Sans, Arial, Helvetica, sans" font-size="10.00">QuantumExpression</text>
</a>
</g>
</g>
<!-- Expression&#45;&gt;QuantumExpression -->
<g id="edge30" class="edge"><title>Expression&#45;&gt;QuantumExpression</title>
<path fill="none" stroke="black" stroke-width="0.5" d="M68.0369,-263.724C77.4469,-262.363 88.0087,-260.836 98.5222,-259.316"/>
<polygon fill="black" stroke="black" stroke-width="0.5" points="98.9761,-261.019 103.674,-258.571 98.4752,-257.555 98.9761,-261.019"/>
</g>
<!-- IndexedSum -->
<g id="node7" class="node"><title>IndexedSum</title>
<g id="a_node7"><a xlink:href="../API/qalgebra.core.indexed_operations.html#qalgebra.core.indexed_operations.IndexedSum" xlink:title="Base class for indexed sums." target="_top">
<polygon fill="none" stroke="black" stroke-width="0.5" points="377.5,-445 300.5,-445 300.5,-426 377.5,-426 377.5,-445"/>
<text text-anchor="middle" x="339" y="-433" font-family="Vera Sans, DejaVu Sans, Liberation Sans, Arial, Helvetica, sans" font-size="10.00">IndexedSum</text>
</a>
</g>
</g>
<!-- QuantumIndexedSum -->
<g id="node17" class="node"><title>QuantumIndexedSum</title>
<g id="a_node17"><a xlink:href="../API/qalgebra.core.abstract_quantum_algebra.html#qalgebra.core.abstract_quantum_algebra.QuantumIndexedSum" xlink:title="Base class for indexed sums of quantum expressions." target="_top">
<polygon fill="none" stroke="black" stroke-width="0.5" points="757,-578 635,-578 635,-559 757,-559 757,-578"/>
<text text-anchor="middle" x="696" y="-566" font-family="Vera Sans, DejaVu Sans, Liberation Sans, Arial, Helvetica, sans" font-size="10.00">QuantumIndexedSum</text>
</a>
</g>
</g>
<!-- IndexedSum&#45;&gt;QuantumIndexedSum -->
<g id="edge31" class="edge"><title>IndexedSum&#45;&gt;QuantumIndexedSum</title>
<path fill="none" stroke="black" stroke-width="0.5" d="M362.719,-445.078C411.898,-465.651 532.09,-515.069 635,-550.5 641.935,-552.888 649.379,-555.266 656.584,-557.475"/>
<polygon fill="black" stroke="black" stroke-width="0.5" points="656.232,-559.197 661.525,-558.975 657.249,-555.848 656.232,-559.197"/>
</g>
<!-- Operation&#45;&gt;QuantumOperation -->
<g id="edge34" class="edge"><title>Operation&#45;&gt;QuantumOperation</title>
<path fill="none" stroke="black" stroke-width="0.5" d="M192.648,-287.5C216.499,-287.5 250.101,-287.5 278.989,-287.5"/>
<polygon fill="black" stroke="black" stroke-width="0.5" points="279.325,-289.25 284.325,-287.5 279.325,-285.75 279.325,-289.25"/>
</g>
<!-- Operation&#45;&gt;IndexedSum -->
<g id="edge5" class="edge"><title>Operation&#45;&gt;IndexedSum</title>
<path fill="none" stroke="black" stroke-width="0.5" d="M173.081,-297.211C203.886,-323.042 287.859,-393.455 322.618,-422.602"/>
<polygon fill="black" stroke="black" stroke-width="0.5" points="321.65,-424.074 326.606,-425.946 323.899,-421.392 321.65,-424.074"/>
</g>
<!-- ScalarTimesQuantumExpression -->
<g id="node28" class="node"><title>ScalarTimesQuantumExpression</title>
<g id="a_node28"><a xlink:href="../API/qalgebra.core.abstract_quantum_algebra.html#qalgebra.core.abstract_quantum_algebra.ScalarTimesQuantumExpression" xlink:title="Product of a :class:`.Scalar` and a :class:`.QuantumExpression`" target="_top">
<polygon fill="none" stroke="black" stroke-width="0.5" points="425,-260 253,-260 253,-241 425,-241 425,-260"/>
<text text-anchor="middle" x="339" y="-248" font-family="Vera Sans, DejaVu Sans, Liberation Sans, Arial, Helvetica, sans" font-size="10.00">ScalarTimesQuantumExpression</text>
</a>
</g>
</g>
<!-- Operation&#45;&gt;ScalarTimesQuantumExpression -->
<g id="edge41" class="edge"><title>Operation&#45;&gt;ScalarTimesQuantumExpression</title>
<path fill="none" stroke="black" stroke-width="0.5" d="M192.648,-280.97C218.843,-275.479 256.8,-267.522 287.357,-261.116"/>
<polygon fill="black" stroke="black" stroke-width="0.5" points="288.048,-262.76 292.583,-260.021 287.33,-259.334 288.048,-262.76"/>
</g>
<!-- LocalSigma -->
<g id="node10" class="node"><title>LocalSigma</title>
<g id="a_node10"><a xlink:href="../API/qalgebra.core.operator_algebra.html#qalgebra.core.operator_algebra.LocalSigma" xlink:title="Level flip operator between two levels of a :class:`.LocalSpace`." target="_top">
<polygon fill="none" stroke="black" stroke-width="0.5" points="888.5,-130 816.5,-130 816.5,-111 888.5,-111 888.5,-130"/>
<text text-anchor="middle" x="852.5" y="-118" font-family="Vera Sans, DejaVu Sans, Liberation Sans, Arial, Helvetica, sans" font-size="10.00">LocalSigma</text>
</a>
</g>
</g>
<!-- LocalOperator&#45;&gt;LocalSigma -->
<g id="edge7" class="edge"><title>LocalOperator&#45;&gt;LocalSigma</title>
<path fill="none" stroke="black" stroke-width="0.5" d="M738.403,-120.5C760.911,-120.5 788.636,-120.5 811.002,-120.5"/>
<polygon fill="black" stroke="black" stroke-width="0.5" points="811.272,-122.25 816.272,-120.5 811.272,-118.75 811.272,-122.25"/>
</g>
<!-- SingleQuantumOperation&#45;&gt;QuantumAdjoint -->
<g id="edge28" class="edge"><title>SingleQuantumOperation&#45;&gt;QuantumAdjoint</title>
<path fill="none" stroke="black" stroke-width="0.5" d="M556.073,-448.132C577.048,-456.075 607.82,-467.466 635,-476.5 642.044,-478.841 649.596,-481.213 656.885,-483.434"/>
<polygon fill="black" stroke="black" stroke-width="0.5" points="656.588,-485.172 661.88,-484.944 657.601,-481.822 656.588,-485.172"/>
</g>
<!-- SingleQuantumOperation&#45;&gt;NullSpaceProjector -->
<g id="edge8" class="edge"><title>SingleQuantumOperation&#45;&gt;NullSpaceProjector</title>
<path fill="none" stroke="black" stroke-width="0.5" d="M599.126,-431.023C611.755,-429.637 624.836,-428.201 637.123,-426.852"/>
<polygon fill="black" stroke="black" stroke-width="0.5" points="637.558,-428.565 642.337,-426.28 637.176,-425.086 637.558,-428.565"/>
</g>
<!-- QuantumDerivative -->
<g id="node15" class="node"><title>QuantumDerivative</title>
<g id="a_node15"><a xlink:href="../API/qalgebra.core.abstract_quantum_algebra.html#qalgebra.core.abstract_quantum_algebra.QuantumDerivative" xlink:title="Symbolic partial derivative." target="_top">
<polygon fill="none" stroke="black" stroke-width="0.5" points="751,-541 641,-541 641,-522 751,-522 751,-541"/>
<text text-anchor="middle" x="696" y="-529" font-family="Vera Sans, DejaVu Sans, Liberation Sans, Arial, Helvetica, sans" font-size="10.00">QuantumDerivative</text>
</a>
</g>
</g>
<!-- SingleQuantumOperation&#45;&gt;QuantumDerivative -->
<g id="edge29" class="edge"><title>SingleQuantumOperation&#45;&gt;QuantumDerivative</title>
<path fill="none" stroke="black" stroke-width="0.5" d="M541.746,-448.149C559.791,-463.894 597.864,-495.188 635,-513.5 640.182,-516.055 645.797,-518.325 651.442,-520.318"/>
<polygon fill="black" stroke="black" stroke-width="0.5" points="650.885,-521.977 656.182,-521.927 652.01,-518.663 650.885,-521.977"/>
</g>
<!-- SingleQuantumOperation&#45;&gt;QuantumIndexedSum -->
<g id="edge32" class="edge"><title>SingleQuantumOperation&#45;&gt;QuantumIndexedSum</title>
<path fill="none" stroke="black" stroke-width="0.5" d="M538.989,-448.352C559.111,-472.952 611.912,-536.123 635,-550.5 639,-552.991 643.365,-555.154 647.856,-557.029"/>
<polygon fill="black" stroke="black" stroke-width="0.5" points="647.474,-558.759 652.768,-558.953 648.751,-555.5 647.474,-558.759"/>
</g>
<!-- SingleQuantumOperation&#45;&gt;OperatorPlusMinusCC -->
<g id="edge18" class="edge"><title>SingleQuantumOperation&#45;&gt;OperatorPlusMinusCC</title>
<path fill="none" stroke="black" stroke-width="0.5" d="M557.869,-428.98C578.829,-421.606 608.701,-411.214 635,-402.5 642.902,-399.882 651.415,-397.139 659.475,-394.578"/>
<polygon fill="black" stroke="black" stroke-width="0.5" points="660.188,-396.188 664.426,-393.009 659.131,-392.851 660.188,-396.188"/>
</g>
<!-- SingleQuantumOperation&#45;&gt;OperatorTrace -->
<g id="edge24" class="edge"><title>SingleQuantumOperation&#45;&gt;OperatorTrace</title>
<path fill="none" stroke="black" stroke-width="0.5" d="M542.12,-428.945C560.397,-413.659 598.42,-383.594 635,-365.5 640.931,-362.566 647.414,-359.957 653.856,-357.683"/>
<polygon fill="black" stroke="black" stroke-width="0.5" points="654.596,-359.28 658.764,-356.01 653.467,-355.967 654.596,-359.28"/>
</g>
<!-- SingleQuantumOperation&#45;&gt;PseudoInverse -->
<g id="edge26" class="edge"><title>SingleQuantumOperation&#45;&gt;PseudoInverse</title>
<path fill="none" stroke="black" stroke-width="0.5" d="M599.126,-446.393C615.414,-448.28 632.454,-450.254 647.574,-452.006"/>
<polygon fill="black" stroke="black" stroke-width="0.5" points="647.456,-453.753 652.624,-452.591 647.859,-450.277 647.456,-453.753"/>
</g>
<!-- QuantumExpression&#45;&gt;Operator -->
<g id="edge11" class="edge"><title>QuantumExpression&#45;&gt;Operator</title>
<path fill="none" stroke="black" stroke-width="0.5" d="M199.527,-240.914C215.872,-237.235 235.26,-233.452 253,-231.5 339.809,-221.946 442.892,-223.968 495.087,-225.925"/>
<polygon fill="black" stroke="black" stroke-width="0.5" points="495.217,-227.682 500.281,-226.127 495.353,-224.184 495.217,-227.682"/>
</g>
<!-- QuantumExpression&#45;&gt;QuantumOperation -->
<g id="edge33" class="edge"><title>QuantumExpression&#45;&gt;QuantumOperation</title>
<path fill="none" stroke="black" stroke-width="0.5" d="M206.953,-260.028C231.562,-265.187 262.03,-271.574 287.393,-276.891"/>
<polygon fill="black" stroke="black" stroke-width="0.5" points="287.142,-278.626 292.394,-277.94 287.86,-275.201 287.142,-278.626"/>
</g>
<!-- QuantumSymbol -->
<g id="node22" class="node"><title>QuantumSymbol</title>
<g id="a_node22"><a xlink:href="../API/qalgebra.core.abstract_quantum_algebra.html#qalgebra.core.abstract_quantum_algebra.QuantumSymbol" xlink:title="Symbolic element of an algebra." target="_top">
<polygon fill="none" stroke="black" stroke-width="0.5" points="388,-113 290,-113 290,-94 388,-94 388,-113"/>
<text text-anchor="middle" x="339" y="-101" font-family="Vera Sans, DejaVu Sans, Liberation Sans, Arial, Helvetica, sans" font-size="10.00">QuantumSymbol</text>
</a>
</g>
</g>
<!-- QuantumExpression&#45;&gt;QuantumSymbol -->
<g id="edge36" class="edge"><title>QuantumExpression&#45;&gt;QuantumSymbol</title>
<path fill="none" stroke="black" stroke-width="0.5" d="M173.081,-240.855C203.738,-215.321 287.056,-145.929 322.116,-116.729"/>
<polygon fill="black" stroke="black" stroke-width="0.5" points="323.423,-117.918 326.145,-113.373 321.183,-115.229 323.423,-117.918"/>
</g>
<!-- QuantumExpression&#45;&gt;ScalarTimesQuantumExpression -->
<g id="edge40" class="edge"><title>QuantumExpression&#45;&gt;ScalarTimesQuantumExpression</title>
<path fill="none" stroke="black" stroke-width="0.5" d="M217.346,-250.5C227.066,-250.5 237.396,-250.5 247.763,-250.5"/>
<polygon fill="black" stroke="black" stroke-width="0.5" points="247.852,-252.25 252.852,-250.5 247.852,-248.75 247.852,-252.25"/>
</g>
<!-- QuantumDerivative&#45;&gt;OperatorDerivative -->
<g id="edge12" class="edge"><title>QuantumDerivative&#45;&gt;OperatorDerivative</title>
<path fill="none" stroke="black" stroke-width="0.5" d="M745.405,-521.948C749.683,-519.695 753.653,-516.919 757,-513.5 798.939,-470.658 770.022,-438.874 793,-383.5 806.879,-350.055 829.341,-313.89 842.013,-294.569"/>
<polygon fill="black" stroke="black" stroke-width="0.5" points="843.715,-295.168 845.013,-290.032 840.795,-293.238 843.715,-295.168"/>
</g>
<!-- QuantumIndexedSum&#45;&gt;OperatorIndexedSum -->
<g id="edge14" class="edge"><title>QuantumIndexedSum&#45;&gt;OperatorIndexedSum</title>
<path fill="none" stroke="black" stroke-width="0.5" d="M741.993,-558.933C747.341,-556.687 752.493,-553.916 757,-550.5 805.002,-514.12 835.015,-445.726 846.354,-415.957"/>
<polygon fill="black" stroke="black" stroke-width="0.5" points="848.024,-416.488 848.135,-411.192 844.745,-415.263 848.024,-416.488"/>
</g>
<!-- QuantumPlus&#45;&gt;OperatorPlus -->
<g id="edge16" class="edge"><title>QuantumPlus&#45;&gt;OperatorPlus</title>
<path fill="none" stroke="black" stroke-width="0.5" d="M570.7,-309.5C594.949,-309.5 625.996,-309.5 650.994,-309.5"/>
<polygon fill="black" stroke="black" stroke-width="0.5" points="651.232,-311.25 656.232,-309.5 651.232,-307.75 651.232,-311.25"/>
</g>
<!-- QuantumSymbol&#45;&gt;OperatorSymbol -->
<g id="edge20" class="edge"><title>QuantumSymbol&#45;&gt;OperatorSymbol</title>
<path fill="none" stroke="black" stroke-width="0.5" d="M375.993,-93.9695C442.439,-76.3752 583.961,-38.9019 653.995,-20.3577"/>
<polygon fill="black" stroke="black" stroke-width="0.5" points="654.526,-22.0274 658.912,-19.0557 653.63,-18.644 654.526,-22.0274"/>
</g>
<!-- QuantumTimes&#45;&gt;OperatorTimes -->
<g id="edge22" class="edge"><title>QuantumTimes&#45;&gt;OperatorTimes</title>
<path fill="none" stroke="black" stroke-width="0.5" d="M575.381,-272.5C597.429,-272.5 624.109,-272.5 646.673,-272.5"/>
<polygon fill="black" stroke="black" stroke-width="0.5" points="646.718,-274.25 651.718,-272.5 646.718,-270.75 646.718,-274.25"/>
</g>
<!-- ScalarTimesQuantumExpression&#45;&gt;ScalarTimesOperator -->
<g id="edge39" class="edge"><title>ScalarTimesQuantumExpression&#45;&gt;ScalarTimesOperator</title>
<path fill="none" stroke="black" stroke-width="0.5" d="M346.711,-240.702C363.34,-217.133 408.894,-156.77 461,-123.5 493.366,-102.834 595.471,-73.2715 653.546,-57.4634"/>
<polygon fill="black" stroke="black" stroke-width="0.5" points="654.313,-59.0685 658.681,-56.0703 653.397,-55.6906 654.313,-59.0685"/>
</g>
</g>
</svg>
