<?xml version="1.0" encoding="UTF-8" standalone="no"?>
<!DOCTYPE svg PUBLIC "-//W3C//DTD SVG 1.1//EN"
 "http://www.w3.org/Graphics/SVG/1.1/DTD/svg11.dtd">
<!-- Generated by graphviz version 2.40.1 (20161225.0304)
 -->
<!-- Title: inheritance09a952d884 Pages: 1 -->
<svg width="313pt" height="83pt"
 viewBox="0.00 0.00 313.00 83.00" xmlns="http://www.w3.org/2000/svg" xmlns:xlink="http://www.w3.org/1999/xlink">
<g id="graph0" class="graph" transform="scale(1 1) rotate(0) translate(4 79)">
<title>inheritance09a952d884</title>
<polygon fill="#ffffff" stroke="transparent" points="-4,4 -4,-79 309,-79 309,4 -4,4"/>
<!-- Expression -->
<g id="node1" class="node">
<title>Expression</title>
<g id="a_node1"><a xlink:href="../API/qalgebra.core.abstract_algebra.html#qalgebra.core.abstract_algebra.Expression" xlink:title="Base class for all QAlgebra Expressions." target="_top">
<polygon fill="none" stroke="#000000" stroke-width=".5" points="74.5,-56 4.5,-56 4.5,-37 74.5,-37 74.5,-56"/>
<text text-anchor="middle" x="39.5" y="-44" font-family="Vera Sans, DejaVu Sans, Liberation Sans, Arial, Helvetica, sans" font-size="10.00" fill="#000000">Expression</text>
</a>
</g>
</g>
<!-- LocalSpace -->
<g id="node3" class="node">
<title>LocalSpace</title>
<g id="a_node3"><a xlink:href="../API/qalgebra.core.hilbert_space_algebra.html#qalgebra.core.hilbert_space_algebra.LocalSpace" xlink:title="Hilbert space for a single degree of freedom." target="_top">
<polygon fill="none" stroke="#000000" stroke-width=".5" points="186,-38 115,-38 115,-19 186,-19 186,-38"/>
<text text-anchor="middle" x="150.5" y="-26" font-family="Vera Sans, DejaVu Sans, Liberation Sans, Arial, Helvetica, sans" font-size="10.00" fill="#000000">LocalSpace</text>
</a>
</g>
</g>
<!-- Expression&#45;&gt;LocalSpace -->
<g id="edge2" class="edge">
<title>Expression&#45;&gt;LocalSpace</title>
<path fill="none" stroke="#000000" stroke-width=".5" d="M74.6211,-40.8047C85.7471,-39.0005 98.1419,-36.9905 109.635,-35.1267"/>
<polygon fill="#000000" stroke="#000000" stroke-width=".5" points="110.189,-36.8099 114.8444,-34.282 109.6287,-33.355 110.189,-36.8099"/>
</g>
<!-- Operation -->
<g id="node4" class="node">
<title>Operation</title>
<g id="a_node4"><a xlink:href="../API/qalgebra.core.abstract_algebra.html#qalgebra.core.abstract_algebra.Operation" xlink:title="Base class for &quot;operations&quot;" target="_top">
<polygon fill="none" stroke="#000000" stroke-width=".5" points="183,-75 118,-75 118,-56 183,-56 183,-75"/>
<text text-anchor="middle" x="150.5" y="-63" font-family="Vera Sans, DejaVu Sans, Liberation Sans, Arial, Helvetica, sans" font-size="10.00" fill="#000000">Operation</text>
</a>
</g>
</g>
<!-- Expression&#45;&gt;Operation -->
<g id="edge3" class="edge">
<title>Expression&#45;&gt;Operation</title>
<path fill="none" stroke="#000000" stroke-width=".5" d="M74.6211,-52.5117C86.7365,-54.5855 100.3565,-56.9169 112.6784,-59.026"/>
<polygon fill="#000000" stroke="#000000" stroke-width=".5" points="112.6479,-60.7962 117.8715,-59.9149 113.2385,-57.3464 112.6479,-60.7962"/>
</g>
<!-- HilbertSpace -->
<g id="node2" class="node">
<title>HilbertSpace</title>
<g id="a_node2"><a xlink:href="../API/qalgebra.core.hilbert_space_algebra.html#qalgebra.core.hilbert_space_algebra.HilbertSpace" xlink:title="Base class for Hilbert spaces" target="_top">
<polygon fill="none" stroke="#000000" stroke-width=".5" points="79,-19 0,-19 0,0 79,0 79,-19"/>
<text text-anchor="middle" x="39.5" y="-7" font-family="Vera Sans, DejaVu Sans, Liberation Sans, Arial, Helvetica, sans" font-size="10.00" fill="#000000">HilbertSpace</text>
</a>
</g>
</g>
<!-- HilbertSpace&#45;&gt;LocalSpace -->
<g id="edge1" class="edge">
<title>HilbertSpace&#45;&gt;LocalSpace</title>
<path fill="none" stroke="#000000" stroke-width=".5" d="M79.26,-16.3058C89.1131,-17.9923 99.6877,-19.8024 109.5945,-21.4982"/>
<polygon fill="#000000" stroke="#000000" stroke-width=".5" points="109.4833,-23.2545 114.7069,-22.3733 110.0739,-19.8047 109.4833,-23.2545"/>
</g>
<!-- ProductSpace -->
<g id="node5" class="node">
<title>ProductSpace</title>
<g id="a_node5"><a xlink:href="../API/qalgebra.core.hilbert_space_algebra.html#qalgebra.core.hilbert_space_algebra.ProductSpace" xlink:title="Tensor product of local Hilbert spaces." target="_top">
<polygon fill="none" stroke="#000000" stroke-width=".5" points="305,-37 222,-37 222,-18 305,-18 305,-37"/>
<text text-anchor="middle" x="263.5" y="-25" font-family="Vera Sans, DejaVu Sans, Liberation Sans, Arial, Helvetica, sans" font-size="10.00" fill="#000000">ProductSpace</text>
</a>
</g>
</g>
<!-- HilbertSpace&#45;&gt;ProductSpace -->
<g id="edge4" class="edge">
<title>HilbertSpace&#45;&gt;ProductSpace</title>
<path fill="none" stroke="#000000" stroke-width=".5" d="M79.1226,-7.0665C108.6784,-5.8408 149.9922,-5.3734 186,-9.5 198.7282,-10.9587 212.4065,-13.7232 224.6756,-16.6558"/>
<polygon fill="#000000" stroke="#000000" stroke-width=".5" points="224.568,-18.431 229.8406,-17.9196 225.3999,-15.0313 224.568,-18.431"/>
</g>
<!-- Operation&#45;&gt;ProductSpace -->
<g id="edge5" class="edge">
<title>Operation&#45;&gt;ProductSpace</title>
<path fill="none" stroke="#000000" stroke-width=".5" d="M179.0147,-55.911C194.5387,-50.6905 213.8337,-44.2019 230.0636,-38.7441"/>
<polygon fill="#000000" stroke="#000000" stroke-width=".5" points="230.8131,-40.3384 234.9945,-37.0859 229.6974,-37.021 230.8131,-40.3384"/>
</g>
</g>
</svg>
