<?xml version="1.0" encoding="UTF-8" standalone="no"?>
<!DOCTYPE svg PUBLIC "-//W3C//DTD SVG 1.1//EN"
 "http://www.w3.org/Graphics/SVG/1.1/DTD/svg11.dtd">
<!-- Generated by graphviz version 2.40.1 (20161225.0304)
 -->
<!-- Title: inheritancef8ddef74b2 Pages: 1 -->
<svg width="1094pt" height="441pt"
 viewBox="0.00 0.00 1094.00 440.69" xmlns="http://www.w3.org/2000/svg" xmlns:xlink="http://www.w3.org/1999/xlink">
<g id="graph0" class="graph" transform="scale(1 1) rotate(0) translate(4 436.6935)">
<title>inheritancef8ddef74b2</title>
<polygon fill="#ffffff" stroke="transparent" points="-4,4 -4,-436.6935 1090,-436.6935 1090,4 -4,4"/>
<!-- DisjunctCommutativeHSOrder -->
<g id="node1" class="node">
<title>DisjunctCommutativeHSOrder</title>
<g id="a_node1"><a xlink:href="../API/qalgebra.utils.ordering.html#qalgebra.utils.ordering.DisjunctCommutativeHSOrder" xlink:title="Auxiliary class that generates the correct pseudo&#45;order relation for" target="_top">
<polygon fill="none" stroke="#000000" stroke-width=".5" points="164,-168.6935 0,-168.6935 0,-149.6935 164,-149.6935 164,-168.6935"/>
<text text-anchor="middle" x="82" y="-156.6935" font-family="Vera Sans, DejaVu Sans, Liberation Sans, Arial, Helvetica, sans" font-size="10.00" fill="#000000">DisjunctCommutativeHSOrder</text>
</a>
</g>
</g>
<!-- SuperCommutativeHSOrder -->
<g id="node19" class="node">
<title>SuperCommutativeHSOrder</title>
<g id="a_node19"><a xlink:href="../API/qalgebra.core.super_operator_algebra.html#qalgebra.core.super_operator_algebra.SuperCommutativeHSOrder" xlink:title="Ordering class that acts like DisjunctCommutativeHSOrder, but also" target="_top">
<polygon fill="none" stroke="#000000" stroke-width=".5" points="352,-168.6935 200,-168.6935 200,-149.6935 352,-149.6935 352,-168.6935"/>
<text text-anchor="middle" x="276" y="-156.6935" font-family="Vera Sans, DejaVu Sans, Liberation Sans, Arial, Helvetica, sans" font-size="10.00" fill="#000000">SuperCommutativeHSOrder</text>
</a>
</g>
</g>
<!-- DisjunctCommutativeHSOrder&#45;&gt;SuperCommutativeHSOrder -->
<g id="edge22" class="edge">
<title>DisjunctCommutativeHSOrder&#45;&gt;SuperCommutativeHSOrder</title>
<path fill="none" stroke="#000000" stroke-width=".5" d="M164.2735,-159.1935C174.2988,-159.1935 184.539,-159.1935 194.5522,-159.1935"/>
<polygon fill="#000000" stroke="#000000" stroke-width=".5" points="194.7655,-160.9436 199.7655,-159.1935 194.7654,-157.4436 194.7655,-160.9436"/>
</g>
<!-- Expression -->
<g id="node2" class="node">
<title>Expression</title>
<g id="a_node2"><a xlink:href="../API/qalgebra.core.abstract_algebra.html#qalgebra.core.abstract_algebra.Expression" xlink:title="Base class for all QAlgebra Expressions." target="_top">
<polygon fill="none" stroke="#000000" stroke-width=".5" points="117,-243.6935 47,-243.6935 47,-224.6935 117,-224.6935 117,-243.6935"/>
<text text-anchor="middle" x="82" y="-231.6935" font-family="Vera Sans, DejaVu Sans, Liberation Sans, Arial, Helvetica, sans" font-size="10.00" fill="#000000">Expression</text>
</a>
</g>
</g>
<!-- Operation -->
<g id="node3" class="node">
<title>Operation</title>
<g id="a_node3"><a xlink:href="../API/qalgebra.core.abstract_algebra.html#qalgebra.core.abstract_algebra.Operation" xlink:title="Base class for &quot;operations&quot;" target="_top">
<polygon fill="none" stroke="#000000" stroke-width=".5" points="308.5,-300.6935 243.5,-300.6935 243.5,-281.6935 308.5,-281.6935 308.5,-300.6935"/>
<text text-anchor="middle" x="276" y="-288.6935" font-family="Vera Sans, DejaVu Sans, Liberation Sans, Arial, Helvetica, sans" font-size="10.00" fill="#000000">Operation</text>
</a>
</g>
</g>
<!-- Expression&#45;&gt;Operation -->
<g id="edge1" class="edge">
<title>Expression&#45;&gt;Operation</title>
<path fill="none" stroke="#000000" stroke-width=".5" d="M114.4712,-243.734C148.6039,-253.7627 202.2458,-269.5235 238.2441,-280.1003"/>
<polygon fill="#000000" stroke="#000000" stroke-width=".5" points="238.1323,-281.8913 243.4228,-281.6219 239.1189,-278.5333 238.1323,-281.8913"/>
</g>
<!-- QuantumExpression -->
<g id="node5" class="node">
<title>QuantumExpression</title>
<g id="a_node5"><a xlink:href="../API/qalgebra.core.abstract_quantum_algebra.html#qalgebra.core.abstract_quantum_algebra.QuantumExpression" xlink:title="Base class for expressions associated with a Hilbert space" target="_top">
<polygon fill="none" stroke="#000000" stroke-width=".5" points="333.5,-224.6935 218.5,-224.6935 218.5,-205.6935 333.5,-205.6935 333.5,-224.6935"/>
<text text-anchor="middle" x="276" y="-212.6935" font-family="Vera Sans, DejaVu Sans, Liberation Sans, Arial, Helvetica, sans" font-size="10.00" fill="#000000">QuantumExpression</text>
</a>
</g>
</g>
<!-- Expression&#45;&gt;QuantumExpression -->
<g id="edge5" class="edge">
<title>Expression&#45;&gt;QuantumExpression</title>
<path fill="none" stroke="#000000" stroke-width=".5" d="M117.1319,-230.7527C143.8725,-228.1338 181.3791,-224.4605 213.2347,-221.3406"/>
<polygon fill="#000000" stroke="#000000" stroke-width=".5" points="213.4907,-223.074 218.2963,-220.8449 213.1495,-219.5907 213.4907,-223.074"/>
</g>
<!-- QuantumOperation -->
<g id="node9" class="node">
<title>QuantumOperation</title>
<g id="a_node9"><a xlink:href="../API/qalgebra.core.abstract_quantum_algebra.html#qalgebra.core.abstract_quantum_algebra.QuantumOperation" xlink:title="Base class for operations on quantum expression" target="_top">
<polygon fill="none" stroke="#000000" stroke-width=".5" points="530.5,-395.6935 420.5,-395.6935 420.5,-376.6935 530.5,-376.6935 530.5,-395.6935"/>
<text text-anchor="middle" x="475.5" y="-383.6935" font-family="Vera Sans, DejaVu Sans, Liberation Sans, Arial, Helvetica, sans" font-size="10.00" fill="#000000">QuantumOperation</text>
</a>
</g>
</g>
<!-- Operation&#45;&gt;QuantumOperation -->
<g id="edge7" class="edge">
<title>Operation&#45;&gt;QuantumOperation</title>
<path fill="none" stroke="#000000" stroke-width=".5" d="M288.401,-300.8176C308.3481,-315.8782 349.2578,-345.0617 388,-362.1935 399.8279,-367.4238 413.0689,-371.7678 425.6001,-375.256"/>
<polygon fill="#000000" stroke="#000000" stroke-width=".5" points="425.264,-376.978 430.5479,-376.5999 426.1815,-373.6004 425.264,-376.978"/>
</g>
<!-- SPost -->
<g id="node13" class="node">
<title>SPost</title>
<g id="a_node13"><a xlink:href="../API/qalgebra.core.super_operator_algebra.html#qalgebra.core.super_operator_algebra.SPost" xlink:title="Linear post&#45;multiplication operator." target="_top">
<polygon fill="none" stroke="#000000" stroke-width=".5" points="706,-321.6935 652,-321.6935 652,-302.6935 706,-302.6935 706,-321.6935"/>
<text text-anchor="middle" x="679" y="-309.6935" font-family="Vera Sans, DejaVu Sans, Liberation Sans, Arial, Helvetica, sans" font-size="10.00" fill="#000000">SPost</text>
</a>
</g>
</g>
<!-- Operation&#45;&gt;SPost -->
<g id="edge12" class="edge">
<title>Operation&#45;&gt;SPost</title>
<path fill="none" stroke="#000000" stroke-width=".5" d="M308.7324,-296.5657C331.0109,-299.9786 361.2026,-304.1294 388,-306.1935 481.7111,-313.4119 592.8652,-313.3084 646.6459,-312.7121"/>
<polygon fill="#000000" stroke="#000000" stroke-width=".5" points="646.6898,-314.4618 651.6689,-312.6531 646.6486,-310.9621 646.6898,-314.4618"/>
</g>
<!-- SPre -->
<g id="node15" class="node">
<title>SPre</title>
<g id="a_node15"><a xlink:href="../API/qalgebra.core.super_operator_algebra.html#qalgebra.core.super_operator_algebra.SPre" xlink:title="Linear pre&#45;multiplication operator" target="_top">
<polygon fill="none" stroke="#000000" stroke-width=".5" points="706,-284.6935 652,-284.6935 652,-265.6935 706,-265.6935 706,-284.6935"/>
<text text-anchor="middle" x="679" y="-272.6935" font-family="Vera Sans, DejaVu Sans, Liberation Sans, Arial, Helvetica, sans" font-size="10.00" fill="#000000">SPre</text>
</a>
</g>
</g>
<!-- Operation&#45;&gt;SPre -->
<g id="edge14" class="edge">
<title>Operation&#45;&gt;SPre</title>
<path fill="none" stroke="#000000" stroke-width=".5" d="M308.7614,-292.6501C362.109,-294.6949 471.0376,-297.5059 563,-291.1935 591.4722,-289.2392 623.6002,-284.6169 646.8126,-280.8404"/>
<polygon fill="#000000" stroke="#000000" stroke-width=".5" points="647.2715,-282.5385 651.9208,-279.9995 646.7029,-279.0849 647.2715,-282.5385"/>
</g>
<!-- ScalarTimesQuantumExpression -->
<g id="node16" class="node">
<title>ScalarTimesQuantumExpression</title>
<g id="a_node16"><a xlink:href="../API/qalgebra.core.abstract_quantum_algebra.html#qalgebra.core.abstract_quantum_algebra.ScalarTimesQuantumExpression" xlink:title="Product of a :class:`.Scalar` and a :class:`.QuantumExpression`" target="_top">
<polygon fill="none" stroke="#000000" stroke-width=".5" points="563,-281.6935 388,-281.6935 388,-262.6935 563,-262.6935 563,-281.6935"/>
<text text-anchor="middle" x="475.5" y="-269.6935" font-family="Vera Sans, DejaVu Sans, Liberation Sans, Arial, Helvetica, sans" font-size="10.00" fill="#000000">ScalarTimesQuantumExpression</text>
</a>
</g>
</g>
<!-- Operation&#45;&gt;ScalarTimesQuantumExpression -->
<g id="edge16" class="edge">
<title>Operation&#45;&gt;ScalarTimesQuantumExpression</title>
<path fill="none" stroke="#000000" stroke-width=".5" d="M308.9434,-288.056C329.1754,-286.1292 356.1936,-283.556 382.5726,-281.0437"/>
<polygon fill="#000000" stroke="#000000" stroke-width=".5" points="383.0261,-282.7585 387.8376,-280.5423 382.6942,-279.2743 383.0261,-282.7585"/>
</g>
<!-- SuperOperatorTimesOperator -->
<g id="node24" class="node">
<title>SuperOperatorTimesOperator</title>
<g id="a_node24"><a xlink:href="../API/qalgebra.core.super_operator_algebra.html#qalgebra.core.super_operator_algebra.SuperOperatorTimesOperator" xlink:title="Application of a super&#45;operator to an operator." target="_top">
<polygon fill="none" stroke="#000000" stroke-width=".5" points="759,-210.6935 599,-210.6935 599,-191.6935 759,-191.6935 759,-210.6935"/>
<text text-anchor="middle" x="679" y="-198.6935" font-family="Vera Sans, DejaVu Sans, Liberation Sans, Arial, Helvetica, sans" font-size="10.00" fill="#000000">SuperOperatorTimesOperator</text>
</a>
</g>
</g>
<!-- Operation&#45;&gt;SuperOperatorTimesOperator -->
<g id="edge33" class="edge">
<title>Operation&#45;&gt;SuperOperatorTimesOperator</title>
<path fill="none" stroke="#000000" stroke-width=".5" d="M301.5009,-281.6427C324.0091,-273.4849 357.8381,-261.8827 388,-254.1935 461.5407,-235.4458 547.155,-220.6805 606.3931,-211.5478"/>
<polygon fill="#000000" stroke="#000000" stroke-width=".5" points="607.0067,-213.2242 611.6835,-210.7363 606.476,-209.7647 607.0067,-213.2242"/>
</g>
<!-- Operator -->
<g id="node4" class="node">
<title>Operator</title>
<g id="a_node4"><a xlink:href="../API/qalgebra.core.operator_algebra.html#qalgebra.core.operator_algebra.Operator" xlink:title="Base class for all quantum operators." target="_top">
<polygon fill="none" stroke="#000000" stroke-width=".5" points="505,-205.6935 446,-205.6935 446,-186.6935 505,-186.6935 505,-205.6935"/>
<text text-anchor="middle" x="475.5" y="-193.6935" font-family="Vera Sans, DejaVu Sans, Liberation Sans, Arial, Helvetica, sans" font-size="10.00" fill="#000000">Operator</text>
</a>
</g>
</g>
<!-- Operator&#45;&gt;SuperOperatorTimesOperator -->
<g id="edge32" class="edge">
<title>Operator&#45;&gt;SuperOperatorTimesOperator</title>
<path fill="none" stroke="#000000" stroke-width=".5" d="M505.0906,-196.9205C528.4247,-197.4939 562.19,-198.3235 593.7731,-199.0995"/>
<polygon fill="#000000" stroke="#000000" stroke-width=".5" points="593.7798,-200.8501 598.8213,-199.2235 593.8658,-197.3511 593.7798,-200.8501"/>
</g>
<!-- QuantumExpression&#45;&gt;Operator -->
<g id="edge2" class="edge">
<title>QuantumExpression&#45;&gt;Operator</title>
<path fill="none" stroke="#000000" stroke-width=".5" d="M333.7037,-209.6979C368.406,-206.3929 411.4186,-202.2965 440.9144,-199.4874"/>
<polygon fill="#000000" stroke="#000000" stroke-width=".5" points="441.0821,-201.2294 445.8936,-199.0132 440.7502,-197.7452 441.0821,-201.2294"/>
</g>
<!-- QuantumExpression&#45;&gt;QuantumOperation -->
<g id="edge6" class="edge">
<title>QuantumExpression&#45;&gt;QuantumOperation</title>
<path fill="none" stroke="#000000" stroke-width=".5" d="M289.1845,-224.7012C304.5634,-235.9172 330.6093,-255.3058 352,-273.1935 393.3065,-307.7355 439.5134,-351.4694 461.89,-372.996"/>
<polygon fill="#000000" stroke="#000000" stroke-width=".5" points="460.7142,-374.2933 465.5288,-376.503 463.143,-371.7732 460.7142,-374.2933"/>
</g>
<!-- QuantumSymbol -->
<g id="node11" class="node">
<title>QuantumSymbol</title>
<g id="a_node11"><a xlink:href="../API/qalgebra.core.abstract_quantum_algebra.html#qalgebra.core.abstract_quantum_algebra.QuantumSymbol" xlink:title="Symbolic element of an algebra." target="_top">
<polygon fill="none" stroke="#000000" stroke-width=".5" points="524.5,-168.6935 426.5,-168.6935 426.5,-149.6935 524.5,-149.6935 524.5,-168.6935"/>
<text text-anchor="middle" x="475.5" y="-156.6935" font-family="Vera Sans, DejaVu Sans, Liberation Sans, Arial, Helvetica, sans" font-size="10.00" fill="#000000">QuantumSymbol</text>
</a>
</g>
</g>
<!-- QuantumExpression&#45;&gt;QuantumSymbol -->
<g id="edge9" class="edge">
<title>QuantumExpression&#45;&gt;QuantumSymbol</title>
<path fill="none" stroke="#000000" stroke-width=".5" d="M302.4631,-205.576C325.0079,-197.5943 358.3669,-186.2814 388,-178.1935 398.924,-175.212 410.7158,-172.3888 421.997,-169.8754"/>
<polygon fill="#000000" stroke="#000000" stroke-width=".5" points="422.6328,-171.5273 427.1394,-168.7428 421.88,-168.1092 422.6328,-171.5273"/>
</g>
<!-- SuperOperator -->
<g id="node14" class="node">
<title>SuperOperator</title>
<g id="a_node14"><a xlink:href="../API/qalgebra.core.super_operator_algebra.html#qalgebra.core.super_operator_algebra.SuperOperator" xlink:title="Base class for super&#45;operators" target="_top">
<polygon fill="none" stroke="#000000" stroke-width=".5" points="519,-131.6935 432,-131.6935 432,-112.6935 519,-112.6935 519,-131.6935"/>
<text text-anchor="middle" x="475.5" y="-119.6935" font-family="Vera Sans, DejaVu Sans, Liberation Sans, Arial, Helvetica, sans" font-size="10.00" fill="#000000">SuperOperator</text>
</a>
</g>
</g>
<!-- QuantumExpression&#45;&gt;SuperOperator -->
<g id="edge23" class="edge">
<title>QuantumExpression&#45;&gt;SuperOperator</title>
<path fill="none" stroke="#000000" stroke-width=".5" d="M301.1709,-205.5498C316.5875,-199.0268 336.3031,-189.5444 352,-178.1935 370.5921,-164.749 367.9364,-152.3232 388,-141.1935 399.7606,-134.6697 413.5656,-130.3853 426.6901,-127.5718"/>
<polygon fill="#000000" stroke="#000000" stroke-width=".5" points="427.3184,-129.2305 431.8743,-126.5274 426.6271,-125.7994 427.3184,-129.2305"/>
</g>
<!-- QuantumExpression&#45;&gt;ScalarTimesQuantumExpression -->
<g id="edge15" class="edge">
<title>QuantumExpression&#45;&gt;ScalarTimesQuantumExpression</title>
<path fill="none" stroke="#000000" stroke-width=".5" d="M309.3918,-224.734C344.636,-234.8038 400.1073,-250.6527 437.1279,-261.23"/>
<polygon fill="#000000" stroke="#000000" stroke-width=".5" points="436.7108,-262.9308 441.9992,-262.6219 437.6724,-259.5655 436.7108,-262.9308"/>
</g>
<!-- QuantumAdjoint -->
<g id="node6" class="node">
<title>QuantumAdjoint</title>
<g id="a_node6"><a xlink:href="../API/qalgebra.core.abstract_quantum_algebra.html#qalgebra.core.abstract_quantum_algebra.QuantumAdjoint" xlink:title="Base class for adjoints of quantum expressions" target="_top">
<polygon fill="none" stroke="#000000" stroke-width=".5" points="901.5,-404.6935 805.5,-404.6935 805.5,-385.6935 901.5,-385.6935 901.5,-404.6935"/>
<text text-anchor="middle" x="853.5" y="-392.6935" font-family="Vera Sans, DejaVu Sans, Liberation Sans, Arial, Helvetica, sans" font-size="10.00" fill="#000000">QuantumAdjoint</text>
</a>
</g>
</g>
<!-- SuperAdjoint -->
<g id="node18" class="node">
<title>SuperAdjoint</title>
<g id="a_node18"><a xlink:href="../API/qalgebra.core.super_operator_algebra.html#qalgebra.core.super_operator_algebra.SuperAdjoint" xlink:title="Adjoint of a super&#45;operator." target="_top">
<polygon fill="none" stroke="#000000" stroke-width=".5" points="1056.5,-189.6935 977.5,-189.6935 977.5,-170.6935 1056.5,-170.6935 1056.5,-189.6935"/>
<text text-anchor="middle" x="1017" y="-177.6935" font-family="Vera Sans, DejaVu Sans, Liberation Sans, Arial, Helvetica, sans" font-size="10.00" fill="#000000">SuperAdjoint</text>
</a>
</g>
</g>
<!-- QuantumAdjoint&#45;&gt;SuperAdjoint -->
<g id="edge20" class="edge">
<title>QuantumAdjoint&#45;&gt;SuperAdjoint</title>
<path fill="none" stroke="#000000" stroke-width=".5" d="M861.1614,-385.6835C872.4232,-371.6636 894.0543,-344.5799 912,-321.1935 947.48,-274.9569 988.4504,-219.2471 1006.98,-193.9216"/>
<polygon fill="#000000" stroke="#000000" stroke-width=".5" points="1008.4265,-194.9082 1009.9652,-189.8391 1005.6012,-192.8423 1008.4265,-194.9082"/>
</g>
<!-- SingleQuantumOperation -->
<g id="node7" class="node">
<title>SingleQuantumOperation</title>
<g id="a_node7"><a xlink:href="../API/qalgebra.core.abstract_quantum_algebra.html#qalgebra.core.abstract_quantum_algebra.SingleQuantumOperation" xlink:title="Base class for operations on a single quantum expression" target="_top">
<polygon fill="none" stroke="#000000" stroke-width=".5" points="749,-432.6935 609,-432.6935 609,-413.6935 749,-413.6935 749,-432.6935"/>
<text text-anchor="middle" x="679" y="-420.6935" font-family="Vera Sans, DejaVu Sans, Liberation Sans, Arial, Helvetica, sans" font-size="10.00" fill="#000000">SingleQuantumOperation</text>
</a>
</g>
</g>
<!-- SingleQuantumOperation&#45;&gt;QuantumAdjoint -->
<g id="edge3" class="edge">
<title>SingleQuantumOperation&#45;&gt;QuantumAdjoint</title>
<path fill="none" stroke="#000000" stroke-width=".5" d="M738.5649,-413.6358C758.5098,-410.4355 780.6079,-406.8897 800.0554,-403.7691"/>
<polygon fill="#000000" stroke="#000000" stroke-width=".5" points="800.8067,-405.4211 805.4663,-402.9009 800.2521,-401.9653 800.8067,-405.4211"/>
</g>
<!-- QuantumDerivative -->
<g id="node8" class="node">
<title>QuantumDerivative</title>
<g id="a_node8"><a xlink:href="../API/qalgebra.core.abstract_quantum_algebra.html#qalgebra.core.abstract_quantum_algebra.QuantumDerivative" xlink:title="Symbolic partial derivative." target="_top">
<polygon fill="none" stroke="#000000" stroke-width=".5" points="910,-311.6935 797,-311.6935 797,-292.6935 910,-292.6935 910,-311.6935"/>
<text text-anchor="middle" x="853.5" y="-299.6935" font-family="Vera Sans, DejaVu Sans, Liberation Sans, Arial, Helvetica, sans" font-size="10.00" fill="#000000">QuantumDerivative</text>
</a>
</g>
</g>
<!-- SingleQuantumOperation&#45;&gt;QuantumDerivative -->
<g id="edge4" class="edge">
<title>SingleQuantumOperation&#45;&gt;QuantumDerivative</title>
<path fill="none" stroke="#000000" stroke-width=".5" d="M739.9056,-413.636C746.578,-411.3905 753.0865,-408.6176 759,-405.1935 779.1505,-393.5256 822.1913,-341.4741 842.4824,-316.1386"/>
<polygon fill="#000000" stroke="#000000" stroke-width=".5" points="844.0159,-317.0225 845.7667,-312.0227 841.2802,-314.8394 844.0159,-317.0225"/>
</g>
<!-- SuperOperatorDerivative -->
<g id="node20" class="node">
<title>SuperOperatorDerivative</title>
<g id="a_node20"><a xlink:href="../API/qalgebra.core.super_operator_algebra.html#qalgebra.core.super_operator_algebra.SuperOperatorDerivative" xlink:title="Symbolic partial derivative of a super&#45;operator" target="_top">
<polygon fill="none" stroke="#000000" stroke-width=".5" points="1086,-152.6935 948,-152.6935 948,-133.6935 1086,-133.6935 1086,-152.6935"/>
<text text-anchor="middle" x="1017" y="-140.6935" font-family="Vera Sans, DejaVu Sans, Liberation Sans, Arial, Helvetica, sans" font-size="10.00" fill="#000000">SuperOperatorDerivative</text>
</a>
</g>
</g>
<!-- QuantumDerivative&#45;&gt;SuperOperatorDerivative -->
<g id="edge24" class="edge">
<title>QuantumDerivative&#45;&gt;SuperOperatorDerivative</title>
<path fill="none" stroke="#000000" stroke-width=".5" d="M857.1423,-292.6618C867.3402,-267.2849 898.6978,-197.6052 948,-162.1935 952.0871,-159.2579 956.608,-156.7756 961.3231,-154.6766"/>
<polygon fill="#000000" stroke="#000000" stroke-width=".5" points="962.1428,-156.2314 966.0941,-152.7029 960.8048,-152.9973 962.1428,-156.2314"/>
</g>
<!-- QuantumOperation&#45;&gt;SingleQuantumOperation -->
<g id="edge19" class="edge">
<title>QuantumOperation&#45;&gt;SingleQuantumOperation</title>
<path fill="none" stroke="#000000" stroke-width=".5" d="M527.9063,-395.7219C556.5167,-400.9238 591.9949,-407.3744 621.3815,-412.7174"/>
<polygon fill="#000000" stroke="#000000" stroke-width=".5" points="621.1856,-414.4604 626.418,-413.6331 621.8117,-411.0169 621.1856,-414.4604"/>
</g>
<!-- QuantumPlus -->
<g id="node10" class="node">
<title>QuantumPlus</title>
<g id="a_node10"><a xlink:href="../API/qalgebra.core.abstract_quantum_algebra.html#qalgebra.core.abstract_quantum_algebra.QuantumPlus" xlink:title="General implementation of addition of quantum expressions" target="_top">
<polygon fill="none" stroke="#000000" stroke-width=".5" points="720,-395.6935 638,-395.6935 638,-376.6935 720,-376.6935 720,-395.6935"/>
<text text-anchor="middle" x="679" y="-383.6935" font-family="Vera Sans, DejaVu Sans, Liberation Sans, Arial, Helvetica, sans" font-size="10.00" fill="#000000">QuantumPlus</text>
</a>
</g>
</g>
<!-- QuantumOperation&#45;&gt;QuantumPlus -->
<g id="edge8" class="edge">
<title>QuantumOperation&#45;&gt;QuantumPlus</title>
<path fill="none" stroke="#000000" stroke-width=".5" d="M530.57,-386.1935C562.5052,-386.1935 602.273,-386.1935 632.6056,-386.1935"/>
<polygon fill="#000000" stroke="#000000" stroke-width=".5" points="632.7719,-387.9436 637.7718,-386.1935 632.7718,-384.4436 632.7719,-387.9436"/>
</g>
<!-- QuantumTimes -->
<g id="node12" class="node">
<title>QuantumTimes</title>
<g id="a_node12"><a xlink:href="../API/qalgebra.core.abstract_quantum_algebra.html#qalgebra.core.abstract_quantum_algebra.QuantumTimes" xlink:title="General implementation of product of quantum expressions" target="_top">
<polygon fill="none" stroke="#000000" stroke-width=".5" points="725,-358.6935 633,-358.6935 633,-339.6935 725,-339.6935 725,-358.6935"/>
<text text-anchor="middle" x="679" y="-346.6935" font-family="Vera Sans, DejaVu Sans, Liberation Sans, Arial, Helvetica, sans" font-size="10.00" fill="#000000">QuantumTimes</text>
</a>
</g>
</g>
<!-- QuantumOperation&#45;&gt;QuantumTimes -->
<g id="edge10" class="edge">
<title>QuantumOperation&#45;&gt;QuantumTimes</title>
<path fill="none" stroke="#000000" stroke-width=".5" d="M527.9063,-376.6651C558.5206,-371.0989 596.9983,-364.1029 627.462,-358.564"/>
<polygon fill="#000000" stroke="#000000" stroke-width=".5" points="628.0593,-360.2342 632.6656,-357.6179 627.4332,-356.7907 628.0593,-360.2342"/>
</g>
<!-- SuperOperatorPlus -->
<g id="node21" class="node">
<title>SuperOperatorPlus</title>
<g id="a_node21"><a xlink:href="../API/qalgebra.core.super_operator_algebra.html#qalgebra.core.super_operator_algebra.SuperOperatorPlus" xlink:title="A sum of super&#45;operators" target="_top">
<polygon fill="none" stroke="#000000" stroke-width=".5" points="907,-163.6935 800,-163.6935 800,-144.6935 907,-144.6935 907,-163.6935"/>
<text text-anchor="middle" x="853.5" y="-151.6935" font-family="Vera Sans, DejaVu Sans, Liberation Sans, Arial, Helvetica, sans" font-size="10.00" fill="#000000">SuperOperatorPlus</text>
</a>
</g>
</g>
<!-- QuantumPlus&#45;&gt;SuperOperatorPlus -->
<g id="edge26" class="edge">
<title>QuantumPlus&#45;&gt;SuperOperatorPlus</title>
<path fill="none" stroke="#000000" stroke-width=".5" d="M720.133,-384.354C733.7433,-381.9372 748.1627,-377.2039 759,-368.1935 790.2325,-342.2261 778.6654,-321.3816 795,-284.1935 813.4915,-242.0951 835.954,-192.6326 846.8848,-168.6668"/>
<polygon fill="#000000" stroke="#000000" stroke-width=".5" points="848.5528,-169.2268 849.0367,-163.9515 845.3687,-167.7737 848.5528,-169.2268"/>
</g>
<!-- SuperOperatorSymbol -->
<g id="node22" class="node">
<title>SuperOperatorSymbol</title>
<g id="a_node22"><a xlink:href="../API/qalgebra.core.super_operator_algebra.html#qalgebra.core.super_operator_algebra.SuperOperatorSymbol" xlink:title="Symbolic super&#45;operator" target="_top">
<polygon fill="none" stroke="#000000" stroke-width=".5" points="741,-173.6935 617,-173.6935 617,-154.6935 741,-154.6935 741,-173.6935"/>
<text text-anchor="middle" x="679" y="-161.6935" font-family="Vera Sans, DejaVu Sans, Liberation Sans, Arial, Helvetica, sans" font-size="10.00" fill="#000000">SuperOperatorSymbol</text>
</a>
</g>
</g>
<!-- QuantumSymbol&#45;&gt;SuperOperatorSymbol -->
<g id="edge28" class="edge">
<title>QuantumSymbol&#45;&gt;SuperOperatorSymbol</title>
<path fill="none" stroke="#000000" stroke-width=".5" d="M524.5023,-160.3975C550.6315,-161.0395 583.1754,-161.8391 611.6469,-162.5386"/>
<polygon fill="#000000" stroke="#000000" stroke-width=".5" points="611.8718,-164.2946 616.9133,-162.668 611.9578,-160.7957 611.8718,-164.2946"/>
</g>
<!-- SuperOperatorTimes -->
<g id="node23" class="node">
<title>SuperOperatorTimes</title>
<g id="a_node23"><a xlink:href="../API/qalgebra.core.super_operator_algebra.html#qalgebra.core.super_operator_algebra.SuperOperatorTimes" xlink:title="Product of super&#45;operators" target="_top">
<polygon fill="none" stroke="#000000" stroke-width=".5" points="912,-97.6935 795,-97.6935 795,-78.6935 912,-78.6935 912,-97.6935"/>
<text text-anchor="middle" x="853.5" y="-85.6935" font-family="Vera Sans, DejaVu Sans, Liberation Sans, Arial, Helvetica, sans" font-size="10.00" fill="#000000">SuperOperatorTimes</text>
</a>
</g>
</g>
<!-- QuantumTimes&#45;&gt;SuperOperatorTimes -->
<g id="edge30" class="edge">
<title>QuantumTimes&#45;&gt;SuperOperatorTimes</title>
<path fill="none" stroke="#000000" stroke-width=".5" d="M725.0846,-347.9509C737.5927,-345.3931 750.1174,-340.4271 759,-331.1935 820.099,-267.6795 750.21,-212.0945 795,-136.1935 803.818,-121.2506 819.1075,-108.9504 831.8443,-100.5433"/>
<polygon fill="#000000" stroke="#000000" stroke-width=".5" points="832.7894,-102.0162 836.0528,-97.8433 830.8994,-99.0703 832.7894,-102.0162"/>
</g>
<!-- SuperOperator&#45;&gt;SPost -->
<g id="edge11" class="edge">
<title>SuperOperator&#45;&gt;SPost</title>
<path fill="none" stroke="#000000" stroke-width=".5" d="M519.2163,-122.3486C534.8673,-124.6004 551.4701,-129.861 563,-141.1935 612.821,-190.1616 549.3628,-245.0392 599,-294.1935 611.3599,-306.4332 630.146,-311.0896 646.4082,-312.6133"/>
<polygon fill="#000000" stroke="#000000" stroke-width=".5" points="646.6972,-314.3896 651.8135,-313.0163 646.9575,-310.8993 646.6972,-314.3896"/>
</g>
<!-- SuperOperator&#45;&gt;SPre -->
<g id="edge13" class="edge">
<title>SuperOperator&#45;&gt;SPre</title>
<path fill="none" stroke="#000000" stroke-width=".5" d="M519.2556,-122.8489C534.7261,-125.1868 551.1961,-130.3754 563,-141.1935 602.7961,-177.6661 559.3408,-220.5721 599,-257.1935 611.6857,-268.9075 630.3086,-273.5622 646.3952,-275.2172"/>
<polygon fill="#000000" stroke="#000000" stroke-width=".5" points="646.6114,-276.9917 651.7412,-275.6694 646.9065,-273.5041 646.6114,-276.9917"/>
</g>
<!-- ScalarTimesSuperOperator -->
<g id="node17" class="node">
<title>ScalarTimesSuperOperator</title>
<g id="a_node17"><a xlink:href="../API/qalgebra.core.super_operator_algebra.html#qalgebra.core.super_operator_algebra.ScalarTimesSuperOperator" xlink:title="Product of a :class:`.Scalar` coefficient and a :class:`.SuperOperator`." target="_top">
<polygon fill="none" stroke="#000000" stroke-width=".5" points="752.5,-247.6935 605.5,-247.6935 605.5,-228.6935 752.5,-228.6935 752.5,-247.6935"/>
<text text-anchor="middle" x="679" y="-235.6935" font-family="Vera Sans, DejaVu Sans, Liberation Sans, Arial, Helvetica, sans" font-size="10.00" fill="#000000">ScalarTimesSuperOperator</text>
</a>
</g>
</g>
<!-- SuperOperator&#45;&gt;ScalarTimesSuperOperator -->
<g id="edge17" class="edge">
<title>SuperOperator&#45;&gt;ScalarTimesSuperOperator</title>
<path fill="none" stroke="#000000" stroke-width=".5" d="M519.4451,-123.8173C534.5791,-126.3032 550.7772,-131.3393 563,-141.1935 593.0384,-165.4109 569.0525,-195.8637 599,-220.1935 601.8866,-222.5386 605.0172,-224.5926 608.312,-226.3904"/>
<polygon fill="#000000" stroke="#000000" stroke-width=".5" points="607.6445,-228.0132 612.899,-228.6864 609.2112,-224.8834 607.6445,-228.0132"/>
</g>
<!-- SuperOperator&#45;&gt;SuperAdjoint -->
<g id="edge21" class="edge">
<title>SuperOperator&#45;&gt;SuperAdjoint</title>
<path fill="none" stroke="#000000" stroke-width=".5" d="M508.5498,-112.6602C598.6879,-87.5051 846.4296,-24.2639 912,-69.1935 948.5623,-94.2464 914.9228,-132.6919 948,-162.1935 954.8601,-168.312 963.5452,-172.3955 972.4197,-175.1098"/>
<polygon fill="#000000" stroke="#000000" stroke-width=".5" points="972.0731,-176.8297 977.359,-176.481 973.0094,-173.4572 972.0731,-176.8297"/>
</g>
<!-- SuperOperator&#45;&gt;SuperOperatorDerivative -->
<g id="edge25" class="edge">
<title>SuperOperator&#45;&gt;SuperOperatorDerivative</title>
<path fill="none" stroke="#000000" stroke-width=".5" d="M484.9146,-112.4707C504.1777,-93.3632 550.39,-51.451 599,-36.1935 731.7267,5.4662 783.7306,17.6476 912,-36.1935 957.4466,-55.2697 993.1139,-104.6758 1008.6008,-129.1"/>
<polygon fill="#000000" stroke="#000000" stroke-width=".5" points="1007.2969,-130.3167 1011.426,-133.6354 1010.2676,-128.4661 1007.2969,-130.3167"/>
</g>
<!-- SuperOperator&#45;&gt;SuperOperatorPlus -->
<g id="edge27" class="edge">
<title>SuperOperator&#45;&gt;SuperOperatorPlus</title>
<path fill="none" stroke="#000000" stroke-width=".5" d="M519.2307,-125.8956C587.1732,-131.6473 718.185,-142.7383 794.456,-149.1951"/>
<polygon fill="#000000" stroke="#000000" stroke-width=".5" points="794.7214,-150.9737 799.8513,-149.6518 795.0167,-147.4862 794.7214,-150.9737"/>
</g>
<!-- SuperOperator&#45;&gt;SuperOperatorSymbol -->
<g id="edge29" class="edge">
<title>SuperOperator&#45;&gt;SuperOperatorSymbol</title>
<path fill="none" stroke="#000000" stroke-width=".5" d="M519.1559,-131.2036C550.9717,-137.77 594.1839,-146.6885 627.6575,-153.597"/>
<polygon fill="#000000" stroke="#000000" stroke-width=".5" points="627.6924,-155.391 632.9429,-154.6879 628.3999,-151.9633 627.6924,-155.391"/>
</g>
<!-- SuperOperator&#45;&gt;SuperOperatorTimes -->
<g id="edge31" class="edge">
<title>SuperOperator&#45;&gt;SuperOperatorTimes</title>
<path fill="none" stroke="#000000" stroke-width=".5" d="M519.2307,-118.2601C585.7878,-112.2734 712.8682,-100.8429 789.7229,-93.9301"/>
<polygon fill="#000000" stroke="#000000" stroke-width=".5" points="789.8883,-95.6723 794.7114,-93.4814 789.5747,-92.1864 789.8883,-95.6723"/>
</g>
<!-- ScalarTimesQuantumExpression&#45;&gt;ScalarTimesSuperOperator -->
<g id="edge18" class="edge">
<title>ScalarTimesQuantumExpression&#45;&gt;ScalarTimesSuperOperator</title>
<path fill="none" stroke="#000000" stroke-width=".5" d="M532.4567,-262.6774C558.8017,-258.2758 590.1522,-253.0378 617.0823,-248.5385"/>
<polygon fill="#000000" stroke="#000000" stroke-width=".5" points="617.4138,-250.2574 622.0571,-247.7073 616.837,-246.8053 617.4138,-250.2574"/>
</g>
</g>
</svg>
