<?xml version="1.0" encoding="UTF-8" standalone="no"?>
<!DOCTYPE svg PUBLIC "-//W3C//DTD SVG 1.1//EN"
 "http://www.w3.org/Graphics/SVG/1.1/DTD/svg11.dtd">
<!-- Generated by graphviz version 2.40.1 (20161225.0304)
 -->
<!-- Title: inheritance438bb7c2eb Pages: 1 -->
<svg width="912pt" height="475pt"
 viewBox="0.00 0.00 912.00 475.00" xmlns="http://www.w3.org/2000/svg" xmlns:xlink="http://www.w3.org/1999/xlink">
<g id="graph0" class="graph" transform="scale(1 1) rotate(0) translate(4 471)">
<title>inheritance438bb7c2eb</title>
<polygon fill="#ffffff" stroke="transparent" points="-4,4 -4,-471 908,-471 908,4 -4,4"/>
<!-- BasisKet -->
<g id="node1" class="node">
<title>BasisKet</title>
<g id="a_node1"><a xlink:href="../API/qalgebra.core.state_algebra.html#qalgebra.core.state_algebra.BasisKet" xlink:title="Local basis state, identified by index or label" target="_top">
<polygon fill="none" stroke="#000000" stroke-width=".5" points="882.5,-19 823.5,-19 823.5,0 882.5,0 882.5,-19"/>
<text text-anchor="middle" x="853" y="-7" font-family="Vera Sans, DejaVu Sans, Liberation Sans, Arial, Helvetica, sans" font-size="10.00" fill="#000000">BasisKet</text>
</a>
</g>
</g>
<!-- LocalKet -->
<g id="node2" class="node">
<title>LocalKet</title>
<g id="a_node2"><a xlink:href="../API/qalgebra.core.state_algebra.html#qalgebra.core.state_algebra.LocalKet" xlink:title="A state on a :class:`.LocalSpace`." target="_top">
<polygon fill="none" stroke="#000000" stroke-width=".5" points="734,-56 676,-56 676,-37 734,-37 734,-56"/>
<text text-anchor="middle" x="705" y="-44" font-family="Vera Sans, DejaVu Sans, Liberation Sans, Arial, Helvetica, sans" font-size="10.00" fill="#000000">LocalKet</text>
</a>
</g>
</g>
<!-- LocalKet&#45;&gt;BasisKet -->
<g id="edge1" class="edge">
<title>LocalKet&#45;&gt;BasisKet</title>
<path fill="none" stroke="#000000" stroke-width=".5" d="M734.24,-39.19C758.4069,-33.1483 792.7756,-24.5561 818.327,-18.1682"/>
<polygon fill="#000000" stroke="#000000" stroke-width=".5" points="818.8879,-19.832 823.3141,-16.9215 818.039,-16.4365 818.8879,-19.832"/>
</g>
<!-- CoherentStateKet -->
<g id="node10" class="node">
<title>CoherentStateKet</title>
<g id="a_node10"><a xlink:href="../API/qalgebra.core.state_algebra.html#qalgebra.core.state_algebra.CoherentStateKet" xlink:title="Local coherent state, labeled by a complex amplitude $alpha$." target="_top">
<polygon fill="none" stroke="#000000" stroke-width=".5" points="904,-56 802,-56 802,-37 904,-37 904,-56"/>
<text text-anchor="middle" x="853" y="-44" font-family="Vera Sans, DejaVu Sans, Liberation Sans, Arial, Helvetica, sans" font-size="10.00" fill="#000000">CoherentStateKet</text>
</a>
</g>
</g>
<!-- LocalKet&#45;&gt;CoherentStateKet -->
<g id="edge7" class="edge">
<title>LocalKet&#45;&gt;CoherentStateKet</title>
<path fill="none" stroke="#000000" stroke-width=".5" d="M734.24,-46.5C752.0996,-46.5 775.5308,-46.5 796.8575,-46.5"/>
<polygon fill="#000000" stroke="#000000" stroke-width=".5" points="796.9422,-48.2501 801.9421,-46.5 796.9421,-44.7501 796.9422,-48.2501"/>
</g>
<!-- KetSymbol -->
<g id="node3" class="node">
<title>KetSymbol</title>
<g id="a_node3"><a xlink:href="../API/qalgebra.core.state_algebra.html#qalgebra.core.state_algebra.KetSymbol" xlink:title="Symbolic state." target="_top">
<polygon fill="none" stroke="#000000" stroke-width=".5" points="739.5,-19 670.5,-19 670.5,0 739.5,0 739.5,-19"/>
<text text-anchor="middle" x="705" y="-7" font-family="Vera Sans, DejaVu Sans, Liberation Sans, Arial, Helvetica, sans" font-size="10.00" fill="#000000">KetSymbol</text>
</a>
</g>
</g>
<!-- KetSymbol&#45;&gt;BasisKet -->
<g id="edge2" class="edge">
<title>KetSymbol&#45;&gt;BasisKet</title>
<path fill="none" stroke="#000000" stroke-width=".5" d="M739.6994,-9.5C763.2109,-9.5 794.179,-9.5 817.7962,-9.5"/>
<polygon fill="#000000" stroke="#000000" stroke-width=".5" points="818.0222,-11.2501 823.0221,-9.5 818.0221,-7.7501 818.0222,-11.2501"/>
</g>
<!-- Bra -->
<g id="node4" class="node">
<title>Bra</title>
<g id="a_node4"><a xlink:href="../API/qalgebra.core.state_algebra.html#qalgebra.core.state_algebra.Bra" xlink:title="The associated dual/adjoint state for any ket" target="_top">
<polygon fill="none" stroke="#000000" stroke-width=".5" points="880,-94 826,-94 826,-75 880,-75 880,-94"/>
<text text-anchor="middle" x="853" y="-82" font-family="Vera Sans, DejaVu Sans, Liberation Sans, Arial, Helvetica, sans" font-size="10.00" fill="#000000">Bra</text>
</a>
</g>
</g>
<!-- State -->
<g id="node5" class="node">
<title>State</title>
<g id="a_node5"><a xlink:href="../API/qalgebra.core.state_algebra.html#qalgebra.core.state_algebra.State" xlink:title="Base class for states in a Hilbert space" target="_top">
<polygon fill="none" stroke="#000000" stroke-width=".5" points="565,-128 511,-128 511,-109 565,-109 565,-128"/>
<text text-anchor="middle" x="538" y="-116" font-family="Vera Sans, DejaVu Sans, Liberation Sans, Arial, Helvetica, sans" font-size="10.00" fill="#000000">State</text>
</a>
</g>
</g>
<!-- State&#45;&gt;LocalKet -->
<g id="edge17" class="edge">
<title>State&#45;&gt;LocalKet</title>
<path fill="none" stroke="#000000" stroke-width=".5" d="M558.1872,-108.9927C579.4159,-99.0813 613.857,-83.2451 644,-70.5 654.0889,-66.2342 665.2143,-61.7835 675.1706,-57.8899"/>
<polygon fill="#000000" stroke="#000000" stroke-width=".5" points="675.9308,-59.4719 679.9547,-56.0265 674.6605,-56.2106 675.9308,-59.4719"/>
</g>
<!-- State&#45;&gt;KetSymbol -->
<g id="edge16" class="edge">
<title>State&#45;&gt;KetSymbol</title>
<path fill="none" stroke="#000000" stroke-width=".5" d="M549.4039,-108.7391C563.2643,-96.8724 587.3605,-76.2319 608,-58.5 624.0157,-44.7405 625.4593,-37.6029 644,-27.5 650.6173,-23.8942 658.0419,-20.9316 665.373,-18.5256"/>
<polygon fill="#000000" stroke="#000000" stroke-width=".5" points="666.172,-20.1095 670.4224,-16.9478 665.128,-16.7688 666.172,-20.1095"/>
</g>
<!-- State&#45;&gt;Bra -->
<g id="edge3" class="edge">
<title>State&#45;&gt;Bra</title>
<path fill="none" stroke="#000000" stroke-width=".5" d="M565.1294,-115.5718C623.0454,-109.3205 758.557,-94.6939 820.7557,-87.9803"/>
<polygon fill="#000000" stroke="#000000" stroke-width=".5" points="821.0409,-89.7098 825.8242,-87.4333 820.6652,-86.23 821.0409,-89.7098"/>
</g>
<!-- KetIndexedSum -->
<g id="node15" class="node">
<title>KetIndexedSum</title>
<g id="a_node15"><a xlink:href="../API/qalgebra.core.state_algebra.html#qalgebra.core.state_algebra.KetIndexedSum" xlink:title="Indexed sum over Kets." target="_top">
<polygon fill="none" stroke="#000000" stroke-width=".5" points="899.5,-318 806.5,-318 806.5,-299 899.5,-299 899.5,-318"/>
<text text-anchor="middle" x="853" y="-306" font-family="Vera Sans, DejaVu Sans, Liberation Sans, Arial, Helvetica, sans" font-size="10.00" fill="#000000">KetIndexedSum</text>
</a>
</g>
</g>
<!-- State&#45;&gt;KetIndexedSum -->
<g id="edge11" class="edge">
<title>State&#45;&gt;KetIndexedSum</title>
<path fill="none" stroke="#000000" stroke-width=".5" d="M565.3548,-125.7529C625.69,-141.759 764.9548,-178.7547 766,-179.5 808.2393,-209.619 836.0656,-267.1464 847.3324,-294.0094"/>
<polygon fill="#000000" stroke="#000000" stroke-width=".5" points="845.7228,-294.6965 849.2432,-298.6549 848.9596,-293.365 845.7228,-294.6965"/>
</g>
<!-- KetPlus -->
<g id="node17" class="node">
<title>KetPlus</title>
<g id="a_node17"><a xlink:href="../API/qalgebra.core.state_algebra.html#qalgebra.core.state_algebra.KetPlus" xlink:title="Sum of states." target="_top">
<polygon fill="none" stroke="#000000" stroke-width=".5" points="732,-282 678,-282 678,-263 732,-263 732,-282"/>
<text text-anchor="middle" x="705" y="-270" font-family="Vera Sans, DejaVu Sans, Liberation Sans, Arial, Helvetica, sans" font-size="10.00" fill="#000000">KetPlus</text>
</a>
</g>
</g>
<!-- State&#45;&gt;KetPlus -->
<g id="edge13" class="edge">
<title>State&#45;&gt;KetPlus</title>
<path fill="none" stroke="#000000" stroke-width=".5" d="M553.6632,-128.1774C569.127,-138.3762 592.6276,-155.6891 608,-175.5 631.4065,-205.6648 615.2997,-228.3193 644,-253.5 652.0969,-260.6039 662.8284,-265.0523 673.0307,-267.8376"/>
<polygon fill="#000000" stroke="#000000" stroke-width=".5" points="672.7076,-269.5606 677.9828,-269.0757 673.5566,-266.1652 672.7076,-269.5606"/>
</g>
<!-- OperatorTimesKet -->
<g id="node21" class="node">
<title>OperatorTimesKet</title>
<g id="a_node21"><a xlink:href="../API/qalgebra.core.state_algebra.html#qalgebra.core.state_algebra.OperatorTimesKet" xlink:title="Product of an operator and a state." target="_top">
<polygon fill="none" stroke="#000000" stroke-width=".5" points="757.5,-319 652.5,-319 652.5,-300 757.5,-300 757.5,-319"/>
<text text-anchor="middle" x="705" y="-307" font-family="Vera Sans, DejaVu Sans, Liberation Sans, Arial, Helvetica, sans" font-size="10.00" fill="#000000">OperatorTimesKet</text>
</a>
</g>
</g>
<!-- State&#45;&gt;OperatorTimesKet -->
<g id="edge20" class="edge">
<title>State&#45;&gt;OperatorTimesKet</title>
<path fill="none" stroke="#000000" stroke-width=".5" d="M554.8263,-128.1434C570.7223,-138.0782 594.1378,-154.9817 608,-175.5 638.2195,-220.2298 605.5636,-253.5973 644,-291.5 646.2702,-293.7387 648.8043,-295.7013 651.5139,-297.4217"/>
<polygon fill="#000000" stroke="#000000" stroke-width=".5" points="650.6943,-298.9689 655.9037,-299.9307 652.4311,-295.9302 650.6943,-298.9689"/>
</g>
<!-- ScalarTimesKet -->
<g id="node27" class="node">
<title>ScalarTimesKet</title>
<g id="a_node27"><a xlink:href="../API/qalgebra.core.state_algebra.html#qalgebra.core.state_algebra.ScalarTimesKet" xlink:title="Product of a :class:`.Scalar` coefficient and a ket" target="_top">
<polygon fill="none" stroke="#000000" stroke-width=".5" points="751,-208 659,-208 659,-189 751,-189 751,-208"/>
<text text-anchor="middle" x="705" y="-196" font-family="Vera Sans, DejaVu Sans, Liberation Sans, Arial, Helvetica, sans" font-size="10.00" fill="#000000">ScalarTimesKet</text>
</a>
</g>
</g>
<!-- State&#45;&gt;ScalarTimesKet -->
<g id="edge34" class="edge">
<title>State&#45;&gt;ScalarTimesKet</title>
<path fill="none" stroke="#000000" stroke-width=".5" d="M565.0047,-125.0421C578.4735,-128.9675 594.6865,-134.7267 608,-142.5 626.4869,-153.2938 625.7581,-163.2972 644,-174.5 651.937,-179.3743 661.0338,-183.585 669.7376,-187.0582"/>
<polygon fill="#000000" stroke="#000000" stroke-width=".5" points="669.2282,-188.7375 674.5228,-188.9114 670.4922,-185.4737 669.2282,-188.7375"/>
</g>
<!-- StateDerivative -->
<g id="node29" class="node">
<title>StateDerivative</title>
<g id="a_node29"><a xlink:href="../API/qalgebra.core.state_algebra.html#qalgebra.core.state_algebra.StateDerivative" xlink:title="Symbolic partial derivative of a state" target="_top">
<polygon fill="none" stroke="#000000" stroke-width=".5" points="899.5,-206 806.5,-206 806.5,-187 899.5,-187 899.5,-206"/>
<text text-anchor="middle" x="853" y="-194" font-family="Vera Sans, DejaVu Sans, Liberation Sans, Arial, Helvetica, sans" font-size="10.00" fill="#000000">StateDerivative</text>
</a>
</g>
</g>
<!-- State&#45;&gt;StateDerivative -->
<g id="edge41" class="edge">
<title>State&#45;&gt;StateDerivative</title>
<path fill="none" stroke="#000000" stroke-width=".5" d="M565.087,-118.3848C608.5838,-118.953 696.1996,-123.2211 766,-146.5 791.9821,-155.1652 818.8643,-172.0453 835.7415,-183.782"/>
<polygon fill="#000000" stroke="#000000" stroke-width=".5" points="835.1325,-185.4939 840.2274,-186.9449 837.1494,-182.6334 835.1325,-185.4939"/>
</g>
<!-- TensorKet -->
<g id="node30" class="node">
<title>TensorKet</title>
<g id="a_node30"><a xlink:href="../API/qalgebra.core.state_algebra.html#qalgebra.core.state_algebra.TensorKet" xlink:title="A tensor product of kets." target="_top">
<polygon fill="none" stroke="#000000" stroke-width=".5" points="737,-245 673,-245 673,-226 737,-226 737,-245"/>
<text text-anchor="middle" x="705" y="-233" font-family="Vera Sans, DejaVu Sans, Liberation Sans, Arial, Helvetica, sans" font-size="10.00" fill="#000000">TensorKet</text>
</a>
</g>
</g>
<!-- State&#45;&gt;TensorKet -->
<g id="edge42" class="edge">
<title>State&#45;&gt;TensorKet</title>
<path fill="none" stroke="#000000" stroke-width=".5" d="M551.1879,-128.1853C565.6817,-139.0652 589.3783,-157.5577 608,-175.5 625.4628,-192.3256 623.6643,-203.2898 644,-216.5 651.1638,-221.1537 659.5382,-224.7269 667.7463,-227.4486"/>
<polygon fill="#000000" stroke="#000000" stroke-width=".5" points="667.5288,-229.214 672.8232,-229.0352 668.5729,-225.8734 667.5288,-229.214"/>
</g>
<!-- QuantumAdjoint -->
<g id="node6" class="node">
<title>QuantumAdjoint</title>
<g id="a_node6"><a xlink:href="../API/qalgebra.core.abstract_quantum_algebra.html#qalgebra.core.abstract_quantum_algebra.QuantumAdjoint" xlink:title="Base class for adjoints of quantum expressions" target="_top">
<polygon fill="none" stroke="#000000" stroke-width=".5" points="753,-393 657,-393 657,-374 753,-374 753,-393"/>
<text text-anchor="middle" x="705" y="-381" font-family="Vera Sans, DejaVu Sans, Liberation Sans, Arial, Helvetica, sans" font-size="10.00" fill="#000000">QuantumAdjoint</text>
</a>
</g>
</g>
<!-- QuantumAdjoint&#45;&gt;Bra -->
<g id="edge4" class="edge">
<title>QuantumAdjoint&#45;&gt;Bra</title>
<path fill="none" stroke="#000000" stroke-width=".5" d="M753.0225,-375.0877C757.8878,-372.6413 762.3657,-369.5081 766,-365.5 823.1457,-302.477 773.1962,-257.5492 802,-177.5 812.6568,-147.8835 831.8192,-116.3557 843.378,-98.6724"/>
<polygon fill="#000000" stroke="#000000" stroke-width=".5" points="845.1261,-99.2013 846.4231,-94.065 842.2062,-97.2714 845.1261,-99.2013"/>
</g>
<!-- BraKet -->
<g id="node7" class="node">
<title>BraKet</title>
<g id="a_node7"><a xlink:href="../API/qalgebra.core.state_algebra.html#qalgebra.core.state_algebra.BraKet" xlink:title="The symbolic inner product between two states" target="_top">
<polygon fill="none" stroke="#000000" stroke-width=".5" points="732,-356 678,-356 678,-337 732,-337 732,-356"/>
<text text-anchor="middle" x="705" y="-344" font-family="Vera Sans, DejaVu Sans, Liberation Sans, Arial, Helvetica, sans" font-size="10.00" fill="#000000">BraKet</text>
</a>
</g>
</g>
<!-- ScalarExpression -->
<g id="node8" class="node">
<title>ScalarExpression</title>
<g id="a_node8"><a xlink:href="../API/qalgebra.core.scalar_algebra.html#qalgebra.core.scalar_algebra.ScalarExpression" xlink:title="Base class for scalars with non&#45;scalar arguments" target="_top">
<polygon fill="none" stroke="#000000" stroke-width=".5" points="588,-204 488,-204 488,-185 588,-185 588,-204"/>
<text text-anchor="middle" x="538" y="-192" font-family="Vera Sans, DejaVu Sans, Liberation Sans, Arial, Helvetica, sans" font-size="10.00" fill="#000000">ScalarExpression</text>
</a>
</g>
</g>
<!-- ScalarExpression&#45;&gt;BraKet -->
<g id="edge5" class="edge">
<title>ScalarExpression&#45;&gt;BraKet</title>
<path fill="none" stroke="#000000" stroke-width=".5" d="M588.3205,-200.7346C595.5796,-203.4379 602.456,-207.2224 608,-212.5 647.0984,-249.7195 605.5636,-290.5973 644,-328.5 651.7024,-336.0954 662.4431,-340.5136 672.7686,-343.0739"/>
<polygon fill="#000000" stroke="#000000" stroke-width=".5" points="672.5286,-344.8132 677.789,-344.1874 673.2865,-341.3962 672.5286,-344.8132"/>
</g>
<!-- Operation -->
<g id="node9" class="node">
<title>Operation</title>
<g id="a_node9"><a xlink:href="../API/qalgebra.core.abstract_algebra.html#qalgebra.core.abstract_algebra.Operation" xlink:title="Base class for &quot;operations&quot;" target="_top">
<polygon fill="none" stroke="#000000" stroke-width=".5" points="196,-315 131,-315 131,-296 196,-296 196,-315"/>
<text text-anchor="middle" x="163.5" y="-303" font-family="Vera Sans, DejaVu Sans, Liberation Sans, Arial, Helvetica, sans" font-size="10.00" fill="#000000">Operation</text>
</a>
</g>
</g>
<!-- Operation&#45;&gt;BraKet -->
<g id="edge6" class="edge">
<title>Operation&#45;&gt;BraKet</title>
<path fill="none" stroke="#000000" stroke-width=".5" d="M181.1408,-315.0413C199.4835,-324.3852 229.3316,-337.9961 257,-343.5 410.0911,-373.9536 598.4697,-358.5044 672.7313,-350.406"/>
<polygon fill="#000000" stroke="#000000" stroke-width=".5" points="673.1018,-352.1258 677.8789,-349.8363 672.7167,-348.647 673.1018,-352.1258"/>
</g>
<!-- IndexedSum -->
<g id="node12" class="node">
<title>IndexedSum</title>
<g id="a_node12"><a xlink:href="../API/qalgebra.core.indexed_operations.html#qalgebra.core.indexed_operations.IndexedSum" xlink:title="Base class for indexed sums." target="_top">
<polygon fill="none" stroke="#000000" stroke-width=".5" points="383,-448 306,-448 306,-429 383,-429 383,-448"/>
<text text-anchor="middle" x="344.5" y="-436" font-family="Vera Sans, DejaVu Sans, Liberation Sans, Arial, Helvetica, sans" font-size="10.00" fill="#000000">IndexedSum</text>
</a>
</g>
</g>
<!-- Operation&#45;&gt;IndexedSum -->
<g id="edge8" class="edge">
<title>Operation&#45;&gt;IndexedSum</title>
<path fill="none" stroke="#000000" stroke-width=".5" d="M171.7079,-315.1815C187.0602,-332.8543 221.7655,-370.7927 257,-395.5 275.1146,-408.2024 297.5423,-419.1435 315.1562,-426.8104"/>
<polygon fill="#000000" stroke="#000000" stroke-width=".5" points="314.7041,-428.5207 319.989,-428.8848 316.0847,-425.3045 314.7041,-428.5207"/>
</g>
<!-- KetBra -->
<g id="node13" class="node">
<title>KetBra</title>
<g id="a_node13"><a xlink:href="../API/qalgebra.core.state_algebra.html#qalgebra.core.state_algebra.KetBra" xlink:title="Outer product of two states" target="_top">
<polygon fill="none" stroke="#000000" stroke-width=".5" points="565,-241 511,-241 511,-222 565,-222 565,-241"/>
<text text-anchor="middle" x="538" y="-229" font-family="Vera Sans, DejaVu Sans, Liberation Sans, Arial, Helvetica, sans" font-size="10.00" fill="#000000">KetBra</text>
</a>
</g>
</g>
<!-- Operation&#45;&gt;KetBra -->
<g id="edge10" class="edge">
<title>Operation&#45;&gt;KetBra</title>
<path fill="none" stroke="#000000" stroke-width=".5" d="M196.0793,-299.0624C267.1575,-285.0176 435.4196,-251.7696 505.9825,-237.8266"/>
<polygon fill="#000000" stroke="#000000" stroke-width=".5" points="506.3256,-239.5427 510.8915,-236.8566 505.6471,-236.1091 506.3256,-239.5427"/>
</g>
<!-- Operation&#45;&gt;OperatorTimesKet -->
<g id="edge21" class="edge">
<title>Operation&#45;&gt;OperatorTimesKet</title>
<path fill="none" stroke="#000000" stroke-width=".5" d="M196.1402,-313.8057C213.9877,-317.9225 236.5632,-322.4445 257,-324.5 412.2169,-340.1112 452.4588,-336.4553 608,-324.5 620.9744,-323.5028 634.8394,-321.7658 647.9092,-319.8191"/>
<polygon fill="#000000" stroke="#000000" stroke-width=".5" points="648.3883,-321.5164 653.0681,-319.034 647.8617,-318.0563 648.3883,-321.5164"/>
</g>
<!-- QuantumOperation -->
<g id="node24" class="node">
<title>QuantumOperation</title>
<g id="a_node24"><a xlink:href="../API/qalgebra.core.abstract_quantum_algebra.html#qalgebra.core.abstract_quantum_algebra.QuantumOperation" xlink:title="Base class for operations on quantum expression" target="_top">
<polygon fill="none" stroke="#000000" stroke-width=".5" points="399.5,-315 289.5,-315 289.5,-296 399.5,-296 399.5,-315"/>
<text text-anchor="middle" x="344.5" y="-303" font-family="Vera Sans, DejaVu Sans, Liberation Sans, Arial, Helvetica, sans" font-size="10.00" fill="#000000">QuantumOperation</text>
</a>
</g>
</g>
<!-- Operation&#45;&gt;QuantumOperation -->
<g id="edge28" class="edge">
<title>Operation&#45;&gt;QuantumOperation</title>
<path fill="none" stroke="#000000" stroke-width=".5" d="M196.2777,-305.5C220.7385,-305.5 254.8549,-305.5 284.1911,-305.5"/>
<polygon fill="#000000" stroke="#000000" stroke-width=".5" points="284.2317,-307.2501 289.2317,-305.5 284.2317,-303.7501 284.2317,-307.2501"/>
</g>
<!-- ScalarTimesQuantumExpression -->
<g id="node28" class="node">
<title>ScalarTimesQuantumExpression</title>
<g id="a_node28"><a xlink:href="../API/qalgebra.core.abstract_quantum_algebra.html#qalgebra.core.abstract_quantum_algebra.ScalarTimesQuantumExpression" xlink:title="Product of a :class:`.Scalar` and a :class:`.QuantumExpression`" target="_top">
<polygon fill="none" stroke="#000000" stroke-width=".5" points="432,-165 257,-165 257,-146 432,-146 432,-165"/>
<text text-anchor="middle" x="344.5" y="-153" font-family="Vera Sans, DejaVu Sans, Liberation Sans, Arial, Helvetica, sans" font-size="10.00" fill="#000000">ScalarTimesQuantumExpression</text>
</a>
</g>
</g>
<!-- Operation&#45;&gt;ScalarTimesQuantumExpression -->
<g id="edge37" class="edge">
<title>Operation&#45;&gt;ScalarTimesQuantumExpression</title>
<path fill="none" stroke="#000000" stroke-width=".5" d="M169.0806,-295.8079C185.211,-268.1203 232.3137,-189.6276 257,-173.5 260.814,-171.0083 264.9048,-168.8514 269.1587,-166.9854"/>
<polygon fill="#000000" stroke="#000000" stroke-width=".5" points="269.8684,-168.5858 273.8332,-165.0725 268.5429,-165.3466 269.8684,-168.5858"/>
</g>
<!-- Expression -->
<g id="node11" class="node">
<title>Expression</title>
<g id="a_node11"><a xlink:href="../API/qalgebra.core.abstract_algebra.html#qalgebra.core.abstract_algebra.Expression" xlink:title="Base class for all QAlgebra Expressions." target="_top">
<polygon fill="none" stroke="#000000" stroke-width=".5" points="70,-258 0,-258 0,-239 70,-239 70,-258"/>
<text text-anchor="middle" x="35" y="-246" font-family="Vera Sans, DejaVu Sans, Liberation Sans, Arial, Helvetica, sans" font-size="10.00" fill="#000000">Expression</text>
</a>
</g>
</g>
<!-- Expression&#45;&gt;Operation -->
<g id="edge18" class="edge">
<title>Expression&#45;&gt;Operation</title>
<path fill="none" stroke="#000000" stroke-width=".5" d="M56.508,-258.0405C78.7459,-267.9048 113.4859,-283.3147 137.3096,-293.8825"/>
<polygon fill="#000000" stroke="#000000" stroke-width=".5" points="136.6417,-295.5006 141.9218,-295.9284 138.0609,-292.3012 136.6417,-295.5006"/>
</g>
<!-- QuantumExpression -->
<g id="node20" class="node">
<title>QuantumExpression</title>
<g id="a_node20"><a xlink:href="../API/qalgebra.core.abstract_quantum_algebra.html#qalgebra.core.abstract_quantum_algebra.QuantumExpression" xlink:title="Base class for expressions associated with a Hilbert space" target="_top">
<polygon fill="none" stroke="#000000" stroke-width=".5" points="221,-202 106,-202 106,-183 221,-183 221,-202"/>
<text text-anchor="middle" x="163.5" y="-190" font-family="Vera Sans, DejaVu Sans, Liberation Sans, Arial, Helvetica, sans" font-size="10.00" fill="#000000">QuantumExpression</text>
</a>
</g>
</g>
<!-- Expression&#45;&gt;QuantumExpression -->
<g id="edge24" class="edge">
<title>Expression&#45;&gt;QuantumExpression</title>
<path fill="none" stroke="#000000" stroke-width=".5" d="M57.0899,-238.8733C79.1975,-229.2388 113.2284,-214.4082 136.8286,-204.1233"/>
<polygon fill="#000000" stroke="#000000" stroke-width=".5" points="137.8138,-205.603 141.6983,-202.0011 136.4155,-202.3944 137.8138,-205.603"/>
</g>
<!-- QuantumIndexedSum -->
<g id="node16" class="node">
<title>QuantumIndexedSum</title>
<g id="a_node16"><a xlink:href="../API/qalgebra.core.abstract_quantum_algebra.html#qalgebra.core.abstract_quantum_algebra.QuantumIndexedSum" xlink:title="Base class for indexed sums of quantum expressions." target="_top">
<polygon fill="none" stroke="#000000" stroke-width=".5" points="766,-467 644,-467 644,-448 766,-448 766,-467"/>
<text text-anchor="middle" x="705" y="-455" font-family="Vera Sans, DejaVu Sans, Liberation Sans, Arial, Helvetica, sans" font-size="10.00" fill="#000000">QuantumIndexedSum</text>
</a>
</g>
</g>
<!-- IndexedSum&#45;&gt;QuantumIndexedSum -->
<g id="edge25" class="edge">
<title>IndexedSum&#45;&gt;QuantumIndexedSum</title>
<path fill="none" stroke="#000000" stroke-width=".5" d="M383.0798,-440.5333C444.0992,-443.7493 563.6334,-450.0493 638.6269,-454.0018"/>
<polygon fill="#000000" stroke="#000000" stroke-width=".5" points="638.8629,-455.7666 643.9481,-454.2823 639.0472,-452.2715 638.8629,-455.7666"/>
</g>
<!-- Operator -->
<g id="node14" class="node">
<title>Operator</title>
<g id="a_node14"><a xlink:href="../API/qalgebra.core.operator_algebra.html#qalgebra.core.operator_algebra.Operator" xlink:title="Base class for all quantum operators." target="_top">
<polygon fill="none" stroke="#000000" stroke-width=".5" points="374,-239 315,-239 315,-220 374,-220 374,-239"/>
<text text-anchor="middle" x="344.5" y="-227" font-family="Vera Sans, DejaVu Sans, Liberation Sans, Arial, Helvetica, sans" font-size="10.00" fill="#000000">Operator</text>
</a>
</g>
</g>
<!-- Operator&#45;&gt;KetBra -->
<g id="edge9" class="edge">
<title>Operator&#45;&gt;KetBra</title>
<path fill="none" stroke="#000000" stroke-width=".5" d="M374.3103,-229.8081C409.8774,-230.1757 469.1178,-230.788 505.7346,-231.1665"/>
<polygon fill="#000000" stroke="#000000" stroke-width=".5" points="505.9495,-232.9187 510.9674,-231.2206 505.9858,-229.4189 505.9495,-232.9187"/>
</g>
<!-- QuantumIndexedSum&#45;&gt;KetIndexedSum -->
<g id="edge12" class="edge">
<title>QuantumIndexedSum&#45;&gt;KetIndexedSum</title>
<path fill="none" stroke="#000000" stroke-width=".5" d="M750.6708,-447.9211C756.1201,-445.6762 761.3801,-442.9093 766,-439.5 808.3951,-408.2143 836.3128,-349.6507 847.4876,-322.7165"/>
<polygon fill="#000000" stroke="#000000" stroke-width=".5" points="849.1151,-323.3599 849.3791,-318.069 845.8733,-322.0405 849.1151,-323.3599"/>
</g>
<!-- QuantumPlus -->
<g id="node18" class="node">
<title>QuantumPlus</title>
<g id="a_node18"><a xlink:href="../API/qalgebra.core.abstract_quantum_algebra.html#qalgebra.core.abstract_quantum_algebra.QuantumPlus" xlink:title="General implementation of addition of quantum expressions" target="_top">
<polygon fill="none" stroke="#000000" stroke-width=".5" points="579,-315 497,-315 497,-296 579,-296 579,-315"/>
<text text-anchor="middle" x="538" y="-303" font-family="Vera Sans, DejaVu Sans, Liberation Sans, Arial, Helvetica, sans" font-size="10.00" fill="#000000">QuantumPlus</text>
</a>
</g>
</g>
<!-- QuantumPlus&#45;&gt;KetPlus -->
<g id="edge14" class="edge">
<title>QuantumPlus&#45;&gt;KetPlus</title>
<path fill="none" stroke="#000000" stroke-width=".5" d="M579.2809,-297.3427C608.0765,-291.6526 645.9625,-284.1661 672.5897,-278.9044"/>
<polygon fill="#000000" stroke="#000000" stroke-width=".5" points="673.1932,-280.5691 677.759,-277.8829 672.5146,-277.1355 673.1932,-280.5691"/>
</g>
<!-- QuantumSymbol -->
<g id="node19" class="node">
<title>QuantumSymbol</title>
<g id="a_node19"><a xlink:href="../API/qalgebra.core.abstract_quantum_algebra.html#qalgebra.core.abstract_quantum_algebra.QuantumSymbol" xlink:title="Symbolic element of an algebra." target="_top">
<polygon fill="none" stroke="#000000" stroke-width=".5" points="393.5,-72 295.5,-72 295.5,-53 393.5,-53 393.5,-72"/>
<text text-anchor="middle" x="344.5" y="-60" font-family="Vera Sans, DejaVu Sans, Liberation Sans, Arial, Helvetica, sans" font-size="10.00" fill="#000000">QuantumSymbol</text>
</a>
</g>
</g>
<!-- QuantumSymbol&#45;&gt;KetSymbol -->
<g id="edge15" class="edge">
<title>QuantumSymbol&#45;&gt;KetSymbol</title>
<path fill="none" stroke="#000000" stroke-width=".5" d="M393.8701,-55.2417C466.0389,-44.6316 598.9392,-25.0928 665.2272,-15.3473"/>
<polygon fill="#000000" stroke="#000000" stroke-width=".5" points="665.5779,-17.0647 670.2701,-14.6059 665.0687,-13.6019 665.5779,-17.0647"/>
</g>
<!-- QuantumExpression&#45;&gt;State -->
<g id="edge39" class="edge">
<title>QuantumExpression&#45;&gt;State</title>
<path fill="none" stroke="#000000" stroke-width=".5" d="M175.2946,-182.8599C192.2003,-169.6742 224.8421,-146.5111 257,-136.5 343.6409,-109.5277 452.376,-112.2067 505.6115,-115.718"/>
<polygon fill="#000000" stroke="#000000" stroke-width=".5" points="505.7885,-117.4842 510.8968,-116.0815 506.0287,-113.9924 505.7885,-117.4842"/>
</g>
<!-- QuantumExpression&#45;&gt;Operator -->
<g id="edge19" class="edge">
<title>QuantumExpression&#45;&gt;Operator</title>
<path fill="none" stroke="#000000" stroke-width=".5" d="M210.112,-202.0284C241.1731,-208.3779 281.3352,-216.5879 309.6363,-222.3732"/>
<polygon fill="#000000" stroke="#000000" stroke-width=".5" points="309.5286,-224.1373 314.7778,-223.4242 310.2296,-220.7082 309.5286,-224.1373"/>
</g>
<!-- QuantumExpression&#45;&gt;QuantumSymbol -->
<g id="edge30" class="edge">
<title>QuantumExpression&#45;&gt;QuantumSymbol</title>
<path fill="none" stroke="#000000" stroke-width=".5" d="M171.6873,-182.8714C187.0061,-165.3063 221.659,-127.6505 257,-103.5 274.5981,-91.4742 296.2812,-81.2862 313.6596,-74.074"/>
<polygon fill="#000000" stroke="#000000" stroke-width=".5" points="314.4742,-75.6317 318.4401,-72.1197 313.1497,-72.392 314.4742,-75.6317"/>
</g>
<!-- QuantumExpression&#45;&gt;QuantumOperation -->
<g id="edge27" class="edge">
<title>QuantumExpression&#45;&gt;QuantumOperation</title>
<path fill="none" stroke="#000000" stroke-width=".5" d="M178.932,-202.1343C211.6586,-222.5659 288.004,-270.229 324.4473,-292.9809"/>
<polygon fill="#000000" stroke="#000000" stroke-width=".5" points="323.939,-294.7266 329.1071,-295.8901 325.7926,-291.7577 323.939,-294.7266"/>
</g>
<!-- Scalar -->
<g id="node26" class="node">
<title>Scalar</title>
<g id="a_node26"><a xlink:href="../API/qalgebra.core.scalar_algebra.html#qalgebra.core.scalar_algebra.Scalar" xlink:title="Base class for Scalars" target="_top">
<polygon fill="none" stroke="#000000" stroke-width=".5" points="371.5,-202 317.5,-202 317.5,-183 371.5,-183 371.5,-202"/>
<text text-anchor="middle" x="344.5" y="-190" font-family="Vera Sans, DejaVu Sans, Liberation Sans, Arial, Helvetica, sans" font-size="10.00" fill="#000000">Scalar</text>
</a>
</g>
</g>
<!-- QuantumExpression&#45;&gt;Scalar -->
<g id="edge32" class="edge">
<title>QuantumExpression&#45;&gt;Scalar</title>
<path fill="none" stroke="#000000" stroke-width=".5" d="M221.2672,-192.5C251.2096,-192.5 286.6769,-192.5 311.8558,-192.5"/>
<polygon fill="#000000" stroke="#000000" stroke-width=".5" points="312.0669,-194.2501 317.0669,-192.5 312.0668,-190.7501 312.0669,-194.2501"/>
</g>
<!-- QuantumExpression&#45;&gt;ScalarTimesQuantumExpression -->
<g id="edge36" class="edge">
<title>QuantumExpression&#45;&gt;ScalarTimesQuantumExpression</title>
<path fill="none" stroke="#000000" stroke-width=".5" d="M210.112,-182.9716C235.3488,-177.8127 266.5934,-171.4257 292.603,-166.1088"/>
<polygon fill="#000000" stroke="#000000" stroke-width=".5" points="293.1835,-167.7764 297.7317,-165.0604 292.4825,-164.3473 293.1835,-167.7764"/>
</g>
<!-- SingleQuantumOperation -->
<g id="node22" class="node">
<title>SingleQuantumOperation</title>
<g id="a_node22"><a xlink:href="../API/qalgebra.core.abstract_quantum_algebra.html#qalgebra.core.abstract_quantum_algebra.SingleQuantumOperation" xlink:title="Base class for operations on a single quantum expression" target="_top">
<polygon fill="none" stroke="#000000" stroke-width=".5" points="608,-429 468,-429 468,-410 608,-410 608,-429"/>
<text text-anchor="middle" x="538" y="-417" font-family="Vera Sans, DejaVu Sans, Liberation Sans, Arial, Helvetica, sans" font-size="10.00" fill="#000000">SingleQuantumOperation</text>
</a>
</g>
</g>
<!-- SingleQuantumOperation&#45;&gt;QuantumAdjoint -->
<g id="edge22" class="edge">
<title>SingleQuantumOperation&#45;&gt;QuantumAdjoint</title>
<path fill="none" stroke="#000000" stroke-width=".5" d="M582.3145,-409.9472C604.958,-405.0659 632.5736,-399.1129 655.8669,-394.0916"/>
<polygon fill="#000000" stroke="#000000" stroke-width=".5" points="656.2495,-395.7994 660.7684,-393.0349 655.5119,-392.378 656.2495,-395.7994"/>
</g>
<!-- SingleQuantumOperation&#45;&gt;QuantumIndexedSum -->
<g id="edge26" class="edge">
<title>SingleQuantumOperation&#45;&gt;QuantumIndexedSum</title>
<path fill="none" stroke="#000000" stroke-width=".5" d="M580.1412,-429.089C603.8662,-434.4875 633.5509,-441.2421 658.0229,-446.8106"/>
<polygon fill="#000000" stroke="#000000" stroke-width=".5" points="657.8982,-448.5769 663.1619,-447.9799 658.6748,-445.1641 657.8982,-448.5769"/>
</g>
<!-- QuantumDerivative -->
<g id="node23" class="node">
<title>QuantumDerivative</title>
<g id="a_node23"><a xlink:href="../API/qalgebra.core.abstract_quantum_algebra.html#qalgebra.core.abstract_quantum_algebra.QuantumDerivative" xlink:title="Symbolic partial derivative." target="_top">
<polygon fill="none" stroke="#000000" stroke-width=".5" points="761.5,-430 648.5,-430 648.5,-411 761.5,-411 761.5,-430"/>
<text text-anchor="middle" x="705" y="-418" font-family="Vera Sans, DejaVu Sans, Liberation Sans, Arial, Helvetica, sans" font-size="10.00" fill="#000000">QuantumDerivative</text>
</a>
</g>
</g>
<!-- SingleQuantumOperation&#45;&gt;QuantumDerivative -->
<g id="edge23" class="edge">
<title>SingleQuantumOperation&#45;&gt;QuantumDerivative</title>
<path fill="none" stroke="#000000" stroke-width=".5" d="M608.339,-419.9212C619.9342,-419.9906 631.8768,-420.0621 643.2418,-420.1302"/>
<polygon fill="#000000" stroke="#000000" stroke-width=".5" points="643.4091,-421.8811 648.4196,-420.1612 643.4302,-418.3812 643.4091,-421.8811"/>
</g>
<!-- QuantumDerivative&#45;&gt;StateDerivative -->
<g id="edge40" class="edge">
<title>QuantumDerivative&#45;&gt;StateDerivative</title>
<path fill="none" stroke="#000000" stroke-width=".5" d="M754.0611,-410.8947C758.4401,-408.6527 762.5235,-405.8938 766,-402.5 803.4139,-365.9756 781.4438,-338.5757 802,-290.5 814.5436,-261.1636 833.2275,-228.8561 844.156,-210.7852"/>
<polygon fill="#000000" stroke="#000000" stroke-width=".5" points="845.9153,-211.2608 847.0212,-206.0801 842.9259,-209.4404 845.9153,-211.2608"/>
</g>
<!-- QuantumOperation&#45;&gt;QuantumPlus -->
<g id="edge29" class="edge">
<title>QuantumOperation&#45;&gt;QuantumPlus</title>
<path fill="none" stroke="#000000" stroke-width=".5" d="M399.6904,-305.5C428.8198,-305.5 464.1549,-305.5 491.8182,-305.5"/>
<polygon fill="#000000" stroke="#000000" stroke-width=".5" points="491.8911,-307.2501 496.891,-305.5 491.891,-303.7501 491.8911,-307.2501"/>
</g>
<!-- QuantumOperation&#45;&gt;SingleQuantumOperation -->
<g id="edge38" class="edge">
<title>QuantumOperation&#45;&gt;SingleQuantumOperation</title>
<path fill="none" stroke="#000000" stroke-width=".5" d="M360.6649,-315.0235C395.6655,-335.644 478.4288,-384.4038 517.2365,-407.2672"/>
<polygon fill="#000000" stroke="#000000" stroke-width=".5" points="516.5488,-408.8932 521.745,-409.9234 518.3254,-405.8776 516.5488,-408.8932"/>
</g>
<!-- QuantumTimes -->
<g id="node25" class="node">
<title>QuantumTimes</title>
<g id="a_node25"><a xlink:href="../API/qalgebra.core.abstract_quantum_algebra.html#qalgebra.core.abstract_quantum_algebra.QuantumTimes" xlink:title="General implementation of product of quantum expressions" target="_top">
<polygon fill="none" stroke="#000000" stroke-width=".5" points="584,-278 492,-278 492,-259 584,-259 584,-278"/>
<text text-anchor="middle" x="538" y="-266" font-family="Vera Sans, DejaVu Sans, Liberation Sans, Arial, Helvetica, sans" font-size="10.00" fill="#000000">QuantumTimes</text>
</a>
</g>
</g>
<!-- QuantumOperation&#45;&gt;QuantumTimes -->
<g id="edge31" class="edge">
<title>QuantumOperation&#45;&gt;QuantumTimes</title>
<path fill="none" stroke="#000000" stroke-width=".5" d="M394.3311,-295.9716C422.6881,-290.5493 458.1405,-283.7703 486.7323,-278.3031"/>
<polygon fill="#000000" stroke="#000000" stroke-width=".5" points="487.4056,-279.9562 491.9879,-277.2982 486.7482,-276.5184 487.4056,-279.9562"/>
</g>
<!-- QuantumTimes&#45;&gt;TensorKet -->
<g id="edge43" class="edge">
<title>QuantumTimes&#45;&gt;TensorKet</title>
<path fill="none" stroke="#000000" stroke-width=".5" d="M584.0756,-259.3952C610.3946,-254.1945 642.9682,-247.7578 667.6747,-242.8757"/>
<polygon fill="#000000" stroke="#000000" stroke-width=".5" points="668.2565,-244.5446 672.8224,-241.8585 667.5779,-241.111 668.2565,-244.5446"/>
</g>
<!-- Scalar&#45;&gt;ScalarExpression -->
<g id="edge33" class="edge">
<title>Scalar&#45;&gt;ScalarExpression</title>
<path fill="none" stroke="#000000" stroke-width=".5" d="M371.8134,-192.7823C400.4099,-193.0779 446.1117,-193.5503 482.3578,-193.9249"/>
<polygon fill="#000000" stroke="#000000" stroke-width=".5" points="482.6159,-195.6776 487.6338,-193.9794 482.6521,-192.1777 482.6159,-195.6776"/>
</g>
<!-- ScalarTimesQuantumExpression&#45;&gt;ScalarTimesKet -->
<g id="edge35" class="edge">
<title>ScalarTimesQuantumExpression&#45;&gt;ScalarTimesKet</title>
<path fill="none" stroke="#000000" stroke-width=".5" d="M432.1289,-158.6997C483.5838,-161.4367 549.7469,-166.4404 608,-175.5 627.2273,-178.4902 648.2753,-183.2902 665.8363,-187.7335"/>
<polygon fill="#000000" stroke="#000000" stroke-width=".5" points="665.4148,-189.432 670.6925,-188.9755 666.282,-186.0411 665.4148,-189.432"/>
</g>
</g>
</svg>
