<?xml version="1.0" encoding="UTF-8" standalone="no"?>
<!DOCTYPE svg PUBLIC "-//W3C//DTD SVG 1.1//EN"
 "http://www.w3.org/Graphics/SVG/1.1/DTD/svg11.dtd">
<!-- Generated by graphviz version 2.40.1 (20161225.0304)
 -->
<!-- Title: inheritance2f32859345 Pages: 1 -->
<svg width="930pt" height="586pt"
 viewBox="0.00 0.00 930.00 586.00" xmlns="http://www.w3.org/2000/svg" xmlns:xlink="http://www.w3.org/1999/xlink">
<g id="graph0" class="graph" transform="scale(1 1) rotate(0) translate(4 582)">
<title>inheritance2f32859345</title>
<polygon fill="#ffffff" stroke="transparent" points="-4,4 -4,-582 926,-582 926,4 -4,4"/>
<!-- Adjoint -->
<g id="node1" class="node">
<title>Adjoint</title>
<g id="a_node1"><a xlink:href="../API/qalgebra.core.operator_algebra.html#qalgebra.core.operator_algebra.Adjoint" xlink:title="Symbolic Adjoint of an operator" target="_top">
<polygon fill="none" stroke="#000000" stroke-width=".5" points="889,-168 835,-168 835,-149 889,-149 889,-168"/>
<text text-anchor="middle" x="862" y="-156" font-family="Vera Sans, DejaVu Sans, Liberation Sans, Arial, Helvetica, sans" font-size="10.00" fill="#000000">Adjoint</text>
</a>
</g>
</g>
<!-- QuantumAdjoint -->
<g id="node2" class="node">
<title>QuantumAdjoint</title>
<g id="a_node2"><a xlink:href="../API/qalgebra.core.abstract_quantum_algebra.html#qalgebra.core.abstract_quantum_algebra.QuantumAdjoint" xlink:title="Base class for adjoints of quantum expressions" target="_top">
<polygon fill="none" stroke="#000000" stroke-width=".5" points="753,-504 657,-504 657,-485 753,-485 753,-504"/>
<text text-anchor="middle" x="705" y="-492" font-family="Vera Sans, DejaVu Sans, Liberation Sans, Arial, Helvetica, sans" font-size="10.00" fill="#000000">QuantumAdjoint</text>
</a>
</g>
</g>
<!-- QuantumAdjoint&#45;&gt;Adjoint -->
<g id="edge1" class="edge">
<title>QuantumAdjoint&#45;&gt;Adjoint</title>
<path fill="none" stroke="#000000" stroke-width=".5" d="M753.1145,-486.1702C757.9637,-483.7093 762.4126,-480.5501 766,-476.5 830.2397,-403.9733 769.0798,-352.6215 802,-261.5 814.3165,-227.4086 837.8671,-191.7502 851.5132,-172.6285"/>
<polygon fill="#000000" stroke="#000000" stroke-width=".5" points="853.2495,-173.213 854.7563,-168.1344 850.4113,-171.1649 853.2495,-173.213"/>
</g>
<!-- Operator -->
<g id="node3" class="node">
<title>Operator</title>
<g id="a_node3"><a xlink:href="../API/qalgebra.core.operator_algebra.html#qalgebra.core.operator_algebra.Operator" xlink:title="Base class for all quantum operators." target="_top">
<polygon fill="none" stroke="#000000" stroke-width=".5" points="567.5,-237 508.5,-237 508.5,-218 567.5,-218 567.5,-237"/>
<text text-anchor="middle" x="538" y="-225" font-family="Vera Sans, DejaVu Sans, Liberation Sans, Arial, Helvetica, sans" font-size="10.00" fill="#000000">Operator</text>
</a>
</g>
</g>
<!-- Operator&#45;&gt;Adjoint -->
<g id="edge2" class="edge">
<title>Operator&#45;&gt;Adjoint</title>
<path fill="none" stroke="#000000" stroke-width=".5" d="M567.6118,-221.1938C628.39,-208.2503 766.7873,-178.7768 829.7451,-165.3691"/>
<polygon fill="#000000" stroke="#000000" stroke-width=".5" points="830.3467,-167.0303 834.8725,-164.2772 829.6176,-163.6071 830.3467,-167.0303"/>
</g>
<!-- Commutator -->
<g id="node4" class="node">
<title>Commutator</title>
<g id="a_node4"><a xlink:href="../API/qalgebra.core.operator_algebra.html#qalgebra.core.operator_algebra.Commutator" xlink:title="Commutator of two operators" target="_top">
<polygon fill="none" stroke="#000000" stroke-width=".5" points="744,-93 666,-93 666,-74 744,-74 744,-93"/>
<text text-anchor="middle" x="705" y="-81" font-family="Vera Sans, DejaVu Sans, Liberation Sans, Arial, Helvetica, sans" font-size="10.00" fill="#000000">Commutator</text>
</a>
</g>
</g>
<!-- Operator&#45;&gt;Commutator -->
<g id="edge4" class="edge">
<title>Operator&#45;&gt;Commutator</title>
<path fill="none" stroke="#000000" stroke-width=".5" d="M565.1662,-217.9425C579.502,-211.7317 596.4618,-202.3701 608,-189.5 636.208,-158.0359 612.644,-129.8281 644,-101.5 648.8967,-97.0761 654.8318,-93.7368 661.0535,-91.2167"/>
<polygon fill="#000000" stroke="#000000" stroke-width=".5" points="661.7698,-92.8178 665.8547,-89.4449 660.558,-89.5342 661.7698,-92.8178"/>
</g>
<!-- LocalOperator -->
<g id="node9" class="node">
<title>LocalOperator</title>
<g id="a_node9"><a xlink:href="../API/qalgebra.core.operator_algebra.html#qalgebra.core.operator_algebra.LocalOperator" xlink:title="Base class for &quot;known&quot; operators on a :class:`.LocalSpace`." target="_top">
<polygon fill="none" stroke="#000000" stroke-width=".5" points="747.5,-130 662.5,-130 662.5,-111 747.5,-111 747.5,-130"/>
<text text-anchor="middle" x="705" y="-118" font-family="Vera Sans, DejaVu Sans, Liberation Sans, Arial, Helvetica, sans" font-size="10.00" fill="#000000">LocalOperator</text>
</a>
</g>
</g>
<!-- Operator&#45;&gt;LocalOperator -->
<g id="edge6" class="edge">
<title>Operator&#45;&gt;LocalOperator</title>
<path fill="none" stroke="#000000" stroke-width=".5" d="M560.8581,-217.9362C575.2756,-211.2443 593.7885,-201.3902 608,-189.5 627.6439,-173.0647 623.3869,-159.702 644,-144.5 650.8264,-139.4656 658.8483,-135.3283 666.7911,-131.9926"/>
<polygon fill="#000000" stroke="#000000" stroke-width=".5" points="667.7255,-133.5034 671.715,-130.0183 666.4229,-130.2548 667.7255,-133.5034"/>
</g>
<!-- NullSpaceProjector -->
<g id="node11" class="node">
<title>NullSpaceProjector</title>
<g id="a_node11"><a xlink:href="../API/qalgebra.core.operator_algebra.html#qalgebra.core.operator_algebra.NullSpaceProjector" xlink:title="Projection operator onto the nullspace of its operand." target="_top">
<polygon fill="none" stroke="#000000" stroke-width=".5" points="759.5,-430 650.5,-430 650.5,-411 759.5,-411 759.5,-430"/>
<text text-anchor="middle" x="705" y="-418" font-family="Vera Sans, DejaVu Sans, Liberation Sans, Arial, Helvetica, sans" font-size="10.00" fill="#000000">NullSpaceProjector</text>
</a>
</g>
</g>
<!-- Operator&#45;&gt;NullSpaceProjector -->
<g id="edge9" class="edge">
<title>Operator&#45;&gt;NullSpaceProjector</title>
<path fill="none" stroke="#000000" stroke-width=".5" d="M567.5314,-231.8679C581.6443,-235.4273 597.6708,-241.8672 608,-253.5 653.2347,-304.4432 597.0425,-353.1403 644,-402.5 646.0453,-404.65 648.3335,-406.5469 650.791,-408.2203"/>
<polygon fill="#000000" stroke="#000000" stroke-width=".5" points="650.1975,-409.9065 655.3814,-410.9971 652.0091,-406.9118 650.1975,-409.9065"/>
</g>
<!-- OperatorDerivative -->
<g id="node14" class="node">
<title>OperatorDerivative</title>
<g id="a_node14"><a xlink:href="../API/qalgebra.core.operator_algebra.html#qalgebra.core.operator_algebra.OperatorDerivative" xlink:title="Symbolic partial derivative of an operator" target="_top">
<polygon fill="none" stroke="#000000" stroke-width=".5" points="917,-290 807,-290 807,-271 917,-271 917,-290"/>
<text text-anchor="middle" x="862" y="-278" font-family="Vera Sans, DejaVu Sans, Liberation Sans, Arial, Helvetica, sans" font-size="10.00" fill="#000000">OperatorDerivative</text>
</a>
</g>
</g>
<!-- Operator&#45;&gt;OperatorDerivative -->
<g id="edge13" class="edge">
<title>Operator&#45;&gt;OperatorDerivative</title>
<path fill="none" stroke="#000000" stroke-width=".5" d="M567.5001,-220.9613C611.6521,-212.4207 697.0981,-200.7392 766,-220.5 797.6981,-229.5909 829.0828,-252.5381 846.9491,-267.274"/>
<polygon fill="#000000" stroke="#000000" stroke-width=".5" points="846.2359,-268.9596 851.1921,-270.8301 848.4841,-266.2771 846.2359,-268.9596"/>
</g>
<!-- OperatorIndexedSum -->
<g id="node16" class="node">
<title>OperatorIndexedSum</title>
<g id="a_node16"><a xlink:href="../API/qalgebra.core.operator_algebra.html#qalgebra.core.operator_algebra.OperatorIndexedSum" xlink:title="Indexed sum over operators" target="_top">
<polygon fill="none" stroke="#000000" stroke-width=".5" points="922,-411 802,-411 802,-392 922,-392 922,-411"/>
<text text-anchor="middle" x="862" y="-399" font-family="Vera Sans, DejaVu Sans, Liberation Sans, Arial, Helvetica, sans" font-size="10.00" fill="#000000">OperatorIndexedSum</text>
</a>
</g>
</g>
<!-- Operator&#45;&gt;OperatorIndexedSum -->
<g id="edge15" class="edge">
<title>Operator&#45;&gt;OperatorIndexedSum</title>
<path fill="none" stroke="#000000" stroke-width=".5" d="M567.547,-223.3138C613.6498,-218.3408 703.8462,-215.0109 766,-253.5 779.3942,-261.7944 833.2754,-352.3671 853.9073,-387.5963"/>
<polygon fill="#000000" stroke="#000000" stroke-width=".5" points="852.4441,-388.5611 856.4785,-391.9943 855.4657,-386.7946 852.4441,-388.5611"/>
</g>
<!-- OperatorPlus -->
<g id="node18" class="node">
<title>OperatorPlus</title>
<g id="a_node18"><a xlink:href="../API/qalgebra.core.operator_algebra.html#qalgebra.core.operator_algebra.OperatorPlus" xlink:title="Sum of Operators" target="_top">
<polygon fill="none" stroke="#000000" stroke-width=".5" points="745,-319 665,-319 665,-300 745,-300 745,-319"/>
<text text-anchor="middle" x="705" y="-307" font-family="Vera Sans, DejaVu Sans, Liberation Sans, Arial, Helvetica, sans" font-size="10.00" fill="#000000">OperatorPlus</text>
</a>
</g>
</g>
<!-- Operator&#45;&gt;OperatorPlus -->
<g id="edge17" class="edge">
<title>Operator&#45;&gt;OperatorPlus</title>
<path fill="none" stroke="#000000" stroke-width=".5" d="M567.6842,-235.2135C580.7079,-239.4101 595.7788,-245.4225 608,-253.5 627.4083,-266.3277 624.1626,-279.3463 644,-291.5 649.0018,-294.5644 654.5546,-297.1322 660.2143,-299.2774"/>
<polygon fill="#000000" stroke="#000000" stroke-width=".5" points="659.6865,-300.9471 664.9838,-300.9816 660.8643,-297.6512 659.6865,-300.9471"/>
</g>
<!-- OperatorPlusMinusCC -->
<g id="node20" class="node">
<title>OperatorPlusMinusCC</title>
<g id="a_node20"><a xlink:href="../API/qalgebra.core.operator_algebra.html#qalgebra.core.operator_algebra.OperatorPlusMinusCC" xlink:title="An operator plus or minus its complex conjugate." target="_top">
<polygon fill="none" stroke="#000000" stroke-width=".5" points="766,-393 644,-393 644,-374 766,-374 766,-393"/>
<text text-anchor="middle" x="705" y="-381" font-family="Vera Sans, DejaVu Sans, Liberation Sans, Arial, Helvetica, sans" font-size="10.00" fill="#000000">OperatorPlusMinusCC</text>
</a>
</g>
</g>
<!-- Operator&#45;&gt;OperatorPlusMinusCC -->
<g id="edge19" class="edge">
<title>Operator&#45;&gt;OperatorPlusMinusCC</title>
<path fill="none" stroke="#000000" stroke-width=".5" d="M567.5244,-232.2895C581.4622,-235.9486 597.3375,-242.3506 608,-253.5 644.1375,-291.2877 606.5861,-328.9756 644,-365.5 646.2814,-367.7272 648.8242,-369.6809 651.5405,-371.3946"/>
<polygon fill="#000000" stroke="#000000" stroke-width=".5" points="650.7273,-372.9453 655.9389,-373.8947 652.4569,-369.9025 650.7273,-372.9453"/>
</g>
<!-- OperatorSymbol -->
<g id="node21" class="node">
<title>OperatorSymbol</title>
<g id="a_node21"><a xlink:href="../API/qalgebra.core.operator_algebra.html#qalgebra.core.operator_algebra.OperatorSymbol" xlink:title="Symbolic operator" target="_top">
<polygon fill="none" stroke="#000000" stroke-width=".5" points="753,-19 657,-19 657,0 753,0 753,-19"/>
<text text-anchor="middle" x="705" y="-7" font-family="Vera Sans, DejaVu Sans, Liberation Sans, Arial, Helvetica, sans" font-size="10.00" fill="#000000">OperatorSymbol</text>
</a>
</g>
</g>
<!-- Operator&#45;&gt;OperatorSymbol -->
<g id="edge21" class="edge">
<title>Operator&#45;&gt;OperatorSymbol</title>
<path fill="none" stroke="#000000" stroke-width=".5" d="M540.2517,-217.8675C548.2793,-185.6935 578.5797,-80.9666 644,-27.5 646.8801,-25.1461 650.0586,-23.1 653.4069,-21.3215"/>
<polygon fill="#000000" stroke="#000000" stroke-width=".5" points="654.3333,-22.8172 658.0661,-19.0583 652.804,-19.6689 654.3333,-22.8172"/>
</g>
<!-- OperatorTimes -->
<g id="node23" class="node">
<title>OperatorTimes</title>
<g id="a_node23"><a xlink:href="../API/qalgebra.core.operator_algebra.html#qalgebra.core.operator_algebra.OperatorTimes" xlink:title="Product of operators" target="_top">
<polygon fill="none" stroke="#000000" stroke-width=".5" points="749.5,-282 660.5,-282 660.5,-263 749.5,-263 749.5,-282"/>
<text text-anchor="middle" x="705" y="-270" font-family="Vera Sans, DejaVu Sans, Liberation Sans, Arial, Helvetica, sans" font-size="10.00" fill="#000000">OperatorTimes</text>
</a>
</g>
</g>
<!-- Operator&#45;&gt;OperatorTimes -->
<g id="edge23" class="edge">
<title>Operator&#45;&gt;OperatorTimes</title>
<path fill="none" stroke="#000000" stroke-width=".5" d="M567.8563,-235.5451C594.8174,-242.8101 634.7181,-253.5618 664.5392,-261.5974"/>
<polygon fill="#000000" stroke="#000000" stroke-width=".5" points="664.326,-263.3523 669.6091,-262.9635 665.2367,-259.9728 664.326,-263.3523"/>
</g>
<!-- OperatorTrace -->
<g id="node25" class="node">
<title>OperatorTrace</title>
<g id="a_node25"><a xlink:href="../API/qalgebra.core.operator_algebra.html#qalgebra.core.operator_algebra.OperatorTrace" xlink:title="(Partial) trace of an operator" target="_top">
<polygon fill="none" stroke="#000000" stroke-width=".5" points="747.5,-356 662.5,-356 662.5,-337 747.5,-337 747.5,-356"/>
<text text-anchor="middle" x="705" y="-344" font-family="Vera Sans, DejaVu Sans, Liberation Sans, Arial, Helvetica, sans" font-size="10.00" fill="#000000">OperatorTrace</text>
</a>
</g>
</g>
<!-- Operator&#45;&gt;OperatorTrace -->
<g id="edge25" class="edge">
<title>Operator&#45;&gt;OperatorTrace</title>
<path fill="none" stroke="#000000" stroke-width=".5" d="M567.589,-233.1314C581.2089,-236.9694 596.7934,-243.2786 608,-253.5 635.318,-278.4166 615.8424,-304.5363 644,-328.5 647.9731,-331.8814 652.5576,-334.6277 657.3925,-336.8583"/>
<polygon fill="#000000" stroke="#000000" stroke-width=".5" points="657.0101,-338.5959 662.2975,-338.9213 658.3671,-335.3696 657.0101,-338.5959"/>
</g>
<!-- PseudoInverse -->
<g id="node26" class="node">
<title>PseudoInverse</title>
<g id="a_node26"><a xlink:href="../API/qalgebra.core.operator_algebra.html#qalgebra.core.operator_algebra.PseudoInverse" xlink:title="Unevaluated pseudo&#45;inverse $Op{X}^+$ of an operator $Op{X}$." target="_top">
<polygon fill="none" stroke="#000000" stroke-width=".5" points="749,-467 661,-467 661,-448 749,-448 749,-467"/>
<text text-anchor="middle" x="705" y="-455" font-family="Vera Sans, DejaVu Sans, Liberation Sans, Arial, Helvetica, sans" font-size="10.00" fill="#000000">PseudoInverse</text>
</a>
</g>
</g>
<!-- Operator&#45;&gt;PseudoInverse -->
<g id="edge27" class="edge">
<title>Operator&#45;&gt;PseudoInverse</title>
<path fill="none" stroke="#000000" stroke-width=".5" d="M567.7597,-231.6699C581.9308,-235.1788 597.9403,-241.6334 608,-253.5 662.4477,-317.7279 587.3787,-377.1798 644,-439.5 647.4527,-443.3002 651.6636,-446.3137 656.2435,-448.7009"/>
<polygon fill="#000000" stroke="#000000" stroke-width=".5" points="655.6606,-450.3599 660.9319,-450.8854 657.1388,-447.1874 655.6606,-450.3599"/>
</g>
<!-- ScalarTimesOperator -->
<g id="node27" class="node">
<title>ScalarTimesOperator</title>
<g id="a_node27"><a xlink:href="../API/qalgebra.core.operator_algebra.html#qalgebra.core.operator_algebra.ScalarTimesOperator" xlink:title="Product of a :class:`.Scalar` coefficient and an :class:`.Operator`." target="_top">
<polygon fill="none" stroke="#000000" stroke-width=".5" points="764.5,-56 645.5,-56 645.5,-37 764.5,-37 764.5,-56"/>
<text text-anchor="middle" x="705" y="-44" font-family="Vera Sans, DejaVu Sans, Liberation Sans, Arial, Helvetica, sans" font-size="10.00" fill="#000000">ScalarTimesOperator</text>
</a>
</g>
</g>
<!-- Operator&#45;&gt;ScalarTimesOperator -->
<g id="edge38" class="edge">
<title>Operator&#45;&gt;ScalarTimesOperator</title>
<path fill="none" stroke="#000000" stroke-width=".5" d="M544.7084,-217.8459C557.3474,-199.589 585.4448,-158.6779 608,-123.5 624.5803,-97.6408 619.6378,-83.2107 644,-64.5 647.0704,-62.1418 650.4441,-60.092 653.9803,-58.3102"/>
<polygon fill="#000000" stroke="#000000" stroke-width=".5" points="655.0843,-59.728 658.89,-56.0429 653.6169,-56.5505 655.0843,-59.728"/>
</g>
<!-- QuantumOperation -->
<g id="node5" class="node">
<title>QuantumOperation</title>
<g id="a_node5"><a xlink:href="../API/qalgebra.core.abstract_quantum_algebra.html#qalgebra.core.abstract_quantum_algebra.QuantumOperation" xlink:title="Base class for operations on quantum expression" target="_top">
<polygon fill="none" stroke="#000000" stroke-width=".5" points="399.5,-297 289.5,-297 289.5,-278 399.5,-278 399.5,-297"/>
<text text-anchor="middle" x="344.5" y="-285" font-family="Vera Sans, DejaVu Sans, Liberation Sans, Arial, Helvetica, sans" font-size="10.00" fill="#000000">QuantumOperation</text>
</a>
</g>
</g>
<!-- QuantumOperation&#45;&gt;Commutator -->
<g id="edge3" class="edge">
<title>QuantumOperation&#45;&gt;Commutator</title>
<path fill="none" stroke="#000000" stroke-width=".5" d="M399.6612,-282.6257C411.0922,-279.738 422.5255,-275.294 432,-268.5 457.2723,-250.3776 446.0677,-230.5474 468,-208.5 519.3372,-156.8933 545.8325,-161.3678 608,-123.5 624.0141,-113.7454 626.8613,-109.1073 644,-101.5 649.6769,-98.9802 655.8041,-96.6987 661.9097,-94.6725"/>
<polygon fill="#000000" stroke="#000000" stroke-width=".5" points="662.7972,-96.2255 667.0229,-93.0308 661.7273,-92.8931 662.7972,-96.2255"/>
</g>
<!-- SingleQuantumOperation -->
<g id="node12" class="node">
<title>SingleQuantumOperation</title>
<g id="a_node12"><a xlink:href="../API/qalgebra.core.abstract_quantum_algebra.html#qalgebra.core.abstract_quantum_algebra.SingleQuantumOperation" xlink:title="Base class for operations on a single quantum expression" target="_top">
<polygon fill="none" stroke="#000000" stroke-width=".5" points="608,-448 468,-448 468,-429 608,-429 608,-448"/>
<text text-anchor="middle" x="538" y="-436" font-family="Vera Sans, DejaVu Sans, Liberation Sans, Arial, Helvetica, sans" font-size="10.00" fill="#000000">SingleQuantumOperation</text>
</a>
</g>
</g>
<!-- QuantumOperation&#45;&gt;SingleQuantumOperation -->
<g id="edge42" class="edge">
<title>QuantumOperation&#45;&gt;SingleQuantumOperation</title>
<path fill="none" stroke="#000000" stroke-width=".5" d="M356.8987,-297.1754C390.4033,-323.3212 482.7996,-395.4237 521.0638,-425.2836"/>
<polygon fill="#000000" stroke="#000000" stroke-width=".5" points="520.4357,-427.0133 525.4542,-428.7097 522.589,-424.254 520.4357,-427.0133"/>
</g>
<!-- QuantumPlus -->
<g id="node19" class="node">
<title>QuantumPlus</title>
<g id="a_node19"><a xlink:href="../API/qalgebra.core.abstract_quantum_algebra.html#qalgebra.core.abstract_quantum_algebra.QuantumPlus" xlink:title="General implementation of addition of quantum expressions" target="_top">
<polygon fill="none" stroke="#000000" stroke-width=".5" points="579,-319 497,-319 497,-300 579,-300 579,-319"/>
<text text-anchor="middle" x="538" y="-307" font-family="Vera Sans, DejaVu Sans, Liberation Sans, Arial, Helvetica, sans" font-size="10.00" fill="#000000">QuantumPlus</text>
</a>
</g>
</g>
<!-- QuantumOperation&#45;&gt;QuantumPlus -->
<g id="edge35" class="edge">
<title>QuantumOperation&#45;&gt;QuantumPlus</title>
<path fill="none" stroke="#000000" stroke-width=".5" d="M399.6904,-293.7749C428.8198,-297.0868 464.1549,-301.1042 491.8182,-304.2494"/>
<polygon fill="#000000" stroke="#000000" stroke-width=".5" points="491.7253,-306 496.891,-304.8261 492.1208,-302.5224 491.7253,-306"/>
</g>
<!-- QuantumTimes -->
<g id="node24" class="node">
<title>QuantumTimes</title>
<g id="a_node24"><a xlink:href="../API/qalgebra.core.abstract_quantum_algebra.html#qalgebra.core.abstract_quantum_algebra.QuantumTimes" xlink:title="General implementation of product of quantum expressions" target="_top">
<polygon fill="none" stroke="#000000" stroke-width=".5" points="584,-282 492,-282 492,-263 584,-263 584,-282"/>
<text text-anchor="middle" x="538" y="-270" font-family="Vera Sans, DejaVu Sans, Liberation Sans, Arial, Helvetica, sans" font-size="10.00" fill="#000000">QuantumTimes</text>
</a>
</g>
</g>
<!-- QuantumOperation&#45;&gt;QuantumTimes -->
<g id="edge37" class="edge">
<title>QuantumOperation&#45;&gt;QuantumTimes</title>
<path fill="none" stroke="#000000" stroke-width=".5" d="M399.6904,-283.2217C427.0234,-281.1028 459.8202,-278.5604 486.6158,-276.4833"/>
<polygon fill="#000000" stroke="#000000" stroke-width=".5" points="487.0418,-278.2056 491.8915,-276.0743 486.7712,-274.7161 487.0418,-278.2056"/>
</g>
<!-- Expression -->
<g id="node6" class="node">
<title>Expression</title>
<g id="a_node6"><a xlink:href="../API/qalgebra.core.abstract_algebra.html#qalgebra.core.abstract_algebra.Expression" xlink:title="Base class for all QAlgebra Expressions." target="_top">
<polygon fill="none" stroke="#000000" stroke-width=".5" points="70,-278 0,-278 0,-259 70,-259 70,-278"/>
<text text-anchor="middle" x="35" y="-266" font-family="Vera Sans, DejaVu Sans, Liberation Sans, Arial, Helvetica, sans" font-size="10.00" fill="#000000">Expression</text>
</a>
</g>
</g>
<!-- Operation -->
<g id="node8" class="node">
<title>Operation</title>
<g id="a_node8"><a xlink:href="../API/qalgebra.core.abstract_algebra.html#qalgebra.core.abstract_algebra.Operation" xlink:title="Base class for &quot;operations&quot;" target="_top">
<polygon fill="none" stroke="#000000" stroke-width=".5" points="196,-297 131,-297 131,-278 196,-278 196,-297"/>
<text text-anchor="middle" x="163.5" y="-285" font-family="Vera Sans, DejaVu Sans, Liberation Sans, Arial, Helvetica, sans" font-size="10.00" fill="#000000">Operation</text>
</a>
</g>
</g>
<!-- Expression&#45;&gt;Operation -->
<g id="edge10" class="edge">
<title>Expression&#45;&gt;Operation</title>
<path fill="none" stroke="#000000" stroke-width=".5" d="M70.1132,-273.6918C87.2183,-276.221 107.819,-279.267 125.3147,-281.8539"/>
<polygon fill="#000000" stroke="#000000" stroke-width=".5" points="125.4352,-283.6407 130.6374,-282.6409 125.9472,-280.1783 125.4352,-283.6407"/>
</g>
<!-- QuantumExpression -->
<g id="node13" class="node">
<title>QuantumExpression</title>
<g id="a_node13"><a xlink:href="../API/qalgebra.core.abstract_quantum_algebra.html#qalgebra.core.abstract_quantum_algebra.QuantumExpression" xlink:title="Base class for expressions associated with a Hilbert space" target="_top">
<polygon fill="none" stroke="#000000" stroke-width=".5" points="221,-260 106,-260 106,-241 221,-241 221,-260"/>
<text text-anchor="middle" x="163.5" y="-248" font-family="Vera Sans, DejaVu Sans, Liberation Sans, Arial, Helvetica, sans" font-size="10.00" fill="#000000">QuantumExpression</text>
</a>
</g>
</g>
<!-- Expression&#45;&gt;QuantumExpression -->
<g id="edge30" class="edge">
<title>Expression&#45;&gt;QuantumExpression</title>
<path fill="none" stroke="#000000" stroke-width=".5" d="M70.1132,-263.5814C79.5644,-262.2575 90.0829,-260.7841 100.555,-259.3172"/>
<polygon fill="#000000" stroke="#000000" stroke-width=".5" points="100.9785,-261.0251 105.6873,-258.5983 100.4929,-257.5589 100.9785,-261.0251"/>
</g>
<!-- IndexedSum -->
<g id="node7" class="node">
<title>IndexedSum</title>
<g id="a_node7"><a xlink:href="../API/qalgebra.core.indexed_operations.html#qalgebra.core.indexed_operations.IndexedSum" xlink:title="Base class for indexed sums." target="_top">
<polygon fill="none" stroke="#000000" stroke-width=".5" points="383,-436 306,-436 306,-417 383,-417 383,-436"/>
<text text-anchor="middle" x="344.5" y="-424" font-family="Vera Sans, DejaVu Sans, Liberation Sans, Arial, Helvetica, sans" font-size="10.00" fill="#000000">IndexedSum</text>
</a>
</g>
</g>
<!-- QuantumIndexedSum -->
<g id="node17" class="node">
<title>QuantumIndexedSum</title>
<g id="a_node17"><a xlink:href="../API/qalgebra.core.abstract_quantum_algebra.html#qalgebra.core.abstract_quantum_algebra.QuantumIndexedSum" xlink:title="Base class for indexed sums of quantum expressions." target="_top">
<polygon fill="none" stroke="#000000" stroke-width=".5" points="766,-578 644,-578 644,-559 766,-559 766,-578"/>
<text text-anchor="middle" x="705" y="-566" font-family="Vera Sans, DejaVu Sans, Liberation Sans, Arial, Helvetica, sans" font-size="10.00" fill="#000000">QuantumIndexedSum</text>
</a>
</g>
</g>
<!-- IndexedSum&#45;&gt;QuantumIndexedSum -->
<g id="edge31" class="edge">
<title>IndexedSum&#45;&gt;QuantumIndexedSum</title>
<path fill="none" stroke="#000000" stroke-width=".5" d="M365.626,-436.1554C414.1564,-458.1339 537.6143,-512.8989 644,-550.5 650.8515,-552.9216 658.2117,-555.2877 665.3663,-557.4669"/>
<polygon fill="#000000" stroke="#000000" stroke-width=".5" points="664.9856,-559.1798 670.2778,-558.944 665.9937,-555.8281 664.9856,-559.1798"/>
</g>
<!-- Operation&#45;&gt;QuantumOperation -->
<g id="edge34" class="edge">
<title>Operation&#45;&gt;QuantumOperation</title>
<path fill="none" stroke="#000000" stroke-width=".5" d="M196.2777,-287.5C220.7385,-287.5 254.8549,-287.5 284.1911,-287.5"/>
<polygon fill="#000000" stroke="#000000" stroke-width=".5" points="284.2317,-289.2501 289.2317,-287.5 284.2317,-285.7501 284.2317,-289.2501"/>
</g>
<!-- Operation&#45;&gt;IndexedSum -->
<g id="edge5" class="edge">
<title>Operation&#45;&gt;IndexedSum</title>
<path fill="none" stroke="#000000" stroke-width=".5" d="M175.9409,-297.054C207.7151,-321.4552 291.8778,-386.0885 327.833,-413.7005"/>
<polygon fill="#000000" stroke="#000000" stroke-width=".5" points="326.9406,-415.2217 331.9721,-416.8791 329.0724,-412.4457 326.9406,-415.2217"/>
</g>
<!-- ScalarTimesQuantumExpression -->
<g id="node28" class="node">
<title>ScalarTimesQuantumExpression</title>
<g id="a_node28"><a xlink:href="../API/qalgebra.core.abstract_quantum_algebra.html#qalgebra.core.abstract_quantum_algebra.ScalarTimesQuantumExpression" xlink:title="Product of a :class:`.Scalar` and a :class:`.QuantumExpression`" target="_top">
<polygon fill="none" stroke="#000000" stroke-width=".5" points="432,-260 257,-260 257,-241 432,-241 432,-260"/>
<text text-anchor="middle" x="344.5" y="-248" font-family="Vera Sans, DejaVu Sans, Liberation Sans, Arial, Helvetica, sans" font-size="10.00" fill="#000000">ScalarTimesQuantumExpression</text>
</a>
</g>
</g>
<!-- Operation&#45;&gt;ScalarTimesQuantumExpression -->
<g id="edge41" class="edge">
<title>Operation&#45;&gt;ScalarTimesQuantumExpression</title>
<path fill="none" stroke="#000000" stroke-width=".5" d="M196.2777,-280.7996C223.2571,-275.2845 261.9828,-267.3682 293.085,-261.0102"/>
<polygon fill="#000000" stroke="#000000" stroke-width=".5" points="293.4601,-262.7198 298.0083,-260.0038 292.7591,-259.2908 293.4601,-262.7198"/>
</g>
<!-- LocalSigma -->
<g id="node10" class="node">
<title>LocalSigma</title>
<g id="a_node10"><a xlink:href="../API/qalgebra.core.operator_algebra.html#qalgebra.core.operator_algebra.LocalSigma" xlink:title="Level flip operator between two levels of a :class:`.LocalSpace`." target="_top">
<polygon fill="none" stroke="#000000" stroke-width=".5" points="898.5,-130 825.5,-130 825.5,-111 898.5,-111 898.5,-130"/>
<text text-anchor="middle" x="862" y="-118" font-family="Vera Sans, DejaVu Sans, Liberation Sans, Arial, Helvetica, sans" font-size="10.00" fill="#000000">LocalSigma</text>
</a>
</g>
</g>
<!-- LocalOperator&#45;&gt;LocalSigma -->
<g id="edge7" class="edge">
<title>LocalOperator&#45;&gt;LocalSigma</title>
<path fill="none" stroke="#000000" stroke-width=".5" d="M747.9009,-120.5C770.3429,-120.5 797.7096,-120.5 820.0153,-120.5"/>
<polygon fill="#000000" stroke="#000000" stroke-width=".5" points="820.2772,-122.2501 825.2772,-120.5 820.2772,-118.7501 820.2772,-122.2501"/>
</g>
<!-- SingleQuantumOperation&#45;&gt;QuantumAdjoint -->
<g id="edge28" class="edge">
<title>SingleQuantumOperation&#45;&gt;QuantumAdjoint</title>
<path fill="none" stroke="#000000" stroke-width=".5" d="M563.5617,-448.128C584.944,-456.0697 616.3096,-467.4594 644,-476.5 651.1638,-478.8389 658.8435,-481.2101 666.2549,-483.4301"/>
<polygon fill="#000000" stroke="#000000" stroke-width=".5" points="666.0419,-485.1924 671.3333,-484.9406 667.0397,-481.8377 666.0419,-485.1924"/>
</g>
<!-- SingleQuantumOperation&#45;&gt;NullSpaceProjector -->
<g id="edge8" class="edge">
<title>SingleQuantumOperation&#45;&gt;NullSpaceProjector</title>
<path fill="none" stroke="#000000" stroke-width=".5" d="M608.339,-430.9185C620.6627,-429.5902 633.3787,-428.2197 645.3767,-426.9265"/>
<polygon fill="#000000" stroke="#000000" stroke-width=".5" points="645.6878,-428.6532 650.4714,-426.3773 645.3127,-425.1733 645.6878,-428.6532"/>
</g>
<!-- QuantumDerivative -->
<g id="node15" class="node">
<title>QuantumDerivative</title>
<g id="a_node15"><a xlink:href="../API/qalgebra.core.abstract_quantum_algebra.html#qalgebra.core.abstract_quantum_algebra.QuantumDerivative" xlink:title="Symbolic partial derivative." target="_top">
<polygon fill="none" stroke="#000000" stroke-width=".5" points="761.5,-541 648.5,-541 648.5,-522 761.5,-522 761.5,-541"/>
<text text-anchor="middle" x="705" y="-529" font-family="Vera Sans, DejaVu Sans, Liberation Sans, Arial, Helvetica, sans" font-size="10.00" fill="#000000">QuantumDerivative</text>
</a>
</g>
</g>
<!-- SingleQuantumOperation&#45;&gt;QuantumDerivative -->
<g id="edge29" class="edge">
<title>SingleQuantumOperation&#45;&gt;QuantumDerivative</title>
<path fill="none" stroke="#000000" stroke-width=".5" d="M548.9787,-448.1537C567.4089,-463.9059 606.2684,-495.2104 644,-513.5 649.2785,-516.0586 654.9931,-518.3305 660.7356,-520.3244"/>
<polygon fill="#000000" stroke="#000000" stroke-width=".5" points="660.2599,-522.0105 665.5568,-521.9341 661.3684,-518.6907 660.2599,-522.0105"/>
</g>
<!-- SingleQuantumOperation&#45;&gt;QuantumIndexedSum -->
<g id="edge32" class="edge">
<title>SingleQuantumOperation&#45;&gt;QuantumIndexedSum</title>
<path fill="none" stroke="#000000" stroke-width=".5" d="M546.5304,-448.0686C569.5726,-473.8341 632.131,-543.2243 644,-550.5 648.1656,-553.0535 652.7137,-555.2621 657.3875,-557.1686"/>
<polygon fill="#000000" stroke="#000000" stroke-width=".5" points="656.7988,-558.8171 662.0938,-558.9761 658.0537,-555.5498 656.7988,-558.8171"/>
</g>
<!-- SingleQuantumOperation&#45;&gt;OperatorPlusMinusCC -->
<g id="edge18" class="edge">
<title>SingleQuantumOperation&#45;&gt;OperatorPlusMinusCC</title>
<path fill="none" stroke="#000000" stroke-width=".5" d="M565.3896,-428.9843C586.7553,-421.6132 617.2028,-411.2222 644,-402.5 652.0358,-399.8844 660.6914,-397.1428 668.8861,-394.5819"/>
<polygon fill="#000000" stroke="#000000" stroke-width=".5" points="669.6663,-396.1718 673.9192,-393.0135 668.625,-392.8303 669.6663,-396.1718"/>
</g>
<!-- SingleQuantumOperation&#45;&gt;OperatorTrace -->
<g id="edge24" class="edge">
<title>SingleQuantumOperation&#45;&gt;OperatorTrace</title>
<path fill="none" stroke="#000000" stroke-width=".5" d="M549.3589,-428.94C568.0219,-413.6484 606.8231,-383.5741 644,-365.5 650.0415,-362.5628 656.6385,-359.952 663.1899,-357.6775"/>
<polygon fill="#000000" stroke="#000000" stroke-width=".5" points="663.9969,-359.2527 668.1811,-356.0039 662.8841,-355.9343 663.9969,-359.2527"/>
</g>
<!-- SingleQuantumOperation&#45;&gt;PseudoInverse -->
<g id="edge26" class="edge">
<title>SingleQuantumOperation&#45;&gt;PseudoInverse</title>
<path fill="none" stroke="#000000" stroke-width=".5" d="M608.339,-446.5026C624.3565,-448.325 641.0367,-450.2227 655.9416,-451.9185"/>
<polygon fill="#000000" stroke="#000000" stroke-width=".5" points="655.759,-453.6589 660.9248,-452.4855 656.1547,-450.1814 655.759,-453.6589"/>
</g>
<!-- QuantumExpression&#45;&gt;Operator -->
<g id="edge11" class="edge">
<title>QuantumExpression&#45;&gt;Operator</title>
<path fill="none" stroke="#000000" stroke-width=".5" d="M202.3693,-240.9144C219.0735,-237.2349 238.8841,-233.4524 257,-231.5 345.1685,-221.998 449.7879,-223.9723 503.0536,-225.9166"/>
<polygon fill="#000000" stroke="#000000" stroke-width=".5" points="503.2947,-227.6769 508.3571,-226.1164 503.4265,-224.1794 503.2947,-227.6769"/>
</g>
<!-- QuantumExpression&#45;&gt;QuantumOperation -->
<g id="edge33" class="edge">
<title>QuantumExpression&#45;&gt;QuantumOperation</title>
<path fill="none" stroke="#000000" stroke-width=".5" d="M210.112,-260.0284C235.3488,-265.1873 266.5934,-271.5743 292.603,-276.8912"/>
<polygon fill="#000000" stroke="#000000" stroke-width=".5" points="292.4825,-278.6527 297.7317,-277.9396 293.1835,-275.2236 292.4825,-278.6527"/>
</g>
<!-- QuantumSymbol -->
<g id="node22" class="node">
<title>QuantumSymbol</title>
<g id="a_node22"><a xlink:href="../API/qalgebra.core.abstract_quantum_algebra.html#qalgebra.core.abstract_quantum_algebra.QuantumSymbol" xlink:title="Symbolic element of an algebra." target="_top">
<polygon fill="none" stroke="#000000" stroke-width=".5" points="393.5,-116 295.5,-116 295.5,-97 393.5,-97 393.5,-116"/>
<text text-anchor="middle" x="344.5" y="-104" font-family="Vera Sans, DejaVu Sans, Liberation Sans, Arial, Helvetica, sans" font-size="10.00" fill="#000000">QuantumSymbol</text>
</a>
</g>
</g>
<!-- QuantumExpression&#45;&gt;QuantumSymbol -->
<g id="edge36" class="edge">
<title>QuantumExpression&#45;&gt;QuantumSymbol</title>
<path fill="none" stroke="#000000" stroke-width=".5" d="M175.657,-240.8282C207.3422,-215.62 292.475,-147.89 328.2808,-119.4037"/>
<polygon fill="#000000" stroke="#000000" stroke-width=".5" points="329.5727,-120.6122 332.3959,-116.1297 327.3936,-117.8732 329.5727,-120.6122"/>
</g>
<!-- QuantumExpression&#45;&gt;ScalarTimesQuantumExpression -->
<g id="edge40" class="edge">
<title>QuantumExpression&#45;&gt;ScalarTimesQuantumExpression</title>
<path fill="none" stroke="#000000" stroke-width=".5" d="M221.2672,-250.5C231.0473,-250.5 241.4168,-250.5 251.8247,-250.5"/>
<polygon fill="#000000" stroke="#000000" stroke-width=".5" points="251.9347,-252.2501 256.9347,-250.5 251.9347,-248.7501 251.9347,-252.2501"/>
</g>
<!-- QuantumDerivative&#45;&gt;OperatorDerivative -->
<g id="edge12" class="edge">
<title>QuantumDerivative&#45;&gt;OperatorDerivative</title>
<path fill="none" stroke="#000000" stroke-width=".5" d="M754.5013,-521.8837C758.7393,-519.6413 762.671,-516.8854 766,-513.5 808.0354,-470.7531 778.7191,-438.7474 802,-383.5 816.1501,-349.9208 839.2197,-313.8066 852.245,-294.5302"/>
<polygon fill="#000000" stroke="#000000" stroke-width=".5" points="853.9597,-295.1215 855.3286,-290.004 851.0671,-293.1509 853.9597,-295.1215"/>
</g>
<!-- QuantumIndexedSum&#45;&gt;OperatorIndexedSum -->
<g id="edge14" class="edge">
<title>QuantumIndexedSum&#45;&gt;OperatorIndexedSum</title>
<path fill="none" stroke="#000000" stroke-width=".5" d="M750.7161,-558.9821C756.158,-556.7272 761.4039,-553.9413 766,-550.5 814.4342,-514.2356 845.0999,-445.7792 856.7193,-415.9752"/>
<polygon fill="#000000" stroke="#000000" stroke-width=".5" points="858.3923,-416.4997 858.5444,-411.2045 855.1234,-415.2491 858.3923,-416.4997"/>
</g>
<!-- QuantumPlus&#45;&gt;OperatorPlus -->
<g id="edge16" class="edge">
<title>QuantumPlus&#45;&gt;OperatorPlus</title>
<path fill="none" stroke="#000000" stroke-width=".5" d="M579.2809,-309.5C603.6281,-309.5 634.4741,-309.5 659.5185,-309.5"/>
<polygon fill="#000000" stroke="#000000" stroke-width=".5" points="659.7702,-311.2501 664.7702,-309.5 659.7702,-307.7501 659.7702,-311.2501"/>
</g>
<!-- QuantumSymbol&#45;&gt;OperatorSymbol -->
<g id="edge20" class="edge">
<title>QuantumSymbol&#45;&gt;OperatorSymbol</title>
<path fill="none" stroke="#000000" stroke-width=".5" d="M380.0527,-96.9338C447.4461,-78.8002 593.3866,-39.5319 664.4617,-20.4077"/>
<polygon fill="#000000" stroke="#000000" stroke-width=".5" points="665.074,-22.0552 669.4476,-19.0661 664.1646,-18.6754 665.074,-22.0552"/>
</g>
<!-- QuantumTimes&#45;&gt;OperatorTimes -->
<g id="edge22" class="edge">
<title>QuantumTimes&#45;&gt;OperatorTimes</title>
<path fill="none" stroke="#000000" stroke-width=".5" d="M584.0756,-272.5C606.1557,-272.5 632.6379,-272.5 655.1839,-272.5"/>
<polygon fill="#000000" stroke="#000000" stroke-width=".5" points="655.2282,-274.2501 660.2282,-272.5 655.2282,-270.7501 655.2282,-274.2501"/>
</g>
<!-- ScalarTimesQuantumExpression&#45;&gt;ScalarTimesOperator -->
<g id="edge39" class="edge">
<title>ScalarTimesQuantumExpression&#45;&gt;ScalarTimesOperator</title>
<path fill="none" stroke="#000000" stroke-width=".5" d="M351.3929,-240.6974C368.4604,-217.12 415.1509,-156.7378 468,-123.5 500.9493,-102.7776 604.6717,-73.1437 663.3958,-57.3642"/>
<polygon fill="#000000" stroke="#000000" stroke-width=".5" points="663.8623,-59.0511 668.2392,-56.0668 662.9566,-55.6703 663.8623,-59.0511"/>
</g>
</g>
</svg>
