<?xml version="1.0" encoding="UTF-8" standalone="no"?>
<!DOCTYPE svg PUBLIC "-//W3C//DTD SVG 1.1//EN"
 "http://www.w3.org/Graphics/SVG/1.1/DTD/svg11.dtd">
<!-- Generated by graphviz version 2.43.0 (0)
 -->
<!-- Title: inheritance09a952d884 Pages: 1 -->
<svg width="313pt" height="83pt"
 viewBox="0.00 0.00 313.00 83.00" xmlns="http://www.w3.org/2000/svg" xmlns:xlink="http://www.w3.org/1999/xlink">
<g id="graph0" class="graph" transform="scale(1 1) rotate(0) translate(4 79)">
<title>inheritance09a952d884</title>
<polygon fill="white" stroke="transparent" points="-4,4 -4,-79 309,-79 309,4 -4,4"/>
<!-- Expression -->
<g id="node1" class="node">
<title>Expression</title>
<g id="a_node1"><a xlink:href="../API/qalgebra.core.abstract_algebra.html#qalgebra.core.abstract_algebra.Expression" xlink:title="Base class for all QAlgebra Expressions." target="_top">
<polygon fill="none" stroke="black" stroke-width="0.5" points="74.5,-56 4.5,-56 4.5,-37 74.5,-37 74.5,-56"/>
<text text-anchor="middle" x="39.5" y="-44" font-family="Vera Sans, DejaVu Sans, Liberation Sans, Arial, Helvetica, sans" font-size="10.00">Expression</text>
</a>
</g>
</g>
<!-- LocalSpace -->
<g id="node3" class="node">
<title>LocalSpace</title>
<g id="a_node3"><a xlink:href="../API/qalgebra.core.hilbert_space_algebra.html#qalgebra.core.hilbert_space_algebra.LocalSpace" xlink:title="Hilbert space for a single degree of freedom." target="_top">
<polygon fill="none" stroke="black" stroke-width="0.5" points="186,-38 115,-38 115,-19 186,-19 186,-38"/>
<text text-anchor="middle" x="150.5" y="-26" font-family="Vera Sans, DejaVu Sans, Liberation Sans, Arial, Helvetica, sans" font-size="10.00">LocalSpace</text>
</a>
</g>
</g>
<!-- Expression&#45;&gt;LocalSpace -->
<g id="edge2" class="edge">
<title>Expression&#45;&gt;LocalSpace</title>
<path fill="none" stroke="black" stroke-width="0.5" d="M74.69,-40.85C85.73,-39.03 98.08,-36.99 109.5,-35.1"/>
<polygon fill="black" stroke="black" stroke-width="0.5" points="110.03,-36.79 114.68,-34.25 109.46,-33.34 110.03,-36.79"/>
</g>
<!-- Operation -->
<g id="node4" class="node">
<title>Operation</title>
<g id="a_node4"><a xlink:href="../API/qalgebra.core.abstract_algebra.html#qalgebra.core.abstract_algebra.Operation" xlink:title="Base class for &quot;operations&quot;" target="_top">
<polygon fill="none" stroke="black" stroke-width="0.5" points="183,-75 118,-75 118,-56 183,-56 183,-75"/>
<text text-anchor="middle" x="150.5" y="-63" font-family="Vera Sans, DejaVu Sans, Liberation Sans, Arial, Helvetica, sans" font-size="10.00">Operation</text>
</a>
</g>
</g>
<!-- Expression&#45;&gt;Operation -->
<g id="edge3" class="edge">
<title>Expression&#45;&gt;Operation</title>
<path fill="none" stroke="black" stroke-width="0.5" d="M74.69,-52.46C86.71,-54.55 100.26,-56.92 112.5,-59.05"/>
<polygon fill="black" stroke="black" stroke-width="0.5" points="112.43,-60.82 117.66,-59.95 113.03,-57.37 112.43,-60.82"/>
</g>
<!-- HilbertSpace -->
<g id="node2" class="node">
<title>HilbertSpace</title>
<g id="a_node2"><a xlink:href="../API/qalgebra.core.hilbert_space_algebra.html#qalgebra.core.hilbert_space_algebra.HilbertSpace" xlink:title="Base class for Hilbert spaces" target="_top">
<polygon fill="none" stroke="black" stroke-width="0.5" points="79,-19 0,-19 0,0 79,0 79,-19"/>
<text text-anchor="middle" x="39.5" y="-7" font-family="Vera Sans, DejaVu Sans, Liberation Sans, Arial, Helvetica, sans" font-size="10.00">HilbertSpace</text>
</a>
</g>
</g>
<!-- HilbertSpace&#45;&gt;LocalSpace -->
<g id="edge1" class="edge">
<title>HilbertSpace&#45;&gt;LocalSpace</title>
<path fill="none" stroke="black" stroke-width="0.5" d="M79.24,-16.25C89.14,-17.98 99.8,-19.84 109.75,-21.57"/>
<polygon fill="black" stroke="black" stroke-width="0.5" points="109.65,-23.33 114.88,-22.47 110.25,-19.88 109.65,-23.33"/>
</g>
<!-- ProductSpace -->
<g id="node5" class="node">
<title>ProductSpace</title>
<g id="a_node5"><a xlink:href="../API/qalgebra.core.hilbert_space_algebra.html#qalgebra.core.hilbert_space_algebra.ProductSpace" xlink:title="Tensor product of local Hilbert spaces." target="_top">
<polygon fill="none" stroke="black" stroke-width="0.5" points="305,-37 222,-37 222,-18 305,-18 305,-37"/>
<text text-anchor="middle" x="263.5" y="-25" font-family="Vera Sans, DejaVu Sans, Liberation Sans, Arial, Helvetica, sans" font-size="10.00">ProductSpace</text>
</a>
</g>
</g>
<!-- HilbertSpace&#45;&gt;ProductSpace -->
<g id="edge4" class="edge">
<title>HilbertSpace&#45;&gt;ProductSpace</title>
<path fill="none" stroke="black" stroke-width="0.5" d="M79.24,-7.08C108.64,-5.83 149.99,-5.32 186,-9.5 198.57,-10.96 212.07,-13.72 224.18,-16.66"/>
<polygon fill="black" stroke="black" stroke-width="0.5" points="224.01,-18.42 229.28,-17.92 224.85,-15.02 224.01,-18.42"/>
</g>
<!-- Operation&#45;&gt;ProductSpace -->
<g id="edge5" class="edge">
<title>Operation&#45;&gt;ProductSpace</title>
<path fill="none" stroke="black" stroke-width="0.5" d="M179.51,-55.91C194.76,-50.69 213.71,-44.2 229.66,-38.74"/>
<polygon fill="black" stroke="black" stroke-width="0.5" points="230.34,-40.36 234.5,-37.09 229.2,-37.05 230.34,-40.36"/>
</g>
</g>
</svg>
