<?xml version="1.0" encoding="UTF-8" standalone="no"?>
<!DOCTYPE svg PUBLIC "-//W3C//DTD SVG 1.1//EN"
 "http://www.w3.org/Graphics/SVG/1.1/DTD/svg11.dtd">
<!-- Generated by graphviz version 2.43.0 (0)
 -->
<!-- Title: inheritance2f32859345 Pages: 1 -->
<svg width="929pt" height="586pt"
 viewBox="0.00 0.00 929.00 586.00" xmlns="http://www.w3.org/2000/svg" xmlns:xlink="http://www.w3.org/1999/xlink">
<g id="graph0" class="graph" transform="scale(1 1) rotate(0) translate(4 582)">
<title>inheritance2f32859345</title>
<polygon fill="white" stroke="transparent" points="-4,4 -4,-582 925,-582 925,4 -4,4"/>
<!-- Adjoint -->
<g id="node1" class="node">
<title>Adjoint</title>
<g id="a_node1"><a xlink:href="../API/qalgebra.core.operator_algebra.html#qalgebra.core.operator_algebra.Adjoint" xlink:title="Symbolic Adjoint of an operator" target="_top">
<polygon fill="none" stroke="black" stroke-width="0.5" points="888.5,-168 834.5,-168 834.5,-149 888.5,-149 888.5,-168"/>
<text text-anchor="middle" x="861.5" y="-156" font-family="Vera Sans, DejaVu Sans, Liberation Sans, Arial, Helvetica, sans" font-size="10.00">Adjoint</text>
</a>
</g>
</g>
<!-- QuantumAdjoint -->
<g id="node2" class="node">
<title>QuantumAdjoint</title>
<g id="a_node2"><a xlink:href="../API/qalgebra.core.abstract_quantum_algebra.html#qalgebra.core.abstract_quantum_algebra.QuantumAdjoint" xlink:title="Base class for adjoints of quantum expressions" target="_top">
<polygon fill="none" stroke="black" stroke-width="0.5" points="753,-504 657,-504 657,-485 753,-485 753,-504"/>
<text text-anchor="middle" x="705" y="-492" font-family="Vera Sans, DejaVu Sans, Liberation Sans, Arial, Helvetica, sans" font-size="10.00">QuantumAdjoint</text>
</a>
</g>
</g>
<!-- QuantumAdjoint&#45;&gt;Adjoint -->
<g id="edge1" class="edge">
<title>QuantumAdjoint&#45;&gt;Adjoint</title>
<path fill="none" stroke="black" stroke-width="0.5" d="M753.04,-486.21C757.92,-483.75 762.4,-480.58 766,-476.5 830.08,-403.83 769.58,-352.8 802,-261.5 814.05,-227.56 837,-191.84 850.29,-172.67"/>
<polygon fill="black" stroke="black" stroke-width="0.5" points="852.01,-173.27 853.45,-168.17 849.14,-171.26 852.01,-173.27"/>
</g>
<!-- Operator -->
<g id="node3" class="node">
<title>Operator</title>
<g id="a_node3"><a xlink:href="../API/qalgebra.core.operator_algebra.html#qalgebra.core.operator_algebra.Operator" xlink:title="Base class for all quantum operators." target="_top">
<polygon fill="none" stroke="black" stroke-width="0.5" points="567.5,-237 508.5,-237 508.5,-218 567.5,-218 567.5,-237"/>
<text text-anchor="middle" x="538" y="-225" font-family="Vera Sans, DejaVu Sans, Liberation Sans, Arial, Helvetica, sans" font-size="10.00">Operator</text>
</a>
</g>
</g>
<!-- Operator&#45;&gt;Adjoint -->
<g id="edge2" class="edge">
<title>Operator&#45;&gt;Adjoint</title>
<path fill="none" stroke="black" stroke-width="0.5" d="M567.53,-221.38C627.62,-208.48 766.8,-178.61 829.22,-165.21"/>
<polygon fill="black" stroke="black" stroke-width="0.5" points="829.78,-166.88 834.3,-164.12 829.04,-163.46 829.78,-166.88"/>
</g>
<!-- Commutator -->
<g id="node4" class="node">
<title>Commutator</title>
<g id="a_node4"><a xlink:href="../API/qalgebra.core.operator_algebra.html#qalgebra.core.operator_algebra.Commutator" xlink:title="Commutator of two operators" target="_top">
<polygon fill="none" stroke="black" stroke-width="0.5" points="744,-93 666,-93 666,-74 744,-74 744,-93"/>
<text text-anchor="middle" x="705" y="-81" font-family="Vera Sans, DejaVu Sans, Liberation Sans, Arial, Helvetica, sans" font-size="10.00">Commutator</text>
</a>
</g>
</g>
<!-- Operator&#45;&gt;Commutator -->
<g id="edge4" class="edge">
<title>Operator&#45;&gt;Commutator</title>
<path fill="none" stroke="black" stroke-width="0.5" d="M565.78,-217.86C579.91,-211.62 596.63,-202.26 608,-189.5 636.11,-157.95 612.71,-129.9 644,-101.5 648.88,-97.07 654.8,-93.73 661.01,-91.22"/>
<polygon fill="black" stroke="black" stroke-width="0.5" points="661.72,-92.82 665.8,-89.44 660.51,-89.54 661.72,-92.82"/>
</g>
<!-- LocalOperator -->
<g id="node9" class="node">
<title>LocalOperator</title>
<g id="a_node9"><a xlink:href="../API/qalgebra.core.operator_algebra.html#qalgebra.core.operator_algebra.LocalOperator" xlink:title="Base class for &quot;known&quot; operators on a :class:`.LocalSpace`." target="_top">
<polygon fill="none" stroke="black" stroke-width="0.5" points="747.5,-130 662.5,-130 662.5,-111 747.5,-111 747.5,-130"/>
<text text-anchor="middle" x="705" y="-118" font-family="Vera Sans, DejaVu Sans, Liberation Sans, Arial, Helvetica, sans" font-size="10.00">LocalOperator</text>
</a>
</g>
</g>
<!-- Operator&#45;&gt;LocalOperator -->
<g id="edge6" class="edge">
<title>Operator&#45;&gt;LocalOperator</title>
<path fill="none" stroke="black" stroke-width="0.5" d="M561.52,-217.88C575.73,-211.16 593.98,-201.3 608,-189.5 627.59,-173.01 623.43,-159.76 644,-144.5 650.72,-139.52 658.61,-135.4 666.42,-132.07"/>
<polygon fill="black" stroke="black" stroke-width="0.5" points="667.29,-133.61 671.26,-130.1 665.97,-130.36 667.29,-133.61"/>
</g>
<!-- NullSpaceProjector -->
<g id="node11" class="node">
<title>NullSpaceProjector</title>
<g id="a_node11"><a xlink:href="../API/qalgebra.core.operator_algebra.html#qalgebra.core.operator_algebra.NullSpaceProjector" xlink:title="Projection operator onto the nullspace of its operand." target="_top">
<polygon fill="none" stroke="black" stroke-width="0.5" points="759.5,-430 650.5,-430 650.5,-411 759.5,-411 759.5,-430"/>
<text text-anchor="middle" x="705" y="-418" font-family="Vera Sans, DejaVu Sans, Liberation Sans, Arial, Helvetica, sans" font-size="10.00">NullSpaceProjector</text>
</a>
</g>
</g>
<!-- Operator&#45;&gt;NullSpaceProjector -->
<g id="edge9" class="edge">
<title>Operator&#45;&gt;NullSpaceProjector</title>
<path fill="none" stroke="black" stroke-width="0.5" d="M567.77,-231.88C581.77,-235.45 597.74,-241.89 608,-253.5 653.11,-304.55 597.15,-353.03 644,-402.5 646.01,-404.62 648.26,-406.5 650.67,-408.15"/>
<polygon fill="black" stroke="black" stroke-width="0.5" points="650.01,-409.8 655.19,-410.9 651.83,-406.81 650.01,-409.8"/>
</g>
<!-- OperatorDerivative -->
<g id="node14" class="node">
<title>OperatorDerivative</title>
<g id="a_node14"><a xlink:href="../API/qalgebra.core.operator_algebra.html#qalgebra.core.operator_algebra.OperatorDerivative" xlink:title="Symbolic partial derivative of an operator" target="_top">
<polygon fill="none" stroke="black" stroke-width="0.5" points="916.5,-290 806.5,-290 806.5,-271 916.5,-271 916.5,-290"/>
<text text-anchor="middle" x="861.5" y="-278" font-family="Vera Sans, DejaVu Sans, Liberation Sans, Arial, Helvetica, sans" font-size="10.00">OperatorDerivative</text>
</a>
</g>
</g>
<!-- Operator&#45;&gt;OperatorDerivative -->
<g id="edge13" class="edge">
<title>Operator&#45;&gt;OperatorDerivative</title>
<path fill="none" stroke="black" stroke-width="0.5" d="M567.66,-221.06C611.43,-212.46 697.09,-200.47 766,-220.5 797.31,-229.6 828.17,-252.54 845.72,-267.28"/>
<polygon fill="black" stroke="black" stroke-width="0.5" points="844.95,-268.92 849.89,-270.83 847.22,-266.26 844.95,-268.92"/>
</g>
<!-- OperatorIndexedSum -->
<g id="node16" class="node">
<title>OperatorIndexedSum</title>
<g id="a_node16"><a xlink:href="../API/qalgebra.core.operator_algebra.html#qalgebra.core.operator_algebra.OperatorIndexedSum" xlink:title="Indexed sum over operators" target="_top">
<polygon fill="none" stroke="black" stroke-width="0.5" points="921,-411 802,-411 802,-392 921,-392 921,-411"/>
<text text-anchor="middle" x="861.5" y="-399" font-family="Vera Sans, DejaVu Sans, Liberation Sans, Arial, Helvetica, sans" font-size="10.00">OperatorIndexedSum</text>
</a>
</g>
</g>
<!-- Operator&#45;&gt;OperatorIndexedSum -->
<g id="edge15" class="edge">
<title>Operator&#45;&gt;OperatorIndexedSum</title>
<path fill="none" stroke="black" stroke-width="0.5" d="M567.7,-223.38C613.42,-218.34 703.93,-214.73 766,-253.5 779.3,-261.81 832.27,-352.37 852.55,-387.6"/>
<polygon fill="black" stroke="black" stroke-width="0.5" points="851.07,-388.53 855.07,-392 854.1,-386.79 851.07,-388.53"/>
</g>
<!-- OperatorPlus -->
<g id="node18" class="node">
<title>OperatorPlus</title>
<g id="a_node18"><a xlink:href="../API/qalgebra.core.operator_algebra.html#qalgebra.core.operator_algebra.OperatorPlus" xlink:title="Sum of Operators" target="_top">
<polygon fill="none" stroke="black" stroke-width="0.5" points="745,-319 665,-319 665,-300 745,-300 745,-319"/>
<text text-anchor="middle" x="705" y="-307" font-family="Vera Sans, DejaVu Sans, Liberation Sans, Arial, Helvetica, sans" font-size="10.00">OperatorPlus</text>
</a>
</g>
</g>
<!-- Operator&#45;&gt;OperatorPlus -->
<g id="edge17" class="edge">
<title>Operator&#45;&gt;OperatorPlus</title>
<path fill="none" stroke="black" stroke-width="0.5" d="M567.58,-235.06C580.57,-239.28 595.74,-245.35 608,-253.5 627.38,-266.37 624.19,-279.3 644,-291.5 648.99,-294.57 654.54,-297.15 660.19,-299.31"/>
<polygon fill="black" stroke="black" stroke-width="0.5" points="659.66,-300.97 664.96,-301.02 660.84,-297.68 659.66,-300.97"/>
</g>
<!-- OperatorPlusMinusCC -->
<g id="node20" class="node">
<title>OperatorPlusMinusCC</title>
<g id="a_node20"><a xlink:href="../API/qalgebra.core.operator_algebra.html#qalgebra.core.operator_algebra.OperatorPlusMinusCC" xlink:title="An operator plus or minus its complex conjugate." target="_top">
<polygon fill="none" stroke="black" stroke-width="0.5" points="766,-393 644,-393 644,-374 766,-374 766,-393"/>
<text text-anchor="middle" x="705" y="-381" font-family="Vera Sans, DejaVu Sans, Liberation Sans, Arial, Helvetica, sans" font-size="10.00">OperatorPlusMinusCC</text>
</a>
</g>
</g>
<!-- Operator&#45;&gt;OperatorPlusMinusCC -->
<g id="edge19" class="edge">
<title>Operator&#45;&gt;OperatorPlusMinusCC</title>
<path fill="none" stroke="black" stroke-width="0.5" d="M567.76,-232.3C581.59,-235.96 597.41,-242.37 608,-253.5 644.05,-291.37 606.67,-328.89 644,-365.5 646.29,-367.75 648.86,-369.72 651.59,-371.44"/>
<polygon fill="black" stroke="black" stroke-width="0.5" points="650.82,-373.01 656.03,-373.96 652.54,-369.97 650.82,-373.01"/>
</g>
<!-- OperatorSymbol -->
<g id="node21" class="node">
<title>OperatorSymbol</title>
<g id="a_node21"><a xlink:href="../API/qalgebra.core.operator_algebra.html#qalgebra.core.operator_algebra.OperatorSymbol" xlink:title="Symbolic operator" target="_top">
<polygon fill="none" stroke="black" stroke-width="0.5" points="753,-19 657,-19 657,0 753,0 753,-19"/>
<text text-anchor="middle" x="705" y="-7" font-family="Vera Sans, DejaVu Sans, Liberation Sans, Arial, Helvetica, sans" font-size="10.00">OperatorSymbol</text>
</a>
</g>
</g>
<!-- Operator&#45;&gt;OperatorSymbol -->
<g id="edge21" class="edge">
<title>Operator&#45;&gt;OperatorSymbol</title>
<path fill="none" stroke="black" stroke-width="0.5" d="M541.21,-217.88C549.1,-185.75 578.94,-81.13 644,-27.5 646.83,-25.17 649.95,-23.14 653.24,-21.37"/>
<polygon fill="black" stroke="black" stroke-width="0.5" points="654.1,-22.9 657.82,-19.13 652.56,-19.76 654.1,-22.9"/>
</g>
<!-- OperatorTimes -->
<g id="node23" class="node">
<title>OperatorTimes</title>
<g id="a_node23"><a xlink:href="../API/qalgebra.core.operator_algebra.html#qalgebra.core.operator_algebra.OperatorTimes" xlink:title="Product of operators" target="_top">
<polygon fill="none" stroke="black" stroke-width="0.5" points="749.5,-282 660.5,-282 660.5,-263 749.5,-263 749.5,-282"/>
<text text-anchor="middle" x="705" y="-270" font-family="Vera Sans, DejaVu Sans, Liberation Sans, Arial, Helvetica, sans" font-size="10.00">OperatorTimes</text>
</a>
</g>
</g>
<!-- Operator&#45;&gt;OperatorTimes -->
<g id="edge23" class="edge">
<title>Operator&#45;&gt;OperatorTimes</title>
<path fill="none" stroke="black" stroke-width="0.5" d="M567.74,-235.34C594.36,-242.6 634.21,-253.47 663.95,-261.58"/>
<polygon fill="black" stroke="black" stroke-width="0.5" points="663.72,-263.33 669,-262.95 664.64,-259.95 663.72,-263.33"/>
</g>
<!-- OperatorTrace -->
<g id="node25" class="node">
<title>OperatorTrace</title>
<g id="a_node25"><a xlink:href="../API/qalgebra.core.operator_algebra.html#qalgebra.core.operator_algebra.OperatorTrace" xlink:title="(Partial) trace of an operator" target="_top">
<polygon fill="none" stroke="black" stroke-width="0.5" points="747.5,-356 662.5,-356 662.5,-337 747.5,-337 747.5,-356"/>
<text text-anchor="middle" x="705" y="-344" font-family="Vera Sans, DejaVu Sans, Liberation Sans, Arial, Helvetica, sans" font-size="10.00">OperatorTrace</text>
</a>
</g>
</g>
<!-- Operator&#45;&gt;OperatorTrace -->
<g id="edge25" class="edge">
<title>Operator&#45;&gt;OperatorTrace</title>
<path fill="none" stroke="black" stroke-width="0.5" d="M567.83,-233.12C581.33,-236.97 596.86,-243.29 608,-253.5 635.26,-278.48 615.9,-304.47 644,-328.5 647.97,-331.89 652.56,-334.65 657.4,-336.88"/>
<polygon fill="black" stroke="black" stroke-width="0.5" points="657.02,-338.62 662.3,-338.95 658.37,-335.39 657.02,-338.62"/>
</g>
<!-- PseudoInverse -->
<g id="node26" class="node">
<title>PseudoInverse</title>
<g id="a_node26"><a xlink:href="../API/qalgebra.core.operator_algebra.html#qalgebra.core.operator_algebra.PseudoInverse" xlink:title="Unevaluated pseudo&#45;inverse $Op{X}^+$ of an operator $Op{X}$." target="_top">
<polygon fill="none" stroke="black" stroke-width="0.5" points="749,-467 661,-467 661,-448 749,-448 749,-467"/>
<text text-anchor="middle" x="705" y="-455" font-family="Vera Sans, DejaVu Sans, Liberation Sans, Arial, Helvetica, sans" font-size="10.00">PseudoInverse</text>
</a>
</g>
</g>
<!-- Operator&#45;&gt;PseudoInverse -->
<g id="edge27" class="edge">
<title>Operator&#45;&gt;PseudoInverse</title>
<path fill="none" stroke="black" stroke-width="0.5" d="M567.65,-231.6C581.79,-235.1 597.93,-241.56 608,-253.5 662.3,-317.86 587.52,-377.05 644,-439.5 647.45,-443.31 651.67,-446.33 656.25,-448.72"/>
<polygon fill="black" stroke="black" stroke-width="0.5" points="655.68,-450.38 660.95,-450.9 657.15,-447.2 655.68,-450.38"/>
</g>
<!-- ScalarTimesOperator -->
<g id="node27" class="node">
<title>ScalarTimesOperator</title>
<g id="a_node27"><a xlink:href="../API/qalgebra.core.operator_algebra.html#qalgebra.core.operator_algebra.ScalarTimesOperator" xlink:title="Product of a :class:`.Scalar` coefficient and an :class:`.Operator`." target="_top">
<polygon fill="none" stroke="black" stroke-width="0.5" points="764.5,-56 645.5,-56 645.5,-37 764.5,-37 764.5,-56"/>
<text text-anchor="middle" x="705" y="-44" font-family="Vera Sans, DejaVu Sans, Liberation Sans, Arial, Helvetica, sans" font-size="10.00">ScalarTimesOperator</text>
</a>
</g>
</g>
<!-- Operator&#45;&gt;ScalarTimesOperator -->
<g id="edge38" class="edge">
<title>Operator&#45;&gt;ScalarTimesOperator</title>
<path fill="none" stroke="black" stroke-width="0.5" d="M545.59,-217.83C558.02,-199.55 585.66,-158.6 608,-123.5 624.49,-97.59 619.68,-83.27 644,-64.5 647.02,-62.17 650.34,-60.14 653.81,-58.37"/>
<polygon fill="black" stroke="black" stroke-width="0.5" points="654.85,-59.82 658.64,-56.12 653.37,-56.65 654.85,-59.82"/>
</g>
<!-- QuantumOperation -->
<g id="node5" class="node">
<title>QuantumOperation</title>
<g id="a_node5"><a xlink:href="../API/qalgebra.core.abstract_quantum_algebra.html#qalgebra.core.abstract_quantum_algebra.QuantumOperation" xlink:title="Base class for operations on quantum expression" target="_top">
<polygon fill="none" stroke="black" stroke-width="0.5" points="399.5,-297 289.5,-297 289.5,-278 399.5,-278 399.5,-297"/>
<text text-anchor="middle" x="344.5" y="-285" font-family="Vera Sans, DejaVu Sans, Liberation Sans, Arial, Helvetica, sans" font-size="10.00">QuantumOperation</text>
</a>
</g>
</g>
<!-- QuantumOperation&#45;&gt;Commutator -->
<g id="edge3" class="edge">
<title>QuantumOperation&#45;&gt;Commutator</title>
<path fill="none" stroke="black" stroke-width="0.5" d="M399.58,-282.65C411.03,-279.77 422.51,-275.32 432,-268.5 457.25,-250.35 446.07,-230.55 468,-208.5 519.34,-156.89 545.83,-161.37 608,-123.5 624.01,-113.75 626.88,-109.15 644,-101.5 649.59,-99.01 655.61,-96.74 661.62,-94.72"/>
<polygon fill="black" stroke="black" stroke-width="0.5" points="662.44,-96.29 666.65,-93.08 661.35,-92.97 662.44,-96.29"/>
</g>
<!-- SingleQuantumOperation -->
<g id="node12" class="node">
<title>SingleQuantumOperation</title>
<g id="a_node12"><a xlink:href="../API/qalgebra.core.abstract_quantum_algebra.html#qalgebra.core.abstract_quantum_algebra.SingleQuantumOperation" xlink:title="Base class for operations on a single quantum expression" target="_top">
<polygon fill="none" stroke="black" stroke-width="0.5" points="608,-448 468,-448 468,-429 608,-429 608,-448"/>
<text text-anchor="middle" x="538" y="-436" font-family="Vera Sans, DejaVu Sans, Liberation Sans, Arial, Helvetica, sans" font-size="10.00">SingleQuantumOperation</text>
</a>
</g>
</g>
<!-- QuantumOperation&#45;&gt;SingleQuantumOperation -->
<g id="edge42" class="edge">
<title>QuantumOperation&#45;&gt;SingleQuantumOperation</title>
<path fill="none" stroke="black" stroke-width="0.5" d="M357.77,-297.18C390.93,-323.32 482.37,-395.42 520.24,-425.28"/>
<polygon fill="black" stroke="black" stroke-width="0.5" points="519.57,-426.99 524.58,-428.71 521.74,-424.24 519.57,-426.99"/>
</g>
<!-- QuantumPlus -->
<g id="node19" class="node">
<title>QuantumPlus</title>
<g id="a_node19"><a xlink:href="../API/qalgebra.core.abstract_quantum_algebra.html#qalgebra.core.abstract_quantum_algebra.QuantumPlus" xlink:title="General implementation of addition of quantum expressions" target="_top">
<polygon fill="none" stroke="black" stroke-width="0.5" points="579,-319 497,-319 497,-300 579,-300 579,-319"/>
<text text-anchor="middle" x="538" y="-307" font-family="Vera Sans, DejaVu Sans, Liberation Sans, Arial, Helvetica, sans" font-size="10.00">QuantumPlus</text>
</a>
</g>
</g>
<!-- QuantumOperation&#45;&gt;QuantumPlus -->
<g id="edge35" class="edge">
<title>QuantumOperation&#45;&gt;QuantumPlus</title>
<path fill="none" stroke="black" stroke-width="0.5" d="M399.61,-293.72C428.66,-297.05 464.06,-301.12 491.65,-304.29"/>
<polygon fill="black" stroke="black" stroke-width="0.5" points="491.54,-306.04 496.71,-304.87 491.94,-302.56 491.54,-306.04"/>
</g>
<!-- QuantumTimes -->
<g id="node24" class="node">
<title>QuantumTimes</title>
<g id="a_node24"><a xlink:href="../API/qalgebra.core.abstract_quantum_algebra.html#qalgebra.core.abstract_quantum_algebra.QuantumTimes" xlink:title="General implementation of product of quantum expressions" target="_top">
<polygon fill="none" stroke="black" stroke-width="0.5" points="584,-282 492,-282 492,-263 584,-263 584,-282"/>
<text text-anchor="middle" x="538" y="-270" font-family="Vera Sans, DejaVu Sans, Liberation Sans, Arial, Helvetica, sans" font-size="10.00">QuantumTimes</text>
</a>
</g>
</g>
<!-- QuantumOperation&#45;&gt;QuantumTimes -->
<g id="edge37" class="edge">
<title>QuantumOperation&#45;&gt;QuantumTimes</title>
<path fill="none" stroke="black" stroke-width="0.5" d="M399.61,-283.26C426.88,-281.13 459.75,-278.55 486.5,-276.46"/>
<polygon fill="black" stroke="black" stroke-width="0.5" points="486.91,-278.18 491.76,-276.04 486.64,-274.69 486.91,-278.18"/>
</g>
<!-- Expression -->
<g id="node6" class="node">
<title>Expression</title>
<g id="a_node6"><a xlink:href="../API/qalgebra.core.abstract_algebra.html#qalgebra.core.abstract_algebra.Expression" xlink:title="Base class for all QAlgebra Expressions." target="_top">
<polygon fill="none" stroke="black" stroke-width="0.5" points="70,-278 0,-278 0,-259 70,-259 70,-278"/>
<text text-anchor="middle" x="35" y="-266" font-family="Vera Sans, DejaVu Sans, Liberation Sans, Arial, Helvetica, sans" font-size="10.00">Expression</text>
</a>
</g>
</g>
<!-- Operation -->
<g id="node8" class="node">
<title>Operation</title>
<g id="a_node8"><a xlink:href="../API/qalgebra.core.abstract_algebra.html#qalgebra.core.abstract_algebra.Operation" xlink:title="Base class for &quot;operations&quot;" target="_top">
<polygon fill="none" stroke="black" stroke-width="0.5" points="196,-297 131,-297 131,-278 196,-278 196,-297"/>
<text text-anchor="middle" x="163.5" y="-285" font-family="Vera Sans, DejaVu Sans, Liberation Sans, Arial, Helvetica, sans" font-size="10.00">Operation</text>
</a>
</g>
</g>
<!-- Expression&#45;&gt;Operation -->
<g id="edge10" class="edge">
<title>Expression&#45;&gt;Operation</title>
<path fill="none" stroke="black" stroke-width="0.5" d="M70.23,-273.64C87.34,-276.21 108.07,-279.32 125.54,-281.95"/>
<polygon fill="black" stroke="black" stroke-width="0.5" points="125.64,-283.73 130.85,-282.75 126.16,-280.27 125.64,-283.73"/>
</g>
<!-- QuantumExpression -->
<g id="node13" class="node">
<title>QuantumExpression</title>
<g id="a_node13"><a xlink:href="../API/qalgebra.core.abstract_quantum_algebra.html#qalgebra.core.abstract_quantum_algebra.QuantumExpression" xlink:title="Base class for expressions associated with a Hilbert space" target="_top">
<polygon fill="none" stroke="black" stroke-width="0.5" points="221,-260 106,-260 106,-241 221,-241 221,-260"/>
<text text-anchor="middle" x="163.5" y="-248" font-family="Vera Sans, DejaVu Sans, Liberation Sans, Arial, Helvetica, sans" font-size="10.00">QuantumExpression</text>
</a>
</g>
</g>
<!-- Expression&#45;&gt;QuantumExpression -->
<g id="edge30" class="edge">
<title>Expression&#45;&gt;QuantumExpression</title>
<path fill="none" stroke="black" stroke-width="0.5" d="M70.23,-263.63C79.66,-262.29 90.2,-260.79 100.68,-259.3"/>
<polygon fill="black" stroke="black" stroke-width="0.5" points="101.11,-261 105.81,-258.57 100.61,-257.54 101.11,-261"/>
</g>
<!-- IndexedSum -->
<g id="node7" class="node">
<title>IndexedSum</title>
<g id="a_node7"><a xlink:href="../API/qalgebra.core.indexed_operations.html#qalgebra.core.indexed_operations.IndexedSum" xlink:title="Base class for indexed sums." target="_top">
<polygon fill="none" stroke="black" stroke-width="0.5" points="383,-436 306,-436 306,-417 383,-417 383,-436"/>
<text text-anchor="middle" x="344.5" y="-424" font-family="Vera Sans, DejaVu Sans, Liberation Sans, Arial, Helvetica, sans" font-size="10.00">IndexedSum</text>
</a>
</g>
</g>
<!-- QuantumIndexedSum -->
<g id="node17" class="node">
<title>QuantumIndexedSum</title>
<g id="a_node17"><a xlink:href="../API/qalgebra.core.abstract_quantum_algebra.html#qalgebra.core.abstract_quantum_algebra.QuantumIndexedSum" xlink:title="Base class for indexed sums of quantum expressions." target="_top">
<polygon fill="none" stroke="black" stroke-width="0.5" points="766,-578 644,-578 644,-559 766,-559 766,-578"/>
<text text-anchor="middle" x="705" y="-566" font-family="Vera Sans, DejaVu Sans, Liberation Sans, Arial, Helvetica, sans" font-size="10.00">QuantumIndexedSum</text>
</a>
</g>
</g>
<!-- IndexedSum&#45;&gt;QuantumIndexedSum -->
<g id="edge31" class="edge">
<title>IndexedSum&#45;&gt;QuantumIndexedSum</title>
<path fill="none" stroke="black" stroke-width="0.5" d="M366.56,-436.13C414.95,-458.05 538.02,-512.7 644,-550.5 650.74,-552.9 657.98,-555.26 665.02,-557.44"/>
<polygon fill="black" stroke="black" stroke-width="0.5" points="664.56,-559.13 669.85,-558.91 665.58,-555.78 664.56,-559.13"/>
</g>
<!-- Operation&#45;&gt;QuantumOperation -->
<g id="edge34" class="edge">
<title>Operation&#45;&gt;QuantumOperation</title>
<path fill="none" stroke="black" stroke-width="0.5" d="M196.09,-287.5C220.47,-287.5 254.91,-287.5 284.36,-287.5"/>
<polygon fill="black" stroke="black" stroke-width="0.5" points="284.42,-289.25 289.42,-287.5 284.42,-285.75 284.42,-289.25"/>
</g>
<!-- Operation&#45;&gt;IndexedSum -->
<g id="edge5" class="edge">
<title>Operation&#45;&gt;IndexedSum</title>
<path fill="none" stroke="black" stroke-width="0.5" d="M176.8,-297.05C208.23,-321.46 291.46,-386.09 327.02,-413.7"/>
<polygon fill="black" stroke="black" stroke-width="0.5" points="326.09,-415.19 331.11,-416.88 328.23,-412.43 326.09,-415.19"/>
</g>
<!-- ScalarTimesQuantumExpression -->
<g id="node28" class="node">
<title>ScalarTimesQuantumExpression</title>
<g id="a_node28"><a xlink:href="../API/qalgebra.core.abstract_quantum_algebra.html#qalgebra.core.abstract_quantum_algebra.ScalarTimesQuantumExpression" xlink:title="Product of a :class:`.Scalar` and a :class:`.QuantumExpression`" target="_top">
<polygon fill="none" stroke="black" stroke-width="0.5" points="432,-260 257,-260 257,-241 432,-241 432,-260"/>
<text text-anchor="middle" x="344.5" y="-248" font-family="Vera Sans, DejaVu Sans, Liberation Sans, Arial, Helvetica, sans" font-size="10.00">ScalarTimesQuantumExpression</text>
</a>
</g>
</g>
<!-- Operation&#45;&gt;ScalarTimesQuantumExpression -->
<g id="edge41" class="edge">
<title>Operation&#45;&gt;ScalarTimesQuantumExpression</title>
<path fill="none" stroke="black" stroke-width="0.5" d="M196.09,-280.97C222.76,-275.46 261.47,-267.46 292.52,-261.04"/>
<polygon fill="black" stroke="black" stroke-width="0.5" points="292.9,-262.75 297.44,-260.02 292.19,-259.32 292.9,-262.75"/>
</g>
<!-- LocalSigma -->
<g id="node10" class="node">
<title>LocalSigma</title>
<g id="a_node10"><a xlink:href="../API/qalgebra.core.operator_algebra.html#qalgebra.core.operator_algebra.LocalSigma" xlink:title="Level flip operator between two levels of a :class:`.LocalSpace`." target="_top">
<polygon fill="none" stroke="black" stroke-width="0.5" points="898,-130 825,-130 825,-111 898,-111 898,-130"/>
<text text-anchor="middle" x="861.5" y="-118" font-family="Vera Sans, DejaVu Sans, Liberation Sans, Arial, Helvetica, sans" font-size="10.00">LocalSigma</text>
</a>
</g>
</g>
<!-- LocalOperator&#45;&gt;LocalSigma -->
<g id="edge7" class="edge">
<title>LocalOperator&#45;&gt;LocalSigma</title>
<path fill="none" stroke="black" stroke-width="0.5" d="M747.81,-120.5C770.15,-120.5 797.53,-120.5 819.71,-120.5"/>
<polygon fill="black" stroke="black" stroke-width="0.5" points="819.94,-122.25 824.94,-120.5 819.94,-118.75 819.94,-122.25"/>
</g>
<!-- SingleQuantumOperation&#45;&gt;QuantumAdjoint -->
<g id="edge28" class="edge">
<title>SingleQuantumOperation&#45;&gt;QuantumAdjoint</title>
<path fill="none" stroke="black" stroke-width="0.5" d="M564.32,-448.11C585.5,-456.05 616.57,-467.43 644,-476.5 651.05,-478.83 658.6,-481.2 665.89,-483.42"/>
<polygon fill="black" stroke="black" stroke-width="0.5" points="665.59,-485.15 670.89,-484.93 666.61,-481.8 665.59,-485.15"/>
</g>
<!-- SingleQuantumOperation&#45;&gt;NullSpaceProjector -->
<g id="edge8" class="edge">
<title>SingleQuantumOperation&#45;&gt;NullSpaceProjector</title>
<path fill="none" stroke="black" stroke-width="0.5" d="M608.02,-430.97C620.38,-429.62 633.16,-428.23 645.2,-426.91"/>
<polygon fill="black" stroke="black" stroke-width="0.5" points="645.53,-428.64 650.32,-426.36 645.15,-425.16 645.53,-428.64"/>
</g>
<!-- QuantumDerivative -->
<g id="node15" class="node">
<title>QuantumDerivative</title>
<g id="a_node15"><a xlink:href="../API/qalgebra.core.abstract_quantum_algebra.html#qalgebra.core.abstract_quantum_algebra.QuantumDerivative" xlink:title="Symbolic partial derivative." target="_top">
<polygon fill="none" stroke="black" stroke-width="0.5" points="761.5,-541 648.5,-541 648.5,-522 761.5,-522 761.5,-541"/>
<text text-anchor="middle" x="705" y="-529" font-family="Vera Sans, DejaVu Sans, Liberation Sans, Arial, Helvetica, sans" font-size="10.00">QuantumDerivative</text>
</a>
</g>
</g>
<!-- SingleQuantumOperation&#45;&gt;QuantumDerivative -->
<g id="edge29" class="edge">
<title>SingleQuantumOperation&#45;&gt;QuantumDerivative</title>
<path fill="none" stroke="black" stroke-width="0.5" d="M549.87,-448.14C568.11,-463.88 606.59,-495.16 644,-513.5 649.19,-516.04 654.81,-518.31 660.45,-520.3"/>
<polygon fill="black" stroke="black" stroke-width="0.5" points="659.9,-521.96 665.19,-521.9 661.02,-518.64 659.9,-521.96"/>
</g>
<!-- SingleQuantumOperation&#45;&gt;QuantumIndexedSum -->
<g id="edge32" class="edge">
<title>SingleQuantumOperation&#45;&gt;QuantumIndexedSum</title>
<path fill="none" stroke="black" stroke-width="0.5" d="M547.45,-448.07C570.27,-473.83 632.22,-543.2 644,-550.5 648.01,-552.98 652.37,-555.14 656.87,-557.01"/>
<polygon fill="black" stroke="black" stroke-width="0.5" points="656.49,-558.74 661.78,-558.93 657.76,-555.48 656.49,-558.74"/>
</g>
<!-- SingleQuantumOperation&#45;&gt;OperatorPlusMinusCC -->
<g id="edge18" class="edge">
<title>SingleQuantumOperation&#45;&gt;OperatorPlusMinusCC</title>
<path fill="none" stroke="black" stroke-width="0.5" d="M566.14,-429C587.3,-421.64 617.46,-411.25 644,-402.5 651.91,-399.89 660.42,-397.16 668.48,-394.6"/>
<polygon fill="black" stroke="black" stroke-width="0.5" points="669.19,-396.21 673.43,-393.03 668.14,-392.87 669.19,-396.21"/>
</g>
<!-- SingleQuantumOperation&#45;&gt;OperatorTrace -->
<g id="edge24" class="edge">
<title>SingleQuantumOperation&#45;&gt;OperatorTrace</title>
<path fill="none" stroke="black" stroke-width="0.5" d="M550.24,-428.95C568.72,-413.68 607.14,-383.63 644,-365.5 649.94,-362.58 656.42,-359.98 662.87,-357.71"/>
<polygon fill="black" stroke="black" stroke-width="0.5" points="663.61,-359.3 667.78,-356.03 662.48,-355.99 663.61,-359.3"/>
</g>
<!-- SingleQuantumOperation&#45;&gt;PseudoInverse -->
<g id="edge26" class="edge">
<title>SingleQuantumOperation&#45;&gt;PseudoInverse</title>
<path fill="none" stroke="black" stroke-width="0.5" d="M608.02,-446.45C624.05,-448.29 640.77,-450.22 655.68,-451.94"/>
<polygon fill="black" stroke="black" stroke-width="0.5" points="655.5,-453.68 660.67,-452.51 655.9,-450.2 655.5,-453.68"/>
</g>
<!-- QuantumExpression&#45;&gt;Operator -->
<g id="edge11" class="edge">
<title>QuantumExpression&#45;&gt;Operator</title>
<path fill="none" stroke="black" stroke-width="0.5" d="M202.95,-240.91C219.47,-237.23 239.07,-233.45 257,-231.5 345.31,-221.89 450.21,-223.96 503.02,-225.93"/>
<polygon fill="black" stroke="black" stroke-width="0.5" points="503.21,-227.69 508.27,-226.14 503.34,-224.19 503.21,-227.69"/>
</g>
<!-- QuantumExpression&#45;&gt;QuantumOperation -->
<g id="edge33" class="edge">
<title>QuantumExpression&#45;&gt;QuantumOperation</title>
<path fill="none" stroke="black" stroke-width="0.5" d="M210.6,-260.03C235.55,-265.19 266.45,-271.57 292.18,-276.89"/>
<polygon fill="black" stroke="black" stroke-width="0.5" points="292,-278.64 297.25,-277.94 292.71,-275.21 292,-278.64"/>
</g>
<!-- QuantumSymbol -->
<g id="node22" class="node">
<title>QuantumSymbol</title>
<g id="a_node22"><a xlink:href="../API/qalgebra.core.abstract_quantum_algebra.html#qalgebra.core.abstract_quantum_algebra.QuantumSymbol" xlink:title="Symbolic element of an algebra." target="_top">
<polygon fill="none" stroke="black" stroke-width="0.5" points="393.5,-116 295.5,-116 295.5,-97 393.5,-97 393.5,-116"/>
<text text-anchor="middle" x="344.5" y="-104" font-family="Vera Sans, DejaVu Sans, Liberation Sans, Arial, Helvetica, sans" font-size="10.00">QuantumSymbol</text>
</a>
</g>
</g>
<!-- QuantumExpression&#45;&gt;QuantumSymbol -->
<g id="edge36" class="edge">
<title>QuantumExpression&#45;&gt;QuantumSymbol</title>
<path fill="none" stroke="black" stroke-width="0.5" d="M176.52,-240.83C207.86,-215.62 292.05,-147.89 327.46,-119.4"/>
<polygon fill="black" stroke="black" stroke-width="0.5" points="328.73,-120.63 331.53,-116.13 326.54,-117.9 328.73,-120.63"/>
</g>
<!-- QuantumExpression&#45;&gt;ScalarTimesQuantumExpression -->
<g id="edge40" class="edge">
<title>QuantumExpression&#45;&gt;ScalarTimesQuantumExpression</title>
<path fill="none" stroke="black" stroke-width="0.5" d="M221.14,-250.5C230.91,-250.5 241.28,-250.5 251.7,-250.5"/>
<polygon fill="black" stroke="black" stroke-width="0.5" points="251.82,-252.25 256.82,-250.5 251.82,-248.75 251.82,-252.25"/>
</g>
<!-- QuantumDerivative&#45;&gt;OperatorDerivative -->
<g id="edge12" class="edge">
<title>QuantumDerivative&#45;&gt;OperatorDerivative</title>
<path fill="none" stroke="black" stroke-width="0.5" d="M754.41,-521.95C758.68,-519.7 762.65,-516.92 766,-513.5 807.94,-470.66 779.02,-438.87 802,-383.5 815.88,-350.06 838.34,-313.89 851.01,-294.57"/>
<polygon fill="black" stroke="black" stroke-width="0.5" points="852.71,-295.17 854.01,-290.03 849.8,-293.24 852.71,-295.17"/>
</g>
<!-- QuantumIndexedSum&#45;&gt;OperatorIndexedSum -->
<g id="edge14" class="edge">
<title>QuantumIndexedSum&#45;&gt;OperatorIndexedSum</title>
<path fill="none" stroke="black" stroke-width="0.5" d="M750.99,-558.93C756.34,-556.69 761.49,-553.92 766,-550.5 814,-514.12 844.01,-445.73 855.35,-415.96"/>
<polygon fill="black" stroke="black" stroke-width="0.5" points="857.02,-416.49 857.13,-411.19 853.75,-415.26 857.02,-416.49"/>
</g>
<!-- QuantumPlus&#45;&gt;OperatorPlus -->
<g id="edge16" class="edge">
<title>QuantumPlus&#45;&gt;OperatorPlus</title>
<path fill="none" stroke="black" stroke-width="0.5" d="M579.36,-309.5C603.68,-309.5 634.67,-309.5 659.67,-309.5"/>
<polygon fill="black" stroke="black" stroke-width="0.5" points="659.91,-311.25 664.91,-309.5 659.91,-307.75 659.91,-311.25"/>
</g>
<!-- QuantumSymbol&#45;&gt;OperatorSymbol -->
<g id="edge20" class="edge">
<title>QuantumSymbol&#45;&gt;OperatorSymbol</title>
<path fill="none" stroke="black" stroke-width="0.5" d="M380.86,-96.93C447.88,-78.8 593.01,-39.53 663.69,-20.41"/>
<polygon fill="black" stroke="black" stroke-width="0.5" points="664.28,-22.06 668.64,-19.07 663.36,-18.68 664.28,-22.06"/>
</g>
<!-- QuantumTimes&#45;&gt;OperatorTimes -->
<g id="edge22" class="edge">
<title>QuantumTimes&#45;&gt;OperatorTimes</title>
<path fill="none" stroke="black" stroke-width="0.5" d="M584.09,-272.5C606.18,-272.5 632.8,-272.5 655.35,-272.5"/>
<polygon fill="black" stroke="black" stroke-width="0.5" points="655.39,-274.25 660.39,-272.5 655.39,-270.75 655.39,-274.25"/>
</g>
<!-- ScalarTimesQuantumExpression&#45;&gt;ScalarTimesOperator -->
<g id="edge39" class="edge">
<title>ScalarTimesQuantumExpression&#45;&gt;ScalarTimesOperator</title>
<path fill="none" stroke="black" stroke-width="0.5" d="M352.32,-240.69C369.2,-217.11 415.43,-156.71 468,-123.5 500.72,-102.83 603.66,-73.27 662.21,-57.46"/>
<polygon fill="black" stroke="black" stroke-width="0.5" points="663.01,-59.06 667.39,-56.07 662.1,-55.68 663.01,-59.06"/>
</g>
</g>
</svg>
