<?xml version="1.0" encoding="UTF-8" standalone="no"?>
<!DOCTYPE svg PUBLIC "-//W3C//DTD SVG 1.1//EN"
 "http://www.w3.org/Graphics/SVG/1.1/DTD/svg11.dtd">
<!-- Generated by graphviz version 2.43.0 (0)
 -->
<!-- Title: inheritancef8ddef74b2 Pages: 1 -->
<svg width="1094pt" height="441pt"
 viewBox="0.00 0.00 1094.00 440.91" xmlns="http://www.w3.org/2000/svg" xmlns:xlink="http://www.w3.org/1999/xlink">
<g id="graph0" class="graph" transform="scale(1 1) rotate(0) translate(4 436.91)">
<title>inheritancef8ddef74b2</title>
<polygon fill="white" stroke="transparent" points="-4,4 -4,-436.91 1090,-436.91 1090,4 -4,4"/>
<!-- DisjunctCommutativeHSOrder -->
<g id="node1" class="node">
<title>DisjunctCommutativeHSOrder</title>
<g id="a_node1"><a xlink:href="../API/qalgebra.utils.ordering.html#qalgebra.utils.ordering.DisjunctCommutativeHSOrder" xlink:title="Auxiliary class that generates the correct pseudo&#45;order relation for" target="_top">
<polygon fill="none" stroke="black" stroke-width="0.5" points="164,-168.91 0,-168.91 0,-149.91 164,-149.91 164,-168.91"/>
<text text-anchor="middle" x="82" y="-156.91" font-family="Vera Sans, DejaVu Sans, Liberation Sans, Arial, Helvetica, sans" font-size="10.00">DisjunctCommutativeHSOrder</text>
</a>
</g>
</g>
<!-- SuperCommutativeHSOrder -->
<g id="node19" class="node">
<title>SuperCommutativeHSOrder</title>
<g id="a_node19"><a xlink:href="../API/qalgebra.core.super_operator_algebra.html#qalgebra.core.super_operator_algebra.SuperCommutativeHSOrder" xlink:title="Ordering class that acts like DisjunctCommutativeHSOrder, but also" target="_top">
<polygon fill="none" stroke="black" stroke-width="0.5" points="352,-168.91 200,-168.91 200,-149.91 352,-149.91 352,-168.91"/>
<text text-anchor="middle" x="276" y="-156.91" font-family="Vera Sans, DejaVu Sans, Liberation Sans, Arial, Helvetica, sans" font-size="10.00">SuperCommutativeHSOrder</text>
</a>
</g>
</g>
<!-- DisjunctCommutativeHSOrder&#45;&gt;SuperCommutativeHSOrder -->
<g id="edge22" class="edge">
<title>DisjunctCommutativeHSOrder&#45;&gt;SuperCommutativeHSOrder</title>
<path fill="none" stroke="black" stroke-width="0.5" d="M164.15,-159.41C174.26,-159.41 184.59,-159.41 194.69,-159.41"/>
<polygon fill="black" stroke="black" stroke-width="0.5" points="194.95,-161.16 199.95,-159.41 194.94,-157.66 194.95,-161.16"/>
</g>
<!-- Expression -->
<g id="node2" class="node">
<title>Expression</title>
<g id="a_node2"><a xlink:href="../API/qalgebra.core.abstract_algebra.html#qalgebra.core.abstract_algebra.Expression" xlink:title="Base class for all QAlgebra Expressions." target="_top">
<polygon fill="none" stroke="black" stroke-width="0.5" points="117,-243.91 47,-243.91 47,-224.91 117,-224.91 117,-243.91"/>
<text text-anchor="middle" x="82" y="-231.91" font-family="Vera Sans, DejaVu Sans, Liberation Sans, Arial, Helvetica, sans" font-size="10.00">Expression</text>
</a>
</g>
</g>
<!-- Operation -->
<g id="node3" class="node">
<title>Operation</title>
<g id="a_node3"><a xlink:href="../API/qalgebra.core.abstract_algebra.html#qalgebra.core.abstract_algebra.Operation" xlink:title="Base class for &quot;operations&quot;" target="_top">
<polygon fill="none" stroke="black" stroke-width="0.5" points="308.5,-300.91 243.5,-300.91 243.5,-281.91 308.5,-281.91 308.5,-300.91"/>
<text text-anchor="middle" x="276" y="-288.91" font-family="Vera Sans, DejaVu Sans, Liberation Sans, Arial, Helvetica, sans" font-size="10.00">Operation</text>
</a>
</g>
</g>
<!-- Expression&#45;&gt;Operation -->
<g id="edge1" class="edge">
<title>Expression&#45;&gt;Operation</title>
<path fill="none" stroke="black" stroke-width="0.5" d="M115.14,-243.95C149.12,-254.03 202.65,-269.93 238.28,-280.5"/>
<polygon fill="black" stroke="black" stroke-width="0.5" points="238.11,-282.28 243.4,-282.02 239.1,-278.92 238.11,-282.28"/>
</g>
<!-- QuantumExpression -->
<g id="node5" class="node">
<title>QuantumExpression</title>
<g id="a_node5"><a xlink:href="../API/qalgebra.core.abstract_quantum_algebra.html#qalgebra.core.abstract_quantum_algebra.QuantumExpression" xlink:title="Base class for expressions associated with a Hilbert space" target="_top">
<polygon fill="none" stroke="black" stroke-width="0.5" points="333.5,-224.91 218.5,-224.91 218.5,-205.91 333.5,-205.91 333.5,-224.91"/>
<text text-anchor="middle" x="276" y="-212.91" font-family="Vera Sans, DejaVu Sans, Liberation Sans, Arial, Helvetica, sans" font-size="10.00">QuantumExpression</text>
</a>
</g>
</g>
<!-- Expression&#45;&gt;QuantumExpression -->
<g id="edge5" class="edge">
<title>Expression&#45;&gt;QuantumExpression</title>
<path fill="none" stroke="black" stroke-width="0.5" d="M117.33,-231.01C143.95,-228.37 181.54,-224.65 213.34,-221.51"/>
<polygon fill="black" stroke="black" stroke-width="0.5" points="213.59,-223.24 218.39,-221.01 213.24,-219.76 213.59,-223.24"/>
</g>
<!-- QuantumOperation -->
<g id="node9" class="node">
<title>QuantumOperation</title>
<g id="a_node9"><a xlink:href="../API/qalgebra.core.abstract_quantum_algebra.html#qalgebra.core.abstract_quantum_algebra.QuantumOperation" xlink:title="Base class for operations on quantum expression" target="_top">
<polygon fill="none" stroke="black" stroke-width="0.5" points="530.5,-395.91 420.5,-395.91 420.5,-376.91 530.5,-376.91 530.5,-395.91"/>
<text text-anchor="middle" x="475.5" y="-383.91" font-family="Vera Sans, DejaVu Sans, Liberation Sans, Arial, Helvetica, sans" font-size="10.00">QuantumOperation</text>
</a>
</g>
</g>
<!-- Operation&#45;&gt;QuantumOperation -->
<g id="edge7" class="edge">
<title>Operation&#45;&gt;QuantumOperation</title>
<path fill="none" stroke="black" stroke-width="0.5" d="M289.28,-301.02C309.04,-316.08 349.56,-345.25 388,-362.41 399.68,-367.62 412.77,-371.96 425.16,-375.45"/>
<polygon fill="black" stroke="black" stroke-width="0.5" points="424.76,-377.15 430.05,-376.79 425.69,-373.78 424.76,-377.15"/>
</g>
<!-- SPost -->
<g id="node13" class="node">
<title>SPost</title>
<g id="a_node13"><a xlink:href="../API/qalgebra.core.super_operator_algebra.html#qalgebra.core.super_operator_algebra.SPost" xlink:title="Linear post&#45;multiplication operator." target="_top">
<polygon fill="none" stroke="black" stroke-width="0.5" points="706,-321.91 652,-321.91 652,-302.91 706,-302.91 706,-321.91"/>
<text text-anchor="middle" x="679" y="-309.91" font-family="Vera Sans, DejaVu Sans, Liberation Sans, Arial, Helvetica, sans" font-size="10.00">SPost</text>
</a>
</g>
</g>
<!-- Operation&#45;&gt;SPost -->
<g id="edge12" class="edge">
<title>Operation&#45;&gt;SPost</title>
<path fill="none" stroke="black" stroke-width="0.5" d="M308.96,-296.7C331.08,-300.13 361.25,-304.33 388,-306.41 481.92,-313.7 593.44,-313.54 646.68,-312.92"/>
<polygon fill="black" stroke="black" stroke-width="0.5" points="646.98,-314.67 651.96,-312.86 646.93,-311.17 646.98,-314.67"/>
</g>
<!-- SPre -->
<g id="node15" class="node">
<title>SPre</title>
<g id="a_node15"><a xlink:href="../API/qalgebra.core.super_operator_algebra.html#qalgebra.core.super_operator_algebra.SPre" xlink:title="Linear pre&#45;multiplication operator" target="_top">
<polygon fill="none" stroke="black" stroke-width="0.5" points="706,-284.91 652,-284.91 652,-265.91 706,-265.91 706,-284.91"/>
<text text-anchor="middle" x="679" y="-272.91" font-family="Vera Sans, DejaVu Sans, Liberation Sans, Arial, Helvetica, sans" font-size="10.00">SPre</text>
</a>
</g>
</g>
<!-- Operation&#45;&gt;SPre -->
<g id="edge14" class="edge">
<title>Operation&#45;&gt;SPre</title>
<path fill="none" stroke="black" stroke-width="0.5" d="M308.79,-292.84C361.64,-294.89 470.87,-297.78 563,-291.41 591.42,-289.44 623.5,-284.77 646.55,-280.98"/>
<polygon fill="black" stroke="black" stroke-width="0.5" points="646.97,-282.68 651.62,-280.13 646.4,-279.23 646.97,-282.68"/>
</g>
<!-- ScalarTimesQuantumExpression -->
<g id="node16" class="node">
<title>ScalarTimesQuantumExpression</title>
<g id="a_node16"><a xlink:href="../API/qalgebra.core.abstract_quantum_algebra.html#qalgebra.core.abstract_quantum_algebra.ScalarTimesQuantumExpression" xlink:title="Product of a :class:`.Scalar` and a :class:`.QuantumExpression`" target="_top">
<polygon fill="none" stroke="black" stroke-width="0.5" points="563,-281.91 388,-281.91 388,-262.91 563,-262.91 563,-281.91"/>
<text text-anchor="middle" x="475.5" y="-269.91" font-family="Vera Sans, DejaVu Sans, Liberation Sans, Arial, Helvetica, sans" font-size="10.00">ScalarTimesQuantumExpression</text>
</a>
</g>
</g>
<!-- Operation&#45;&gt;ScalarTimesQuantumExpression -->
<g id="edge16" class="edge">
<title>Operation&#45;&gt;ScalarTimesQuantumExpression</title>
<path fill="none" stroke="black" stroke-width="0.5" d="M308.73,-288.35C328.87,-286.42 356.05,-283.8 382.57,-281.25"/>
<polygon fill="black" stroke="black" stroke-width="0.5" points="383.05,-282.96 387.86,-280.74 382.72,-279.48 383.05,-282.96"/>
</g>
<!-- SuperOperatorTimesOperator -->
<g id="node24" class="node">
<title>SuperOperatorTimesOperator</title>
<g id="a_node24"><a xlink:href="../API/qalgebra.core.super_operator_algebra.html#qalgebra.core.super_operator_algebra.SuperOperatorTimesOperator" xlink:title="Application of a super&#45;operator to an operator." target="_top">
<polygon fill="none" stroke="black" stroke-width="0.5" points="759,-210.91 599,-210.91 599,-191.91 759,-191.91 759,-210.91"/>
<text text-anchor="middle" x="679" y="-198.91" font-family="Vera Sans, DejaVu Sans, Liberation Sans, Arial, Helvetica, sans" font-size="10.00">SuperOperatorTimesOperator</text>
</a>
</g>
</g>
<!-- Operation&#45;&gt;SuperOperatorTimesOperator -->
<g id="edge33" class="edge">
<title>Operation&#45;&gt;SuperOperatorTimesOperator</title>
<path fill="none" stroke="black" stroke-width="0.5" d="M302.27,-281.85C324.57,-273.69 358.09,-262.08 388,-254.41 461.27,-235.6 546.59,-220.84 605.63,-211.73"/>
<polygon fill="black" stroke="black" stroke-width="0.5" points="606.23,-213.41 610.9,-210.92 605.7,-209.95 606.23,-213.41"/>
</g>
<!-- Operator -->
<g id="node4" class="node">
<title>Operator</title>
<g id="a_node4"><a xlink:href="../API/qalgebra.core.operator_algebra.html#qalgebra.core.operator_algebra.Operator" xlink:title="Base class for all quantum operators." target="_top">
<polygon fill="none" stroke="black" stroke-width="0.5" points="505,-205.91 446,-205.91 446,-186.91 505,-186.91 505,-205.91"/>
<text text-anchor="middle" x="475.5" y="-193.91" font-family="Vera Sans, DejaVu Sans, Liberation Sans, Arial, Helvetica, sans" font-size="10.00">Operator</text>
</a>
</g>
</g>
<!-- Operator&#45;&gt;SuperOperatorTimesOperator -->
<g id="edge32" class="edge">
<title>Operator&#45;&gt;SuperOperatorTimesOperator</title>
<path fill="none" stroke="black" stroke-width="0.5" d="M505.37,-197.12C528.51,-197.7 562.2,-198.53 593.69,-199.31"/>
<polygon fill="black" stroke="black" stroke-width="0.5" points="593.68,-201.06 598.72,-199.44 593.77,-197.56 593.68,-201.06"/>
</g>
<!-- QuantumExpression&#45;&gt;Operator -->
<g id="edge2" class="edge">
<title>QuantumExpression&#45;&gt;Operator</title>
<path fill="none" stroke="black" stroke-width="0.5" d="M333.6,-209.96C368.15,-206.64 411.18,-202.5 440.54,-199.67"/>
<polygon fill="black" stroke="black" stroke-width="0.5" points="441.04,-201.38 445.85,-199.16 440.71,-197.9 441.04,-201.38"/>
</g>
<!-- QuantumExpression&#45;&gt;QuantumOperation -->
<g id="edge6" class="edge">
<title>QuantumExpression&#45;&gt;QuantumOperation</title>
<path fill="none" stroke="black" stroke-width="0.5" d="M290.01,-224.93C305.18,-236.15 330.88,-255.56 352,-273.41 392.94,-308.01 438.79,-351.72 460.99,-373.22"/>
<polygon fill="black" stroke="black" stroke-width="0.5" points="459.8,-374.5 464.6,-376.73 462.23,-371.99 459.8,-374.5"/>
</g>
<!-- QuantumSymbol -->
<g id="node11" class="node">
<title>QuantumSymbol</title>
<g id="a_node11"><a xlink:href="../API/qalgebra.core.abstract_quantum_algebra.html#qalgebra.core.abstract_quantum_algebra.QuantumSymbol" xlink:title="Symbolic element of an algebra." target="_top">
<polygon fill="none" stroke="black" stroke-width="0.5" points="524.5,-168.91 426.5,-168.91 426.5,-149.91 524.5,-149.91 524.5,-168.91"/>
<text text-anchor="middle" x="475.5" y="-156.91" font-family="Vera Sans, DejaVu Sans, Liberation Sans, Arial, Helvetica, sans" font-size="10.00">QuantumSymbol</text>
</a>
</g>
</g>
<!-- QuantumExpression&#45;&gt;QuantumSymbol -->
<g id="edge9" class="edge">
<title>QuantumExpression&#45;&gt;QuantumSymbol</title>
<path fill="none" stroke="black" stroke-width="0.5" d="M303.22,-205.79C325.57,-197.81 358.63,-186.5 388,-178.41 398.8,-175.43 410.45,-172.61 421.61,-170.09"/>
<polygon fill="black" stroke="black" stroke-width="0.5" points="422.19,-171.76 426.69,-168.96 421.43,-168.34 422.19,-171.76"/>
</g>
<!-- SuperOperator -->
<g id="node14" class="node">
<title>SuperOperator</title>
<g id="a_node14"><a xlink:href="../API/qalgebra.core.super_operator_algebra.html#qalgebra.core.super_operator_algebra.SuperOperator" xlink:title="Base class for super&#45;operators" target="_top">
<polygon fill="none" stroke="black" stroke-width="0.5" points="519,-131.91 432,-131.91 432,-112.91 519,-112.91 519,-131.91"/>
<text text-anchor="middle" x="475.5" y="-119.91" font-family="Vera Sans, DejaVu Sans, Liberation Sans, Arial, Helvetica, sans" font-size="10.00">SuperOperator</text>
</a>
</g>
</g>
<!-- QuantumExpression&#45;&gt;SuperOperator -->
<g id="edge23" class="edge">
<title>QuantumExpression&#45;&gt;SuperOperator</title>
<path fill="none" stroke="black" stroke-width="0.5" d="M301.49,-205.85C316.75,-199.3 336.38,-189.76 352,-178.41 370.56,-164.91 367.95,-152.56 388,-141.41 399.74,-134.87 413.55,-130.59 426.64,-127.77"/>
<polygon fill="black" stroke="black" stroke-width="0.5" points="427.26,-129.43 431.81,-126.73 426.56,-126 427.26,-129.43"/>
</g>
<!-- QuantumExpression&#45;&gt;ScalarTimesQuantumExpression -->
<g id="edge15" class="edge">
<title>QuantumExpression&#45;&gt;ScalarTimesQuantumExpression</title>
<path fill="none" stroke="black" stroke-width="0.5" d="M310.06,-224.95C344.95,-235.02 399.86,-250.86 436.51,-261.44"/>
<polygon fill="black" stroke="black" stroke-width="0.5" points="436.05,-263.13 441.34,-262.83 437.02,-259.77 436.05,-263.13"/>
</g>
<!-- QuantumAdjoint -->
<g id="node6" class="node">
<title>QuantumAdjoint</title>
<g id="a_node6"><a xlink:href="../API/qalgebra.core.abstract_quantum_algebra.html#qalgebra.core.abstract_quantum_algebra.QuantumAdjoint" xlink:title="Base class for adjoints of quantum expressions" target="_top">
<polygon fill="none" stroke="black" stroke-width="0.5" points="901.5,-404.91 805.5,-404.91 805.5,-385.91 901.5,-385.91 901.5,-404.91"/>
<text text-anchor="middle" x="853.5" y="-392.91" font-family="Vera Sans, DejaVu Sans, Liberation Sans, Arial, Helvetica, sans" font-size="10.00">QuantumAdjoint</text>
</a>
</g>
</g>
<!-- SuperAdjoint -->
<g id="node18" class="node">
<title>SuperAdjoint</title>
<g id="a_node18"><a xlink:href="../API/qalgebra.core.super_operator_algebra.html#qalgebra.core.super_operator_algebra.SuperAdjoint" xlink:title="Adjoint of a super&#45;operator." target="_top">
<polygon fill="none" stroke="black" stroke-width="0.5" points="1056.5,-189.91 977.5,-189.91 977.5,-170.91 1056.5,-170.91 1056.5,-189.91"/>
<text text-anchor="middle" x="1017" y="-177.91" font-family="Vera Sans, DejaVu Sans, Liberation Sans, Arial, Helvetica, sans" font-size="10.00">SuperAdjoint</text>
</a>
</g>
</g>
<!-- QuantumAdjoint&#45;&gt;SuperAdjoint -->
<g id="edge20" class="edge">
<title>QuantumAdjoint&#45;&gt;SuperAdjoint</title>
<path fill="none" stroke="black" stroke-width="0.5" d="M862.02,-385.89C873.08,-371.85 894.32,-344.75 912,-321.41 947.06,-275.1 987.68,-219.42 1006.06,-194.12"/>
<polygon fill="black" stroke="black" stroke-width="0.5" points="1007.5,-195.11 1009.02,-190.04 1004.67,-193.06 1007.5,-195.11"/>
</g>
<!-- SingleQuantumOperation -->
<g id="node7" class="node">
<title>SingleQuantumOperation</title>
<g id="a_node7"><a xlink:href="../API/qalgebra.core.abstract_quantum_algebra.html#qalgebra.core.abstract_quantum_algebra.SingleQuantumOperation" xlink:title="Base class for operations on a single quantum expression" target="_top">
<polygon fill="none" stroke="black" stroke-width="0.5" points="749,-432.91 609,-432.91 609,-413.91 749,-413.91 749,-432.91"/>
<text text-anchor="middle" x="679" y="-420.91" font-family="Vera Sans, DejaVu Sans, Liberation Sans, Arial, Helvetica, sans" font-size="10.00">SingleQuantumOperation</text>
</a>
</g>
</g>
<!-- SingleQuantumOperation&#45;&gt;QuantumAdjoint -->
<g id="edge3" class="edge">
<title>SingleQuantumOperation&#45;&gt;QuantumAdjoint</title>
<path fill="none" stroke="black" stroke-width="0.5" d="M738.88,-413.85C758.69,-410.63 780.64,-407.07 799.93,-403.94"/>
<polygon fill="black" stroke="black" stroke-width="0.5" points="800.64,-405.6 805.29,-403.07 800.08,-402.14 800.64,-405.6"/>
</g>
<!-- QuantumDerivative -->
<g id="node8" class="node">
<title>QuantumDerivative</title>
<g id="a_node8"><a xlink:href="../API/qalgebra.core.abstract_quantum_algebra.html#qalgebra.core.abstract_quantum_algebra.QuantumDerivative" xlink:title="Symbolic partial derivative." target="_top">
<polygon fill="none" stroke="black" stroke-width="0.5" points="910,-311.91 797,-311.91 797,-292.91 910,-292.91 910,-311.91"/>
<text text-anchor="middle" x="853.5" y="-299.91" font-family="Vera Sans, DejaVu Sans, Liberation Sans, Arial, Helvetica, sans" font-size="10.00">QuantumDerivative</text>
</a>
</g>
</g>
<!-- SingleQuantumOperation&#45;&gt;QuantumDerivative -->
<g id="edge4" class="edge">
<title>SingleQuantumOperation&#45;&gt;QuantumDerivative</title>
<path fill="none" stroke="black" stroke-width="0.5" d="M740.16,-413.81C746.75,-411.57 753.17,-408.81 759,-405.41 797.54,-382.88 829.17,-339.18 843.78,-316.63"/>
<polygon fill="black" stroke="black" stroke-width="0.5" points="845.42,-317.31 846.63,-312.16 842.47,-315.43 845.42,-317.31"/>
</g>
<!-- SuperOperatorDerivative -->
<g id="node20" class="node">
<title>SuperOperatorDerivative</title>
<g id="a_node20"><a xlink:href="../API/qalgebra.core.super_operator_algebra.html#qalgebra.core.super_operator_algebra.SuperOperatorDerivative" xlink:title="Symbolic partial derivative of a super&#45;operator" target="_top">
<polygon fill="none" stroke="black" stroke-width="0.5" points="1086,-152.91 948,-152.91 948,-133.91 1086,-133.91 1086,-152.91"/>
<text text-anchor="middle" x="1017" y="-140.91" font-family="Vera Sans, DejaVu Sans, Liberation Sans, Arial, Helvetica, sans" font-size="10.00">SuperOperatorDerivative</text>
</a>
</g>
</g>
<!-- QuantumDerivative&#45;&gt;SuperOperatorDerivative -->
<g id="edge24" class="edge">
<title>QuantumDerivative&#45;&gt;SuperOperatorDerivative</title>
<path fill="none" stroke="black" stroke-width="0.5" d="M858.08,-292.88C868.12,-267.53 899.01,-197.91 948,-162.41 952.02,-159.49 956.47,-157.02 961.11,-154.94"/>
<polygon fill="black" stroke="black" stroke-width="0.5" points="961.87,-156.51 965.81,-152.97 960.52,-153.28 961.87,-156.51"/>
</g>
<!-- QuantumOperation&#45;&gt;SingleQuantumOperation -->
<g id="edge19" class="edge">
<title>QuantumOperation&#45;&gt;SingleQuantumOperation</title>
<path fill="none" stroke="black" stroke-width="0.5" d="M528.39,-395.93C556.72,-401.14 591.85,-407.59 620.95,-412.93"/>
<polygon fill="black" stroke="black" stroke-width="0.5" points="620.7,-414.66 625.93,-413.84 621.33,-411.22 620.7,-414.66"/>
</g>
<!-- QuantumPlus -->
<g id="node10" class="node">
<title>QuantumPlus</title>
<g id="a_node10"><a xlink:href="../API/qalgebra.core.abstract_quantum_algebra.html#qalgebra.core.abstract_quantum_algebra.QuantumPlus" xlink:title="General implementation of addition of quantum expressions" target="_top">
<polygon fill="none" stroke="black" stroke-width="0.5" points="720,-395.91 638,-395.91 638,-376.91 720,-376.91 720,-395.91"/>
<text text-anchor="middle" x="679" y="-383.91" font-family="Vera Sans, DejaVu Sans, Liberation Sans, Arial, Helvetica, sans" font-size="10.00">QuantumPlus</text>
</a>
</g>
</g>
<!-- QuantumOperation&#45;&gt;QuantumPlus -->
<g id="edge8" class="edge">
<title>QuantumOperation&#45;&gt;QuantumPlus</title>
<path fill="none" stroke="black" stroke-width="0.5" d="M530.76,-386.41C562.61,-386.41 602.39,-386.41 632.57,-386.41"/>
<polygon fill="black" stroke="black" stroke-width="0.5" points="632.71,-388.16 637.71,-386.41 632.71,-384.66 632.71,-388.16"/>
</g>
<!-- QuantumTimes -->
<g id="node12" class="node">
<title>QuantumTimes</title>
<g id="a_node12"><a xlink:href="../API/qalgebra.core.abstract_quantum_algebra.html#qalgebra.core.abstract_quantum_algebra.QuantumTimes" xlink:title="General implementation of product of quantum expressions" target="_top">
<polygon fill="none" stroke="black" stroke-width="0.5" points="725,-358.91 633,-358.91 633,-339.91 725,-339.91 725,-358.91"/>
<text text-anchor="middle" x="679" y="-346.91" font-family="Vera Sans, DejaVu Sans, Liberation Sans, Arial, Helvetica, sans" font-size="10.00">QuantumTimes</text>
</a>
</g>
</g>
<!-- QuantumOperation&#45;&gt;QuantumTimes -->
<g id="edge10" class="edge">
<title>QuantumOperation&#45;&gt;QuantumTimes</title>
<path fill="none" stroke="black" stroke-width="0.5" d="M528.39,-376.88C558.93,-371.27 597.36,-364.21 627.63,-358.66"/>
<polygon fill="black" stroke="black" stroke-width="0.5" points="628.19,-360.33 632.79,-357.71 627.56,-356.89 628.19,-360.33"/>
</g>
<!-- SuperOperatorPlus -->
<g id="node21" class="node">
<title>SuperOperatorPlus</title>
<g id="a_node21"><a xlink:href="../API/qalgebra.core.super_operator_algebra.html#qalgebra.core.super_operator_algebra.SuperOperatorPlus" xlink:title="A sum of super&#45;operators" target="_top">
<polygon fill="none" stroke="black" stroke-width="0.5" points="907,-163.91 800,-163.91 800,-144.91 907,-144.91 907,-163.91"/>
<text text-anchor="middle" x="853.5" y="-151.91" font-family="Vera Sans, DejaVu Sans, Liberation Sans, Arial, Helvetica, sans" font-size="10.00">SuperOperatorPlus</text>
</a>
</g>
</g>
<!-- QuantumPlus&#45;&gt;SuperOperatorPlus -->
<g id="edge26" class="edge">
<title>QuantumPlus&#45;&gt;SuperOperatorPlus</title>
<path fill="none" stroke="black" stroke-width="0.5" d="M720.22,-384.53C733.78,-382.13 748.2,-377.41 759,-368.41 790.2,-342.4 778.78,-321.65 795,-284.41 813.3,-242.37 835.32,-192.88 846.03,-168.89"/>
<polygon fill="black" stroke="black" stroke-width="0.5" points="847.69,-169.45 848.13,-164.17 844.5,-168.03 847.69,-169.45"/>
</g>
<!-- SuperOperatorSymbol -->
<g id="node22" class="node">
<title>SuperOperatorSymbol</title>
<g id="a_node22"><a xlink:href="../API/qalgebra.core.super_operator_algebra.html#qalgebra.core.super_operator_algebra.SuperOperatorSymbol" xlink:title="Symbolic super&#45;operator" target="_top">
<polygon fill="none" stroke="black" stroke-width="0.5" points="741,-173.91 617,-173.91 617,-154.91 741,-154.91 741,-173.91"/>
<text text-anchor="middle" x="679" y="-161.91" font-family="Vera Sans, DejaVu Sans, Liberation Sans, Arial, Helvetica, sans" font-size="10.00">SuperOperatorSymbol</text>
</a>
</g>
</g>
<!-- QuantumSymbol&#45;&gt;SuperOperatorSymbol -->
<g id="edge28" class="edge">
<title>QuantumSymbol&#45;&gt;SuperOperatorSymbol</title>
<path fill="none" stroke="black" stroke-width="0.5" d="M524.51,-160.6C550.59,-161.24 583.24,-162.05 611.71,-162.76"/>
<polygon fill="black" stroke="black" stroke-width="0.5" points="611.93,-164.52 616.98,-162.89 612.02,-161.02 611.93,-164.52"/>
</g>
<!-- SuperOperatorTimes -->
<g id="node23" class="node">
<title>SuperOperatorTimes</title>
<g id="a_node23"><a xlink:href="../API/qalgebra.core.super_operator_algebra.html#qalgebra.core.super_operator_algebra.SuperOperatorTimes" xlink:title="Product of super&#45;operators" target="_top">
<polygon fill="none" stroke="black" stroke-width="0.5" points="912,-97.91 795,-97.91 795,-78.91 912,-78.91 912,-97.91"/>
<text text-anchor="middle" x="853.5" y="-85.91" font-family="Vera Sans, DejaVu Sans, Liberation Sans, Arial, Helvetica, sans" font-size="10.00">SuperOperatorTimes</text>
</a>
</g>
</g>
<!-- QuantumTimes&#45;&gt;SuperOperatorTimes -->
<g id="edge30" class="edge">
<title>QuantumTimes&#45;&gt;SuperOperatorTimes</title>
<path fill="none" stroke="black" stroke-width="0.5" d="M725.11,-348.12C737.59,-345.59 750.14,-340.64 759,-331.41 820.01,-267.81 750.53,-212.5 795,-136.41 803.65,-121.61 818.64,-109.32 831.14,-100.89"/>
<polygon fill="black" stroke="black" stroke-width="0.5" points="832.39,-102.16 835.62,-97.95 830.48,-99.23 832.39,-102.16"/>
</g>
<!-- SuperOperator&#45;&gt;SPost -->
<g id="edge11" class="edge">
<title>SuperOperator&#45;&gt;SPost</title>
<path fill="none" stroke="black" stroke-width="0.5" d="M519.28,-122.61C534.88,-124.84 551.5,-130.07 563,-141.41 612.76,-190.43 549.43,-245.18 599,-294.41 611.38,-306.69 630.29,-311.3 646.52,-312.79"/>
<polygon fill="black" stroke="black" stroke-width="0.5" points="646.79,-314.56 651.9,-313.18 647.04,-311.07 646.79,-314.56"/>
</g>
<!-- SuperOperator&#45;&gt;SPre -->
<g id="edge13" class="edge">
<title>SuperOperator&#45;&gt;SPre</title>
<path fill="none" stroke="black" stroke-width="0.5" d="M519.32,-123.1C534.74,-125.42 551.22,-130.59 563,-141.41 602.75,-177.93 559.39,-220.73 599,-257.41 611.7,-269.17 630.45,-273.78 646.5,-275.4"/>
<polygon fill="black" stroke="black" stroke-width="0.5" points="646.7,-277.17 651.83,-275.84 646.99,-273.68 646.7,-277.17"/>
</g>
<!-- ScalarTimesSuperOperator -->
<g id="node17" class="node">
<title>ScalarTimesSuperOperator</title>
<g id="a_node17"><a xlink:href="../API/qalgebra.core.super_operator_algebra.html#qalgebra.core.super_operator_algebra.ScalarTimesSuperOperator" xlink:title="Product of a :class:`.Scalar` coefficient and a :class:`.SuperOperator`." target="_top">
<polygon fill="none" stroke="black" stroke-width="0.5" points="752.5,-247.91 605.5,-247.91 605.5,-228.91 752.5,-228.91 752.5,-247.91"/>
<text text-anchor="middle" x="679" y="-235.91" font-family="Vera Sans, DejaVu Sans, Liberation Sans, Arial, Helvetica, sans" font-size="10.00">ScalarTimesSuperOperator</text>
</a>
</g>
</g>
<!-- SuperOperator&#45;&gt;ScalarTimesSuperOperator -->
<g id="edge17" class="edge">
<title>SuperOperator&#45;&gt;ScalarTimesSuperOperator</title>
<path fill="none" stroke="black" stroke-width="0.5" d="M519.06,-123.99C534.27,-126.43 550.68,-131.45 563,-141.41 593.01,-165.66 569.09,-196.03 599,-220.41 601.85,-222.73 604.94,-224.76 608.19,-226.54"/>
<polygon fill="black" stroke="black" stroke-width="0.5" points="607.47,-228.14 612.72,-228.82 609.04,-225.01 607.47,-228.14"/>
</g>
<!-- SuperOperator&#45;&gt;SuperAdjoint -->
<g id="edge21" class="edge">
<title>SuperOperator&#45;&gt;SuperAdjoint</title>
<path fill="none" stroke="black" stroke-width="0.5" d="M509.47,-112.88C599.4,-87.75 846.58,-24.58 912,-69.41 948.56,-94.46 914.98,-132.84 948,-162.41 954.83,-168.52 963.51,-172.6 972.36,-175.31"/>
<polygon fill="black" stroke="black" stroke-width="0.5" points="971.99,-177.02 977.28,-176.67 972.93,-173.65 971.99,-177.02"/>
</g>
<!-- SuperOperator&#45;&gt;SuperOperatorDerivative -->
<g id="edge25" class="edge">
<title>SuperOperator&#45;&gt;SuperOperatorDerivative</title>
<path fill="none" stroke="black" stroke-width="0.5" d="M485.82,-112.68C504.9,-93.58 550.68,-51.67 599,-36.41 731.65,5.51 783.86,17.74 912,-36.41 957.19,-55.5 992.43,-104.9 1007.72,-129.32"/>
<polygon fill="black" stroke="black" stroke-width="0.5" points="1006.39,-130.51 1010.5,-133.85 1009.38,-128.67 1006.39,-130.51"/>
</g>
<!-- SuperOperator&#45;&gt;SuperOperatorPlus -->
<g id="edge27" class="edge">
<title>SuperOperator&#45;&gt;SuperOperatorPlus</title>
<path fill="none" stroke="black" stroke-width="0.5" d="M519.1,-126.02C574.4,-130.71 673.91,-139.15 759,-146.41 770.51,-147.39 782.81,-148.44 794.58,-149.44"/>
<polygon fill="black" stroke="black" stroke-width="0.5" points="794.46,-151.19 799.59,-149.87 794.76,-147.7 794.46,-151.19"/>
</g>
<!-- SuperOperator&#45;&gt;SuperOperatorSymbol -->
<g id="edge29" class="edge">
<title>SuperOperator&#45;&gt;SuperOperatorSymbol</title>
<path fill="none" stroke="black" stroke-width="0.5" d="M519.23,-131.31C550.7,-137.87 593.63,-146.82 626.92,-153.76"/>
<polygon fill="black" stroke="black" stroke-width="0.5" points="626.92,-155.55 632.17,-154.85 627.64,-152.12 626.92,-155.55"/>
</g>
<!-- SuperOperator&#45;&gt;SuperOperatorTimes -->
<g id="edge31" class="edge">
<title>SuperOperator&#45;&gt;SuperOperatorTimes</title>
<path fill="none" stroke="black" stroke-width="0.5" d="M519.27,-118.54C585.34,-112.56 712.6,-101.06 789.3,-94.12"/>
<polygon fill="black" stroke="black" stroke-width="0.5" points="789.92,-95.82 794.74,-93.63 789.6,-92.34 789.92,-95.82"/>
</g>
<!-- ScalarTimesQuantumExpression&#45;&gt;ScalarTimesSuperOperator -->
<g id="edge18" class="edge">
<title>ScalarTimesQuantumExpression&#45;&gt;ScalarTimesSuperOperator</title>
<path fill="none" stroke="black" stroke-width="0.5" d="M532.9,-262.89C558.87,-258.51 589.77,-253.29 616.36,-248.81"/>
<polygon fill="black" stroke="black" stroke-width="0.5" points="616.98,-250.48 621.62,-247.92 616.4,-247.03 616.98,-250.48"/>
</g>
</g>
</svg>
