<?xml version="1.0" encoding="UTF-8" standalone="no"?>
<!DOCTYPE svg PUBLIC "-//W3C//DTD SVG 1.1//EN"
 "http://www.w3.org/Graphics/SVG/1.1/DTD/svg11.dtd">
<!-- Generated by graphviz version 2.43.0 (0)
 -->
<!-- Title: inheritance438bb7c2eb Pages: 1 -->
<svg width="912pt" height="475pt"
 viewBox="0.00 0.00 912.00 475.00" xmlns="http://www.w3.org/2000/svg" xmlns:xlink="http://www.w3.org/1999/xlink">
<g id="graph0" class="graph" transform="scale(1 1) rotate(0) translate(4 471)">
<title>inheritance438bb7c2eb</title>
<polygon fill="white" stroke="transparent" points="-4,4 -4,-471 908,-471 908,4 -4,4"/>
<!-- BasisKet -->
<g id="node1" class="node">
<title>BasisKet</title>
<g id="a_node1"><a xlink:href="../API/qalgebra.core.state_algebra.html#qalgebra.core.state_algebra.BasisKet" xlink:title="Local basis state, identified by index or label" target="_top">
<polygon fill="none" stroke="black" stroke-width="0.5" points="882.5,-19 823.5,-19 823.5,0 882.5,0 882.5,-19"/>
<text text-anchor="middle" x="853" y="-7" font-family="Vera Sans, DejaVu Sans, Liberation Sans, Arial, Helvetica, sans" font-size="10.00">BasisKet</text>
</a>
</g>
</g>
<!-- LocalKet -->
<g id="node2" class="node">
<title>LocalKet</title>
<g id="a_node2"><a xlink:href="../API/qalgebra.core.state_algebra.html#qalgebra.core.state_algebra.LocalKet" xlink:title="A state on a :class:`.LocalSpace`." target="_top">
<polygon fill="none" stroke="black" stroke-width="0.5" points="734,-56 676,-56 676,-37 734,-37 734,-56"/>
<text text-anchor="middle" x="705" y="-44" font-family="Vera Sans, DejaVu Sans, Liberation Sans, Arial, Helvetica, sans" font-size="10.00">LocalKet</text>
</a>
</g>
</g>
<!-- LocalKet&#45;&gt;BasisKet -->
<g id="edge1" class="edge">
<title>LocalKet&#45;&gt;BasisKet</title>
<path fill="none" stroke="black" stroke-width="0.5" d="M734.15,-39.37C758.23,-33.26 792.95,-24.47 818.46,-18"/>
<polygon fill="black" stroke="black" stroke-width="0.5" points="819.02,-19.66 823.44,-16.74 818.16,-16.27 819.02,-19.66"/>
</g>
<!-- CoherentStateKet -->
<g id="node10" class="node">
<title>CoherentStateKet</title>
<g id="a_node10"><a xlink:href="../API/qalgebra.core.state_algebra.html#qalgebra.core.state_algebra.CoherentStateKet" xlink:title="Local coherent state, labeled by a complex amplitude $alpha$." target="_top">
<polygon fill="none" stroke="black" stroke-width="0.5" points="904,-56 802,-56 802,-37 904,-37 904,-56"/>
<text text-anchor="middle" x="853" y="-44" font-family="Vera Sans, DejaVu Sans, Liberation Sans, Arial, Helvetica, sans" font-size="10.00">CoherentStateKet</text>
</a>
</g>
</g>
<!-- LocalKet&#45;&gt;CoherentStateKet -->
<g id="edge7" class="edge">
<title>LocalKet&#45;&gt;CoherentStateKet</title>
<path fill="none" stroke="black" stroke-width="0.5" d="M734.15,-46.5C751.87,-46.5 775.35,-46.5 796.68,-46.5"/>
<polygon fill="black" stroke="black" stroke-width="0.5" points="796.77,-48.25 801.77,-46.5 796.77,-44.75 796.77,-48.25"/>
</g>
<!-- KetSymbol -->
<g id="node3" class="node">
<title>KetSymbol</title>
<g id="a_node3"><a xlink:href="../API/qalgebra.core.state_algebra.html#qalgebra.core.state_algebra.KetSymbol" xlink:title="Symbolic state." target="_top">
<polygon fill="none" stroke="black" stroke-width="0.5" points="739.5,-19 670.5,-19 670.5,0 739.5,0 739.5,-19"/>
<text text-anchor="middle" x="705" y="-7" font-family="Vera Sans, DejaVu Sans, Liberation Sans, Arial, Helvetica, sans" font-size="10.00">KetSymbol</text>
</a>
</g>
</g>
<!-- KetSymbol&#45;&gt;BasisKet -->
<g id="edge2" class="edge">
<title>KetSymbol&#45;&gt;BasisKet</title>
<path fill="none" stroke="black" stroke-width="0.5" d="M739.86,-9.5C763.36,-9.5 794.53,-9.5 818.05,-9.5"/>
<polygon fill="black" stroke="black" stroke-width="0.5" points="818.24,-11.25 823.24,-9.5 818.24,-7.75 818.24,-11.25"/>
</g>
<!-- Bra -->
<g id="node4" class="node">
<title>Bra</title>
<g id="a_node4"><a xlink:href="../API/qalgebra.core.state_algebra.html#qalgebra.core.state_algebra.Bra" xlink:title="The associated dual/adjoint state for any ket" target="_top">
<polygon fill="none" stroke="black" stroke-width="0.5" points="880,-94 826,-94 826,-75 880,-75 880,-94"/>
<text text-anchor="middle" x="853" y="-82" font-family="Vera Sans, DejaVu Sans, Liberation Sans, Arial, Helvetica, sans" font-size="10.00">Bra</text>
</a>
</g>
</g>
<!-- State -->
<g id="node5" class="node">
<title>State</title>
<g id="a_node5"><a xlink:href="../API/qalgebra.core.state_algebra.html#qalgebra.core.state_algebra.State" xlink:title="Base class for states in a Hilbert space" target="_top">
<polygon fill="none" stroke="black" stroke-width="0.5" points="565,-128 511,-128 511,-109 565,-109 565,-128"/>
<text text-anchor="middle" x="538" y="-116" font-family="Vera Sans, DejaVu Sans, Liberation Sans, Arial, Helvetica, sans" font-size="10.00">State</text>
</a>
</g>
</g>
<!-- State&#45;&gt;LocalKet -->
<g id="edge17" class="edge">
<title>State&#45;&gt;LocalKet</title>
<path fill="none" stroke="black" stroke-width="0.5" d="M559.39,-108.82C580.45,-98.91 614.34,-83.2 644,-70.5 653.93,-66.25 664.87,-61.8 674.66,-57.91"/>
<polygon fill="black" stroke="black" stroke-width="0.5" points="675.36,-59.51 679.37,-56.04 674.08,-56.26 675.36,-59.51"/>
</g>
<!-- State&#45;&gt;KetSymbol -->
<g id="edge16" class="edge">
<title>State&#45;&gt;KetSymbol</title>
<path fill="none" stroke="black" stroke-width="0.5" d="M550.15,-108.81C577.05,-85.44 643.33,-27.87 644,-27.5 650.58,-23.88 657.98,-20.9 665.27,-18.49"/>
<polygon fill="black" stroke="black" stroke-width="0.5" points="666.05,-20.08 670.29,-16.9 665,-16.74 666.05,-20.08"/>
</g>
<!-- State&#45;&gt;Bra -->
<g id="edge3" class="edge">
<title>State&#45;&gt;Bra</title>
<path fill="none" stroke="black" stroke-width="0.5" d="M565.15,-115.66C622.45,-109.43 758.92,-94.61 820.68,-87.9"/>
<polygon fill="black" stroke="black" stroke-width="0.5" points="820.92,-89.64 825.71,-87.36 820.55,-86.16 820.92,-89.64"/>
</g>
<!-- KetIndexedSum -->
<g id="node15" class="node">
<title>KetIndexedSum</title>
<g id="a_node15"><a xlink:href="../API/qalgebra.core.state_algebra.html#qalgebra.core.state_algebra.KetIndexedSum" xlink:title="Indexed sum over Kets." target="_top">
<polygon fill="none" stroke="black" stroke-width="0.5" points="899,-318 807,-318 807,-299 899,-299 899,-318"/>
<text text-anchor="middle" x="853" y="-306" font-family="Vera Sans, DejaVu Sans, Liberation Sans, Arial, Helvetica, sans" font-size="10.00">KetIndexedSum</text>
</a>
</g>
</g>
<!-- State&#45;&gt;KetIndexedSum -->
<g id="edge11" class="edge">
<title>State&#45;&gt;KetIndexedSum</title>
<path fill="none" stroke="black" stroke-width="0.5" d="M565.34,-125.51C624.92,-141.39 764.96,-178.75 766,-179.5 807.99,-209.65 835.38,-267.16 846.44,-294.01"/>
<polygon fill="black" stroke="black" stroke-width="0.5" points="844.82,-294.68 848.32,-298.66 848.07,-293.37 844.82,-294.68"/>
</g>
<!-- KetPlus -->
<g id="node17" class="node">
<title>KetPlus</title>
<g id="a_node17"><a xlink:href="../API/qalgebra.core.state_algebra.html#qalgebra.core.state_algebra.KetPlus" xlink:title="Sum of states." target="_top">
<polygon fill="none" stroke="black" stroke-width="0.5" points="732,-282 678,-282 678,-263 732,-263 732,-282"/>
<text text-anchor="middle" x="705" y="-270" font-family="Vera Sans, DejaVu Sans, Liberation Sans, Arial, Helvetica, sans" font-size="10.00">KetPlus</text>
</a>
</g>
</g>
<!-- State&#45;&gt;KetPlus -->
<g id="edge13" class="edge">
<title>State&#45;&gt;KetPlus</title>
<path fill="none" stroke="black" stroke-width="0.5" d="M554.15,-128.04C569.38,-138.25 592.73,-155.68 608,-175.5 631.3,-205.75 615.36,-228.25 644,-253.5 652.03,-260.58 662.7,-265.02 672.82,-267.81"/>
<polygon fill="black" stroke="black" stroke-width="0.5" points="672.45,-269.52 677.72,-269.05 673.3,-266.13 672.45,-269.52"/>
</g>
<!-- OperatorTimesKet -->
<g id="node21" class="node">
<title>OperatorTimesKet</title>
<g id="a_node21"><a xlink:href="../API/qalgebra.core.state_algebra.html#qalgebra.core.state_algebra.OperatorTimesKet" xlink:title="Product of an operator and a state." target="_top">
<polygon fill="none" stroke="black" stroke-width="0.5" points="757.5,-319 652.5,-319 652.5,-300 757.5,-300 757.5,-319"/>
<text text-anchor="middle" x="705" y="-307" font-family="Vera Sans, DejaVu Sans, Liberation Sans, Arial, Helvetica, sans" font-size="10.00">OperatorTimesKet</text>
</a>
</g>
</g>
<!-- State&#45;&gt;OperatorTimesKet -->
<g id="edge20" class="edge">
<title>State&#45;&gt;OperatorTimesKet</title>
<path fill="none" stroke="black" stroke-width="0.5" d="M555.29,-128.01C570.96,-137.96 594.24,-154.98 608,-175.5 638.06,-220.34 605.65,-253.51 644,-291.5 646.28,-293.76 648.84,-295.74 651.57,-297.47"/>
<polygon fill="black" stroke="black" stroke-width="0.5" points="650.79,-299.04 656,-299.99 652.52,-296 650.79,-299.04"/>
</g>
<!-- ScalarTimesKet -->
<g id="node27" class="node">
<title>ScalarTimesKet</title>
<g id="a_node27"><a xlink:href="../API/qalgebra.core.state_algebra.html#qalgebra.core.state_algebra.ScalarTimesKet" xlink:title="Product of a :class:`.Scalar` coefficient and a ket" target="_top">
<polygon fill="none" stroke="black" stroke-width="0.5" points="751,-208 659,-208 659,-189 751,-189 751,-208"/>
<text text-anchor="middle" x="705" y="-196" font-family="Vera Sans, DejaVu Sans, Liberation Sans, Arial, Helvetica, sans" font-size="10.00">ScalarTimesKet</text>
</a>
</g>
</g>
<!-- State&#45;&gt;ScalarTimesKet -->
<g id="edge34" class="edge">
<title>State&#45;&gt;ScalarTimesKet</title>
<path fill="none" stroke="black" stroke-width="0.5" d="M565.28,-125C578.63,-128.95 594.76,-134.73 608,-142.5 626.46,-153.33 625.79,-163.25 644,-174.5 651.89,-179.38 660.94,-183.61 669.59,-187.1"/>
<polygon fill="black" stroke="black" stroke-width="0.5" points="669.04,-188.77 674.33,-188.96 670.32,-185.51 669.04,-188.77"/>
</g>
<!-- StateDerivative -->
<g id="node29" class="node">
<title>StateDerivative</title>
<g id="a_node29"><a xlink:href="../API/qalgebra.core.state_algebra.html#qalgebra.core.state_algebra.StateDerivative" xlink:title="Symbolic partial derivative of a state" target="_top">
<polygon fill="none" stroke="black" stroke-width="0.5" points="899.5,-206 806.5,-206 806.5,-187 899.5,-187 899.5,-206"/>
<text text-anchor="middle" x="853" y="-194" font-family="Vera Sans, DejaVu Sans, Liberation Sans, Arial, Helvetica, sans" font-size="10.00">StateDerivative</text>
</a>
</g>
</g>
<!-- State&#45;&gt;StateDerivative -->
<g id="edge41" class="edge">
<title>State&#45;&gt;StateDerivative</title>
<path fill="none" stroke="black" stroke-width="0.5" d="M565.28,-118.35C608.36,-118.86 696.19,-123 766,-146.5 791.73,-155.16 818.3,-172.04 834.96,-183.78"/>
<polygon fill="black" stroke="black" stroke-width="0.5" points="834.31,-185.46 839.39,-186.94 836.34,-182.61 834.31,-185.46"/>
</g>
<!-- TensorKet -->
<g id="node30" class="node">
<title>TensorKet</title>
<g id="a_node30"><a xlink:href="../API/qalgebra.core.state_algebra.html#qalgebra.core.state_algebra.TensorKet" xlink:title="A tensor product of kets." target="_top">
<polygon fill="none" stroke="black" stroke-width="0.5" points="737,-245 673,-245 673,-226 737,-226 737,-245"/>
<text text-anchor="middle" x="705" y="-233" font-family="Vera Sans, DejaVu Sans, Liberation Sans, Arial, Helvetica, sans" font-size="10.00">TensorKet</text>
</a>
</g>
</g>
<!-- State&#45;&gt;TensorKet -->
<g id="edge42" class="edge">
<title>State&#45;&gt;TensorKet</title>
<path fill="none" stroke="black" stroke-width="0.5" d="M551.72,-128.02C565.97,-138.9 589.49,-157.54 608,-175.5 625.4,-192.39 623.7,-203.24 644,-216.5 651.2,-221.2 659.64,-224.81 667.88,-227.55"/>
<polygon fill="black" stroke="black" stroke-width="0.5" points="667.67,-229.32 672.97,-229.14 668.72,-225.98 667.67,-229.32"/>
</g>
<!-- QuantumAdjoint -->
<g id="node6" class="node">
<title>QuantumAdjoint</title>
<g id="a_node6"><a xlink:href="../API/qalgebra.core.abstract_quantum_algebra.html#qalgebra.core.abstract_quantum_algebra.QuantumAdjoint" xlink:title="Base class for adjoints of quantum expressions" target="_top">
<polygon fill="none" stroke="black" stroke-width="0.5" points="753,-393 657,-393 657,-374 753,-374 753,-393"/>
<text text-anchor="middle" x="705" y="-381" font-family="Vera Sans, DejaVu Sans, Liberation Sans, Arial, Helvetica, sans" font-size="10.00">QuantumAdjoint</text>
</a>
</g>
</g>
<!-- QuantumAdjoint&#45;&gt;Bra -->
<g id="edge4" class="edge">
<title>QuantumAdjoint&#45;&gt;Bra</title>
<path fill="none" stroke="black" stroke-width="0.5" d="M753.24,-374.99C758.03,-372.56 762.43,-369.46 766,-365.5 823,-302.35 773.53,-257.67 802,-177.5 812.49,-147.97 831.26,-116.42 842.58,-98.7"/>
<polygon fill="black" stroke="black" stroke-width="0.5" points="844.32,-99.24 845.56,-94.09 841.38,-97.34 844.32,-99.24"/>
</g>
<!-- BraKet -->
<g id="node7" class="node">
<title>BraKet</title>
<g id="a_node7"><a xlink:href="../API/qalgebra.core.state_algebra.html#qalgebra.core.state_algebra.BraKet" xlink:title="The symbolic inner product between two states" target="_top">
<polygon fill="none" stroke="black" stroke-width="0.5" points="732,-356 678,-356 678,-337 732,-337 732,-356"/>
<text text-anchor="middle" x="705" y="-344" font-family="Vera Sans, DejaVu Sans, Liberation Sans, Arial, Helvetica, sans" font-size="10.00">BraKet</text>
</a>
</g>
</g>
<!-- ScalarExpression -->
<g id="node8" class="node">
<title>ScalarExpression</title>
<g id="a_node8"><a xlink:href="../API/qalgebra.core.scalar_algebra.html#qalgebra.core.scalar_algebra.ScalarExpression" xlink:title="Base class for scalars with non&#45;scalar arguments" target="_top">
<polygon fill="none" stroke="black" stroke-width="0.5" points="588,-204 488,-204 488,-185 588,-185 588,-204"/>
<text text-anchor="middle" x="538" y="-192" font-family="Vera Sans, DejaVu Sans, Liberation Sans, Arial, Helvetica, sans" font-size="10.00">ScalarExpression</text>
</a>
</g>
</g>
<!-- ScalarExpression&#45;&gt;BraKet -->
<g id="edge5" class="edge">
<title>ScalarExpression&#45;&gt;BraKet</title>
<path fill="none" stroke="black" stroke-width="0.5" d="M588.26,-200.71C595.54,-203.41 602.45,-207.2 608,-212.5 647.03,-249.79 605.65,-290.51 644,-328.5 651.7,-336.13 662.5,-340.55 672.82,-343.1"/>
<polygon fill="black" stroke="black" stroke-width="0.5" points="672.58,-344.83 677.83,-344.2 673.33,-341.42 672.58,-344.83"/>
</g>
<!-- Operation -->
<g id="node9" class="node">
<title>Operation</title>
<g id="a_node9"><a xlink:href="../API/qalgebra.core.abstract_algebra.html#qalgebra.core.abstract_algebra.Operation" xlink:title="Base class for &quot;operations&quot;" target="_top">
<polygon fill="none" stroke="black" stroke-width="0.5" points="196,-315 131,-315 131,-296 196,-296 196,-315"/>
<text text-anchor="middle" x="163.5" y="-303" font-family="Vera Sans, DejaVu Sans, Liberation Sans, Arial, Helvetica, sans" font-size="10.00">Operation</text>
</a>
</g>
</g>
<!-- Operation&#45;&gt;BraKet -->
<g id="edge6" class="edge">
<title>Operation&#45;&gt;BraKet</title>
<path fill="none" stroke="black" stroke-width="0.5" d="M181.94,-315.04C200.08,-324.38 229.6,-337.99 257,-343.5 410.43,-374.32 599.51,-358.45 672.87,-350.32"/>
<polygon fill="black" stroke="black" stroke-width="0.5" points="673.18,-352.04 677.95,-349.75 672.78,-348.57 673.18,-352.04"/>
</g>
<!-- IndexedSum -->
<g id="node12" class="node">
<title>IndexedSum</title>
<g id="a_node12"><a xlink:href="../API/qalgebra.core.indexed_operations.html#qalgebra.core.indexed_operations.IndexedSum" xlink:title="Base class for indexed sums." target="_top">
<polygon fill="none" stroke="black" stroke-width="0.5" points="383,-448 306,-448 306,-429 383,-429 383,-448"/>
<text text-anchor="middle" x="344.5" y="-436" font-family="Vera Sans, DejaVu Sans, Liberation Sans, Arial, Helvetica, sans" font-size="10.00">IndexedSum</text>
</a>
</g>
</g>
<!-- Operation&#45;&gt;IndexedSum -->
<g id="edge8" class="edge">
<title>Operation&#45;&gt;IndexedSum</title>
<path fill="none" stroke="black" stroke-width="0.5" d="M172.61,-315.17C187.78,-332.84 222.08,-370.76 257,-395.5 274.89,-408.17 297.06,-419.12 314.48,-426.79"/>
<polygon fill="black" stroke="black" stroke-width="0.5" points="313.97,-428.48 319.25,-428.87 315.37,-425.27 313.97,-428.48"/>
</g>
<!-- KetBra -->
<g id="node13" class="node">
<title>KetBra</title>
<g id="a_node13"><a xlink:href="../API/qalgebra.core.state_algebra.html#qalgebra.core.state_algebra.KetBra" xlink:title="Outer product of two states" target="_top">
<polygon fill="none" stroke="black" stroke-width="0.5" points="565,-241 511,-241 511,-222 565,-222 565,-241"/>
<text text-anchor="middle" x="538" y="-229" font-family="Vera Sans, DejaVu Sans, Liberation Sans, Arial, Helvetica, sans" font-size="10.00">KetBra</text>
</a>
</g>
</g>
<!-- Operation&#45;&gt;KetBra -->
<g id="edge10" class="edge">
<title>Operation&#45;&gt;KetBra</title>
<path fill="none" stroke="black" stroke-width="0.5" d="M196.26,-299.19C266.73,-285.19 435.5,-251.66 505.62,-237.73"/>
<polygon fill="black" stroke="black" stroke-width="0.5" points="506.33,-239.38 510.89,-236.69 505.65,-235.94 506.33,-239.38"/>
</g>
<!-- Operation&#45;&gt;OperatorTimesKet -->
<g id="edge21" class="edge">
<title>Operation&#45;&gt;OperatorTimesKet</title>
<path fill="none" stroke="black" stroke-width="0.5" d="M196.36,-313.71C214.08,-317.85 236.61,-322.43 257,-324.5 412.2,-340.27 452.47,-336.58 608,-324.5 620.77,-323.51 634.41,-321.79 647.28,-319.85"/>
<polygon fill="black" stroke="black" stroke-width="0.5" points="647.68,-321.56 652.36,-319.07 647.15,-318.1 647.68,-321.56"/>
</g>
<!-- QuantumOperation -->
<g id="node24" class="node">
<title>QuantumOperation</title>
<g id="a_node24"><a xlink:href="../API/qalgebra.core.abstract_quantum_algebra.html#qalgebra.core.abstract_quantum_algebra.QuantumOperation" xlink:title="Base class for operations on quantum expression" target="_top">
<polygon fill="none" stroke="black" stroke-width="0.5" points="399.5,-315 289.5,-315 289.5,-296 399.5,-296 399.5,-315"/>
<text text-anchor="middle" x="344.5" y="-303" font-family="Vera Sans, DejaVu Sans, Liberation Sans, Arial, Helvetica, sans" font-size="10.00">QuantumOperation</text>
</a>
</g>
</g>
<!-- Operation&#45;&gt;QuantumOperation -->
<g id="edge28" class="edge">
<title>Operation&#45;&gt;QuantumOperation</title>
<path fill="none" stroke="black" stroke-width="0.5" d="M196.09,-305.5C220.47,-305.5 254.91,-305.5 284.36,-305.5"/>
<polygon fill="black" stroke="black" stroke-width="0.5" points="284.42,-307.25 289.42,-305.5 284.42,-303.75 284.42,-307.25"/>
</g>
<!-- ScalarTimesQuantumExpression -->
<g id="node28" class="node">
<title>ScalarTimesQuantumExpression</title>
<g id="a_node28"><a xlink:href="../API/qalgebra.core.abstract_quantum_algebra.html#qalgebra.core.abstract_quantum_algebra.ScalarTimesQuantumExpression" xlink:title="Product of a :class:`.Scalar` and a :class:`.QuantumExpression`" target="_top">
<polygon fill="none" stroke="black" stroke-width="0.5" points="432,-165 257,-165 257,-146 432,-146 432,-165"/>
<text text-anchor="middle" x="344.5" y="-153" font-family="Vera Sans, DejaVu Sans, Liberation Sans, Arial, Helvetica, sans" font-size="10.00">ScalarTimesQuantumExpression</text>
</a>
</g>
</g>
<!-- Operation&#45;&gt;ScalarTimesQuantumExpression -->
<g id="edge37" class="edge">
<title>Operation&#45;&gt;ScalarTimesQuantumExpression</title>
<path fill="none" stroke="black" stroke-width="0.5" d="M170.01,-295.81C185.94,-268.13 232.46,-189.66 257,-173.5 260.68,-171.07 264.63,-168.97 268.73,-167.14"/>
<polygon fill="black" stroke="black" stroke-width="0.5" points="269.67,-168.64 273.62,-165.11 268.33,-165.41 269.67,-168.64"/>
</g>
<!-- Expression -->
<g id="node11" class="node">
<title>Expression</title>
<g id="a_node11"><a xlink:href="../API/qalgebra.core.abstract_algebra.html#qalgebra.core.abstract_algebra.Expression" xlink:title="Base class for all QAlgebra Expressions." target="_top">
<polygon fill="none" stroke="black" stroke-width="0.5" points="70,-258 0,-258 0,-239 70,-239 70,-258"/>
<text text-anchor="middle" x="35" y="-246" font-family="Vera Sans, DejaVu Sans, Liberation Sans, Arial, Helvetica, sans" font-size="10.00">Expression</text>
</a>
</g>
</g>
<!-- Expression&#45;&gt;Operation -->
<g id="edge18" class="edge">
<title>Expression&#45;&gt;Operation</title>
<path fill="none" stroke="black" stroke-width="0.5" d="M57.17,-258.04C78.97,-267.86 112.98,-283.19 136.42,-293.75"/>
<polygon fill="black" stroke="black" stroke-width="0.5" points="135.98,-295.47 141.26,-295.93 137.42,-292.28 135.98,-295.47"/>
</g>
<!-- QuantumExpression -->
<g id="node20" class="node">
<title>QuantumExpression</title>
<g id="a_node20"><a xlink:href="../API/qalgebra.core.abstract_quantum_algebra.html#qalgebra.core.abstract_quantum_algebra.QuantumExpression" xlink:title="Base class for expressions associated with a Hilbert space" target="_top">
<polygon fill="none" stroke="black" stroke-width="0.5" points="221,-202 106,-202 106,-183 221,-183 221,-202"/>
<text text-anchor="middle" x="163.5" y="-190" font-family="Vera Sans, DejaVu Sans, Liberation Sans, Arial, Helvetica, sans" font-size="10.00">QuantumExpression</text>
</a>
</g>
</g>
<!-- Expression&#45;&gt;QuantumExpression -->
<g id="edge24" class="edge">
<title>Expression&#45;&gt;QuantumExpression</title>
<path fill="none" stroke="black" stroke-width="0.5" d="M57.75,-238.87C79.51,-229.24 113.01,-214.41 136.24,-204.12"/>
<polygon fill="black" stroke="black" stroke-width="0.5" points="137.17,-205.63 141.04,-202 135.76,-202.42 137.17,-205.63"/>
</g>
<!-- QuantumIndexedSum -->
<g id="node16" class="node">
<title>QuantumIndexedSum</title>
<g id="a_node16"><a xlink:href="../API/qalgebra.core.abstract_quantum_algebra.html#qalgebra.core.abstract_quantum_algebra.QuantumIndexedSum" xlink:title="Base class for indexed sums of quantum expressions." target="_top">
<polygon fill="none" stroke="black" stroke-width="0.5" points="766,-467 644,-467 644,-448 766,-448 766,-467"/>
<text text-anchor="middle" x="705" y="-455" font-family="Vera Sans, DejaVu Sans, Liberation Sans, Arial, Helvetica, sans" font-size="10.00">QuantumIndexedSum</text>
</a>
</g>
</g>
<!-- IndexedSum&#45;&gt;QuantumIndexedSum -->
<g id="edge25" class="edge">
<title>IndexedSum&#45;&gt;QuantumIndexedSum</title>
<path fill="none" stroke="black" stroke-width="0.5" d="M383.19,-440.5C443.84,-443.71 563.87,-450.07 638.68,-454.04"/>
<polygon fill="black" stroke="black" stroke-width="0.5" points="638.91,-455.8 643.99,-454.32 639.09,-452.31 638.91,-455.8"/>
</g>
<!-- Operator -->
<g id="node14" class="node">
<title>Operator</title>
<g id="a_node14"><a xlink:href="../API/qalgebra.core.operator_algebra.html#qalgebra.core.operator_algebra.Operator" xlink:title="Base class for all quantum operators." target="_top">
<polygon fill="none" stroke="black" stroke-width="0.5" points="374,-239 315,-239 315,-220 374,-220 374,-239"/>
<text text-anchor="middle" x="344.5" y="-227" font-family="Vera Sans, DejaVu Sans, Liberation Sans, Arial, Helvetica, sans" font-size="10.00">Operator</text>
</a>
</g>
</g>
<!-- Operator&#45;&gt;KetBra -->
<g id="edge9" class="edge">
<title>Operator&#45;&gt;KetBra</title>
<path fill="none" stroke="black" stroke-width="0.5" d="M374.17,-229.8C409.47,-230.17 469.23,-230.79 505.7,-231.17"/>
<polygon fill="black" stroke="black" stroke-width="0.5" points="505.89,-232.93 510.91,-231.23 505.92,-229.43 505.89,-232.93"/>
</g>
<!-- QuantumIndexedSum&#45;&gt;KetIndexedSum -->
<g id="edge12" class="edge">
<title>QuantumIndexedSum&#45;&gt;KetIndexedSum</title>
<path fill="none" stroke="black" stroke-width="0.5" d="M750.63,-447.99C756.1,-445.74 761.38,-442.95 766,-439.5 808.09,-408.12 835.6,-349.6 846.58,-322.7"/>
<polygon fill="black" stroke="black" stroke-width="0.5" points="848.21,-323.35 848.44,-318.06 844.96,-322.05 848.21,-323.35"/>
</g>
<!-- QuantumPlus -->
<g id="node18" class="node">
<title>QuantumPlus</title>
<g id="a_node18"><a xlink:href="../API/qalgebra.core.abstract_quantum_algebra.html#qalgebra.core.abstract_quantum_algebra.QuantumPlus" xlink:title="General implementation of addition of quantum expressions" target="_top">
<polygon fill="none" stroke="black" stroke-width="0.5" points="579,-315 497,-315 497,-296 579,-296 579,-315"/>
<text text-anchor="middle" x="538" y="-303" font-family="Vera Sans, DejaVu Sans, Liberation Sans, Arial, Helvetica, sans" font-size="10.00">QuantumPlus</text>
</a>
</g>
</g>
<!-- QuantumPlus&#45;&gt;KetPlus -->
<g id="edge14" class="edge">
<title>QuantumPlus&#45;&gt;KetPlus</title>
<path fill="none" stroke="black" stroke-width="0.5" d="M579.36,-297.43C608.16,-291.67 646.33,-284.03 672.81,-278.74"/>
<polygon fill="black" stroke="black" stroke-width="0.5" points="673.38,-280.41 677.94,-277.71 672.69,-276.98 673.38,-280.41"/>
</g>
<!-- QuantumSymbol -->
<g id="node19" class="node">
<title>QuantumSymbol</title>
<g id="a_node19"><a xlink:href="../API/qalgebra.core.abstract_quantum_algebra.html#qalgebra.core.abstract_quantum_algebra.QuantumSymbol" xlink:title="Symbolic element of an algebra." target="_top">
<polygon fill="none" stroke="black" stroke-width="0.5" points="393.5,-72 295.5,-72 295.5,-53 393.5,-53 393.5,-72"/>
<text text-anchor="middle" x="344.5" y="-60" font-family="Vera Sans, DejaVu Sans, Liberation Sans, Arial, Helvetica, sans" font-size="10.00">QuantumSymbol</text>
</a>
</g>
</g>
<!-- QuantumSymbol&#45;&gt;KetSymbol -->
<g id="edge15" class="edge">
<title>QuantumSymbol&#45;&gt;KetSymbol</title>
<path fill="none" stroke="black" stroke-width="0.5" d="M393.85,-55.35C465.75,-44.72 599.43,-24.96 665.29,-15.22"/>
<polygon fill="black" stroke="black" stroke-width="0.5" points="665.61,-16.94 670.3,-14.48 665.1,-13.48 665.61,-16.94"/>
</g>
<!-- QuantumExpression&#45;&gt;State -->
<g id="edge39" class="edge">
<title>QuantumExpression&#45;&gt;State</title>
<path fill="none" stroke="black" stroke-width="0.5" d="M176.15,-182.86C192.85,-169.67 225.12,-146.51 257,-136.5 343.72,-109.27 452.77,-112.17 505.54,-115.75"/>
<polygon fill="black" stroke="black" stroke-width="0.5" points="505.66,-117.51 510.77,-116.12 505.91,-114.02 505.66,-117.51"/>
</g>
<!-- QuantumExpression&#45;&gt;Operator -->
<g id="edge19" class="edge">
<title>QuantumExpression&#45;&gt;Operator</title>
<path fill="none" stroke="black" stroke-width="0.5" d="M210.6,-202.03C241.61,-208.44 281.79,-216.74 309.82,-222.54"/>
<polygon fill="black" stroke="black" stroke-width="0.5" points="309.65,-224.29 314.9,-223.59 310.36,-220.86 309.65,-224.29"/>
</g>
<!-- QuantumExpression&#45;&gt;QuantumSymbol -->
<g id="edge30" class="edge">
<title>QuantumExpression&#45;&gt;QuantumSymbol</title>
<path fill="none" stroke="black" stroke-width="0.5" d="M172.59,-182.88C187.72,-165.32 221.97,-127.69 257,-103.5 274.37,-91.5 295.81,-81.31 313,-74.09"/>
<polygon fill="black" stroke="black" stroke-width="0.5" points="313.77,-75.67 317.72,-72.14 312.43,-72.43 313.77,-75.67"/>
</g>
<!-- QuantumExpression&#45;&gt;QuantumOperation -->
<g id="edge27" class="edge">
<title>QuantumExpression&#45;&gt;QuantumOperation</title>
<path fill="none" stroke="black" stroke-width="0.5" d="M179.76,-202.13C212.13,-222.57 287.63,-270.23 323.67,-292.98"/>
<polygon fill="black" stroke="black" stroke-width="0.5" points="323.11,-294.7 328.28,-295.89 324.98,-291.74 323.11,-294.7"/>
</g>
<!-- Scalar -->
<g id="node26" class="node">
<title>Scalar</title>
<g id="a_node26"><a xlink:href="../API/qalgebra.core.scalar_algebra.html#qalgebra.core.scalar_algebra.Scalar" xlink:title="Base class for Scalars" target="_top">
<polygon fill="none" stroke="black" stroke-width="0.5" points="371.5,-202 317.5,-202 317.5,-183 371.5,-183 371.5,-202"/>
<text text-anchor="middle" x="344.5" y="-190" font-family="Vera Sans, DejaVu Sans, Liberation Sans, Arial, Helvetica, sans" font-size="10.00">Scalar</text>
</a>
</g>
</g>
<!-- QuantumExpression&#45;&gt;Scalar -->
<g id="edge32" class="edge">
<title>QuantumExpression&#45;&gt;Scalar</title>
<path fill="none" stroke="black" stroke-width="0.5" d="M221.14,-192.5C251.16,-192.5 286.92,-192.5 312,-192.5"/>
<polygon fill="black" stroke="black" stroke-width="0.5" points="312.18,-194.25 317.18,-192.5 312.18,-190.75 312.18,-194.25"/>
</g>
<!-- QuantumExpression&#45;&gt;ScalarTimesQuantumExpression -->
<g id="edge36" class="edge">
<title>QuantumExpression&#45;&gt;ScalarTimesQuantumExpression</title>
<path fill="none" stroke="black" stroke-width="0.5" d="M210.6,-182.97C235.55,-177.81 266.45,-171.43 292.18,-166.11"/>
<polygon fill="black" stroke="black" stroke-width="0.5" points="292.71,-167.79 297.25,-165.06 292,-164.36 292.71,-167.79"/>
</g>
<!-- SingleQuantumOperation -->
<g id="node22" class="node">
<title>SingleQuantumOperation</title>
<g id="a_node22"><a xlink:href="../API/qalgebra.core.abstract_quantum_algebra.html#qalgebra.core.abstract_quantum_algebra.SingleQuantumOperation" xlink:title="Base class for operations on a single quantum expression" target="_top">
<polygon fill="none" stroke="black" stroke-width="0.5" points="608,-429 468,-429 468,-410 608,-410 608,-429"/>
<text text-anchor="middle" x="538" y="-417" font-family="Vera Sans, DejaVu Sans, Liberation Sans, Arial, Helvetica, sans" font-size="10.00">SingleQuantumOperation</text>
</a>
</g>
</g>
<!-- SingleQuantumOperation&#45;&gt;QuantumAdjoint -->
<g id="edge22" class="edge">
<title>SingleQuantumOperation&#45;&gt;QuantumAdjoint</title>
<path fill="none" stroke="black" stroke-width="0.5" d="M582.78,-409.95C605.06,-405.09 632.21,-399.16 655.17,-394.15"/>
<polygon fill="black" stroke="black" stroke-width="0.5" points="655.79,-395.81 660.3,-393.03 655.04,-392.39 655.79,-395.81"/>
</g>
<!-- SingleQuantumOperation&#45;&gt;QuantumIndexedSum -->
<g id="edge26" class="edge">
<title>SingleQuantumOperation&#45;&gt;QuantumIndexedSum</title>
<path fill="none" stroke="black" stroke-width="0.5" d="M580.64,-429.09C604.08,-434.49 633.41,-441.24 657.59,-446.81"/>
<polygon fill="black" stroke="black" stroke-width="0.5" points="657.4,-448.56 662.66,-447.98 658.18,-445.15 657.4,-448.56"/>
</g>
<!-- QuantumDerivative -->
<g id="node23" class="node">
<title>QuantumDerivative</title>
<g id="a_node23"><a xlink:href="../API/qalgebra.core.abstract_quantum_algebra.html#qalgebra.core.abstract_quantum_algebra.QuantumDerivative" xlink:title="Symbolic partial derivative." target="_top">
<polygon fill="none" stroke="black" stroke-width="0.5" points="761.5,-430 648.5,-430 648.5,-411 761.5,-411 761.5,-430"/>
<text text-anchor="middle" x="705" y="-418" font-family="Vera Sans, DejaVu Sans, Liberation Sans, Arial, Helvetica, sans" font-size="10.00">QuantumDerivative</text>
</a>
</g>
</g>
<!-- SingleQuantumOperation&#45;&gt;QuantumDerivative -->
<g id="edge23" class="edge">
<title>SingleQuantumOperation&#45;&gt;QuantumDerivative</title>
<path fill="none" stroke="black" stroke-width="0.5" d="M608.02,-419.92C619.66,-419.99 631.67,-420.06 643.08,-420.13"/>
<polygon fill="black" stroke="black" stroke-width="0.5" points="643.27,-421.88 648.28,-420.16 643.29,-418.38 643.27,-421.88"/>
</g>
<!-- QuantumDerivative&#45;&gt;StateDerivative -->
<g id="edge40" class="edge">
<title>QuantumDerivative&#45;&gt;StateDerivative</title>
<path fill="none" stroke="black" stroke-width="0.5" d="M753.97,-410.96C758.39,-408.7 762.51,-405.93 766,-402.5 803.33,-365.89 781.64,-338.66 802,-290.5 814.37,-261.24 832.66,-228.91 843.35,-210.81"/>
<polygon fill="black" stroke="black" stroke-width="0.5" points="845.1,-211.29 846.15,-206.1 842.09,-209.5 845.1,-211.29"/>
</g>
<!-- QuantumOperation&#45;&gt;QuantumPlus -->
<g id="edge29" class="edge">
<title>QuantumOperation&#45;&gt;QuantumPlus</title>
<path fill="none" stroke="black" stroke-width="0.5" d="M399.61,-305.5C428.66,-305.5 464.06,-305.5 491.65,-305.5"/>
<polygon fill="black" stroke="black" stroke-width="0.5" points="491.71,-307.25 496.71,-305.5 491.71,-303.75 491.71,-307.25"/>
</g>
<!-- QuantumOperation&#45;&gt;SingleQuantumOperation -->
<g id="edge38" class="edge">
<title>QuantumOperation&#45;&gt;SingleQuantumOperation</title>
<path fill="none" stroke="black" stroke-width="0.5" d="M361.5,-315.02C396.14,-335.64 478.04,-384.4 516.45,-407.27"/>
<polygon fill="black" stroke="black" stroke-width="0.5" points="515.72,-408.87 520.91,-409.92 517.51,-405.86 515.72,-408.87"/>
</g>
<!-- QuantumTimes -->
<g id="node25" class="node">
<title>QuantumTimes</title>
<g id="a_node25"><a xlink:href="../API/qalgebra.core.abstract_quantum_algebra.html#qalgebra.core.abstract_quantum_algebra.QuantumTimes" xlink:title="General implementation of product of quantum expressions" target="_top">
<polygon fill="none" stroke="black" stroke-width="0.5" points="584,-278 492,-278 492,-259 584,-259 584,-278"/>
<text text-anchor="middle" x="538" y="-266" font-family="Vera Sans, DejaVu Sans, Liberation Sans, Arial, Helvetica, sans" font-size="10.00">QuantumTimes</text>
</a>
</g>
</g>
<!-- QuantumOperation&#45;&gt;QuantumTimes -->
<g id="edge31" class="edge">
<title>QuantumOperation&#45;&gt;QuantumTimes</title>
<path fill="none" stroke="black" stroke-width="0.5" d="M394.82,-295.97C422.98,-290.53 458.23,-283.72 486.58,-278.24"/>
<polygon fill="black" stroke="black" stroke-width="0.5" points="487.21,-279.9 491.79,-277.24 486.55,-276.47 487.21,-279.9"/>
</g>
<!-- QuantumTimes&#45;&gt;TensorKet -->
<g id="edge43" class="edge">
<title>QuantumTimes&#45;&gt;TensorKet</title>
<path fill="none" stroke="black" stroke-width="0.5" d="M584.09,-259.48C610.37,-254.23 643.07,-247.69 667.68,-242.76"/>
<polygon fill="black" stroke="black" stroke-width="0.5" points="668.25,-244.44 672.81,-241.74 667.56,-241 668.25,-244.44"/>
</g>
<!-- Scalar&#45;&gt;ScalarExpression -->
<g id="edge33" class="edge">
<title>Scalar&#45;&gt;ScalarExpression</title>
<path fill="none" stroke="black" stroke-width="0.5" d="M371.73,-192.77C400.14,-193.07 446.27,-193.55 482.58,-193.93"/>
<polygon fill="black" stroke="black" stroke-width="0.5" points="482.85,-195.68 487.87,-193.99 482.88,-192.18 482.85,-195.68"/>
</g>
<!-- ScalarTimesQuantumExpression&#45;&gt;ScalarTimesKet -->
<g id="edge35" class="edge">
<title>ScalarTimesQuantumExpression&#45;&gt;ScalarTimesKet</title>
<path fill="none" stroke="black" stroke-width="0.5" d="M432.21,-158.64C483.55,-161.36 549.75,-166.36 608,-175.5 626.87,-178.46 647.51,-183.2 664.8,-187.62"/>
<polygon fill="black" stroke="black" stroke-width="0.5" points="664.77,-189.42 670.05,-188.97 665.65,-186.03 664.77,-189.42"/>
</g>
</g>
</svg>
